<?xml version="1.0" encoding="UTF-8" standalone="no"?>
<!-- Created with Inkscape (http://www.inkscape.org/) -->

<svg
   xmlns:dc="http://purl.org/dc/elements/1.1/"
   xmlns:cc="http://creativecommons.org/ns#"
   xmlns:rdf="http://www.w3.org/1999/02/22-rdf-syntax-ns#"
   xmlns:svg="http://www.w3.org/2000/svg"
   xmlns="http://www.w3.org/2000/svg"
   xmlns:sodipodi="http://sodipodi.sourceforge.net/DTD/sodipodi-0.dtd"
   xmlns:inkscape="http://www.inkscape.org/namespaces/inkscape"
   width="140.54904mm"
   height="87.671173mm"
   viewBox="0 0 140.54904 87.671173"
   version="1.1"
   id="svg8"
   inkscape:version="0.92.2 (5c3e80d, 2017-08-06)"
   sodipodi:docname="cbi+matchat-logo.svg">
  <defs
     id="defs2" />
  <sodipodi:namedview
     id="base"
     pagecolor="#ffffff"
     bordercolor="#666666"
     borderopacity="1.0"
     inkscape:pageopacity="0.0"
     inkscape:pageshadow="2"
     inkscape:zoom="0.98994949"
     inkscape:cx="775.44154"
     inkscape:cy="68.143525"
     inkscape:document-units="mm"
     inkscape:current-layer="layer1"
     showgrid="false"
     inkscape:snap-object-midpoints="true"
     inkscape:snap-center="true"
     fit-margin-top="0"
     fit-margin-left="0"
     fit-margin-right="0"
     fit-margin-bottom="0"
     inkscape:window-width="2560"
     inkscape:window-height="1377"
     inkscape:window-x="2552"
     inkscape:window-y="-8"
     inkscape:window-maximized="1">
    <sodipodi:guide
       position="-7.4618834,34.055464"
       orientation="0,706.09662"
       id="guide1425"
       inkscape:locked="false" />
    <sodipodi:guide
       position="27.671017,15.491704"
       orientation="-136.08771,164.10575"
       id="guide1431"
       inkscape:locked="false" />
    <sodipodi:guide
       position="27.671017,51.042853"
       orientation="131.69817,164.10575"
       id="guide1433"
       inkscape:locked="false" />
  </sodipodi:namedview>
  <metadata
     id="metadata5">
    <rdf:RDF>
      <cc:Work
         rdf:about="">
        <dc:format>image/svg+xml</dc:format>
        <dc:type
           rdf:resource="http://purl.org/dc/dcmitype/StillImage" />
        <dc:title></dc:title>
      </cc:Work>
    </rdf:RDF>
  </metadata>
  <g
     inkscape:label="Layer 1"
     inkscape:groupmode="layer"
     id="layer1"
     transform="translate(-61.450326,-173.0924)">
    <g
       id="g1400"
       transform="matrix(1.4545691,0,0,1.4545691,140.90747,197.32363)">
      <path
         style="fill:#ef4646"
         inkscape:connector-curvature="0"
         id="path2"
         d="M 21,42 C 32.598,42 42,32.598 42,21 42,9.402 32.598,0 21,0 9.402,0 0,9.402 0,21 0,32.598 9.402,42 21,42" />
      <path
         style="fill:#ffffff"
         inkscape:connector-curvature="0"
         id="path4"
         d="m 32.69,25.87 c 0,1.31 -1.065,2.376 -2.375,2.376 -1.311,0 -2.376,-1.066 -2.376,-2.376 0,-0.814 0.412,-1.533 1.039,-1.961 l -2.859,-7.034 c -0.104,0.014 -0.205,0.031 -0.312,0.031 -0.162,0 -0.319,-0.017 -0.472,-0.048 l -2.565,7.278 c 0.433,0.43 0.701,1.025 0.701,1.683 0,1.31 -1.065,2.376 -2.376,2.376 -1.31,0 -2.375,-1.066 -2.375,-2.376 0,-0.657 0.269,-1.252 0.702,-1.683 l -2.564,-7.277 c -0.153,0.031 -0.312,0.048 -0.474,0.048 -0.106,0 -0.207,-0.018 -0.31,-0.031 l -2.907,7.154 c 0.541,0.436 0.894,1.095 0.894,1.841 0,1.31 -1.065,2.376 -2.375,2.376 -1.31,0 -2.376,-1.066 -2.376,-2.376 0,-1.31 1.066,-2.375 2.376,-2.375 0.026,0 0.05,0.007 0.076,0.008 l 2.959,-7.281 c -0.438,-0.431 -0.712,-1.03 -0.712,-1.692 0,-1.309 1.065,-2.374 2.375,-2.374 1.31,0 2.376,1.065 2.376,2.374 0,0.594 -0.227,1.13 -0.587,1.547 l 2.608,7.399 c 0.104,-0.014 0.207,-0.032 0.315,-0.032 0.108,0 0.212,0.018 0.317,0.032 l 2.607,-7.398 c -0.361,-0.417 -0.588,-0.955 -0.588,-1.549 0,-1.309 1.065,-2.374 2.375,-2.374 1.311,0 2.376,1.065 2.376,2.374 0,0.662 -0.273,1.261 -0.712,1.692 l 2.962,7.285 c 1.255,0.063 2.257,1.094 2.257,2.363 z" />
    </g>
    <path
       style="fill:#006da6;fill-opacity:1;stroke-width:0.35300529"
       d="m 99.534995,260.42911 c -10.97807,-1.49739 -17.43043,-3.69099 -24.35736,-8.28073 -6.61556,-4.38343 -11.07691,-10.38188 -12.93739,-17.39481 -1.05077,-3.96078 -1.05367,-10.88438 -0.006,-14.63704 1.4866,-5.32551 4.11986,-9.60689 8.42247,-13.69395 7.64799,-7.26484 18.78873,-11.82391 32.003255,-13.09652 5.8648,-0.5648 21.1219,-0.14427 27.04756,0.74552 4.17076,0.62627 10.17258,1.94076 10.54029,2.30848 0.0705,0.0705 -1.00259,1.78944 -2.38468,3.81986 l -2.51288,3.69166 -2.19883,-0.68767 c -9.29358,-2.90653 -27.97649,-3.22869 -37.761895,-0.65115 -6.14557,1.61879 -9.40018,3.46144 -13.72697,7.77176 -2.57681,2.56699 -3.2925,3.549 -4.64328,6.37111 -2.06891,4.32246 -2.51654,6.33563 -2.50789,11.27898 0.01,5.64496 1.29535,9.49401 4.52225,13.5409 7.64257,9.58466 30.159545,14.2257 47.329895,9.75533 2.86473,-0.74585 8.96651,-3.51743 9.70634,-4.40888 0.33066,-0.39841 1.14387,0.0986 4.45067,2.72036 2.22535,1.76431 4.12648,3.33791 4.22473,3.49687 0.27429,0.44382 -4.43325,2.68271 -8.50684,4.04582 -7.99559,2.67549 -15.47248,3.69641 -26.62924,3.63605 -4.37582,-0.0237 -8.90915,-0.17305 -10.074065,-0.33195 z M 89.121345,227.4963 v -17.77558 l 6.97185,-0.23627 c 8.057685,-0.27306 12.170545,0.17838 15.496185,1.70091 3.64723,1.66975 5.06637,3.68405 5.06637,7.19108 0,1.72506 -0.17113,2.31538 -1.0049,3.46636 -0.55269,0.76297 -1.74409,1.77936 -2.64754,2.25864 -0.90345,0.47928 -1.64264,0.95354 -1.64264,1.05392 0,0.10038 0.75455,0.45108 1.67678,0.77934 4.31172,1.53472 6.44234,4.45918 6.44234,8.84267 0,2.24832 -0.1332,2.79729 -1.00927,4.15955 -1.38702,2.15675 -2.31945,2.93676 -5.02127,4.20047 -3.71373,1.73699 -6.70507,2.13448 -16.063335,2.13448 h -8.26457 z m 17.076415,12.33461 c 3.7917,-0.89204 5.29741,-2.77799 5.0678,-6.34762 -0.11945,-1.85721 -0.26976,-2.2055 -1.39806,-3.23951 -1.68978,-1.54857 -3.14642,-1.92042 -8.47923,-2.16456 l -4.500815,-0.20606 v 6.22832 6.22832 l 3.618305,-0.006 c 1.99007,-0.003 4.55147,-0.22505 5.692,-0.49337 z m -1.03124,-16.83672 c 0.7675,-0.21309 1.91918,-0.91115 2.55928,-1.55126 2.28593,-2.28593 1.17012,-5.5537 -2.21753,-6.49426 -0.76132,-0.21138 -3.01244,-0.38521 -5.00251,-0.38629 l -3.618305,-0.002 v 4.41257 4.41257 l 3.441805,-0.002 c 1.89299,-0.001 4.06975,-0.17631 4.83726,-0.38939 z m 19.60835,3.92141 v -17.65027 h 3.88306 3.88306 v 17.65027 17.65026 h -3.88306 -3.88306 z M 81.245925,187.8158 c -0.90506,-1.12841 -2.75982,-2.97982 -4.12169,-4.11423 -1.36186,-1.13442 -2.47611,-2.18779 -2.47611,-2.34083 0,-0.15304 0.54946,-0.61783 1.22101,-1.03287 0.67156,-0.41505 2.59369,-2.21282 4.27141,-3.99505 l 3.0504,-3.24042 1.09838,1.40697 c 1.38388,1.77265 3.84825,4.23301 5.83563,5.82609 l 1.53312,1.22896 -2.37743,1.92887 c -1.30758,1.06089 -3.17156,2.88769 -4.14217,4.05957 -0.97062,1.17187 -1.87325,2.17431 -2.00586,2.22764 -0.13261,0.0533 -0.98162,-0.82629 -1.88669,-1.9547 z m 3.83696,-1.15909 c 1.90536,-1.46997 4.39146,-4.36316 4.39146,-5.11054 0,-1.00991 -5.36557,-6.52235 -6.34857,-6.52235 -0.49751,0 -4.0696,3.11007 -5.22869,4.55241 -0.62201,0.774 -1.13093,1.66419 -1.13093,1.97819 0,0.81412 1.94246,3.12254 4.17203,4.95804 1.05059,0.86491 1.99639,1.57256 2.10176,1.57256 0.10538,0 1.0247,-0.64274 2.04294,-1.42831 z m -3.79893,-0.60147 c -1.57929,-1.40751 -3.46248,-3.41761 -3.89935,-4.16214 -0.43389,-0.73946 4.66561,-6.16327 5.79474,-6.16327 0.74258,0 5.58899,5.05071 5.58899,5.82459 0,0.78637 -4.85211,5.82459 -5.60944,5.82459 -0.21429,0 -1.05801,-0.5957 -1.87494,-1.32377 z m 2.36581,-1.77321 c 0,-1.3719 0.0743,-1.49297 0.91605,-1.49255 0.50383,2.5e-4 1.16683,-0.27753 1.47333,-0.6173 0.47238,-0.52366 0.48508,-0.71617 0.0833,-1.26382 -0.29646,-0.40413 -0.78208,-0.59297 -1.29683,-0.50428 -0.79589,0.13713 -0.78915,0.15587 0.20535,0.57093 1.13941,0.47554 0.93752,0.9222 -0.58699,1.29871 -0.92077,0.2274 -0.97077,0.17566 -0.97077,-1.00462 0,-0.6844 0.17529,-1.3028 0.38953,-1.37421 0.26385,-0.0879 0.1975,-0.5815 -0.20563,-1.52969 l -0.59517,-1.39985 -0.55224,1.35914 c -0.43545,1.07171 -0.45863,1.41698 -0.10963,1.63267 0.29391,0.18165 0.36121,0.64412 0.20032,1.37666 -0.27341,1.24481 -0.46904,1.32339 -1.44249,0.57941 -0.67125,-0.51303 -0.66911,-0.52825 0.10506,-0.74615 0.96512,-0.27164 0.70171,-0.84818 -0.38752,-0.84818 -0.85209,0 -1.63829,0.5996 -1.63829,1.24946 0,0.4783 1.51363,1.22158 2.48765,1.22158 0.58336,0 0.6894,0.2483 0.6894,1.61441 0,1.34861 0.1017,1.59434 0.61776,1.49255 0.47176,-0.0931 0.61776,-0.47471 0.61776,-1.61487 z m 10.41365,-2.55111 v -6.35409 h 1.58853 1.58852 v 6.35409 6.3541 h -1.58852 -1.58853 z m 5.29508,0 v -6.35409 h 4.765565 4.76557 v 1.23552 1.23551 h -3.00054 -3.00055 v 1.41203 1.41202 h 2.82405 2.82404 v 1.05901 1.05902 h -2.82404 -2.82405 v 1.41202 1.41202 h 3.00055 3.00054 v 1.23552 1.23552 h -4.76557 -4.765565 z m 12.002175,0 v -6.35409 h 4.76557 4.76557 v 1.23552 1.23551 h -3.17704 -3.17705 v 1.41203 1.41202 h 2.82404 2.82404 v 1.05901 1.05902 h -2.82404 -2.82404 v 1.39828 1.39827 l 3.0888,0.102 3.08879,0.10199 0.11062,1.14727 0.11062,1.14727 h -4.78794 -4.78794 z m 11.64918,0 v -6.35409 h 4.76557 4.76557 v 1.23552 1.23551 h -3.00055 -3.00054 v 1.41203 1.41202 h 2.82404 2.82404 v 1.05901 1.05902 h -2.82404 -2.82404 v 1.41202 1.41202 h 3.00054 3.00055 v 1.23552 1.23552 h -4.76557 -4.76557 z"
       id="path826"
       inkscape:connector-curvature="0" />
  </g>
</svg>
