<?xml version="1.0" encoding="UTF-8"?>
<!-- Generator: Adobe Illustrator 21.1.0, SVG Export Plug-In . SVG Version: 6.00 Build 0)  -->
<svg version="1.1" id="Layer_1" xmlns="http://www.w3.org/2000/svg" xmlns:xlink="http://www.w3.org/1999/xlink" x="0px" y="0px" viewBox="0 0 220.6 114.1" style="enable-background:new 0 0 220.6 114.1;" xml:space="preserve">
<g>
	<g>
		<path d="M97.5,27.9c0,0.1,0.1,0.1,0.1,0l1.7-6.2c0-0.1,0.1-0.2,0.3-0.2h1.3c0.1,0,0.2,0.1,0.2,0.2V30c0,0.1-0.1,0.2-0.2,0.2h-0.7    c-0.1,0-0.2-0.1-0.2-0.2v-6.2c0-0.1-0.1-0.1-0.1,0L98.1,30c0,0.1-0.1,0.2-0.3,0.2h-0.5c-0.1,0-0.2-0.1-0.3-0.2l-1.8-6.3    c0,0-0.1,0-0.1,0V30c0,0.1-0.1,0.2-0.2,0.2h-0.7c-0.1,0-0.2-0.1-0.2-0.2v-8.2c0-0.1,0.1-0.2,0.2-0.2h1.3c0.1,0,0.2,0.1,0.3,0.2    L97.5,27.9z"/>
		<path d="M104,22.5c0,0.1-0.1,0.2-0.2,0.2h-0.8c-0.1,0-0.2-0.1-0.2-0.2v-0.9c0-0.1,0.1-0.2,0.2-0.2h0.8c0.1,0,0.2,0.1,0.2,0.2V22.5    z M103.9,30c0,0.1-0.1,0.2-0.2,0.2H103c-0.1,0-0.2-0.1-0.2-0.2v-5.7c0-0.1,0.1-0.2,0.2-0.2h0.6c0.1,0,0.2,0.1,0.2,0.2V30z"/>
		<path d="M105.4,28c0-0.5,0-1.2,0-1.7c0.1-1.3,1.1-2.4,2.4-2.4c0.6,0,0.9,0.3,1.2,0.3c0.2,0,0.3-0.1,0.3-0.3v-2.2    c0-0.1,0.1-0.2,0.2-0.2h0.6c0.1,0,0.2,0.1,0.2,0.2V30c0,0.1-0.1,0.2-0.2,0.2h-0.4c-0.1,0-0.1,0-0.2-0.1c-0.1-0.1-0.2-0.2-0.3-0.2    c-0.4,0-0.5,0.4-1.4,0.4C106.4,30.3,105.4,29.3,105.4,28z M106.4,28c0,0.7,0.6,1.2,1.4,1.2c0.9,0,1.4-0.6,1.4-1.2    c0-0.5,0-1.2,0-1.7c0-0.7-0.6-1.2-1.4-1.2c-0.9,0-1.4,0.6-1.4,1.2C106.4,26.7,106.4,27.5,106.4,28z"/>
		<path d="M111.6,28c0-0.5,0-1.2,0-1.7c0.1-1.3,1.1-2.4,2.4-2.4c0.6,0,0.9,0.3,1.2,0.3c0.2,0,0.3-0.1,0.3-0.3v-2.2    c0-0.1,0.1-0.2,0.2-0.2h0.6c0.1,0,0.2,0.1,0.2,0.2V30c0,0.1-0.1,0.2-0.2,0.2h-0.4c-0.1,0-0.1,0-0.2-0.1c-0.1-0.1-0.2-0.2-0.3-0.2    c-0.4,0-0.5,0.4-1.4,0.4C112.7,30.3,111.7,29.3,111.6,28z M112.7,28c0,0.7,0.6,1.2,1.4,1.2c0.9,0,1.4-0.6,1.4-1.2    c0-0.5,0-1.2,0-1.7c0-0.7-0.6-1.2-1.4-1.2c-0.9,0-1.4,0.6-1.4,1.2C112.7,26.7,112.7,27.5,112.7,28z"/>
		<path d="M119.3,30c0,0.1-0.1,0.2-0.2,0.2h-0.6c-0.1,0-0.2-0.1-0.2-0.2v-8.3c0-0.1,0.1-0.2,0.2-0.2h0.6c0.1,0,0.2,0.1,0.2,0.2V30z"/>
		<path d="M121.9,27.5c-0.1,0-0.1,0.1-0.1,0.1c0,1.1,0.6,1.6,1.4,1.6c0.6,0,1.1-0.3,1.3-0.8c0-0.2,0.2-0.2,0.3-0.2h0.6    c0.1,0,0.2,0.1,0.2,0.2c-0.1,1.1-1.1,1.9-2.4,1.9c-1.5,0-2.5-1.1-2.6-2.4c0-0.5,0-1.2,0-1.7c0.1-1.3,1.1-2.4,2.6-2.4    c1.5,0,2.5,0.9,2.5,2.5v0.9c0,0.1-0.1,0.2-0.2,0.2H121.9z M121.8,26.3c0,0.1,0,0.1,0.1,0.1h2.6c0.1,0,0.1,0,0.1-0.1    c0-0.9-0.6-1.4-1.4-1.4C122.4,25,121.8,25.6,121.8,26.3z"/>
		<path d="M131.1,28.9c0,0.1,0.1,0.1,0.1,0.1h3c0.1,0,0.2,0.1,0.2,0.2V30c0,0.1-0.1,0.2-0.2,0.2h-4.1c-0.1,0-0.2-0.1-0.2-0.2v-8.2    c0-0.1,0.1-0.2,0.2-0.2h4c0.1,0,0.2,0.1,0.2,0.2v0.7c0,0.1-0.1,0.2-0.2,0.2h-3c-0.1,0-0.1,0.1-0.1,0.1V25c0,0.1,0.1,0.1,0.1,0.1    h2.8c0.1,0,0.2,0.1,0.2,0.2v0.7c0,0.1-0.1,0.2-0.2,0.2h-2.8c-0.1,0-0.1,0-0.1,0.1V28.9z"/>
		<path d="M135.7,24.2c0-0.1,0.1-0.2,0.2-0.2h0.6c0.1,0,0.2,0.1,0.2,0.2V28c0,0.7,0.5,1.2,1.4,1.2c0.8,0,1.4-0.5,1.4-1.2v-3.8    c0-0.1,0.1-0.2,0.2-0.2h0.6c0.1,0,0.2,0.1,0.2,0.2V30c0,0.1-0.1,0.2-0.2,0.2h-0.5c-0.1,0-0.1,0-0.2-0.1c-0.1-0.1-0.2-0.2-0.3-0.2    c-0.4,0-0.4,0.4-1.3,0.4c-1.4,0-2.4-1-2.4-2.4V24.2z"/>
		<path d="M145.2,25.1c-1,0-1.9,0.5-1.9,1.9v3c0,0.1-0.1,0.2-0.2,0.2h-0.6c-0.1,0-0.2-0.1-0.2-0.2v-5.7c0-0.1,0.1-0.2,0.2-0.2h0.4    c0.1,0,0.2,0.1,0.2,0.2c0,0.2,0,0.4,0.2,0.4c0.3,0,0.5-0.7,1.8-0.7h0.2c0.1,0,0.2,0.1,0.2,0.2v0.6c0,0.1-0.1,0.2-0.2,0.2H145.2z"/>
		<path d="M146,26.2c0.1-1.3,1.1-2.4,2.6-2.4c1.5,0,2.5,1.1,2.6,2.4c0,0.5,0,1.2,0,1.7c-0.1,1.3-1.1,2.4-2.6,2.4    c-1.5,0-2.5-1.1-2.6-2.4C145.9,27.5,145.9,26.7,146,26.2z M147.1,28c0.1,0.7,0.6,1.2,1.4,1.2s1.4-0.6,1.4-1.2c0-0.5,0-1.2,0-1.7    c-0.1-0.7-0.6-1.2-1.4-1.2s-1.4,0.6-1.4,1.2C147,26.7,147,27.5,147.1,28z"/>
		<path d="M157.3,26.2c0,0.5,0,1.2,0,1.7c-0.1,1.3-1.1,2.4-2.4,2.4c-0.6,0-0.9-0.3-1.2-0.3c-0.2,0-0.3,0.1-0.3,0.3v2.1    c0,0.1-0.1,0.2-0.2,0.2h-0.6c-0.1,0-0.2-0.1-0.2-0.2v-8.2c0-0.1,0.1-0.2,0.2-0.2h0.4c0.1,0,0.1,0,0.2,0.1c0.1,0.1,0.2,0.2,0.3,0.2    c0.4,0,0.5-0.4,1.4-0.4C156.3,23.9,157.2,24.9,157.3,26.2z M156.3,26.2c0-0.7-0.6-1.2-1.4-1.2c-0.9,0-1.4,0.6-1.4,1.2    c0,0.5,0,1.2,0,1.7c0,0.7,0.6,1.2,1.4,1.2c0.9,0,1.4-0.6,1.4-1.2C156.3,27.5,156.3,26.7,156.3,26.2z"/>
		<path d="M159.7,27.5c-0.1,0-0.1,0.1-0.1,0.1c0,1.1,0.6,1.6,1.4,1.6c0.6,0,1.1-0.3,1.3-0.8c0-0.2,0.2-0.2,0.3-0.2h0.6    c0.1,0,0.2,0.1,0.2,0.2c-0.1,1.1-1.1,1.9-2.4,1.9c-1.5,0-2.5-1.1-2.6-2.4c0-0.5,0-1.2,0-1.7c0.1-1.3,1.1-2.4,2.6-2.4    c1.5,0,2.5,0.9,2.5,2.5v0.9c0,0.1-0.1,0.2-0.2,0.2H159.7z M159.6,26.3c0,0.1,0,0.1,0.1,0.1h2.6c0.1,0,0.1,0,0.1-0.1    c0-0.9-0.6-1.4-1.4-1.4C160.2,25,159.6,25.6,159.6,26.3z"/>
		<path d="M166,25.6c0,0.2-0.2,0.2-0.3,0.2h-0.6c-0.2,0-0.2-0.1-0.2-0.2c0-1.2,1.2-1.7,2.3-1.7c1.4,0,2.3,0.6,2.3,2V30    c0,0.1-0.1,0.2-0.2,0.2h-0.4c-0.1,0-0.1,0-0.2-0.1c-0.1-0.1-0.1-0.3-0.2-0.3c-0.2,0-0.5,0.5-1.5,0.5c-1.5,0-2.3-0.9-2.3-2    c0-1,0.7-1.9,2.1-1.9h1.5c0.1,0,0.1-0.1,0.1-0.1v-0.5c0-0.7-0.5-1-1.2-1C166.7,24.9,166,25,166,25.6z M166.6,27.5    c-0.6,0-0.9,0.3-0.9,0.9c0,0.6,0.4,1,1.1,1c1.1,0,1.6-0.5,1.6-1.3v-0.4c0-0.1,0-0.1-0.1-0.1H166.6z"/>
		<path d="M175.8,30c0,0.1-0.1,0.2-0.2,0.2H175c-0.1,0-0.2-0.1-0.2-0.2v-3.7c0-0.8-0.6-1.2-1.4-1.2c-0.8,0-1.4,0.5-1.4,1.2V30    c0,0.1-0.1,0.2-0.2,0.2h-0.6c-0.1,0-0.2-0.1-0.2-0.2v-5.7c0-0.1,0.1-0.2,0.2-0.2h0.5c0.1,0,0.1,0,0.2,0.1c0.1,0.1,0.2,0.2,0.3,0.2    c0.4,0,0.5-0.4,1.3-0.4c1.4,0,2.4,0.9,2.4,2.4V30z"/>
		<path d="M95.2,40c0,0.1-0.1,0.2-0.2,0.2h-0.8c-0.1,0-0.2-0.1-0.2-0.2v-0.9c0-0.1,0.1-0.2,0.2-0.2H95c0.1,0,0.2,0.1,0.2,0.2V40z     M95.2,47.5c0,0.1-0.1,0.2-0.2,0.2h-0.6c-0.1,0-0.2-0.1-0.2-0.2v-5.7c0-0.1,0.1-0.2,0.2-0.2h0.6c0.1,0,0.2,0.1,0.2,0.2V47.5z"/>
		<path d="M101.8,47.5c0,0.1-0.1,0.2-0.2,0.2h-0.6c-0.1,0-0.2-0.1-0.2-0.2v-3.7c0-0.8-0.6-1.2-1.4-1.2c-0.8,0-1.4,0.5-1.4,1.2v3.8    c0,0.1-0.1,0.2-0.2,0.2H97c-0.1,0-0.2-0.1-0.2-0.2v-5.7c0-0.1,0.1-0.2,0.2-0.2h0.5c0.1,0,0.1,0,0.2,0.1c0.1,0.1,0.2,0.2,0.3,0.2    c0.4,0,0.5-0.4,1.3-0.4c1.4,0,2.4,0.9,2.4,2.4V47.5z"/>
		<path d="M106.4,41.6c0.1,0,0.2,0.1,0.2,0.2v0.6c0,0.1-0.1,0.2-0.2,0.2H105c-0.1,0-0.1,0.1-0.1,0.1v2.9c0,0.5,0.2,0.9,1,0.9h0.7    c0.1,0,0.2,0.1,0.2,0.2v0.6c0,0.1-0.1,0.2-0.2,0.2h-0.7c-1.3,0-2.1-0.6-2.1-2v-2.9c0-0.1,0-0.1-0.1-0.1h-0.9    c-0.1,0-0.2-0.1-0.2-0.2v-0.6c0-0.1,0.1-0.2,0.2-0.2h0.9c0.1,0,0.1,0,0.1-0.1v-1.9c0-0.1,0.1-0.2,0.2-0.2h0.6    c0.1,0,0.2,0.1,0.2,0.2v1.9c0,0.1,0,0.1,0.1,0.1H106.4z"/>
		<path d="M108.7,45c-0.1,0-0.1,0.1-0.1,0.1c0,1.1,0.6,1.6,1.4,1.6c0.6,0,1.1-0.3,1.3-0.8c0-0.2,0.2-0.2,0.3-0.2h0.6    c0.1,0,0.2,0.1,0.2,0.2c-0.1,1.1-1.1,1.9-2.4,1.9c-1.5,0-2.5-1.1-2.6-2.4c0-0.5,0-1.2,0-1.7c0.1-1.3,1.1-2.4,2.6-2.4    c1.5,0,2.5,0.9,2.5,2.5v0.9c0,0.1-0.1,0.2-0.2,0.2H108.7z M108.6,43.8c0,0.1,0,0.1,0.1,0.1h2.6c0.1,0,0.1,0,0.1-0.1    c0-0.9-0.6-1.4-1.4-1.4C109.2,42.5,108.6,43.1,108.6,43.8z"/>
		<path d="M116.8,42.6c-1,0-1.9,0.5-1.9,1.9v3c0,0.1-0.1,0.2-0.2,0.2h-0.6c-0.1,0-0.2-0.1-0.2-0.2v-5.7c0-0.1,0.1-0.2,0.2-0.2h0.4    c0.1,0,0.2,0.1,0.2,0.2c0,0.2,0,0.4,0.2,0.4c0.3,0,0.5-0.7,1.8-0.7h0.2c0.1,0,0.2,0.1,0.2,0.2v0.6c0,0.1-0.1,0.2-0.2,0.2H116.8z"/>
		<path d="M117.6,45.5c0-0.5,0-1.2,0-1.7c0.1-1.3,1.1-2.4,2.4-2.4c0.6,0,0.9,0.3,1.2,0.3c0.2,0,0.3-0.1,0.3-0.3v-2.2    c0-0.1,0.1-0.2,0.2-0.2h0.6c0.1,0,0.2,0.1,0.2,0.2v8.3c0,0.1-0.1,0.2-0.2,0.2h-0.4c-0.1,0-0.1,0-0.2-0.1c-0.1-0.1-0.2-0.2-0.3-0.2    c-0.4,0-0.5,0.4-1.4,0.4C118.7,47.9,117.7,46.8,117.6,45.5z M118.7,45.5c0,0.7,0.6,1.2,1.4,1.2c0.9,0,1.4-0.6,1.4-1.2    c0-0.5,0-1.2,0-1.7c0-0.7-0.6-1.2-1.4-1.2c-0.9,0-1.4,0.6-1.4,1.2C118.6,44.2,118.6,45,118.7,45.5z"/>
		<path d="M125.4,40c0,0.1-0.1,0.2-0.2,0.2h-0.8c-0.1,0-0.2-0.1-0.2-0.2v-0.9c0-0.1,0.1-0.2,0.2-0.2h0.8c0.1,0,0.2,0.1,0.2,0.2V40z     M125.4,47.5c0,0.1-0.1,0.2-0.2,0.2h-0.6c-0.1,0-0.2-0.1-0.2-0.2v-5.7c0-0.1,0.1-0.2,0.2-0.2h0.6c0.1,0,0.2,0.1,0.2,0.2V47.5z"/>
		<path d="M131.1,43.5h-0.6c-0.1,0-0.2-0.1-0.2-0.2c0-0.4-0.3-0.8-1.2-0.8c-0.8,0-1.1,0.4-1.1,0.7c0,0.5,0.5,0.6,1.1,0.8    c1,0.2,2.5,0.4,2.5,1.9c0,1.3-1.2,2-2.5,2c-1.2,0-2.5-0.6-2.5-2v-0.2c0-0.1,0.1-0.2,0.2-0.2h0.6c0.1,0,0.2,0.1,0.2,0.2v0.2    c0,0.7,0.8,0.9,1.3,0.9c0.7,0,1.3-0.2,1.3-0.9c0-0.5-0.6-0.6-1.3-0.8c-1-0.2-2.3-0.5-2.3-1.9c0-1.1,1.1-1.8,2.3-1.8    c1.2,0,2.3,0.7,2.3,1.9C131.4,43.4,131.3,43.5,131.1,43.5z"/>
		<path d="M136.5,45.5h0.6c0.1,0,0.2,0.1,0.2,0.2c0,1.2-1,2.1-2.4,2.1c-1.5,0-2.4-1.1-2.5-2.4c0-0.5,0-1.2,0-1.7    c0.1-1.3,1-2.4,2.5-2.4c1.4,0,2.4,0.9,2.4,2.1c0,0.1-0.1,0.2-0.2,0.2h-0.7c-0.1,0-0.2-0.1-0.2-0.2c0-0.6-0.5-1-1.3-1    c-0.9,0-1.3,0.6-1.4,1.2c0,0.5,0,1.2,0,1.7c0.1,0.7,0.5,1.2,1.4,1.2c0.8,0,1.3-0.4,1.3-1C136.3,45.5,136.4,45.5,136.5,45.5z"/>
		<path d="M140,40c0,0.1-0.1,0.2-0.2,0.2h-0.8c-0.1,0-0.2-0.1-0.2-0.2v-0.9c0-0.1,0.1-0.2,0.2-0.2h0.8c0.1,0,0.2,0.1,0.2,0.2V40z     M139.9,47.5c0,0.1-0.1,0.2-0.2,0.2H139c-0.1,0-0.2-0.1-0.2-0.2v-5.7c0-0.1,0.1-0.2,0.2-0.2h0.6c0.1,0,0.2,0.1,0.2,0.2V47.5z"/>
		<path d="M146.5,43.7c0,0.5,0,1.2,0,1.7c-0.1,1.3-1.1,2.4-2.4,2.4c-0.6,0-0.9-0.3-1.2-0.3c-0.2,0-0.3,0.1-0.3,0.3V50    c0,0.1-0.1,0.2-0.2,0.2h-0.6c-0.1,0-0.2-0.1-0.2-0.2v-8.2c0-0.1,0.1-0.2,0.2-0.2h0.4c0.1,0,0.1,0,0.2,0.1c0.1,0.1,0.2,0.2,0.3,0.2    c0.4,0,0.5-0.4,1.4-0.4C145.4,41.4,146.4,42.4,146.5,43.7z M145.4,43.7c0-0.7-0.6-1.2-1.4-1.2c-0.9,0-1.4,0.6-1.4,1.2    c0,0.5,0,1.2,0,1.7c0,0.7,0.6,1.2,1.4,1.2c0.9,0,1.4-0.6,1.4-1.2C145.5,45,145.5,44.2,145.4,43.7z"/>
		<path d="M148.7,47.5c0,0.1-0.1,0.2-0.2,0.2h-0.6c-0.1,0-0.2-0.1-0.2-0.2v-8.3c0-0.1,0.1-0.2,0.2-0.2h0.6c0.1,0,0.2,0.1,0.2,0.2    V47.5z"/>
		<path d="M151.6,40c0,0.1-0.1,0.2-0.2,0.2h-0.8c-0.1,0-0.2-0.1-0.2-0.2v-0.9c0-0.1,0.1-0.2,0.2-0.2h0.8c0.1,0,0.2,0.1,0.2,0.2V40z     M151.6,47.5c0,0.1-0.1,0.2-0.2,0.2h-0.6c-0.1,0-0.2-0.1-0.2-0.2v-5.7c0-0.1,0.1-0.2,0.2-0.2h0.6c0.1,0,0.2,0.1,0.2,0.2V47.5z"/>
		<path d="M158.1,47.5c0,0.1-0.1,0.2-0.2,0.2h-0.6c-0.1,0-0.2-0.1-0.2-0.2v-3.7c0-0.8-0.6-1.2-1.4-1.2c-0.8,0-1.4,0.5-1.4,1.2v3.8    c0,0.1-0.1,0.2-0.2,0.2h-0.6c-0.1,0-0.2-0.1-0.2-0.2v-5.7c0-0.1,0.1-0.2,0.2-0.2h0.5c0.1,0,0.1,0,0.2,0.1c0.1,0.1,0.2,0.2,0.3,0.2    c0.4,0,0.5-0.4,1.3-0.4c1.4,0,2.4,0.9,2.4,2.4V47.5z"/>
		<path d="M160.7,43.2c0,0.2-0.2,0.2-0.3,0.2h-0.6c-0.2,0-0.2-0.1-0.2-0.2c0-1.2,1.2-1.7,2.3-1.7c1.4,0,2.3,0.6,2.3,2v4.1    c0,0.1-0.1,0.2-0.2,0.2h-0.4c-0.1,0-0.1,0-0.2-0.1c-0.1-0.1-0.1-0.3-0.2-0.3c-0.2,0-0.5,0.5-1.5,0.5c-1.5,0-2.3-0.9-2.3-2    c0-1,0.7-1.9,2.1-1.9h1.5c0.1,0,0.1-0.1,0.1-0.1v-0.5c0-0.7-0.5-1-1.2-1C161.5,42.4,160.7,42.6,160.7,43.2z M161.4,45    c-0.6,0-0.9,0.3-0.9,0.9c0,0.6,0.4,1,1.1,1c1.1,0,1.6-0.5,1.6-1.3v-0.4c0-0.1,0-0.1-0.1-0.1H161.4z"/>
		<path d="M168.6,42.6c-1,0-1.9,0.5-1.9,1.9v3c0,0.1-0.1,0.2-0.2,0.2h-0.6c-0.1,0-0.2-0.1-0.2-0.2v-5.7c0-0.1,0.1-0.2,0.2-0.2h0.4    c0.1,0,0.2,0.1,0.2,0.2c0,0.2,0,0.4,0.2,0.4c0.3,0,0.5-0.7,1.8-0.7h0.2c0.1,0,0.2,0.1,0.2,0.2v0.6c0,0.1-0.1,0.2-0.2,0.2H168.6z"/>
		<path d="M172.1,45.7c0,0.1,0.1,0.1,0.1,0l1.4-4.1c0-0.1,0.1-0.2,0.2-0.2h0.7c0.2,0,0.3,0.2,0.2,0.3l-3.2,8.3    c0,0.1-0.1,0.2-0.2,0.2h-0.7c-0.2,0-0.3-0.2-0.2-0.3l0.9-2.5c0-0.1,0-0.1,0-0.2l-2.1-5.5c0-0.1,0-0.3,0.2-0.3h0.8    c0.1,0,0.2,0,0.2,0.2L172.1,45.7z"/>
		<path d="M100.9,61.2c0-0.6-0.4-1.2-1.2-1.2c-0.8,0-1.2,0.6-1.2,1.2V65c0,0.1-0.1,0.2-0.2,0.2h-0.6c-0.1,0-0.2-0.1-0.2-0.2v-3.7    c0-0.6-0.5-1.2-1.2-1.2c-0.8,0-1.2,0.6-1.2,1.2V65c0,0.1-0.1,0.2-0.2,0.2h-0.6c-0.1,0-0.2-0.1-0.2-0.2v-5.7c0-0.1,0.1-0.2,0.2-0.2    h0.5c0.1,0,0.1,0,0.2,0.1c0.1,0.1,0.2,0.2,0.3,0.2c0.4,0,0.6-0.4,1.4-0.4c0.7,0,1.1,0.4,1.4,0.6c0.2,0.1,0.3,0.1,0.5,0    c0.3-0.2,0.7-0.6,1.5-0.6c1.4,0,2.2,1,2.2,2.4V65c0,0.1-0.1,0.2-0.2,0.2h-0.6c-0.1,0-0.2-0.1-0.2-0.2V61.2z"/>
		<path d="M104.7,60.7c0,0.2-0.2,0.2-0.3,0.2h-0.6c-0.2,0-0.2-0.1-0.2-0.2c0-1.2,1.2-1.7,2.3-1.7c1.4,0,2.3,0.6,2.3,2V65    c0,0.1-0.1,0.2-0.2,0.2h-0.4c-0.1,0-0.1,0-0.2-0.1c-0.1-0.1-0.1-0.3-0.2-0.3c-0.2,0-0.5,0.5-1.5,0.5c-1.5,0-2.3-0.9-2.3-2    c0-1,0.7-1.9,2.1-1.9h1.5c0.1,0,0.1-0.1,0.1-0.1v-0.5c0-0.7-0.5-1-1.2-1C105.4,59.9,104.7,60.1,104.7,60.7z M105.4,62.5    c-0.6,0-0.9,0.3-0.9,0.9c0,0.6,0.4,1,1.1,1c1.1,0,1.6-0.5,1.6-1.3v-0.4c0-0.1,0-0.1-0.1-0.1H105.4z"/>
		<path d="M113.7,61h-0.6c-0.1,0-0.2-0.1-0.2-0.2c0-0.4-0.3-0.8-1.2-0.8c-0.8,0-1.1,0.4-1.1,0.7c0,0.5,0.5,0.6,1.1,0.8    c1,0.2,2.5,0.4,2.5,1.9c0,1.3-1.2,2-2.5,2c-1.2,0-2.5-0.6-2.5-2v-0.2c0-0.1,0.1-0.2,0.2-0.2h0.6c0.1,0,0.2,0.1,0.2,0.2v0.2    c0,0.7,0.8,0.9,1.3,0.9c0.7,0,1.3-0.2,1.3-0.9c0-0.5-0.6-0.6-1.3-0.8c-1-0.2-2.3-0.5-2.3-1.9c0-1.1,1.1-1.8,2.3-1.8    c1.2,0,2.3,0.7,2.3,1.9C114,60.9,113.9,61,113.7,61z"/>
		<path d="M118.5,59.1c0.1,0,0.2,0.1,0.2,0.2v0.6c0,0.1-0.1,0.2-0.2,0.2h-1.4c-0.1,0-0.1,0.1-0.1,0.1v2.9c0,0.5,0.2,0.9,1,0.9h0.7    c0.1,0,0.2,0.1,0.2,0.2V65c0,0.1-0.1,0.2-0.2,0.2H118c-1.3,0-2.1-0.6-2.1-2v-2.9c0-0.1,0-0.1-0.1-0.1h-0.9c-0.1,0-0.2-0.1-0.2-0.2    v-0.6c0-0.1,0.1-0.2,0.2-0.2h0.9c0.1,0,0.1,0,0.1-0.1V57c0-0.1,0.1-0.2,0.2-0.2h0.6c0.1,0,0.2,0.1,0.2,0.2v1.9    c0,0.1,0,0.1,0.1,0.1H118.5z"/>
		<path d="M120.8,62.5c-0.1,0-0.1,0.1-0.1,0.1c0,1.1,0.6,1.6,1.4,1.6c0.6,0,1.1-0.3,1.3-0.8c0-0.2,0.2-0.2,0.3-0.2h0.6    c0.1,0,0.2,0.1,0.2,0.2c-0.1,1.1-1.1,1.9-2.4,1.9c-1.5,0-2.5-1.1-2.6-2.4c0-0.5,0-1.2,0-1.7c0.1-1.3,1.1-2.4,2.6-2.4    c1.5,0,2.5,0.9,2.5,2.5v0.9c0,0.1-0.1,0.2-0.2,0.2H120.8z M120.7,61.4c0,0.1,0,0.1,0.1,0.1h2.6c0.1,0,0.1,0,0.1-0.1    c0-0.9-0.6-1.4-1.4-1.4C121.3,60,120.7,60.6,120.7,61.4z"/>
		<path d="M128.9,60.1c-1,0-1.9,0.5-1.9,1.9v3c0,0.1-0.1,0.2-0.2,0.2h-0.6c-0.1,0-0.2-0.1-0.2-0.2v-5.7c0-0.1,0.1-0.2,0.2-0.2h0.4    c0.1,0,0.2,0.1,0.2,0.2c0,0.2,0,0.4,0.2,0.4c0.3,0,0.5-0.7,1.8-0.7h0.2c0.1,0,0.2,0.1,0.2,0.2v0.6c0,0.1-0.1,0.2-0.2,0.2H128.9z"/>
		<path d="M130.3,59.7c-0.2,0-0.3-0.2-0.2-0.4l0.6-1c0-0.1,0-0.2-0.1-0.2h-0.2c-0.1,0-0.2-0.1-0.2-0.2v-1.1c0-0.1,0.1-0.2,0.2-0.2    h1.1c0.1,0,0.2,0.1,0.2,0.2v1.1c0,0.3-0.1,0.6-0.2,0.8l-0.6,0.9c-0.1,0.1-0.1,0.2-0.3,0.2H130.3z"/>
		<path d="M136.1,61h-0.6c-0.1,0-0.2-0.1-0.2-0.2c0-0.4-0.3-0.8-1.2-0.8c-0.8,0-1.1,0.4-1.1,0.7c0,0.5,0.5,0.6,1.1,0.8    c1,0.2,2.5,0.4,2.5,1.9c0,1.3-1.2,2-2.5,2c-1.2,0-2.5-0.6-2.5-2v-0.2c0-0.1,0.1-0.2,0.2-0.2h0.6c0.1,0,0.2,0.1,0.2,0.2v0.2    c0,0.7,0.8,0.9,1.3,0.9c0.7,0,1.3-0.2,1.3-0.9c0-0.5-0.6-0.6-1.3-0.8c-1-0.2-2.3-0.5-2.3-1.9c0-1.1,1.1-1.8,2.3-1.8    c1.2,0,2.3,0.7,2.3,1.9C136.4,60.9,136.3,61,136.1,61z"/>
		<path d="M145.5,61.2c0,0.5,0,1.2,0,1.7c-0.1,1.3-1.1,2.4-2.4,2.4c-0.6,0-0.9-0.3-1.2-0.3c-0.2,0-0.3,0.1-0.3,0.3v2.1    c0,0.1-0.1,0.2-0.2,0.2h-0.6c-0.1,0-0.2-0.1-0.2-0.2v-8.2c0-0.1,0.1-0.2,0.2-0.2h0.4c0.1,0,0.1,0,0.2,0.1c0.1,0.1,0.2,0.2,0.3,0.2    c0.4,0,0.5-0.4,1.4-0.4C144.4,58.9,145.4,59.9,145.5,61.2z M144.4,61.2c0-0.7-0.6-1.2-1.4-1.2c-0.9,0-1.4,0.6-1.4,1.2    c0,0.5,0,1.2,0,1.7c0,0.7,0.6,1.2,1.4,1.2c0.9,0,1.4-0.6,1.4-1.2C144.5,62.5,144.5,61.8,144.4,61.2z"/>
		<path d="M149.8,60.1c-1,0-1.9,0.5-1.9,1.9v3c0,0.1-0.1,0.2-0.2,0.2h-0.6c-0.1,0-0.2-0.1-0.2-0.2v-5.7c0-0.1,0.1-0.2,0.2-0.2h0.4    c0.1,0,0.2,0.1,0.2,0.2c0,0.2,0,0.4,0.2,0.4c0.3,0,0.5-0.7,1.8-0.7h0.2c0.1,0,0.2,0.1,0.2,0.2v0.6c0,0.1-0.1,0.2-0.2,0.2H149.8z"/>
		<path d="M150.6,61.2c0.1-1.3,1.1-2.4,2.6-2.4c1.5,0,2.5,1.1,2.6,2.4c0,0.5,0,1.2,0,1.7c-0.1,1.3-1.1,2.4-2.6,2.4    c-1.5,0-2.5-1.1-2.6-2.4C150.6,62.5,150.6,61.7,150.6,61.2z M151.7,63c0.1,0.7,0.6,1.2,1.4,1.2s1.4-0.6,1.4-1.2c0-0.5,0-1.2,0-1.7    c-0.1-0.7-0.6-1.2-1.4-1.2s-1.4,0.6-1.4,1.2C151.7,61.8,151.7,62.5,151.7,63z"/>
		<path d="M160.6,59.3c0.1,0,0.2-0.1,0.3-0.2c0,0,0.1-0.1,0.2-0.1h0.4c0.1,0,0.2,0.1,0.2,0.2v6.4c0,1.2-1,2.2-2.3,2.2    c-1.1,0-2.1-0.6-2.3-1.7c0-0.2,0-0.3,0.2-0.3h0.6c0.3,0,0.3,0.1,0.3,0.2c0.2,0.4,0.5,0.6,1.1,0.6c0.6,0,1.2-0.4,1.2-1.1v-0.3    c0-0.2-0.1-0.3-0.3-0.3c-0.2,0-0.6,0.3-1.2,0.3c-1.3,0-2.3-1.1-2.4-2.4c0-0.5,0-1.2,0-1.7c0.1-1.3,1.1-2.4,2.4-2.4    C160.1,58.9,160.2,59.3,160.6,59.3z M160.8,61.2c0-0.7-0.6-1.2-1.4-1.2c-0.9,0-1.4,0.6-1.4,1.2c0,0.5,0,1.2,0,1.7    c0,0.7,0.6,1.2,1.4,1.2c0.9,0,1.4-0.6,1.4-1.2C160.8,62.5,160.8,61.8,160.8,61.2z"/>
		<path d="M166.3,60.1c-1,0-1.9,0.5-1.9,1.9v3c0,0.1-0.1,0.2-0.2,0.2h-0.6c-0.1,0-0.2-0.1-0.2-0.2v-5.7c0-0.1,0.1-0.2,0.2-0.2h0.4    c0.1,0,0.2,0.1,0.2,0.2c0,0.2,0,0.4,0.2,0.4c0.3,0,0.5-0.7,1.8-0.7h0.2c0.1,0,0.2,0.1,0.2,0.2v0.6c0,0.1-0.1,0.2-0.2,0.2H166.3z"/>
		<path d="M168.4,60.7c0,0.2-0.2,0.2-0.3,0.2h-0.6c-0.2,0-0.2-0.1-0.2-0.2c0-1.2,1.2-1.7,2.3-1.7c1.4,0,2.3,0.6,2.3,2V65    c0,0.1-0.1,0.2-0.2,0.2h-0.4c-0.1,0-0.1,0-0.2-0.1c-0.1-0.1-0.1-0.3-0.2-0.3c-0.2,0-0.5,0.5-1.5,0.5c-1.5,0-2.3-0.9-2.3-2    c0-1,0.7-1.9,2.1-1.9h1.5c0.1,0,0.1-0.1,0.1-0.1v-0.5c0-0.7-0.5-1-1.2-1C169.1,59.9,168.4,60.1,168.4,60.7z M169.1,62.5    c-0.6,0-0.9,0.3-0.9,0.9c0,0.6,0.4,1,1.1,1c1.1,0,1.6-0.5,1.6-1.3v-0.4c0-0.1,0-0.1-0.1-0.1H169.1z"/>
		<path d="M180.4,61.2c0-0.6-0.4-1.2-1.2-1.2s-1.2,0.6-1.2,1.2V65c0,0.1-0.1,0.2-0.2,0.2h-0.6c-0.1,0-0.2-0.1-0.2-0.2v-3.7    c0-0.6-0.5-1.2-1.2-1.2c-0.8,0-1.2,0.6-1.2,1.2V65c0,0.1-0.1,0.2-0.2,0.2h-0.6c-0.1,0-0.2-0.1-0.2-0.2v-5.7c0-0.1,0.1-0.2,0.2-0.2    h0.5c0.1,0,0.1,0,0.2,0.1c0.1,0.1,0.2,0.2,0.3,0.2c0.4,0,0.6-0.4,1.4-0.4c0.7,0,1.1,0.4,1.4,0.6c0.2,0.1,0.3,0.1,0.5,0    c0.3-0.2,0.7-0.6,1.5-0.6c1.4,0,2.2,1,2.2,2.4V65c0,0.1-0.1,0.2-0.2,0.2h-0.6c-0.1,0-0.2-0.1-0.2-0.2V61.2z"/>
		<path d="M190,61.2c0-0.6-0.4-1.2-1.2-1.2s-1.2,0.6-1.2,1.2V65c0,0.1-0.1,0.2-0.2,0.2h-0.6c-0.1,0-0.2-0.1-0.2-0.2v-3.7    c0-0.6-0.5-1.2-1.2-1.2c-0.8,0-1.2,0.6-1.2,1.2V65c0,0.1-0.1,0.2-0.2,0.2h-0.6c-0.1,0-0.2-0.1-0.2-0.2v-5.7c0-0.1,0.1-0.2,0.2-0.2    h0.5c0.1,0,0.1,0,0.2,0.1c0.1,0.1,0.2,0.2,0.3,0.2c0.4,0,0.6-0.4,1.4-0.4c0.7,0,1.1,0.4,1.4,0.6c0.2,0.1,0.3,0.1,0.5,0    c0.3-0.2,0.7-0.6,1.5-0.6c1.4,0,2.2,1,2.2,2.4V65c0,0.1-0.1,0.2-0.2,0.2h-0.6c-0.1,0-0.2-0.1-0.2-0.2V61.2z"/>
		<path d="M193.6,62.5c-0.1,0-0.1,0.1-0.1,0.1c0,1.1,0.6,1.6,1.4,1.6c0.6,0,1.1-0.3,1.3-0.8c0-0.2,0.2-0.2,0.3-0.2h0.6    c0.1,0,0.2,0.1,0.2,0.2c-0.1,1.1-1.1,1.9-2.4,1.9c-1.5,0-2.5-1.1-2.6-2.4c0-0.5,0-1.2,0-1.7c0.1-1.3,1.1-2.4,2.6-2.4    c1.5,0,2.5,0.9,2.5,2.5v0.9c0,0.1-0.1,0.2-0.2,0.2H193.6z M193.5,61.4c0,0.1,0,0.1,0.1,0.1h2.6c0.1,0,0.1,0,0.1-0.1    c0-0.9-0.6-1.4-1.4-1.4C194,60,193.5,60.6,193.5,61.4z"/>
		<path d="M202.8,57.5c0,0.1-0.1,0.2-0.2,0.2h-0.8c-0.1,0-0.2-0.1-0.2-0.2v-0.9c0-0.1,0.1-0.2,0.2-0.2h0.8c0.1,0,0.2,0.1,0.2,0.2    V57.5z M202.8,65c0,0.1-0.1,0.2-0.2,0.2h-0.6c-0.1,0-0.2-0.1-0.2-0.2v-5.7c0-0.1,0.1-0.2,0.2-0.2h0.6c0.1,0,0.2,0.1,0.2,0.2V65z"/>
		<path d="M209.4,65c0,0.1-0.1,0.2-0.2,0.2h-0.6c-0.1,0-0.2-0.1-0.2-0.2v-3.7c0-0.8-0.6-1.2-1.4-1.2c-0.8,0-1.4,0.5-1.4,1.2V65    c0,0.1-0.1,0.2-0.2,0.2h-0.6c-0.1,0-0.2-0.1-0.2-0.2v-5.7c0-0.1,0.1-0.2,0.2-0.2h0.5c0.1,0,0.1,0,0.2,0.1c0.1,0.1,0.2,0.2,0.3,0.2    c0.4,0,0.5-0.4,1.3-0.4c1.4,0,2.4,0.9,2.4,2.4V65z"/>
		<path d="M99.4,80.2c0,1.4-1.2,2.6-2.8,2.6c-1.5,0-2.6-1-2.8-2.6c-0.1-1-0.1-2.7,0-3.7c0.2-1.4,1.2-2.6,2.8-2.6    c1.5,0,2.8,1,2.8,2.6v0.2c0,0.1-0.1,0.2-0.2,0.2h-0.7c-0.1,0-0.2-0.1-0.2-0.2v-0.2c0-0.7-0.6-1.4-1.6-1.4c-0.8,0-1.5,0.5-1.6,1.4    c-0.1,1-0.1,2.7,0,3.7c0.1,0.7,0.6,1.4,1.6,1.4c0.8,0,1.6-0.5,1.6-1.4v-0.2c0-0.1,0.1-0.2,0.2-0.2h0.7c0.1,0,0.2,0.1,0.2,0.2V80.2    z"/>
		<path d="M100.5,78.7c0.1-1.3,1.1-2.4,2.6-2.4s2.5,1.1,2.6,2.4c0,0.5,0,1.2,0,1.7c-0.1,1.3-1.1,2.4-2.6,2.4s-2.5-1.1-2.6-2.4    C100.5,80,100.5,79.2,100.5,78.7z M101.6,80.5c0.1,0.7,0.6,1.2,1.4,1.2s1.4-0.6,1.4-1.2c0-0.5,0-1.2,0-1.7    c-0.1-0.7-0.6-1.2-1.4-1.2s-1.4,0.6-1.4,1.2C101.6,79.3,101.6,80,101.6,80.5z"/>
		<path d="M110.5,76.8c0.1,0,0.2-0.1,0.3-0.2c0,0,0.1-0.1,0.2-0.1h0.4c0.1,0,0.2,0.1,0.2,0.2v6.4c0,1.2-1,2.2-2.3,2.2    c-1.1,0-2.1-0.6-2.3-1.7c0-0.2,0-0.3,0.2-0.3h0.6c0.3,0,0.3,0.1,0.3,0.2c0.2,0.4,0.5,0.6,1.1,0.6c0.6,0,1.2-0.4,1.2-1.1v-0.3    c0-0.2-0.1-0.3-0.3-0.3c-0.2,0-0.6,0.3-1.2,0.3c-1.3,0-2.3-1.1-2.4-2.4c0-0.5,0-1.2,0-1.7c0.1-1.3,1.1-2.4,2.4-2.4    C110,76.4,110.1,76.8,110.5,76.8z M110.7,78.7c0-0.7-0.6-1.2-1.4-1.2c-0.9,0-1.4,0.6-1.4,1.2c0,0.5,0,1.2,0,1.7    c0,0.7,0.6,1.2,1.4,1.2c0.9,0,1.4-0.6,1.4-1.2C110.7,80,110.7,79.3,110.7,78.7z"/>
		<path d="M118.2,82.5c0,0.1-0.1,0.2-0.2,0.2h-0.6c-0.1,0-0.2-0.1-0.2-0.2v-3.7c0-0.8-0.6-1.2-1.4-1.2c-0.8,0-1.4,0.5-1.4,1.2v3.8    c0,0.1-0.1,0.2-0.2,0.2h-0.6c-0.1,0-0.2-0.1-0.2-0.2v-5.7c0-0.1,0.1-0.2,0.2-0.2h0.5c0.1,0,0.1,0,0.2,0.1c0.1,0.1,0.2,0.2,0.3,0.2    c0.4,0,0.5-0.4,1.3-0.4c1.4,0,2.4,0.9,2.4,2.4V82.5z"/>
		<path d="M120.9,75c0,0.1-0.1,0.2-0.2,0.2h-0.8c-0.1,0-0.2-0.1-0.2-0.2v-0.9c0-0.1,0.1-0.2,0.2-0.2h0.8c0.1,0,0.2,0.1,0.2,0.2V75z     M120.9,82.5c0,0.1-0.1,0.2-0.2,0.2H120c-0.1,0-0.2-0.1-0.2-0.2v-5.7c0-0.1,0.1-0.2,0.2-0.2h0.6c0.1,0,0.2,0.1,0.2,0.2V82.5z"/>
		<path d="M125.7,76.6c0.1,0,0.2,0.1,0.2,0.2v0.6c0,0.1-0.1,0.2-0.2,0.2h-1.4c-0.1,0-0.1,0-0.1,0.1v2.9c0,0.5,0.2,0.9,1,0.9h0.7    c0.1,0,0.2,0.1,0.2,0.2v0.6c0,0.1-0.1,0.2-0.2,0.2h-0.7c-1.3,0-2.1-0.6-2.1-2v-2.9c0-0.1,0-0.1-0.1-0.1H122    c-0.1,0-0.2-0.1-0.2-0.2v-0.6c0-0.1,0.1-0.2,0.2-0.2h0.9c0.1,0,0.1-0.1,0.1-0.1v-1.9c0-0.1,0.1-0.2,0.2-0.2h0.6    c0.1,0,0.2,0.1,0.2,0.2v1.9c0,0.1,0,0.1,0.1,0.1H125.7z"/>
		<path d="M128.3,75c0,0.1-0.1,0.2-0.2,0.2h-0.8c-0.1,0-0.2-0.1-0.2-0.2v-0.9c0-0.1,0.1-0.2,0.2-0.2h0.8c0.1,0,0.2,0.1,0.2,0.2V75z     M128.2,82.5c0,0.1-0.1,0.2-0.2,0.2h-0.6c-0.1,0-0.2-0.1-0.2-0.2v-5.7c0-0.1,0.1-0.2,0.2-0.2h0.6c0.1,0,0.2,0.1,0.2,0.2V82.5z"/>
		<path d="M133.6,76.7c0.1-0.1,0.1-0.2,0.2-0.2h0.8c0.2,0,0.3,0.2,0.2,0.3l-2.2,5.8c-0.1,0.1-0.1,0.2-0.2,0.2h-0.7    c-0.1,0-0.2-0.1-0.2-0.2l-2.2-5.8c0-0.1,0-0.3,0.2-0.3h0.8c0.1,0,0.2,0,0.2,0.2l1.4,4.2c0,0.1,0.1,0.1,0.2,0L133.6,76.7z"/>
		<path d="M136.5,80c-0.1,0-0.1,0.1-0.1,0.1c0,1.1,0.6,1.6,1.4,1.6c0.6,0,1.1-0.3,1.3-0.8c0-0.2,0.2-0.2,0.3-0.2h0.6    c0.1,0,0.2,0.1,0.2,0.2c-0.1,1.1-1.1,1.9-2.4,1.9c-1.5,0-2.5-1.1-2.6-2.4c0-0.5,0-1.2,0-1.7c0.1-1.3,1.1-2.4,2.6-2.4    c1.5,0,2.5,0.9,2.5,2.5v0.9c0,0.1-0.1,0.2-0.2,0.2H136.5z M136.4,78.9c0,0.1,0,0.1,0.1,0.1h2.6c0.1,0,0.1,0,0.1-0.1    c0-0.9-0.6-1.4-1.4-1.4C137,77.5,136.4,78.1,136.4,78.9z"/>
		<path d="M146.4,78.6c-1.2-0.3-2.1-1-2.1-2.4c0-1.5,1.3-2.3,2.6-2.3c1.5,0,2.6,1.1,2.6,2.3v0.2c0,0.1-0.1,0.2-0.2,0.2h-0.7    c-0.1,0-0.2-0.1-0.2-0.2v-0.2c0-0.8-0.7-1.2-1.4-1.2c-0.8,0-1.4,0.4-1.4,1.2c0,1.1,1.1,1.2,1.9,1.4c1.4,0.4,2.3,1.1,2.3,2.6    c0,1.6-1.4,2.6-2.8,2.6c-1.6,0-2.8-1.2-2.8-2.6V80c0-0.1,0.1-0.2,0.2-0.2h0.7c0.1,0,0.2,0.1,0.2,0.2v0.2c0,0.8,0.7,1.4,1.6,1.4    c0.9,0,1.6-0.6,1.6-1.4C148.5,79.1,147.7,78.9,146.4,78.6z"/>
		<path d="M154.6,80.5h0.6c0.1,0,0.2,0.1,0.2,0.2c0,1.2-1,2.1-2.4,2.1c-1.5,0-2.4-1.1-2.5-2.4c0-0.5,0-1.2,0-1.7    c0.1-1.3,1-2.4,2.5-2.4c1.4,0,2.4,0.9,2.4,2.1c0,0.1-0.1,0.2-0.2,0.2h-0.7c-0.1,0-0.2-0.1-0.2-0.2c0-0.6-0.5-1-1.3-1    c-0.9,0-1.3,0.6-1.4,1.2c0,0.5,0,1.2,0,1.7c0.1,0.7,0.5,1.2,1.4,1.2c0.8,0,1.3-0.4,1.3-1C154.4,80.5,154.5,80.5,154.6,80.5z"/>
		<path d="M158.1,75c0,0.1-0.1,0.2-0.2,0.2H157c-0.1,0-0.2-0.1-0.2-0.2v-0.9c0-0.1,0.1-0.2,0.2-0.2h0.8c0.1,0,0.2,0.1,0.2,0.2V75z     M158,82.5c0,0.1-0.1,0.2-0.2,0.2h-0.6c-0.1,0-0.2-0.1-0.2-0.2v-5.7c0-0.1,0.1-0.2,0.2-0.2h0.6c0.1,0,0.2,0.1,0.2,0.2V82.5z"/>
		<path d="M160.7,80c-0.1,0-0.1,0.1-0.1,0.1c0,1.1,0.6,1.6,1.4,1.6c0.6,0,1.1-0.3,1.3-0.8c0-0.2,0.2-0.2,0.3-0.2h0.6    c0.1,0,0.2,0.1,0.2,0.2c-0.1,1.1-1.1,1.9-2.4,1.9c-1.5,0-2.5-1.1-2.6-2.4c0-0.5,0-1.2,0-1.7c0.1-1.3,1.1-2.4,2.6-2.4    c1.5,0,2.5,0.9,2.5,2.5v0.9c0,0.1-0.1,0.2-0.2,0.2H160.7z M160.6,78.9c0,0.1,0,0.1,0.1,0.1h2.6c0.1,0,0.1,0,0.1-0.1    c0-0.9-0.6-1.4-1.4-1.4C161.2,77.5,160.6,78.1,160.6,78.9z"/>
		<path d="M170.8,82.5c0,0.1-0.1,0.2-0.2,0.2h-0.6c-0.1,0-0.2-0.1-0.2-0.2v-3.7c0-0.8-0.6-1.2-1.4-1.2c-0.8,0-1.4,0.5-1.4,1.2v3.8    c0,0.1-0.1,0.2-0.2,0.2H166c-0.1,0-0.2-0.1-0.2-0.2v-5.7c0-0.1,0.1-0.2,0.2-0.2h0.5c0.1,0,0.1,0,0.2,0.1c0.1,0.1,0.2,0.2,0.3,0.2    c0.4,0,0.5-0.4,1.3-0.4c1.4,0,2.4,0.9,2.4,2.4V82.5z"/>
		<path d="M176,80.5h0.6c0.1,0,0.2,0.1,0.2,0.2c0,1.2-1,2.1-2.4,2.1c-1.5,0-2.4-1.1-2.5-2.4c0-0.5,0-1.2,0-1.7    c0.1-1.3,1-2.4,2.5-2.4c1.4,0,2.4,0.9,2.4,2.1c0,0.1-0.1,0.2-0.2,0.2H176c-0.1,0-0.2-0.1-0.2-0.2c0-0.6-0.5-1-1.3-1    c-0.9,0-1.3,0.6-1.4,1.2c0,0.5,0,1.2,0,1.7c0.1,0.7,0.5,1.2,1.4,1.2c0.8,0,1.3-0.4,1.3-1C175.8,80.5,175.9,80.5,176,80.5z"/>
		<path d="M179.2,80c-0.1,0-0.1,0.1-0.1,0.1c0,1.1,0.6,1.6,1.4,1.6c0.6,0,1.1-0.3,1.3-0.8c0-0.2,0.2-0.2,0.3-0.2h0.6    c0.1,0,0.2,0.1,0.2,0.2c-0.1,1.1-1.1,1.9-2.4,1.9c-1.5,0-2.5-1.1-2.6-2.4c0-0.5,0-1.2,0-1.7c0.1-1.3,1.1-2.4,2.6-2.4    c1.5,0,2.5,0.9,2.5,2.5v0.9c0,0.1-0.1,0.2-0.2,0.2H179.2z M179.1,78.9c0,0.1,0,0.1,0.1,0.1h2.6c0.1,0,0.1,0,0.1-0.1    c0-0.9-0.6-1.4-1.4-1.4C179.7,77.5,179.1,78.1,179.1,78.9z"/>
	</g>
	<g>
		<path d="M29.1,38.3c0-8.2,0-16.3,0-24.5c0-0.8-0.3-1.1-1.1-1.1c-1,0-2,0-3,0c-0.9,0-1.1,0.1-1.3,1c-0.9,3.4-1.9,6.7-2.8,10.1    c-0.1,0.2-0.2,0.4-0.2,0.6c-0.3-0.3-0.4-0.5-0.4-0.8c-0.9-3.3-1.8-6.7-2.7-10c-0.2-0.8-0.4-1-1.3-1c-1,0-1.9,0-2.9,0    c-1,0-1.3,0.2-1.3,1.2c0,7.9,0,15.8,0,23.7c0,0.3,0,0.5,0,0.8c0,0.6,0.3,0.9,0.9,0.9c0.4,0,0.8,0,1.2,0c1.1,0,1.2-0.2,1.2-1.2    c0-6.3,0-12.5,0-18.8c0-0.2,0.1-0.5,0.1-0.7c0.1,0,0.1,0,0.2,0c0.1,0.2,0.2,0.4,0.2,0.6c0.9,3.3,1.9,6.5,2.8,9.8    c0.2,0.6,0.5,0.8,1,0.8c0.5,0,1,0,1.5,0c0.6,0,0.9-0.3,1.1-0.9c0.9-3.3,1.9-6.5,2.8-9.8c0.1-0.2,0.2-0.4,0.3-0.7    c0.1,0,0.1,0,0.2,0c0,0.3,0.1,0.5,0.1,0.8c0,6.2,0,12.4,0,18.6c0,0.2,0,0.3,0,0.5c0,0.6,0.3,0.9,0.9,0.9c0.5,0,0.9,0,1.4,0    C28.8,39.3,29.1,39.1,29.1,38.3z"/>
		<path d="M62.6,74.7c-1.6,0.2-3.5,0.1-4.2-2c-0.1-0.4-0.4-0.6-0.9-0.6c-0.6,0-1.2,0-1.9,0c-0.6,0-0.8,0.3-0.7,0.8    c0.1,0.5,0.2,1.1,0.4,1.5c1.4,3.1,4.9,4.1,8,3.5c3.4-0.7,5.4-3.3,5.4-6.8c0-3,0-6.1,0-9.1c0-3.3,0-6.5,0-9.8    c0-0.3-0.2-0.7-0.4-0.9c-0.3-0.3-1.8-0.2-2.2,0.2c-0.8,0.7-1,0.8-2,0.2c-1.5-0.9-3.1-1-4.7-0.6c-2.9,0.7-5.2,3.2-5.5,6.3    c-0.2,1.8-0.1,3.6-0.1,5.4c0,1.3,0.3,2.6,0.9,3.8c1.3,2.6,4.1,4.5,7.2,3.9c0.7-0.1,1.4-0.4,2.1-0.7c1-0.4,1.4-0.1,1.4,1    c0,0.2,0,0.4,0,0.6C65.4,73,64.3,74.4,62.6,74.7z M61.3,67.1C58.6,67,57,65.4,57,62.8c0-1.4,0-2.8,0-4.2c0-2.7,1.8-4.4,4.5-4.3    c2.6,0.1,4.2,1.6,4.3,4.3c0,0.7,0.1,1.4,0.1,2.1c0,0-0.1,0-0.1,0c0,0.7,0,1.5,0,2.2C65.7,65.5,63.9,67.2,61.3,67.1z"/>
		<path d="M18.9,98.3c-2.2-0.3-3.8-1.9-3.8-3.8c0-2-0.4-1.7-1.9-1.7c-0.3,0-0.5,0-0.8,0c-0.8,0-1.1,0.3-1.1,1.1    c0,0.8,0.1,1.6,0.3,2.3c0.9,3.2,3.8,5.5,7.3,5.7c2.8,0.2,5.4-0.5,7.4-2.6c3-3.1,2.8-9-1-11.4c-1.4-0.9-3-1.5-4.6-1.9    c-1.3-0.3-2.6-0.5-3.7-1.3c-1.7-1.2-1.9-3.8-0.4-5.2c1.1-1,2.5-1.2,3.9-1.1c2.2,0.2,3.6,1.7,3.5,3.8c0,0.6,0.3,0.9,0.9,0.9    c0.6,0,1.1,0,1.7,0c0.8,0,1.1-0.3,1.1-1.1c0-2.8-1.2-4.9-3.6-6.3c-1.8-1-3.7-1.2-5.7-1c-4.8,0.6-7.6,5.3-5.8,9.7    c0.9,2.4,2.8,3.6,5.2,4.3c1.5,0.4,3.1,0.7,4.6,1.3c2.6,1,3.3,4.4,1.3,6.5C22.4,98.3,20.7,98.6,18.9,98.3z"/>
		<path d="M49.3,38.5c0-0.5,0-1,0-1.5c0-1-0.2-1.2-1.2-1.2c-2.8,0-5.6,0-8.4,0c-1,0-1,0-1-1c0-2,0-4.1,0-6.1c0-1,0-1,1-1    c2.7,0,5.4,0,8.1,0c0.9,0,1.1-0.3,1.1-1.2c0-0.4,0-0.9,0-1.3c0-0.9-0.2-1.2-1.1-1.2c-2.8,0-5.5,0-8.3,0c-0.6,0-0.8-0.2-0.8-0.8    c0-2,0-4,0-5.9c0-0.9,0-0.9,0.9-0.9c2.9,0,5.7,0,8.6,0c0.8,0,1.1-0.2,1.1-1.1c0-0.5,0-0.9,0-1.4c0-0.9-0.2-1.2-1.2-1.2    c-3.9,0-7.8,0-11.7,0c-1,0-1.2,0.2-1.2,1.3c0,4,0,8,0,12.1c0,1.6,0,3.1,0,4.7c0,2.5,0,5,0,7.5c0,0.7,0.3,1.1,0.9,1.1    c4.1,0,8.3,0,12.4,0C49,39.3,49.3,39,49.3,38.5z"/>
		<path d="M27.9,61.3c-0.4,0-0.9,0-1.4,0c-1.2,0-1.4,0.1-1.4,1.4c0,1.5-0.7,2.6-1.9,3.4c-0.9,0.6-1.9,0.8-2.9,0.8    c-2.7,0-4.6-1.6-4.9-4.3c-0.2-1.9-0.3-3.8-0.4-5.7c0.1-1.9,0.2-3.8,0.4-5.6c0.3-3.5,3.6-4.9,6.6-4.1c2,0.5,3.2,2.2,3.3,4.2    c0,0.9,0.3,1.1,1.2,1.1c0.5,0,1,0,1.5,0c0.6,0,0.9-0.3,0.9-0.9c0-1.8-0.4-3.5-1.5-5c-1.5-2-3.6-3-6-3.2c-2.8-0.2-5.3,0.5-7.3,2.7    c-1.5,1.7-2.1,3.7-2.3,5.9c-0.3,3.6-0.4,7.2,0.1,10.8c0.4,3.2,2,5.7,5.1,7c1.7,0.7,3.4,0.8,5.1,0.5c4.2-0.6,6.8-4.1,6.8-8.1    C28.7,61.6,28.4,61.3,27.9,61.3z"/>
		<path d="M48.5,57.7c-0.3-2.9-1.8-5.1-4.6-6.3c-1.4-0.6-2.8-0.7-4.2-0.5c-2.8,0.3-4.9,1.8-6,4.4c-0.8,1.7-0.7,3.5-0.8,5.5    c0,0.7,0.1,1.6,0.1,2.5c0.1,1.5,0.5,2.9,1.4,4.1c1.4,1.9,3.3,2.9,5.7,3.1c3.9,0.3,7.4-1.8,8.3-5.9C48.8,62.3,48.7,60,48.5,57.7z     M45.1,63.6c-0.1,1.1-1.2,3.1-3.2,3.4c-2.1,0.4-4-0.1-5-2c-0.3-0.5-0.5-1.1-0.5-1.7c-0.1-1.7-0.1-3.5,0-5.2c0.2-2.5,2-3.9,4.5-3.9    c2.4,0,3.8,1.5,4.2,3.2c0.2,1,0.2,2.1,0.2,3.2c0,0-0.1,0-0.1,0C45.1,61.7,45.2,62.6,45.1,63.6z"/>
		<path d="M39.8,85.9c0.7-0.1,1.4-0.1,2.1,0c1.7,0.2,2.8,1.4,2.9,3.1c0.1,0.5,0.4,0.6,0.8,0.6c0.5,0,1,0,1.5,0c0.9,0,1.1-0.2,1-1.1    c-0.1-2.2-1.2-3.9-3.1-5c-1.6-1-3.4-1.2-5.3-1c-2.8,0.3-4.8,1.8-5.9,4.4c-0.7,1.7-0.6,3.5-0.7,5.5c0,0.8,0,1.8,0.1,2.8    c0.3,2.7,1.5,5,4.1,6.2c2.8,1.3,5.6,1,8.2-0.7c1.6-1.1,2.4-2.7,2.5-4.6c0-0.8-0.2-1.1-1-1.1c-0.5,0-1.1,0-1.6,0    c-0.5,0-0.8,0.2-0.8,0.8c0,1-0.5,1.9-1.4,2.3c-0.7,0.4-1.6,0.6-2.4,0.6c-2.3,0.1-4-1.2-4.2-3.5c-0.2-1.9-0.1-3.9,0-5.8    C37,87.6,38.2,86.2,39.8,85.9z"/>
		<path d="M55.6,101.7c1,0,1.9,0,2.9,0c3.5,0,7.1,0,10.6,0c0.9,0,1.1-0.2,1.1-1.1c0-0.4,0-0.7,0-1.1c0-0.8-0.3-1-1.1-1    c-1.4,0-2.8,0-4.1,0c-0.6,0-0.8-0.2-0.8-0.8c0-2.3,0-4.6,0-7c0-2.3,0-4.6,0-7c0-0.7-0.3-1-0.9-1c-2.5,0-4.9,0-7.4,0    c-0.6,0-0.9,0.3-0.9,0.9c0,0.4,0,0.8,0,1.2c0,0.9,0.3,1.1,1.1,1.1c1.3,0,2.6,0,3.9,0c0.6,0,0.8,0.2,0.8,0.8c0,3.7,0,7.3,0,11    c0,0.6-0.2,0.8-0.8,0.8c-1.5,0-2.9,0-4.4,0c-0.7,0-1,0.3-1,0.9c0,0.5,0,0.9,0,1.4C54.6,101.4,54.9,101.7,55.6,101.7z"/>
		<path d="M70.8,38.3c0-0.4,0-0.8,0-1.2c0-0.7-0.3-1-1-1c-1.3,0-2.7,0-4,0c-0.9,0-1,0-1-0.9c0-2.3,0-4.6,0-6.8c0-2.3,0-4.7,0-7    c0-0.6-0.2-0.9-0.8-0.9c-2.5,0-5.1,0-7.6,0c-0.5,0-0.8,0.3-0.8,0.8c0,0.5,0,0.9,0,1.4c0,0.8,0.2,1,1,1c1.3,0,2.6,0,3.9,0    c0.6,0,0.8,0.1,0.8,0.8c0,3.7,0,7.4,0,11c0,0.6-0.2,0.8-0.8,0.8c-1.4,0-2.8,0-4.2,0c-0.9,0-1.1,0.2-1.1,1.1c0,0.3,0,0.7,0,1    c0,0.9,0.2,1.1,1.1,1.1c2.2,0,4.5,0,6.7,0s4.5,0,6.7,0C70.6,39.3,70.8,39.1,70.8,38.3z"/>
		<path d="M78.2,21.5c-0.5,0-0.8,0.3-0.8,0.8c0,1.1,0,2.2,0,3.3c0,0.6,0.3,0.8,0.8,0.8c0.5,0,1,0,1.5,0c0.6,0,1.1,0,1.7,0    c0.6,0,0.8-0.3,0.8-0.8c0-1.1,0-2.1,0-3.2c0-0.5-0.3-0.9-0.8-0.9C80.4,21.5,79.3,21.5,78.2,21.5z"/>
		<path d="M81.2,42.4c-0.9,0-1.7,0-2.6,0c-0.4,0-0.6,0.2-0.6,0.6c0,0.9,0,66.9,0,66.9h-74V4.2h74c0,0,0,12.7,0,13.6    c0,0.4,0.2,0.7,0.7,0.7c0.4,0,0.8,0,1.2,0c0.4,0,0.9,0,1.3,0c0.4,0,0.7-0.2,0.7-0.7c0-0.9,0-15.5,0-15.5c0-1.1-0.9-1.9-1.9-1.9    H1.9C0.9,0.4,0,1.2,0,2.3v109.5c0,1.1,0.9,1.9,1.9,1.9h77.9c1.1,0,1.9-0.9,1.9-1.9c0,0,0-67.9,0-68.7    C81.8,42.6,81.6,42.4,81.2,42.4z"/>
		<path d="M82.3,36.9c0-0.6,0-1.1,0-1.7c0-0.5-0.3-0.8-0.8-0.8c-1.1,0-2.2,0-3.3,0c-0.5,0-0.8,0.3-0.8,0.8c0,1.1,0,2.2,0,3.3    c0,0.5,0.3,0.8,0.8,0.8c1.1,0,2.2,0,3.3,0c0.5,0,0.8-0.3,0.8-0.9C82.3,37.9,82.3,37.4,82.3,36.9z"/>
		<circle cx="62.5" cy="14.1" r="2.7"/>
	</g>
</g>
</svg>