<?xml version="1.0" encoding="UTF-8" standalone="no"?>
<!-- Generator: Adobe Illustrator 21.1.0, SVG Export Plug-In . SVG Version: 6.00 Build 0)  -->

<svg
   xmlns:dc="http://purl.org/dc/elements/1.1/"
   xmlns:cc="http://creativecommons.org/ns#"
   xmlns:rdf="http://www.w3.org/1999/02/22-rdf-syntax-ns#"
   xmlns:svg="http://www.w3.org/2000/svg"
   xmlns="http://www.w3.org/2000/svg"
   xmlns:sodipodi="http://sodipodi.sourceforge.net/DTD/sodipodi-0.dtd"
   xmlns:inkscape="http://www.inkscape.org/namespaces/inkscape"
   version="1.1"
   id="Layer_1"
   x="0px"
   y="0px"
   viewBox="0 0 82.299997 113.3"
   xml:space="preserve"
   sodipodi:docname="logo-notext.svg"
   width="0.85729164in"
   height="1.1802083in"
   inkscape:version="0.92.2 (5c3e80d, 2017-08-06)"><metadata
     id="metadata171"><rdf:RDF><cc:Work
         rdf:about=""><dc:format>image/svg+xml</dc:format><dc:type
           rdf:resource="http://purl.org/dc/dcmitype/StillImage" /><dc:title></dc:title></cc:Work></rdf:RDF></metadata><defs
     id="defs169" /><sodipodi:namedview
     pagecolor="#ffffff"
     bordercolor="#666666"
     borderopacity="1"
     objecttolerance="10"
     gridtolerance="10"
     guidetolerance="10"
     inkscape:pageopacity="0"
     inkscape:pageshadow="2"
     inkscape:window-width="1318"
     inkscape:window-height="822"
     id="namedview167"
     showgrid="false"
     units="in"
     fit-margin-top="0"
     fit-margin-left="0"
     fit-margin-right="0"
     fit-margin-bottom="0"
     inkscape:zoom="1.287398"
     inkscape:cx="110.3"
     inkscape:cy="56.649999"
     inkscape:window-x="955"
     inkscape:window-y="188"
     inkscape:window-maximized="0"
     inkscape:current-layer="Layer_1" /><g
     id="g162"
     transform="translate(0,-0.4)"><path
       inkscape:connector-curvature="0"
       id="path136"
       d="m 29.1,38.3 c 0,-8.2 0,-16.3 0,-24.5 0,-0.8 -0.3,-1.1 -1.1,-1.1 -1,0 -2,0 -3,0 -0.9,0 -1.1,0.1 -1.3,1 -0.9,3.4 -1.9,6.7 -2.8,10.1 -0.1,0.2 -0.2,0.4 -0.2,0.6 -0.3,-0.3 -0.4,-0.5 -0.4,-0.8 -0.9,-3.3 -1.8,-6.7 -2.7,-10 -0.2,-0.8 -0.4,-1 -1.3,-1 -1,0 -1.9,0 -2.9,0 -1,0 -1.3,0.2 -1.3,1.2 0,7.9 0,15.8 0,23.7 0,0.3 0,0.5 0,0.8 0,0.6 0.3,0.9 0.9,0.9 0.4,0 0.8,0 1.2,0 1.1,0 1.2,-0.2 1.2,-1.2 0,-6.3 0,-12.5 0,-18.8 0,-0.2 0.1,-0.5 0.1,-0.7 0.1,0 0.1,0 0.2,0 0.1,0.2 0.2,0.4 0.2,0.6 0.9,3.3 1.9,6.5 2.8,9.8 0.2,0.6 0.5,0.8 1,0.8 0.5,0 1,0 1.5,0 0.6,0 0.9,-0.3 1.1,-0.9 0.9,-3.3 1.9,-6.5 2.8,-9.8 0.1,-0.2 0.2,-0.4 0.3,-0.7 0.1,0 0.1,0 0.2,0 0,0.3 0.1,0.5 0.1,0.8 0,6.2 0,12.4 0,18.6 0,0.2 0,0.3 0,0.5 0,0.6 0.3,0.9 0.9,0.9 0.5,0 0.9,0 1.4,0 0.8,0.2 1.1,0 1.1,-0.8 z" /><path
       inkscape:connector-curvature="0"
       id="path138"
       d="m 62.6,74.7 c -1.6,0.2 -3.5,0.1 -4.2,-2 -0.1,-0.4 -0.4,-0.6 -0.9,-0.6 -0.6,0 -1.2,0 -1.9,0 -0.6,0 -0.8,0.3 -0.7,0.8 0.1,0.5 0.2,1.1 0.4,1.5 1.4,3.1 4.9,4.1 8,3.5 3.4,-0.7 5.4,-3.3 5.4,-6.8 0,-3 0,-6.1 0,-9.1 0,-3.3 0,-6.5 0,-9.8 0,-0.3 -0.2,-0.7 -0.4,-0.9 -0.3,-0.3 -1.8,-0.2 -2.2,0.2 -0.8,0.7 -1,0.8 -2,0.2 -1.5,-0.9 -3.1,-1 -4.7,-0.6 -2.9,0.7 -5.2,3.2 -5.5,6.3 -0.2,1.8 -0.1,3.6 -0.1,5.4 0,1.3 0.3,2.6 0.9,3.8 1.3,2.6 4.1,4.5 7.2,3.9 0.7,-0.1 1.4,-0.4 2.1,-0.7 1,-0.4 1.4,-0.1 1.4,1 0,0.2 0,0.4 0,0.6 0,1.6 -1.1,3 -2.8,3.3 z M 61.3,67.1 C 58.6,67 57,65.4 57,62.8 c 0,-1.4 0,-2.8 0,-4.2 0,-2.7 1.8,-4.4 4.5,-4.3 2.6,0.1 4.2,1.6 4.3,4.3 0,0.7 0.1,1.4 0.1,2.1 0,0 -0.1,0 -0.1,0 0,0.7 0,1.5 0,2.2 -0.1,2.6 -1.9,4.3 -4.5,4.2 z" /><path
       inkscape:connector-curvature="0"
       id="path140"
       d="m 18.9,98.3 c -2.2,-0.3 -3.8,-1.9 -3.8,-3.8 0,-2 -0.4,-1.7 -1.9,-1.7 -0.3,0 -0.5,0 -0.8,0 -0.8,0 -1.1,0.3 -1.1,1.1 0,0.8 0.1,1.6 0.3,2.3 0.9,3.2 3.8,5.5 7.3,5.7 2.8,0.2 5.4,-0.5 7.4,-2.6 3,-3.1 2.8,-9 -1,-11.4 -1.4,-0.9 -3,-1.5 -4.6,-1.9 -1.3,-0.3 -2.6,-0.5 -3.7,-1.3 -1.7,-1.2 -1.9,-3.8 -0.4,-5.2 1.1,-1 2.5,-1.2 3.9,-1.1 2.2,0.2 3.6,1.7 3.5,3.8 0,0.6 0.3,0.9 0.9,0.9 0.6,0 1.1,0 1.7,0 0.8,0 1.1,-0.3 1.1,-1.1 0,-2.8 -1.2,-4.9 -3.6,-6.3 -1.8,-1 -3.7,-1.2 -5.7,-1 -4.8,0.6 -7.6,5.3 -5.8,9.7 0.9,2.4 2.8,3.6 5.2,4.3 1.5,0.4 3.1,0.7 4.6,1.3 2.6,1 3.3,4.4 1.3,6.5 -1.3,1.8 -3,2.1 -4.8,1.8 z" /><path
       inkscape:connector-curvature="0"
       id="path142"
       d="m 49.3,38.5 c 0,-0.5 0,-1 0,-1.5 0,-1 -0.2,-1.2 -1.2,-1.2 -2.8,0 -5.6,0 -8.4,0 -1,0 -1,0 -1,-1 0,-2 0,-4.1 0,-6.1 0,-1 0,-1 1,-1 2.7,0 5.4,0 8.1,0 0.9,0 1.1,-0.3 1.1,-1.2 0,-0.4 0,-0.9 0,-1.3 0,-0.9 -0.2,-1.2 -1.1,-1.2 -2.8,0 -5.5,0 -8.3,0 -0.6,0 -0.8,-0.2 -0.8,-0.8 0,-2 0,-4 0,-5.9 0,-0.9 0,-0.9 0.9,-0.9 2.9,0 5.7,0 8.6,0 0.8,0 1.1,-0.2 1.1,-1.1 0,-0.5 0,-0.9 0,-1.4 0,-0.9 -0.2,-1.2 -1.2,-1.2 -3.9,0 -7.8,0 -11.7,0 -1,0 -1.2,0.2 -1.2,1.3 0,4 0,8 0,12.1 0,1.6 0,3.1 0,4.7 0,2.5 0,5 0,7.5 0,0.7 0.3,1.1 0.9,1.1 4.1,0 8.3,0 12.4,0 0.5,-0.1 0.8,-0.4 0.8,-0.9 z" /><path
       inkscape:connector-curvature="0"
       id="path144"
       d="m 27.9,61.3 c -0.4,0 -0.9,0 -1.4,0 -1.2,0 -1.4,0.1 -1.4,1.4 0,1.5 -0.7,2.6 -1.9,3.4 -0.9,0.6 -1.9,0.8 -2.9,0.8 -2.7,0 -4.6,-1.6 -4.9,-4.3 -0.2,-1.9 -0.3,-3.8 -0.4,-5.7 0.1,-1.9 0.2,-3.8 0.4,-5.6 0.3,-3.5 3.6,-4.9 6.6,-4.1 2,0.5 3.2,2.2 3.3,4.2 0,0.9 0.3,1.1 1.2,1.1 0.5,0 1,0 1.5,0 0.6,0 0.9,-0.3 0.9,-0.9 0,-1.8 -0.4,-3.5 -1.5,-5 -1.5,-2 -3.6,-3 -6,-3.2 -2.8,-0.2 -5.3,0.5 -7.3,2.7 -1.5,1.7 -2.1,3.7 -2.3,5.9 -0.3,3.6 -0.4,7.2 0.1,10.8 0.4,3.2 2,5.7 5.1,7 1.7,0.7 3.4,0.8 5.1,0.5 4.2,-0.6 6.8,-4.1 6.8,-8.1 -0.2,-0.6 -0.5,-0.9 -1,-0.9 z" /><path
       inkscape:connector-curvature="0"
       id="path146"
       d="m 48.5,57.7 c -0.3,-2.9 -1.8,-5.1 -4.6,-6.3 -1.4,-0.6 -2.8,-0.7 -4.2,-0.5 -2.8,0.3 -4.9,1.8 -6,4.4 -0.8,1.7 -0.7,3.5 -0.8,5.5 0,0.7 0.1,1.6 0.1,2.5 0.1,1.5 0.5,2.9 1.4,4.1 1.4,1.9 3.3,2.9 5.7,3.1 3.9,0.3 7.4,-1.8 8.3,-5.9 0.4,-2.3 0.3,-4.6 0.1,-6.9 z m -3.4,5.9 c -0.1,1.1 -1.2,3.1 -3.2,3.4 -2.1,0.4 -4,-0.1 -5,-2 -0.3,-0.5 -0.5,-1.1 -0.5,-1.7 -0.1,-1.7 -0.1,-3.5 0,-5.2 0.2,-2.5 2,-3.9 4.5,-3.9 2.4,0 3.8,1.5 4.2,3.2 0.2,1 0.2,2.1 0.2,3.2 0,0 -0.1,0 -0.1,0 -0.1,1.1 0,2 -0.1,3 z" /><path
       inkscape:connector-curvature="0"
       id="path148"
       d="m 39.8,85.9 c 0.7,-0.1 1.4,-0.1 2.1,0 1.7,0.2 2.8,1.4 2.9,3.1 0.1,0.5 0.4,0.6 0.8,0.6 0.5,0 1,0 1.5,0 0.9,0 1.1,-0.2 1,-1.1 -0.1,-2.2 -1.2,-3.9 -3.1,-5 -1.6,-1 -3.4,-1.2 -5.3,-1 -2.8,0.3 -4.8,1.8 -5.9,4.4 -0.7,1.7 -0.6,3.5 -0.7,5.5 0,0.8 0,1.8 0.1,2.8 0.3,2.7 1.5,5 4.1,6.2 2.8,1.3 5.6,1 8.2,-0.7 1.6,-1.1 2.4,-2.7 2.5,-4.6 0,-0.8 -0.2,-1.1 -1,-1.1 -0.5,0 -1.1,0 -1.6,0 -0.5,0 -0.8,0.2 -0.8,0.8 0,1 -0.5,1.9 -1.4,2.3 -0.7,0.4 -1.6,0.6 -2.4,0.6 -2.3,0.1 -4,-1.2 -4.2,-3.5 -0.2,-1.9 -0.1,-3.9 0,-5.8 0.4,-1.8 1.6,-3.2 3.2,-3.5 z" /><path
       inkscape:connector-curvature="0"
       id="path150"
       d="m 55.6,101.7 c 1,0 1.9,0 2.9,0 3.5,0 7.1,0 10.6,0 0.9,0 1.1,-0.2 1.1,-1.1 0,-0.4 0,-0.7 0,-1.1 0,-0.8 -0.3,-1 -1.1,-1 -1.4,0 -2.8,0 -4.1,0 -0.6,0 -0.8,-0.2 -0.8,-0.8 0,-2.3 0,-4.6 0,-7 0,-2.3 0,-4.6 0,-7 0,-0.7 -0.3,-1 -0.9,-1 -2.5,0 -4.9,0 -7.4,0 -0.6,0 -0.9,0.3 -0.9,0.9 0,0.4 0,0.8 0,1.2 0,0.9 0.3,1.1 1.1,1.1 1.3,0 2.6,0 3.9,0 0.6,0 0.8,0.2 0.8,0.8 0,3.7 0,7.3 0,11 0,0.6 -0.2,0.8 -0.8,0.8 -1.5,0 -2.9,0 -4.4,0 -0.7,0 -1,0.3 -1,0.9 0,0.5 0,0.9 0,1.4 0,0.6 0.3,0.9 1,0.9 z" /><path
       inkscape:connector-curvature="0"
       id="path152"
       d="m 70.8,38.3 c 0,-0.4 0,-0.8 0,-1.2 0,-0.7 -0.3,-1 -1,-1 -1.3,0 -2.7,0 -4,0 -0.9,0 -1,0 -1,-0.9 0,-2.3 0,-4.6 0,-6.8 0,-2.3 0,-4.7 0,-7 0,-0.6 -0.2,-0.9 -0.8,-0.9 -2.5,0 -5.1,0 -7.6,0 -0.5,0 -0.8,0.3 -0.8,0.8 0,0.5 0,0.9 0,1.4 0,0.8 0.2,1 1,1 1.3,0 2.6,0 3.9,0 0.6,0 0.8,0.1 0.8,0.8 0,3.7 0,7.4 0,11 0,0.6 -0.2,0.8 -0.8,0.8 -1.4,0 -2.8,0 -4.2,0 -0.9,0 -1.1,0.2 -1.1,1.1 0,0.3 0,0.7 0,1 0,0.9 0.2,1.1 1.1,1.1 2.2,0 4.5,0 6.7,0 2.2,0 4.5,0 6.7,0 0.9,-0.2 1.1,-0.4 1.1,-1.2 z" /><path
       inkscape:connector-curvature="0"
       id="path154"
       d="m 78.2,21.5 c -0.5,0 -0.8,0.3 -0.8,0.8 0,1.1 0,2.2 0,3.3 0,0.6 0.3,0.8 0.8,0.8 0.5,0 1,0 1.5,0 0.6,0 1.1,0 1.7,0 0.6,0 0.8,-0.3 0.8,-0.8 0,-1.1 0,-2.1 0,-3.2 0,-0.5 -0.3,-0.9 -0.8,-0.9 -1,0 -2.1,0 -3.2,0 z" /><path
       inkscape:connector-curvature="0"
       id="path156"
       d="m 81.2,42.4 c -0.9,0 -1.7,0 -2.6,0 -0.4,0 -0.6,0.2 -0.6,0.6 0,0.9 0,66.9 0,66.9 H 4 V 4.2 h 74 c 0,0 0,12.7 0,13.6 0,0.4 0.2,0.7 0.7,0.7 0.4,0 0.8,0 1.2,0 0.4,0 0.9,0 1.3,0 0.4,0 0.7,-0.2 0.7,-0.7 0,-0.9 0,-15.5 0,-15.5 C 81.9,1.2 81,0.4 80,0.4 H 1.9 C 0.9,0.4 0,1.2 0,2.3 v 109.5 c 0,1.1 0.9,1.9 1.9,1.9 h 77.9 c 1.1,0 1.9,-0.9 1.9,-1.9 0,0 0,-67.9 0,-68.7 0.1,-0.5 -0.1,-0.7 -0.5,-0.7 z" /><path
       inkscape:connector-curvature="0"
       id="path158"
       d="m 82.3,36.9 c 0,-0.6 0,-1.1 0,-1.7 0,-0.5 -0.3,-0.8 -0.8,-0.8 -1.1,0 -2.2,0 -3.3,0 -0.5,0 -0.8,0.3 -0.8,0.8 0,1.1 0,2.2 0,3.3 0,0.5 0.3,0.8 0.8,0.8 1.1,0 2.2,0 3.3,0 0.5,0 0.8,-0.3 0.8,-0.9 0,-0.5 0,-1 0,-1.5 z" /><circle
       id="circle160"
       r="2.7"
       cy="14.1"
       cx="62.5" /></g></svg>