<?xml version="1.0" encoding="UTF-8" standalone="no"?>
<!-- Generator: Adobe Illustrator 21.1.0, SVG Export Plug-In . SVG Version: 6.00 Build 0)  -->

<svg
   xmlns:dc="http://purl.org/dc/elements/1.1/"
   xmlns:cc="http://creativecommons.org/ns#"
   xmlns:rdf="http://www.w3.org/1999/02/22-rdf-syntax-ns#"
   xmlns:svg="http://www.w3.org/2000/svg"
   xmlns="http://www.w3.org/2000/svg"
   xmlns:sodipodi="http://sodipodi.sourceforge.net/DTD/sodipodi-0.dtd"
   xmlns:inkscape="http://www.inkscape.org/namespaces/inkscape"
   version="1.1"
   id="Layer_1"
   x="0px"
   y="0px"
   viewBox="0 0 27.100001 28.100001"
   xml:space="preserve"
   sodipodi:docname="logo-i.svg"
   width="0.28229168in"
   height="0.29270834in"
   inkscape:version="0.92.2 (5c3e80d, 2017-08-06)"><metadata
     id="metadata171"><rdf:RDF><cc:Work
         rdf:about=""><dc:format>image/svg+xml</dc:format><dc:type
           rdf:resource="http://purl.org/dc/dcmitype/StillImage" /><dc:title></dc:title></cc:Work></rdf:RDF></metadata><defs
     id="defs169" /><sodipodi:namedview
     pagecolor="#ffffff"
     bordercolor="#666666"
     borderopacity="1"
     objecttolerance="10"
     gridtolerance="10"
     guidetolerance="10"
     inkscape:pageopacity="0"
     inkscape:pageshadow="2"
     inkscape:window-width="1318"
     inkscape:window-height="822"
     id="namedview167"
     showgrid="false"
     units="in"
     fit-margin-top="0"
     fit-margin-left="0"
     fit-margin-right="0"
     fit-margin-bottom="0"
     inkscape:zoom="3.6413114"
     inkscape:cx="20.84711"
     inkscape:cy="-21.419673"
     inkscape:window-x="955"
     inkscape:window-y="188"
     inkscape:window-maximized="0"
     inkscape:current-layer="Layer_1" /><path
     d="m 15.6,26.899999 c 0,-0.4 0,-0.8 0,-1.2 0,-0.7 -0.3,-1 -1,-1 -1.3,0 -2.7,0 -4,0 -0.9,0 -1,0 -1,-0.9 0,-2.3 0,-4.6 0,-6.8 0,-2.3 0,-4.7 0,-6.9999997 0,-0.6 -0.2,-0.9 -0.8,-0.9 -2.5,0 -5.1,0 -7.6,0 -0.5,0 -0.8,0.3 -0.8,0.8 0,0.4999997 0,0.8999997 0,1.3999997 0,0.8 0.2,1 1,1 1.3,0 2.6,0 3.9,0 0.6,0 0.8,0.1 0.8,0.8 0,3.7 0,7.4 0,11 0,0.6 -0.2,0.8 -0.8,0.8 -1.4,0 -2.8,0 -4.2,0 -0.9,0 -1.1,0.2 -1.1,1.1 0,0.3 0,0.7 0,1 0,0.9 0.2,1.1 1.1,1.1 2.2,0 4.5,0 6.7,0 2.2,0 4.5,0 6.7,0 0.9,-0.2 1.1,-0.4 1.1,-1.2 z"
     id="path152"
     inkscape:connector-curvature="0" /><path
     d="m 23,10.099999 c -0.5,0 -0.8,0.3 -0.8,0.8 0,1.1 0,2.2 0,3.3 0,0.6 0.3,0.8 0.8,0.8 0.5,0 1,0 1.5,0 0.6,0 1.1,0 1.7,0 0.6,0 0.8,-0.3 0.8,-0.8 0,-1.1 0,-2.1 0,-3.2 0,-0.5 -0.3,-0.9 -0.8,-0.9 -1,0 -2.1,0 -3.2,0 z"
     id="path154"
     inkscape:connector-curvature="0" /><path
     d="m 27.1,25.499999 c 0,-0.6 0,-1.1 0,-1.7 0,-0.5 -0.3,-0.8 -0.8,-0.8 -1.1,0 -2.2,0 -3.3,0 -0.5,0 -0.8,0.3 -0.8,0.8 0,1.1 0,2.2 0,3.3 0,0.5 0.3,0.8 0.8,0.8 1.1,0 2.2,0 3.3,0 0.5,0 0.8,-0.3 0.8,-0.9 0,-0.5 0,-1 0,-1.5 z"
     id="path158"
     inkscape:connector-curvature="0" /><circle
     cx="7.3000002"
     cy="2.7"
     r="2.7"
     id="circle160" /></svg>