<?xml version="1.0" encoding="UTF-8" standalone="no"?>
<svg
        xmlns:dc="http://purl.org/dc/elements/1.1/"
        xmlns:cc="http://creativecommons.org/ns#"
        xmlns:rdf="http://www.w3.org/1999/02/22-rdf-syntax-ns#"
        xmlns="http://www.w3.org/2000/svg"
        xmlns:sodipodi="http://sodipodi.sourceforge.net/DTD/sodipodi-0.dtd"
        xmlns:inkscape="http://www.inkscape.org/namespaces/inkscape"
        version="1.0"
        width="50.000000pt"
        height="50.000000pt"
        viewBox="0 0 50.000000 50.000000"
        preserveAspectRatio="xMidYMid meet"
        id="svg880"
        sodipodi:docname="cb-selected.svg"
        inkscape:version="0.92.3 (2405546, 2018-03-11)">
  <defs
     id="defs884" />
  <sodipodi:namedview
     pagecolor="#ffffff"
     bordercolor="#666666"
     borderopacity="1"
     objecttolerance="10"
     gridtolerance="10"
     guidetolerance="10"
     inkscape:pageopacity="0"
     inkscape:pageshadow="2"
     inkscape:window-width="2560"
     inkscape:window-height="1377"
     id="namedview882"
     showgrid="false"
     inkscape:zoom="3.54"
     inkscape:cx="33.19209"
     inkscape:cy="33.333333"
     inkscape:window-x="-8"
     inkscape:window-y="-8"
     inkscape:window-maximized="1"
     inkscape:current-layer="svg880" />
  <metadata
     id="metadata874">
<rdf:RDF>
  <cc:Work
     rdf:about="">
    <dc:format>image/svg+xml</dc:format>
    <dc:type
       rdf:resource="http://purl.org/dc/dcmitype/StillImage" />
    <dc:title></dc:title>
  </cc:Work>
</rdf:RDF>
</metadata>
  <g
     transform="translate(0.000000,50.000000) scale(0.100000,-0.100000)"
     fill="#000000"
     stroke="none"
     id="g878">
    <path
       d="M54 439 c-17 -19 -19 -38 -19 -191 0 -222 -14 -208 216 -208 223 0 209 -14 209 208 0 229 16 212 -209 212 -168 0 -179 -1 -197 -21z m354 -15 c21 -15 22 -21 22 -173 0 -109 -4 -161 -12 -169 -8 -8 -60 -12 -169 -12 -199 0 -189 -9 -189 177 0 140 8 178 37 186 10 3 79 5 153 6 108 1 140 -2 158 -15z"
       id="path876" />
  </g>
  <rect
     style="fill:#000000;stroke-width:0.75"
     id="rect1431"
     width="3.3898306"
     height="24.152542"
     x="33.657669"
     y="-12.517902"
     transform="rotate(45.715713)" />
  <rect
     style="fill:#000000;stroke-width:0.75"
     id="rect1431-1"
     width="3.3898306"
     height="24.152542"
     x="-0.17629507"
     y="-47.398983"
     transform="rotate(132.53821)" />
</svg>
