<?xml version="1.0" encoding="UTF-8" standalone="no"?>
<!-- Created with Inkscape (http://www.inkscape.org/) -->

<svg
   xmlns:dc="http://purl.org/dc/elements/1.1/"
   xmlns:cc="http://creativecommons.org/ns#"
   xmlns:rdf="http://www.w3.org/1999/02/22-rdf-syntax-ns#"
   xmlns:svg="http://www.w3.org/2000/svg"
   xmlns="http://www.w3.org/2000/svg"
   xmlns:sodipodi="http://sodipodi.sourceforge.net/DTD/sodipodi-0.dtd"
   xmlns:inkscape="http://www.inkscape.org/namespaces/inkscape"
   width="100"
   height="100"
   id="svg2"
   version="1.1"
   inkscape:version="0.48.5 r10040"
   sodipodi:docname="matches.svg">
  <defs
     id="defs4" />
  <sodipodi:namedview
     id="base"
     pagecolor="#ffffff"
     bordercolor="#666666"
     borderopacity="1.0"
     inkscape:pageopacity="0.0"
     inkscape:pageshadow="2"
     inkscape:zoom="2.8"
     inkscape:cx="-25.535715"
     inkscape:cy="46.189312"
     inkscape:document-units="px"
     inkscape:current-layer="layer1"
     showgrid="false"
     inkscape:window-width="1920"
     inkscape:window-height="1014"
     inkscape:window-x="0"
     inkscape:window-y="27"
     inkscape:window-maximized="1" />
  <metadata
     id="metadata7">
    <rdf:RDF>
      <cc:Work
         rdf:about="">
        <dc:format>image/svg+xml</dc:format>
        <dc:type
           rdf:resource="http://purl.org/dc/dcmitype/StillImage" />
        <dc:title></dc:title>
      </cc:Work>
    </rdf:RDF>
  </metadata>
  <g
     inkscape:label="Layer 1"
     inkscape:groupmode="layer"
     id="layer1"
     transform="translate(0,-952.36218)">
    <path
       style="fill:#363636;fill-opacity:1;stroke:none"
       d="m -223.2796,994.31322 c -0.18805,-39.90967 96.02198,-39.38187 95.86631,-2.59737 -0.053,12.50705 -16.99001,19.31385 -36.36309,21.72345 -5.7552,9.3552 -18.19783,17.8744 -34.00183,25.9735 6.3077,-8.8152 11.27412,-16.4499 11.33395,-25.2653 -34.30908,-4.2037 -36.81745,-16.03505 -36.83534,-19.83428 z"
       id="path2985"
       inkscape:connector-curvature="0"
       sodipodi:nodetypes="sscccs" />
    <g
       id="g3004"
       transform="matrix(2.4210791,0,0,2.4210791,-1045.0415,109.79467)"
       style="fill:#363636;fill-opacity:1;stroke:none">
      <path
         sodipodi:nodetypes="ccccccccc"
         inkscape:connector-curvature="0"
         id="path2998"
         d="m 400.17857,348.5229 c -1.15156,4.42758 -3.12922,12.03992 2.5,20.57396 -2.24044,9.66304 -1.59989,15.95338 -0.89285,18.71175 6.14943,0.0613 11.55799,-1.02767 16.33928,-4.73214 -2.05548,-2.42753 -4.00411,-5.42972 -4.01786,-12.32143 4.51576,3.02268 4.3786,4.4127 7.81115,8.08531 -0.0293,-4.52561 -4.65179,-12.38181 -6.91829,-13.35317 0,0 -5.60193,0.44204 -8.47144,-1.13071 -2.73339,-1.78132 -4.08699,-4.74936 -6.34999,-15.83357 z"
         style="fill:#363636;fill-opacity:1;stroke:none" />
      <path
         sodipodi:nodetypes="zzz"
         inkscape:connector-curvature="0"
         id="path3002"
         d="m 411.8272,354.36615 c 5.3855,0.6242 4.85717,11.38341 -1.51786,11.33929 -6.37503,-0.0441 -3.86764,-11.96349 1.51786,-11.33929 z"
         style="fill:#363636;fill-opacity:1;stroke:none" />
    </g>
    <path
       style="fill:#363636;fill-opacity:1;stroke:none"
       d="m 22.021128,983.86637 18.33695,0 c -3.28052,-4.202 -9.42106,-21.42398 6.60129,-21.71088 16.02235,-0.28689 9.82666,15.97872 7.1881,21.71088 l 20.09729,0 0,18.11703 c 5.23779,-3.22221 17.12614,-4.02695 17.01669,9.3151 -0.10947,13.342 -12.52495,9.1127 -17.01669,6.9679 l 0,20.4641 -14.66954,0 c 0,0 5.87104,-14.6238 -7.62819,-15.2563 -13.49924,-0.6327 -7.99933,15.2563 -7.99933,15.2563 l -21.33977,0 -0.14662,-24.4322 c 0.0893,-0.802 13.98663,5.1737 14.00193,-7.5609 0.0153,-12.73448 -14.37227,-6.79361 -14.29534,-7.25511 z"
       id="path3008"
       inkscape:connector-curvature="0"
       sodipodi:nodetypes="cczccczccczccczcc" />
  </g>
</svg>
