<?xml version="1.0" encoding="UTF-8" standalone="no"?>
<!-- Created with Inkscape (http://www.inkscape.org/) -->

<svg
   xmlns:dc="http://purl.org/dc/elements/1.1/"
   xmlns:cc="http://creativecommons.org/ns#"
   xmlns:rdf="http://www.w3.org/1999/02/22-rdf-syntax-ns#"
   xmlns:svg="http://www.w3.org/2000/svg"
   xmlns="http://www.w3.org/2000/svg"
   xmlns:sodipodi="http://sodipodi.sourceforge.net/DTD/sodipodi-0.dtd"
   xmlns:inkscape="http://www.inkscape.org/namespaces/inkscape"
   width="100"
   height="100"
   id="svg2"
   version="1.1"
   inkscape:version="0.48.5 r10040"
   sodipodi:docname="matches.svg">
  <defs
     id="defs4" />
  <sodipodi:namedview
     id="base"
     pagecolor="#ffffff"
     bordercolor="#666666"
     borderopacity="1.0"
     inkscape:pageopacity="0.0"
     inkscape:pageshadow="2"
     inkscape:zoom="2.8"
     inkscape:cx="-25.535715"
     inkscape:cy="46.189312"
     inkscape:document-units="px"
     inkscape:current-layer="layer1"
     showgrid="false"
     inkscape:window-width="1920"
     inkscape:window-height="1014"
     inkscape:window-x="0"
     inkscape:window-y="27"
     inkscape:window-maximized="1" />
  <metadata
     id="metadata7">
    <rdf:RDF>
      <cc:Work
         rdf:about="">
        <dc:format>image/svg+xml</dc:format>
        <dc:type
           rdf:resource="http://purl.org/dc/dcmitype/StillImage" />
        <dc:title></dc:title>
      </cc:Work>
    </rdf:RDF>
  </metadata>
  <g
     inkscape:label="Layer 1"
     inkscape:groupmode="layer"
     id="layer1"
     transform="translate(0,-952.36218)">
    <path
       style="fill:#363636;fill-opacity:1;stroke:none"
       d="m 22.021128,983.86637 18.33695,0 c -3.28052,-4.202 -9.42106,-21.42398 6.60129,-21.71088 16.02235,-0.28689 9.82666,15.97872 7.1881,21.71088 l 20.09729,0 0,18.11703 c 5.23779,-3.22221 17.12614,-4.02695 17.01669,9.3151 -0.10947,13.342 -12.52495,9.1127 -17.01669,6.9679 l 0,20.4641 -14.66954,0 c 0,0 5.87104,-14.6238 -7.62819,-15.2563 -13.49924,-0.6327 -7.99933,15.2563 -7.99933,15.2563 l -21.33977,0 -0.14662,-24.4322 c 0.0893,-0.802 13.98663,5.1737 14.00193,-7.5609 0.0153,-12.73448 -14.37227,-6.79361 -14.29534,-7.25511 z"
       id="path3008"
       inkscape:connector-curvature="0"
       sodipodi:nodetypes="cczccczccczccczcc" />
  </g>
</svg>
