<?xml version="1.0" encoding="UTF-8" standalone="no"?>
<!-- Created with Inkscape (http://www.inkscape.org/) -->

<svg
   xmlns:dc="http://purl.org/dc/elements/1.1/"
   xmlns:cc="http://creativecommons.org/ns#"
   xmlns:rdf="http://www.w3.org/1999/02/22-rdf-syntax-ns#"
   xmlns:svg="http://www.w3.org/2000/svg"
   xmlns="http://www.w3.org/2000/svg"
   version="1.1"
   width="100"
   height="100"
   id="svg2">
  <defs
     id="defs4" />
  <metadata
     id="metadata7">
    <rdf:RDF>
      <cc:Work
         rdf:about="">
        <dc:format>image/svg+xml</dc:format>
        <dc:type
           rdf:resource="http://purl.org/dc/dcmitype/StillImage" />
        <dc:title></dc:title>
      </cc:Work>
    </rdf:RDF>
  </metadata>
  <g
     transform="translate(0,-952.36218)"
     id="layer1">
    <g
       transform="matrix(2.4210791,0,0,2.4210791,-941.11289,111.58038)"
       id="g3004"
       style="fill:#363636;fill-opacity:1;stroke:none">
      <path
         d="m 400.17857,348.5229 c -1.15156,4.42758 -3.12922,12.03992 2.5,20.57396 -2.24044,9.66304 -1.59989,15.95338 -0.89285,18.71175 6.14943,0.0613 11.55799,-1.02767 16.33928,-4.73214 -2.05548,-2.42753 -4.00411,-5.42972 -4.01786,-12.32143 4.51576,3.02268 4.3786,4.4127 7.81115,8.08531 -0.0293,-4.52561 -4.65179,-12.38181 -6.91829,-13.35317 0,0 -5.60193,0.44204 -8.47144,-1.13071 -2.73339,-1.78132 -4.08699,-4.74936 -6.34999,-15.83357 z"
         id="path2998"
         style="fill:#363636;fill-opacity:1;stroke:none" />
      <path
         d="m 411.8272,354.36615 c 5.3855,0.6242 4.85717,11.38341 -1.51786,11.33929 -6.37503,-0.0441 -3.86764,-11.96349 1.51786,-11.33929 z"
         id="path3002"
         style="fill:#363636;fill-opacity:1;stroke:none" />
    </g>
  </g>
</svg>
