<?xml version="1.0" encoding="utf-8"?>
<!-- Generator: Adobe Illustrator 15.0.0, SVG Export Plug-In . SVG Version: 6.00 Build 0)  -->
<!DOCTYPE svg PUBLIC "-//W3C//DTD SVG 1.1//EN" "http://www.w3.org/Graphics/SVG/1.1/DTD/svg11.dtd">
<svg version="1.1" id="Layer_1" xmlns="http://www.w3.org/2000/svg"  x="0px" y="0px"
	 width="36px" height="36px" viewBox="0 0 36 36" enable-background="new 0 0 36 36" xml:space="preserve">
<g>
	<path fill="#F09F9F" d="M18,36c9.942,0,18-8.059,18-18S27.942,0,18,0C8.059,0,0,8.059,0,18S8.059,36,18,36L18,36z"/>
	<path fill="#FFFFFF" d="M25,12H11c0,0-2,0-2,2v8c0,0,0,2,2,2h5.914l1.186,3.735c0.135,0.426,0.528,0.697,0.954,0.697
		c0.1,0,0.201-0.015,0.303-0.047c0.525-0.167,0.818-0.729,0.65-1.256L19.012,24H25c0,0,2,0,2-2v-8C27,14,27,12,25,12L25,12z"/>
</g>
</svg>
