<?xml version="1.0" encoding="UTF-8" standalone="no"?>
<svg
   xmlns:dc="http://purl.org/dc/elements/1.1/"
   xmlns:cc="http://creativecommons.org/ns#"
   xmlns:rdf="http://www.w3.org/1999/02/22-rdf-syntax-ns#"
   xmlns:svg="http://www.w3.org/2000/svg"
   xmlns="http://www.w3.org/2000/svg"
   version="1.1"
   id="Layer_1"
   x="0px"
   y="0px"
   width="36px"
   height="36px"
   viewBox="0 0 36 36"
   enable-background="new 0 0 36 36"
   xml:space="preserve"><metadata
     id="metadata13"><rdf:RDF><cc:Work
         rdf:about=""><dc:format>image/svg+xml</dc:format><dc:type
           rdf:resource="http://purl.org/dc/dcmitype/StillImage" /><dc:title></dc:title></cc:Work></rdf:RDF></metadata><defs
     id="defs11"><clipPath
       id="clipPath6471"
       clipPathUnits="userSpaceOnUse"><path
         id="path6473"
         d="m 0,0 1440,0 0,900 L 0,900 0,0 Z" /></clipPath><clipPath
       id="clipPath6507"
       clipPathUnits="userSpaceOnUse"><path
         id="path6509"
         d="m 0,0 1440,0 0,900 L 0,900 0,0 Z" /></clipPath><clipPath
       id="clipPath6507-9"
       clipPathUnits="userSpaceOnUse"><path
         id="path6509-2"
         d="m 0,0 1440,0 0,900 L 0,900 0,0 Z" /></clipPath><clipPath
       id="clipPath6543"
       clipPathUnits="userSpaceOnUse"><path
         id="path6545"
         d="m 0,0 1440,0 0,900 L 0,900 0,0 Z" /></clipPath></defs><g
     id="g4406"><g
       style="fill:#ffffff;stroke:#ffffff;stroke-opacity:1;fill-opacity:1"
       transform="matrix(1.1889831,0,0,-1.1889831,23.350459,15.027542)"
       id="g6567"><path
         id="path6569"
         style="fill:#ffffff;stroke:#ffffff;stroke-width:3;stroke-linecap:butt;stroke-linejoin:miter;stroke-miterlimit:10;stroke-dasharray:none;stroke-opacity:1;fill-opacity:1"
         d="M 0,0 C 0.552,0 1,0.448 1,1 1,1.552 0.552,2 0,2 -0.552,2 -1,1.552 -1,1 -1,0.448 -0.552,0 0,0 Z" /></g><g
       transform="matrix(1.1889831,0,0,-1.1889831,18.000035,34.645764)"
       id="g6547"
       style="stroke:#ffffff;stroke-opacity:1"><path
         id="path6549"
         style="fill:none;stroke:#ffffff;stroke-width:2;stroke-linecap:butt;stroke-linejoin:miter;stroke-miterlimit:10;stroke-dasharray:none;stroke-opacity:1"
         d="M 0,0 C 7.732,0 14,6.268 14,14 14,21.732 7.732,28 0,28 -7.732,28 -14,21.732 -14,14 -14,6.268 -7.732,0 0,0 Z" /></g><g
       transform="matrix(1.1889831,0,0,-1.1889831,10.853414,26.827962)"
       id="g6551"
       style="stroke:#ffffff;stroke-opacity:1"><path
         id="path6553"
         style="fill:none;stroke:#ffffff;stroke-width:2;stroke-linecap:butt;stroke-linejoin:miter;stroke-miterlimit:10;stroke-dasharray:none;stroke-opacity:1"
         d="M 0,0 C 3.32,3.32 8.702,3.32 12.021,0" /></g><g
       style="fill:#ffffff;stroke:#ffffff;stroke-opacity:1;fill-opacity:1"
       transform="matrix(1.1889831,0,0,-1.1889831,12.649611,15.027542)"
       id="g6555"><path
         id="path6557"
         style="fill:#ffffff;fill-opacity:1;fill-rule:nonzero;stroke:#ffffff;stroke-opacity:1"
         d="M 0,0 C 0.552,0 1,0.448 1,1 1,1.552 0.552,2 0,2 -0.552,2 -1,1.552 -1,1 -1,0.448 -0.552,0 0,0" /></g><g
       style="fill:#ffffff;stroke:#ffffff;stroke-opacity:1;fill-opacity:1"
       transform="matrix(1.1889831,0,0,-1.1889831,12.649611,15.027542)"
       id="g6559"><path
         id="path6561"
         style="fill:#ffffff;stroke:#ffffff;stroke-width:3;stroke-linecap:butt;stroke-linejoin:miter;stroke-miterlimit:10;stroke-dasharray:none;stroke-opacity:1;fill-opacity:1"
         d="M 0,0 C 0.552,0 1,0.448 1,1 1,1.552 0.552,2 0,2 -0.552,2 -1,1.552 -1,1 -1,0.448 -0.552,0 0,0 Z" /></g><g
       style="fill:#ffffff;stroke:#ffffff;stroke-opacity:1;fill-opacity:1"
       transform="matrix(1.1889831,0,0,-1.1889831,23.350459,15.027542)"
       id="g6563"><path
         id="path6565"
         style="fill:#ffffff;fill-opacity:1;fill-rule:nonzero;stroke:#ffffff;stroke-opacity:1"
         d="M 0,0 C 0.552,0 1,0.448 1,1 1,1.552 0.552,2 0,2 -0.552,2 -1,1.552 -1,1 -1,0.448 -0.552,0 0,0" /></g></g></svg>