<?xml version="1.0" encoding="utf-8"?>
<!-- Generator: Adobe Illustrator 15.0.0, SVG Export Plug-In . SVG Version: 6.00 Build 0)  -->
<!DOCTYPE svg PUBLIC "-//W3C//DTD SVG 1.1//EN" "http://www.w3.org/Graphics/SVG/1.1/DTD/svg11.dtd">
<svg version="1.1" id="Layer_1" xmlns="http://www.w3.org/2000/svg" xmlns:xlink="http://www.w3.org/1999/xlink" x="0px" y="0px"
	 width="36px" height="36px" viewBox="0 0 36 36" enable-background="new 0 0 36 36" xml:space="preserve">
<g>
	<path fill="#FFFFFF" d="M18,35c9.373,0,17-7.626,17-17S27.373,1,18,1C8.626,1,1,8.626,1,18S8.626,35,18,35L18,35z"/>
	<g>
		<g>
			<defs>
				<path id="SVGID_1_" d="M18,36c9.941,0,18-8.059,18-18c0-9.941-8.059-18-18-18C8.059,0,0,8.059,0,18C0,27.941,8.059,36,18,36
					L18,36z"/>
			</defs>
			<clipPath id="SVGID_2_">
				<use xlink:href="#SVGID_1_"  overflow="visible"/>
			</clipPath>
			<polygon clip-path="url(#SVGID_2_)" points="19.414,18 25.777,11.636 24.363,10.222 18,16.586 11.636,10.222 10.222,11.636 
				16.586,18 10.222,24.364 11.636,25.777 18,19.414 24.363,25.777 25.777,24.364 			"/>
		</g>
	</g>
	<g>
		<g>
			<path fill="none" stroke="#000000" stroke-width="2" d="M18,35c9.373,0,17-7.626,17-17S27.373,1,18,1C8.626,1,1,8.626,1,18
				S8.626,35,18,35L18,35z"/>
		</g>
	</g>
</g>
</svg>
