<?xml version="1.0" encoding="UTF-8" standalone="no"?>
<svg xmlns:rdf="http://www.w3.org/1999/02/22-rdf-syntax-ns#" xmlns="http://www.w3.org/2000/svg" xml:space="preserve" height="27.5" viewBox="0 0 27.5 27.5" width="27.5" version="1.1" xmlns:cc="http://creativecommons.org/ns#" xmlns:xlink="http://www.w3.org/1999/xlink" xmlns:dc="http://purl.org/dc/elements/1.1/"><g transform="matrix(1.25,0,0,-1.25,27.5,9.7175)"><path d="m0 0c-0.071 0.212-0.37 0.952-0.899 2.221-1.269-0.317-2.451 0.053-3.543 1.111-0.952 0.952-1.252 2.132-0.899 3.543-0.706 0.388-1.428 0.688-2.169 0.899-0.035-0.035-0.071-0.088-0.105-0.159-0.847-1.304-1.975-1.956-3.385-1.956-1.411 0.105-2.574 0.81-3.49 2.115-0.106-0.035-0.829-0.335-2.169-0.899 0.352-1.375 0.053-2.557-0.899-3.543-1.057-1.058-2.239-1.428-3.543-1.111-0.494-1.163-0.793-1.904-0.899-2.221 1.375-0.811 2.08-1.886 2.115-3.226-0.035-1.446-0.74-2.591-2.115-3.437 0.07-0.212 0.37-0.952 0.899-2.222 1.375 0.352 2.556 0.053 3.543-0.899 0.952-0.952 1.251-2.133 0.899-3.543 0.705-0.388 1.428-0.687 2.169-0.899 0.034 0.035 0.07 0.088 0.105 0.159 0.847 1.304 1.974 1.956 3.385 1.956 1.41-0.105 2.573-0.811 3.49-2.115 0.106 0.035 0.828 0.335 2.169 0.899-0.353 1.375-0.053 2.556 0.899 3.543 1.092 1.058 2.274 1.446 3.543 1.164 0.388 0.705 0.687 1.428 0.899 2.168-1.375 0.811-2.081 1.886-2.115 3.226 0.034 1.304 0.74 2.38 2.115 3.226m-13.486-7.298c-1.516 0.916-2.274 2.274-2.274 4.072 0 0.881 0.229 1.71 0.688 2.486 0.916 1.551 2.274 2.327 4.072 2.327 0.881 0 1.692-0.23 2.433-0.688 1.551-0.952 2.327-2.327 2.327-4.125 0-0.882-0.23-1.71-0.688-2.486-0.917-1.516-2.274-2.274-4.072-2.274-0.882 0-1.71 0.229-2.486 0.688"/></g></svg>
