<?xml version="1.0" encoding="utf-8"?>
<!-- Generator: Adobe Illustrator 15.0.0, SVG Export Plug-In . SVG Version: 6.00 Build 0)  -->
<!DOCTYPE svg PUBLIC "-//W3C//DTD SVG 1.1//EN" "http://www.w3.org/Graphics/SVG/1.1/DTD/svg11.dtd">
<svg version="1.1" id="Layer_1" xmlns="http://www.w3.org/2000/svg" xmlns:xlink="http://www.w3.org/1999/xlink" x="0px" y="0px"
	 width="42px" height="42px" viewBox="0 0 42 42" enable-background="new 0 0 42 42" xml:space="preserve">
<path d="M21,42c11.598,0,21-9.402,21-21C42,9.402,32.598,0,21,0C9.402,0,0,9.402,0,21C0,32.598,9.402,42,21,42"/>
<path fill="#FFFFFF" d="M32.689,16.13c0-1.31-1.064-2.376-2.375-2.376s-2.375,1.066-2.375,2.376c0,0.814,0.412,1.533,1.039,1.961
	l-2.859,7.034c-0.104-0.014-0.205-0.031-0.312-0.031c-0.162,0-0.318,0.018-0.472,0.049l-2.565-7.278
	c0.434-0.43,0.701-1.025,0.701-1.683c0-1.31-1.064-2.376-2.375-2.376c-1.31,0-2.375,1.066-2.375,2.376
	c0,0.657,0.269,1.252,0.702,1.683l-2.564,7.276c-0.153-0.031-0.312-0.048-0.474-0.048c-0.106,0-0.207,0.019-0.31,0.031l-2.907-7.154
	c0.541-0.436,0.894-1.095,0.894-1.841c0-1.31-1.065-2.376-2.375-2.376S9.31,14.819,9.31,16.129s1.066,2.375,2.376,2.375
	c0.026,0,0.05-0.007,0.076-0.008l2.959,7.281c-0.438,0.431-0.712,1.029-0.712,1.691c0,1.309,1.065,2.374,2.375,2.374
	c1.31,0,2.376-1.065,2.376-2.374c0-0.594-0.227-1.13-0.587-1.547l2.608-7.399c0.104,0.014,0.207,0.032,0.315,0.032
	c0.108,0,0.212-0.018,0.317-0.032l2.606,7.398c-0.36,0.417-0.588,0.955-0.588,1.55c0,1.309,1.065,2.373,2.375,2.373
	c1.312,0,2.377-1.064,2.377-2.373c0-0.662-0.273-1.262-0.713-1.693l2.963-7.284C31.688,18.43,32.689,17.399,32.689,16.13z"/>
</svg>
