<?xml version="1.0" encoding="utf-8" ?>
<!DOCTYPE svg PUBLIC "-//W3C//DTD SVG 1.1//EN" "http://www.w3.org/Graphics/SVG/1.1/DTD/svg11.dtd">
<svg height="1014" version="1.1" width="1651" xmlns="http://www.w3.org/2000/svg">
<rect fill="#99cc00" height="71" stroke="#99cc00" stroke-width="1" width="93" x="331" y="262"/>
<rect fill="none" height="71" stroke="#000000" stroke-width="1" width="93" x="331" y="262"/>
<text font-family="Dialog" font-size="12" x="349" y="276">
gr:Offering</text>
<rect fill="#000000" height="1" stroke="#000000" stroke-width="1" width="93" x="331" y="286"/>
<rect fill="#000000" height="1" stroke="#000000" stroke-width="1" width="93" x="331" y="309"/>
<rect fill="#ffffff" height="122" stroke="#ffffff" stroke-width="1" width="256" x="515" y="286"/>
<rect fill="none" height="122" stroke="#000000" stroke-width="1" width="256" x="515" y="286"/>
<text font-family="Dialog" font-size="12" x="615" y="300">
won:Need</text>
<rect fill="#000000" height="1" stroke="#000000" stroke-width="1" width="256" x="515" y="310"/>
<text font-family="Dialog" font-size="12" x="519" y="325">
won:needCreationDate : xsd:DateTimeStamp</text>
<text font-family="Dialog" font-size="12" x="519" y="342">
won:matcherProtocolEndpoint : xsd:anyURI</text>
<text font-family="Dialog" font-size="12" x="519" y="359">
won:needProtocolEndpoint : xsd:anyURI</text>
<text font-family="Dialog" font-size="12" x="519" y="376">
won:ownerProtocolEndpoint : xsd:anyURI</text>
<rect fill="#000000" height="1" stroke="#000000" stroke-width="1" width="256" x="515" y="386"/>
<polyline fill="none" points="423,302 515,302" stroke="#000000" stroke-width="1"/>
<polygon fill="#ffffff" points="515,302 503,309 503,295" stroke="#ffffff" stroke-width="1"/>
<polygon fill="none" points="515,302 503,309 503,295" stroke="#000000" stroke-width="1"/>
<rect fill="#99cc00" height="68" stroke="#99cc00" stroke-width="1" width="145" x="875" y="462"/>
<rect fill="none" height="68" stroke="#000000" stroke-width="1" width="145" x="875" y="462"/>
<text font-family="Dialog" font-size="12" x="880" y="476">
ldp:CompositeContainer</text>
<rect fill="#000000" height="1" stroke="#000000" stroke-width="1" width="145" x="875" y="486"/>
<rect fill="#000000" height="1" stroke="#000000" stroke-width="1" width="145" x="875" y="507"/>
<rect fill="#ffffff" height="68" stroke="#ffffff" stroke-width="1" width="120" x="931" y="598"/>
<rect fill="none" height="68" stroke="#000000" stroke-width="1" width="120" x="931" y="598"/>
<text font-family="Dialog" font-size="12" x="936" y="612">
won:EventContainer</text>
<rect fill="#000000" height="1" stroke="#000000" stroke-width="1" width="120" x="931" y="622"/>
<rect fill="#000000" height="1" stroke="#000000" stroke-width="1" width="120" x="931" y="643"/>
<polyline fill="none" points="987,598 987,529" stroke="#000000" stroke-width="1"/>
<polygon fill="#ffffff" points="987,529 994,541 980,541" stroke="#ffffff" stroke-width="1"/>
<polygon fill="none" points="987,529 994,541 980,541" stroke="#000000" stroke-width="1"/>
<rect fill="#ffffff" height="67" stroke="#ffffff" stroke-width="1" width="109" x="667" y="614"/>
<rect fill="none" height="67" stroke="#000000" stroke-width="1" width="109" x="667" y="614"/>
<text font-family="Dialog" font-size="12" x="677" y="628">
won:Connection</text>
<rect fill="#000000" height="1" stroke="#000000" stroke-width="1" width="109" x="667" y="638"/>
<rect fill="#000000" height="1" stroke="#000000" stroke-width="1" width="109" x="667" y="659"/>
<rect fill="#ffffff" height="105" stroke="#ffffff" stroke-width="1" width="240" x="867" y="782"/>
<rect fill="none" height="105" stroke="#000000" stroke-width="1" width="240" x="867" y="782"/>
<text font-family="Dialog" font-size="12" x="959" y="796">
won:Event</text>
<rect fill="#000000" height="1" stroke="#000000" stroke-width="1" width="240" x="867" y="806"/>
<text font-family="Dialog" font-size="12" x="871" y="821">
won:hasTimeStamp : xsd:DateTimeStamp</text>
<text font-family="Dialog" font-size="12" x="871" y="838">
won:hasOriginator : rdfs:Ressource</text>
<text font-family="Dialog" font-size="12" x="871" y="855">
won:hasEventStatement : owl:Thing</text>
<rect fill="#000000" height="1" stroke="#000000" stroke-width="1" width="240" x="867" y="865"/>
<polyline fill="none" points="995,665 995,782" stroke="#000000" stroke-width="1"/>
<line fill="#000000" stroke="#000000" stroke-width="1" x1="988" x2="995" y1="770" y2="782"/>
<line fill="#000000" stroke="#000000" stroke-width="1" x1="1002" x2="995" y1="770" y2="782"/>
<text font-family="Dialog" font-size="12" x="998" y="728">
rdfs:member</text>
<polyline fill="none" points="775,630 931,630" stroke="#000000" stroke-width="1"/>
<line fill="#000000" stroke="#000000" stroke-width="1" x1="919" x2="931" y1="637" y2="630"/>
<line fill="#000000" stroke="#000000" stroke-width="1" x1="919" x2="931" y1="623" y2="630"/>
<text font-family="Dialog" font-size="12" x="796" y="616">
won:hasEventContainer</text>
<polyline fill="none" points="667,670 579,670 579,646 667,646" stroke="#000000" stroke-width="1"/>
<line fill="#000000" stroke="#000000" stroke-width="1" x1="655" x2="667" y1="653" y2="646"/>
<line fill="#000000" stroke="#000000" stroke-width="1" x1="655" x2="667" y1="639" y2="646"/>
<text font-family="Dialog" font-size="12" x="493" y="689">
won:hasRemoteConnection</text>
<rect fill="#ffffff" height="68" stroke="#ffffff" stroke-width="1" width="96" x="1059" y="910"/>
<rect fill="none" height="68" stroke="#000000" stroke-width="1" width="96" x="1059" y="910"/>
<text font-family="Dialog" font-size="12" x="1077" y="924">
won:Close</text>
<rect fill="#000000" height="1" stroke="#000000" stroke-width="1" width="96" x="1059" y="934"/>
<rect fill="#000000" height="1" stroke="#000000" stroke-width="1" width="96" x="1059" y="955"/>
<rect fill="#ffffff" height="67" stroke="#ffffff" stroke-width="1" width="95" x="947" y="910"/>
<rect fill="none" height="67" stroke="#000000" stroke-width="1" width="95" x="947" y="910"/>
<text font-family="Dialog" font-size="12" x="966" y="924">
won:Open</text>
<rect fill="#000000" height="1" stroke="#000000" stroke-width="1" width="95" x="947" y="934"/>
<rect fill="#000000" height="1" stroke="#000000" stroke-width="1" width="95" x="947" y="955"/>
<polyline fill="none" points="1083,910 1083,886" stroke="#000000" stroke-width="1"/>
<polygon fill="#ffffff" points="1083,886 1090,898 1076,898" stroke="#ffffff" stroke-width="1"/>
<polygon fill="none" points="1083,886 1090,898 1076,898" stroke="#000000" stroke-width="1"/>
<polyline fill="none" points="995,910 995,886" stroke="#000000" stroke-width="1"/>
<polygon fill="#ffffff" points="995,886 1002,898 988,898" stroke="#ffffff" stroke-width="1"/>
<polygon fill="none" points="995,886 1002,898 988,898" stroke="#000000" stroke-width="1"/>
<rect fill="#ffffff" height="67" stroke="#ffffff" stroke-width="1" width="94" x="835" y="910"/>
<rect fill="none" height="67" stroke="#000000" stroke-width="1" width="94" x="835" y="910"/>
<text font-family="Dialog" font-size="12" x="858" y="924">
won:Hint</text>
<rect fill="#000000" height="1" stroke="#000000" stroke-width="1" width="94" x="835" y="934"/>
<rect fill="#000000" height="1" stroke="#000000" stroke-width="1" width="94" x="835" y="955"/>
<polyline fill="none" points="897,910 897,886" stroke="#000000" stroke-width="1"/>
<polygon fill="#ffffff" points="897,886 904,898 890,898" stroke="#ffffff" stroke-width="1"/>
<polygon fill="none" points="897,886 904,898 890,898" stroke="#000000" stroke-width="1"/>
<rect fill="#ffffff" height="68" stroke="#ffffff" stroke-width="1" width="80" x="635" y="14"/>
<rect fill="none" height="68" stroke="#000000" stroke-width="1" width="80" x="635" y="14"/>
<text font-family="Dialog" font-size="12" x="648" y="28">
won:Take</text>
<rect fill="#000000" height="1" stroke="#000000" stroke-width="1" width="80" x="635" y="38"/>
<rect fill="#000000" height="1" stroke="#000000" stroke-width="1" width="80" x="635" y="59"/>
<rect fill="#ffffff" height="71" stroke="#ffffff" stroke-width="1" width="80" x="731" y="14"/>
<rect fill="none" height="71" stroke="#000000" stroke-width="1" width="80" x="731" y="14"/>
<text font-family="Dialog" font-size="12" x="746" y="28">
won:Give</text>
<rect fill="#000000" height="1" stroke="#000000" stroke-width="1" width="80" x="731" y="38"/>
<rect fill="#000000" height="1" stroke="#000000" stroke-width="1" width="80" x="731" y="61"/>
<rect fill="#ffffff" height="68" stroke="#ffffff" stroke-width="1" width="153" x="643" y="462"/>
<rect fill="none" height="68" stroke="#000000" stroke-width="1" width="153" x="643" y="462"/>
<text font-family="Dialog" font-size="12" x="648" y="476">
won:ConnectionContainer</text>
<rect fill="#000000" height="1" stroke="#000000" stroke-width="1" width="153" x="643" y="486"/>
<rect fill="#000000" height="1" stroke="#000000" stroke-width="1" width="153" x="643" y="507"/>
<polyline fill="none" points="707,407 707,462" stroke="#000000" stroke-width="1"/>
<line fill="#000000" stroke="#000000" stroke-width="1" x1="700" x2="707" y1="450" y2="462"/>
<line fill="#000000" stroke="#000000" stroke-width="1" x1="714" x2="707" y1="450" y2="462"/>
<text font-family="Dialog" font-size="12" x="715" y="440">
won:hasConnections</text>
<polyline fill="none" points="723,529 723,614" stroke="#000000" stroke-width="1"/>
<line fill="#000000" stroke="#000000" stroke-width="1" x1="716" x2="723" y1="602" y2="614"/>
<line fill="#000000" stroke="#000000" stroke-width="1" x1="730" x2="723" y1="602" y2="614"/>
<text font-family="Dialog" font-size="12" x="726" y="569">
rdfs:member</text>
<polyline fill="none" points="795,489 875,489" stroke="#000000" stroke-width="1"/>
<polygon fill="#ffffff" points="875,489 863,496 863,482" stroke="#ffffff" stroke-width="1"/>
<polygon fill="none" points="875,489 863,496 863,482" stroke="#000000" stroke-width="1"/>
<rect fill="#ffffff" height="68" stroke="#ffffff" stroke-width="1" width="123" x="709" y="158"/>
<rect fill="none" height="68" stroke="#000000" stroke-width="1" width="123" x="709" y="158"/>
<text font-family="Dialog" font-size="12" x="714" y="172">
won:BasicNeedType</text>
<rect fill="#000000" height="1" stroke="#000000" stroke-width="1" width="123" x="709" y="182"/>
<rect fill="#000000" height="1" stroke="#000000" stroke-width="1" width="123" x="709" y="203"/>
<polyline fill="none" points="763,286 763,225" stroke="#000000" stroke-width="1"/>
<line fill="#000000" stroke="#000000" stroke-width="1" x1="770" x2="763" y1="237" y2="225"/>
<line fill="#000000" stroke="#000000" stroke-width="1" x1="756" x2="763" y1="237" y2="225"/>
<text font-family="Dialog" font-size="12" x="774" y="261">
won:hasBasicNeedType</text>
<line fill="#000000" stroke="#000000" stroke-width="1" x1="714" x2="714" y1="81" y2="86"/>
<line fill="#000000" stroke="#000000" stroke-width="1" x1="714" x2="714" y1="91" y2="96"/>
<line fill="#000000" stroke="#000000" stroke-width="1" x1="714" x2="714" y1="101" y2="106"/>
<line fill="#000000" stroke="#000000" stroke-width="1" x1="714" x2="714" y1="111" y2="116"/>
<line fill="#000000" stroke="#000000" stroke-width="1" x1="714" x2="714" y1="121" y2="126"/>
<line fill="#000000" stroke="#000000" stroke-width="1" x1="714" x2="714" y1="131" y2="136"/>
<line fill="#000000" stroke="#000000" stroke-width="1" x1="714" x2="714" y1="141" y2="146"/>
<line fill="#000000" stroke="#000000" stroke-width="1" x1="714" x2="714" y1="151" y2="156"/>
<polygon fill="#ffffff" points="714,158 707,146 721,146" stroke="#ffffff" stroke-width="1"/>
<polygon fill="none" points="714,158 707,146 721,146" stroke="#000000" stroke-width="1"/>
<line fill="#000000" stroke="#000000" stroke-width="1" x1="771" x2="771" y1="84" y2="89"/>
<line fill="#000000" stroke="#000000" stroke-width="1" x1="771" x2="771" y1="94" y2="99"/>
<line fill="#000000" stroke="#000000" stroke-width="1" x1="771" x2="771" y1="104" y2="109"/>
<line fill="#000000" stroke="#000000" stroke-width="1" x1="771" x2="771" y1="114" y2="119"/>
<line fill="#000000" stroke="#000000" stroke-width="1" x1="771" x2="771" y1="124" y2="129"/>
<line fill="#000000" stroke="#000000" stroke-width="1" x1="771" x2="771" y1="134" y2="139"/>
<line fill="#000000" stroke="#000000" stroke-width="1" x1="771" x2="771" y1="144" y2="149"/>
<line fill="#000000" stroke="#000000" stroke-width="1" x1="771" x2="771" y1="154" y2="158"/>
<polygon fill="#ffffff" points="771,158 764,146 778,146" stroke="#ffffff" stroke-width="1"/>
<polygon fill="none" points="771,158 764,146 778,146" stroke="#000000" stroke-width="1"/>
<rect fill="#ffffff" height="72" stroke="#ffffff" stroke-width="1" width="95" x="827" y="14"/>
<rect fill="none" height="72" stroke="#000000" stroke-width="1" width="95" x="827" y="14"/>
<text font-family="Dialog" font-size="12" x="853" y="28">
won:Do</text>
<rect fill="#000000" height="1" stroke="#000000" stroke-width="1" width="95" x="827" y="38"/>
<rect fill="#000000" height="1" stroke="#000000" stroke-width="1" width="95" x="827" y="61"/>
<line fill="#000000" stroke="#000000" stroke-width="1" x1="827" x2="827" y1="85" y2="90"/>
<line fill="#000000" stroke="#000000" stroke-width="1" x1="827" x2="827" y1="95" y2="100"/>
<line fill="#000000" stroke="#000000" stroke-width="1" x1="827" x2="827" y1="105" y2="110"/>
<line fill="#000000" stroke="#000000" stroke-width="1" x1="827" x2="827" y1="115" y2="120"/>
<line fill="#000000" stroke="#000000" stroke-width="1" x1="827" x2="827" y1="125" y2="130"/>
<line fill="#000000" stroke="#000000" stroke-width="1" x1="827" x2="827" y1="135" y2="140"/>
<line fill="#000000" stroke="#000000" stroke-width="1" x1="827" x2="827" y1="145" y2="150"/>
<line fill="#000000" stroke="#000000" stroke-width="1" x1="827" x2="827" y1="155" y2="158"/>
<polygon fill="#ffffff" points="827,158 820,146 834,146" stroke="#ffffff" stroke-width="1"/>
<polygon fill="none" points="827,158 820,146 834,146" stroke="#000000" stroke-width="1"/>
<rect fill="#ffffff" height="68" stroke="#ffffff" stroke-width="1" width="110" x="931" y="334"/>
<rect fill="none" height="68" stroke="#000000" stroke-width="1" width="110" x="931" y="334"/>
<text font-family="Dialog" font-size="12" x="936" y="348">
won:NeedModality</text>
<rect fill="#000000" height="1" stroke="#000000" stroke-width="1" width="110" x="931" y="358"/>
<rect fill="#000000" height="1" stroke="#000000" stroke-width="1" width="110" x="931" y="379"/>
<polyline fill="none" points="770,373 931,373" stroke="#000000" stroke-width="1"/>
<line fill="#000000" stroke="#000000" stroke-width="1" x1="919" x2="931" y1="380" y2="373"/>
<line fill="#000000" stroke="#000000" stroke-width="1" x1="919" x2="931" y1="366" y2="373"/>
<text font-family="Dialog" font-size="12" x="777" y="346">
won:hasNeedModality (1..*)</text>
<rect fill="#ffffff" height="105" stroke="#ffffff" stroke-width="1" width="208" x="1003" y="126"/>
<rect fill="none" height="105" stroke="#000000" stroke-width="1" width="208" x="1003" y="126"/>
<text font-family="Dialog" font-size="12" x="1045" y="140">
won:PriceSpecification</text>
<rect fill="#000000" height="1" stroke="#000000" stroke-width="1" width="208" x="1003" y="150"/>
<text font-family="Dialog" font-size="12" x="1007" y="165">
won:hasLowerPriceLimit : xsd:float</text>
<text font-family="Dialog" font-size="12" x="1007" y="182">
won:hasUpperPriceLimit : xsd:float</text>
<text font-family="Dialog" font-size="12" x="1007" y="199">
won:hasCurrency : xsd:string</text>
<rect fill="#000000" height="1" stroke="#000000" stroke-width="1" width="208" x="1003" y="209"/>
<polyline fill="none" points="1019,334 1019,230" stroke="#000000" stroke-width="1"/>
<line fill="#000000" stroke="#000000" stroke-width="1" x1="1026" x2="1019" y1="242" y2="230"/>
<line fill="#000000" stroke="#000000" stroke-width="1" x1="1012" x2="1019" y1="242" y2="230"/>
<text font-family="Dialog" font-size="12" x="1022" y="281">
won:hasPriceSpecification (1..*)</text>
<rect fill="#ffffff" height="71" stroke="#ffffff" stroke-width="1" width="159" x="1267" y="342"/>
<rect fill="none" height="71" stroke="#000000" stroke-width="1" width="159" x="1267" y="342"/>
<text font-family="Dialog" font-size="12" x="1275" y="356">
won:LocationSpecification</text>
<rect fill="#000000" height="1" stroke="#000000" stroke-width="1" width="159" x="1267" y="366"/>
<text font-family="Dialog" font-size="12" x="1271" y="381">
won:isConcealed : Boolean</text>
<rect fill="#000000" height="1" stroke="#000000" stroke-width="1" width="159" x="1267" y="391"/>
<polyline fill="none" points="1040,366 1267,366" stroke="#000000" stroke-width="1"/>
<line fill="#000000" stroke="#000000" stroke-width="1" x1="1255" x2="1267" y1="373" y2="366"/>
<line fill="#000000" stroke="#000000" stroke-width="1" x1="1255" x2="1267" y1="359" y2="366"/>
<text font-family="Dialog" font-size="12" x="1045" y="358">
won:hasLocationSpecification (1..*)</text>
<rect fill="#99cc00" height="88" stroke="#99cc00" stroke-width="1" width="137" x="1283" y="222"/>
<rect fill="none" height="88" stroke="#000000" stroke-width="1" width="137" x="1283" y="222"/>
<text font-family="Dialog" font-size="12" x="1325" y="236">
geo:Point</text>
<rect fill="#000000" height="1" stroke="#000000" stroke-width="1" width="137" x="1283" y="246"/>
<text font-family="Dialog" font-size="12" x="1287" y="261">
geo:longitude : xsd:float</text>
<text font-family="Dialog" font-size="12" x="1287" y="278">
geo:latitude : xsd:float</text>
<rect fill="#000000" height="1" stroke="#000000" stroke-width="1" width="137" x="1283" y="288"/>
<rect fill="#ffffff" height="139" stroke="#ffffff" stroke-width="1" width="242" x="1171" y="486"/>
<rect fill="none" height="139" stroke="#000000" stroke-width="1" width="242" x="1171" y="486"/>
<text font-family="Dialog" font-size="12" x="1230" y="500">
won:TimeSpecification</text>
<rect fill="#000000" height="1" stroke="#000000" stroke-width="1" width="242" x="1171" y="510"/>
<text font-family="Dialog" font-size="12" x="1175" y="525">
won:hasStartTime : xsd:DateTimeStamp</text>
<text font-family="Dialog" font-size="12" x="1175" y="542">
won:hasEndTime : xsd:DateTimeStamp</text>
<text font-family="Dialog" font-size="12" x="1175" y="559">
won:hasRecursIn : xsd:duration</text>
<text font-family="Dialog" font-size="12" x="1175" y="576">
won:hasRecursTimes : xsd:integer</text>
<text font-family="Dialog" font-size="12" x="1175" y="593">
won:hasRecursInfiniteTimes : xsd:boolean</text>
<rect fill="#000000" height="1" stroke="#000000" stroke-width="1" width="242" x="1171" y="603"/>
<polyline fill="none" points="1040,401 1171,486" stroke="#000000" stroke-width="1"/>
<line fill="#000000" stroke="#000000" stroke-width="1" x1="1157" x2="1171" y1="485" y2="486"/>
<line fill="#000000" stroke="#000000" stroke-width="1" x1="1164" x2="1171" y1="473" y2="486"/>
<text font-family="Dialog" font-size="12" x="1112" y="442">
won:hasTimeSpecification (1..*)</text>
<polyline fill="none" points="1369,309 1369,342" stroke="#000000" stroke-width="1"/>
<polygon fill="#ffffff" points="1369,342 1362,330 1376,330" stroke="#ffffff" stroke-width="1"/>
<polygon fill="none" points="1369,342 1362,330 1376,330" stroke="#000000" stroke-width="1"/>
<rect fill="#ffffff" height="92" stroke="#ffffff" stroke-width="1" width="186" x="1451" y="222"/>
<rect fill="none" height="92" stroke="#000000" stroke-width="1" width="186" x="1451" y="222"/>
<text font-family="Dialog" font-size="12" x="1511" y="236">
won:Region</text>
<rect fill="#000000" height="1" stroke="#000000" stroke-width="1" width="186" x="1451" y="246"/>
<text font-family="Dialog" font-size="12" x="1455" y="261">
won:hasISOCode : xsd:string</text>
<rect fill="#000000" height="1" stroke="#000000" stroke-width="1" width="186" x="1451" y="281"/>
<polyline fill="none" points="1459,313 1459,358 1425,358" stroke="#000000" stroke-width="1"/>
<polygon fill="#ffffff" points="1425,358 1437,351 1437,365" stroke="#ffffff" stroke-width="1"/>
<polygon fill="none" points="1425,358 1437,351 1437,365" stroke="#000000" stroke-width="1"/>
<rect fill="#ffffff" height="68" stroke="#ffffff" stroke-width="1" width="72" x="307" y="374"/>
<rect fill="none" height="68" stroke="#000000" stroke-width="1" width="72" x="307" y="374"/>
<text font-family="Dialog" font-size="12" x="312" y="388">
won:Owner</text>
<rect fill="#000000" height="1" stroke="#000000" stroke-width="1" width="72" x="307" y="398"/>
<rect fill="#000000" height="1" stroke="#000000" stroke-width="1" width="72" x="307" y="419"/>
<rect fill="#99cc00" height="67" stroke="#99cc00" stroke-width="1" width="120" x="331" y="495"/>
<rect fill="none" height="67" stroke="#000000" stroke-width="1" width="120" x="331" y="495"/>
<text font-family="Dialog" font-size="12" x="347" y="509">
schema:Person</text>
<rect fill="#000000" height="1" stroke="#000000" stroke-width="1" width="120" x="331" y="519"/>
<rect fill="#000000" height="1" stroke="#000000" stroke-width="1" width="120" x="331" y="540"/>
<rect fill="#ffffff" height="68" stroke="#ffffff" stroke-width="1" width="142" x="83" y="390"/>
<rect fill="none" height="68" stroke="#000000" stroke-width="1" width="142" x="83" y="390"/>
<text font-family="Dialog" font-size="12" x="90" y="404">
won:AnonymizedOwner</text>
<rect fill="#000000" height="1" stroke="#000000" stroke-width="1" width="142" x="83" y="414"/>
<rect fill="#000000" height="1" stroke="#000000" stroke-width="1" width="142" x="83" y="435"/>
<polyline fill="none" points="224,422 307,422" stroke="#000000" stroke-width="1"/>
<polygon fill="#ffffff" points="307,422 295,429 295,415" stroke="#ffffff" stroke-width="1"/>
<polygon fill="none" points="307,422 295,429 295,415" stroke="#000000" stroke-width="1"/>
<polyline fill="none" points="370,495 370,441" stroke="#000000" stroke-width="1"/>
<polygon fill="#ffffff" points="370,441 377,453 363,453" stroke="#ffffff" stroke-width="1"/>
<polygon fill="none" points="370,441 377,453 363,453" stroke="#000000" stroke-width="1"/>
<polyline fill="none" points="515,374 378,374" stroke="#000000" stroke-width="1"/>
<line fill="#000000" stroke="#000000" stroke-width="1" x1="390" x2="378" y1="367" y2="374"/>
<line fill="#000000" stroke="#000000" stroke-width="1" x1="390" x2="378" y1="381" y2="374"/>
<text font-family="Dialog" font-size="12" x="403" y="396">
won:hasOwner</text>
<rect fill="#ffffff" height="105" stroke="#ffffff" stroke-width="1" width="223" x="203" y="622"/>
<rect fill="none" height="105" stroke="#000000" stroke-width="1" width="223" x="203" y="622"/>
<text font-family="Dialog" font-size="12" x="265" y="636">
won:NeedContent</text>
<rect fill="#000000" height="1" stroke="#000000" stroke-width="1" width="223" x="203" y="646"/>
<text font-family="Dialog" font-size="12" x="207" y="661">
won:hasTextDescription : xsd:string</text>
<text font-family="Dialog" font-size="12" x="207" y="678">
won:hasContentDescription : owl:Thing</text>
<text font-family="Dialog" font-size="12" x="207" y="695">
dc:title : rdfs:Literal</text>
<rect fill="#000000" height="1" stroke="#000000" stroke-width="1" width="223" x="203" y="705"/>
<polyline fill="none" points="547,407 547,638 425,638" stroke="#000000" stroke-width="1"/>
<line fill="#000000" stroke="#000000" stroke-width="1" x1="437" x2="425" y1="631" y2="638"/>
<line fill="#000000" stroke="#000000" stroke-width="1" x1="437" x2="425" y1="645" y2="638"/>
<text font-family="Dialog" font-size="12" x="454" y="595">
won:hasContent</text>
<rect fill="#99cc00" height="122" stroke="#99cc00" stroke-width="1" width="215" x="195" y="878"/>
<rect fill="none" height="122" stroke="#000000" stroke-width="1" width="215" x="195" y="878"/>
<text font-family="Dialog" font-size="12" x="248" y="892">
gr:QuantitativeValue</text>
<rect fill="#000000" height="1" stroke="#000000" stroke-width="1" width="215" x="195" y="902"/>
<text font-family="Dialog" font-size="12" x="199" y="917">
gr:hasUnitOfMeasurement : xsd:string</text>
<text font-family="Dialog" font-size="12" x="199" y="934">
gr:hasMinValue : rdfs:Literal</text>
<text font-family="Dialog" font-size="12" x="199" y="951">
gr:hasMaxValue : rdfs:Literal</text>
<text font-family="Dialog" font-size="12" x="199" y="968">
gr:hasValue : rdfs:Literal</text>
<rect fill="#000000" height="1" stroke="#000000" stroke-width="1" width="215" x="195" y="978"/>
<polyline fill="none" points="203,726 203,878" stroke="#000000" stroke-width="1"/>
<line fill="#000000" stroke="#000000" stroke-width="1" x1="196" x2="203" y1="866" y2="878"/>
<line fill="#000000" stroke="#000000" stroke-width="1" x1="210" x2="203" y1="866" y2="878"/>
<text font-family="Dialog" font-size="12" x="15" y="790">
won:hasQuantitativeProperty (1..*)</text>
<polyline fill="none" points="307,726 307,878" stroke="#000000" stroke-width="1"/>
<line fill="#000000" stroke="#000000" stroke-width="1" x1="300" x2="307" y1="866" y2="878"/>
<line fill="#000000" stroke="#000000" stroke-width="1" x1="314" x2="307" y1="866" y2="878"/>
<text font-family="Dialog" font-size="12" x="310" y="828">
won:hasDepth</text>
<polyline fill="none" points="267,726 267,878" stroke="#000000" stroke-width="1"/>
<line fill="#000000" stroke="#000000" stroke-width="1" x1="260" x2="267" y1="866" y2="878"/>
<line fill="#000000" stroke="#000000" stroke-width="1" x1="274" x2="267" y1="866" y2="878"/>
<text font-family="Dialog" font-size="12" x="270" y="801">
won:hasHeight</text>
<polyline fill="none" points="355,726 355,878" stroke="#000000" stroke-width="1"/>
<line fill="#000000" stroke="#000000" stroke-width="1" x1="348" x2="355" y1="866" y2="878"/>
<line fill="#000000" stroke="#000000" stroke-width="1" x1="362" x2="355" y1="866" y2="878"/>
<text font-family="Dialog" font-size="12" x="357" y="782">
won:hasWidth</text>
<polyline fill="none" points="395,726 395,878" stroke="#000000" stroke-width="1"/>
<line fill="#000000" stroke="#000000" stroke-width="1" x1="388" x2="395" y1="866" y2="878"/>
<line fill="#000000" stroke="#000000" stroke-width="1" x1="402" x2="395" y1="866" y2="878"/>
<text font-family="Dialog" font-size="12" x="398" y="807">
won:hasWeight</text>
<rect fill="#ffffff" height="68" stroke="#ffffff" stroke-width="1" width="94" x="427" y="158"/>
<rect fill="none" height="68" stroke="#000000" stroke-width="1" width="94" x="427" y="158"/>
<text font-family="Dialog" font-size="12" x="432" y="172">
won:NeedState</text>
<rect fill="#000000" height="1" stroke="#000000" stroke-width="1" width="94" x="427" y="182"/>
<rect fill="#000000" height="1" stroke="#000000" stroke-width="1" width="94" x="427" y="203"/>
<polyline fill="none" points="547,286 547,198 520,198" stroke="#000000" stroke-width="1"/>
<line fill="#000000" stroke="#000000" stroke-width="1" x1="532" x2="520" y1="191" y2="198"/>
<line fill="#000000" stroke="#000000" stroke-width="1" x1="532" x2="520" y1="205" y2="198"/>
<text font-family="Dialog" font-size="12" x="457" y="257">
won:isInState</text>
<rect fill="#ffffff" height="68" stroke="#ffffff" stroke-width="1" width="68" x="379" y="62"/>
<rect fill="none" height="68" stroke="#000000" stroke-width="1" width="68" x="379" y="62"/>
<text font-family="Dialog" font-size="12" x="384" y="76">
won:Active</text>
<rect fill="#000000" height="1" stroke="#000000" stroke-width="1" width="68" x="379" y="86"/>
<rect fill="#000000" height="1" stroke="#000000" stroke-width="1" width="68" x="379" y="107"/>
<rect fill="#ffffff" height="68" stroke="#ffffff" stroke-width="1" width="77" x="475" y="62"/>
<rect fill="none" height="68" stroke="#000000" stroke-width="1" width="77" x="475" y="62"/>
<text font-family="Dialog" font-size="12" x="480" y="76">
won:Inactive</text>
<rect fill="#000000" height="1" stroke="#000000" stroke-width="1" width="77" x="475" y="86"/>
<rect fill="#000000" height="1" stroke="#000000" stroke-width="1" width="77" x="475" y="107"/>
<line fill="#000000" stroke="#000000" stroke-width="1" x1="435" x2="435" y1="129" y2="134"/>
<line fill="#000000" stroke="#000000" stroke-width="1" x1="435" x2="435" y1="139" y2="144"/>
<line fill="#000000" stroke="#000000" stroke-width="1" x1="435" x2="435" y1="149" y2="154"/>
<polygon fill="#ffffff" points="435,158 428,146 442,146" stroke="#ffffff" stroke-width="1"/>
<polygon fill="none" points="435,158 428,146 442,146" stroke="#000000" stroke-width="1"/>
<line fill="#000000" stroke="#000000" stroke-width="1" x1="507" x2="507" y1="129" y2="134"/>
<line fill="#000000" stroke="#000000" stroke-width="1" x1="507" x2="507" y1="139" y2="144"/>
<line fill="#000000" stroke="#000000" stroke-width="1" x1="507" x2="507" y1="149" y2="154"/>
<polygon fill="#ffffff" points="507,158 500,146 514,146" stroke="#ffffff" stroke-width="1"/>
<polygon fill="none" points="507,158 500,146 514,146" stroke="#000000" stroke-width="1"/>
<rect fill="#99cc00" height="68" stroke="#99cc00" stroke-width="1" width="127" x="171" y="494"/>
<rect fill="none" height="68" stroke="#000000" stroke-width="1" width="127" x="171" y="494"/>
<text font-family="Dialog" font-size="12" x="176" y="508">
schema:Organization</text>
<rect fill="#000000" height="1" stroke="#000000" stroke-width="1" width="127" x="171" y="518"/>
<rect fill="#000000" height="1" stroke="#000000" stroke-width="1" width="127" x="171" y="539"/>
<polyline fill="none" points="251,494 251,478 331,478 331,441" stroke="#000000" stroke-width="1"/>
<polygon fill="#ffffff" points="331,441 338,453 324,453" stroke="#ffffff" stroke-width="1"/>
<polygon fill="none" points="331,441 338,453 324,453" stroke="#000000" stroke-width="1"/>
<rect fill="#ffffff" height="68" stroke="#ffffff" stroke-width="1" width="127" x="659" y="774"/>
<rect fill="none" height="68" stroke="#000000" stroke-width="1" width="127" x="659" y="774"/>
<text font-family="Dialog" font-size="12" x="664" y="788">
won:ConnectionState</text>
<rect fill="#000000" height="1" stroke="#000000" stroke-width="1" width="127" x="659" y="798"/>
<rect fill="#000000" height="1" stroke="#000000" stroke-width="1" width="127" x="659" y="819"/>
<polyline fill="none" points="723,680 723,774" stroke="#000000" stroke-width="1"/>
<line fill="#000000" stroke="#000000" stroke-width="1" x1="716" x2="723" y1="762" y2="774"/>
<line fill="#000000" stroke="#000000" stroke-width="1" x1="730" x2="723" y1="762" y2="774"/>
<text font-family="Dialog" font-size="12" x="724" y="732">
won:hasConnectionState</text>
<polyline fill="none" points="709,198 611,198 611,174 709,174" stroke="#000000" stroke-width="1"/>
<line fill="#000000" stroke="#000000" stroke-width="1" x1="697" x2="709" y1="181" y2="174"/>
<line fill="#000000" stroke="#000000" stroke-width="1" x1="697" x2="709" y1="167" y2="174"/>
<text font-family="Dialog" font-size="12" x="561" y="217">
won:allowsMatchWith</text>
</svg>
