<?xml version="1.0" encoding="utf-8" ?>
<!DOCTYPE svg PUBLIC "-//W3C//DTD SVG 1.1//EN" "http://www.w3.org/Graphics/SVG/1.1/DTD/svg11.dtd">
<svg height="1014" version="1.1" width="1643" xmlns="http://www.w3.org/2000/svg">
<rect fill="#99cc00" height="71" stroke="#99cc00" stroke-width="1" width="93" x="323" y="262"/>
<rect fill="none" height="71" stroke="#000000" stroke-width="1" width="93" x="323" y="262"/>
<text font-family="Dialog" font-size="12" x="341" y="276">
gr:Offering</text>
<rect fill="#000000" height="1" stroke="#000000" stroke-width="1" width="93" x="323" y="286"/>
<rect fill="#000000" height="1" stroke="#000000" stroke-width="1" width="93" x="323" y="309"/>
<rect fill="#ffffff" height="139" stroke="#ffffff" stroke-width="1" width="286" x="475" y="286"/>
<rect fill="none" height="139" stroke="#000000" stroke-width="1" width="286" x="475" y="286"/>
<text font-family="Dialog" font-size="12" x="590" y="300">
won:Need</text>
<rect fill="#000000" height="1" stroke="#000000" stroke-width="1" width="286" x="475" y="310"/>
<text font-family="Dialog" font-size="12" x="479" y="325">
won:needCreationDate : xsd:DateTimeStamp</text>
<text font-family="Dialog" font-size="12" x="479" y="342">
won:matcherProtocolEndpoint : xsd:anyURI</text>
<text font-family="Dialog" font-size="12" x="479" y="359">
won:needProtocolEndpoint : xsd:anyURI</text>
<text font-family="Dialog" font-size="12" x="479" y="376">
won:ownerProtocolEndpoint : xsd:anyURI</text>
<text font-family="Dialog" font-size="12" x="479" y="393">
won:hasMatchingConstraint : oslc:ResourceShape</text>
<rect fill="#000000" height="1" stroke="#000000" stroke-width="1" width="286" x="475" y="403"/>
<polyline fill="none" points="415,302 475,302" stroke="#000000" stroke-width="1"/>
<polygon fill="#ffffff" points="475,302 463,309 463,295" stroke="#ffffff" stroke-width="1"/>
<polygon fill="none" points="475,302 463,309 463,295" stroke="#000000" stroke-width="1"/>
<rect fill="#99cc00" height="68" stroke="#99cc00" stroke-width="1" width="145" x="867" y="462"/>
<rect fill="none" height="68" stroke="#000000" stroke-width="1" width="145" x="867" y="462"/>
<text font-family="Dialog" font-size="12" x="872" y="476">
ldp:CompositeContainer</text>
<rect fill="#000000" height="1" stroke="#000000" stroke-width="1" width="145" x="867" y="486"/>
<rect fill="#000000" height="1" stroke="#000000" stroke-width="1" width="145" x="867" y="507"/>
<rect fill="#ffffff" height="68" stroke="#ffffff" stroke-width="1" width="120" x="923" y="598"/>
<rect fill="none" height="68" stroke="#000000" stroke-width="1" width="120" x="923" y="598"/>
<text font-family="Dialog" font-size="12" x="928" y="612">
won:EventContainer</text>
<rect fill="#000000" height="1" stroke="#000000" stroke-width="1" width="120" x="923" y="622"/>
<rect fill="#000000" height="1" stroke="#000000" stroke-width="1" width="120" x="923" y="643"/>
<polyline fill="none" points="979,598 979,529" stroke="#000000" stroke-width="1"/>
<polygon fill="#ffffff" points="979,529 986,541 972,541" stroke="#ffffff" stroke-width="1"/>
<polygon fill="none" points="979,529 986,541 972,541" stroke="#000000" stroke-width="1"/>
<rect fill="#ffffff" height="67" stroke="#ffffff" stroke-width="1" width="109" x="659" y="614"/>
<rect fill="none" height="67" stroke="#000000" stroke-width="1" width="109" x="659" y="614"/>
<text font-family="Dialog" font-size="12" x="669" y="628">
won:Connection</text>
<rect fill="#000000" height="1" stroke="#000000" stroke-width="1" width="109" x="659" y="638"/>
<rect fill="#000000" height="1" stroke="#000000" stroke-width="1" width="109" x="659" y="659"/>
<rect fill="#ffffff" height="105" stroke="#ffffff" stroke-width="1" width="240" x="859" y="782"/>
<rect fill="none" height="105" stroke="#000000" stroke-width="1" width="240" x="859" y="782"/>
<text font-family="Dialog" font-size="12" x="951" y="796">
won:Event</text>
<rect fill="#000000" height="1" stroke="#000000" stroke-width="1" width="240" x="859" y="806"/>
<text font-family="Dialog" font-size="12" x="863" y="821">
won:hasTimeStamp : xsd:DateTimeStamp</text>
<text font-family="Dialog" font-size="12" x="863" y="838">
won:hasOriginator : rdfs:Ressource</text>
<text font-family="Dialog" font-size="12" x="863" y="855">
won:hasAdditionalInformation : owl:Thing</text>
<rect fill="#000000" height="1" stroke="#000000" stroke-width="1" width="240" x="859" y="865"/>
<polyline fill="none" points="987,665 987,782" stroke="#000000" stroke-width="1"/>
<line fill="#000000" stroke="#000000" stroke-width="1" x1="980" x2="987" y1="770" y2="782"/>
<line fill="#000000" stroke="#000000" stroke-width="1" x1="994" x2="987" y1="770" y2="782"/>
<text font-family="Dialog" font-size="12" x="990" y="728">
rdfs:member</text>
<polyline fill="none" points="767,630 923,630" stroke="#000000" stroke-width="1"/>
<line fill="#000000" stroke="#000000" stroke-width="1" x1="911" x2="923" y1="637" y2="630"/>
<line fill="#000000" stroke="#000000" stroke-width="1" x1="911" x2="923" y1="623" y2="630"/>
<text font-family="Dialog" font-size="12" x="788" y="616">
won:hasEventContainer</text>
<polyline fill="none" points="659,670 571,670 571,646 659,646" stroke="#000000" stroke-width="1"/>
<line fill="#000000" stroke="#000000" stroke-width="1" x1="647" x2="659" y1="653" y2="646"/>
<line fill="#000000" stroke="#000000" stroke-width="1" x1="647" x2="659" y1="639" y2="646"/>
<text font-family="Dialog" font-size="12" x="485" y="689">
won:hasRemoteConnection</text>
<rect fill="#ffffff" height="68" stroke="#ffffff" stroke-width="1" width="96" x="1051" y="910"/>
<rect fill="none" height="68" stroke="#000000" stroke-width="1" width="96" x="1051" y="910"/>
<text font-family="Dialog" font-size="12" x="1069" y="924">
won:Close</text>
<rect fill="#000000" height="1" stroke="#000000" stroke-width="1" width="96" x="1051" y="934"/>
<rect fill="#000000" height="1" stroke="#000000" stroke-width="1" width="96" x="1051" y="955"/>
<rect fill="#ffffff" height="67" stroke="#ffffff" stroke-width="1" width="95" x="939" y="910"/>
<rect fill="none" height="67" stroke="#000000" stroke-width="1" width="95" x="939" y="910"/>
<text font-family="Dialog" font-size="12" x="958" y="924">
won:Open</text>
<rect fill="#000000" height="1" stroke="#000000" stroke-width="1" width="95" x="939" y="934"/>
<rect fill="#000000" height="1" stroke="#000000" stroke-width="1" width="95" x="939" y="955"/>
<polyline fill="none" points="1075,910 1075,886" stroke="#000000" stroke-width="1"/>
<polygon fill="#ffffff" points="1075,886 1082,898 1068,898" stroke="#ffffff" stroke-width="1"/>
<polygon fill="none" points="1075,886 1082,898 1068,898" stroke="#000000" stroke-width="1"/>
<polyline fill="none" points="987,910 987,886" stroke="#000000" stroke-width="1"/>
<polygon fill="#ffffff" points="987,886 994,898 980,898" stroke="#ffffff" stroke-width="1"/>
<polygon fill="none" points="987,886 994,898 980,898" stroke="#000000" stroke-width="1"/>
<rect fill="#ffffff" height="67" stroke="#ffffff" stroke-width="1" width="94" x="827" y="910"/>
<rect fill="none" height="67" stroke="#000000" stroke-width="1" width="94" x="827" y="910"/>
<text font-family="Dialog" font-size="12" x="850" y="924">
won:Hint</text>
<rect fill="#000000" height="1" stroke="#000000" stroke-width="1" width="94" x="827" y="934"/>
<rect fill="#000000" height="1" stroke="#000000" stroke-width="1" width="94" x="827" y="955"/>
<polyline fill="none" points="889,910 889,886" stroke="#000000" stroke-width="1"/>
<polygon fill="#ffffff" points="889,886 896,898 882,898" stroke="#ffffff" stroke-width="1"/>
<polygon fill="none" points="889,886 896,898 882,898" stroke="#000000" stroke-width="1"/>
<rect fill="#ffffff" height="68" stroke="#ffffff" stroke-width="1" width="80" x="627" y="14"/>
<rect fill="none" height="68" stroke="#000000" stroke-width="1" width="80" x="627" y="14"/>
<text font-family="Dialog" font-size="12" x="640" y="28">
won:Take</text>
<rect fill="#000000" height="1" stroke="#000000" stroke-width="1" width="80" x="627" y="38"/>
<rect fill="#000000" height="1" stroke="#000000" stroke-width="1" width="80" x="627" y="59"/>
<rect fill="#ffffff" height="71" stroke="#ffffff" stroke-width="1" width="80" x="723" y="14"/>
<rect fill="none" height="71" stroke="#000000" stroke-width="1" width="80" x="723" y="14"/>
<text font-family="Dialog" font-size="12" x="738" y="28">
won:Give</text>
<rect fill="#000000" height="1" stroke="#000000" stroke-width="1" width="80" x="723" y="38"/>
<rect fill="#000000" height="1" stroke="#000000" stroke-width="1" width="80" x="723" y="61"/>
<rect fill="#ffffff" height="68" stroke="#ffffff" stroke-width="1" width="153" x="635" y="462"/>
<rect fill="none" height="68" stroke="#000000" stroke-width="1" width="153" x="635" y="462"/>
<text font-family="Dialog" font-size="12" x="640" y="476">
won:ConnectionContainer</text>
<rect fill="#000000" height="1" stroke="#000000" stroke-width="1" width="153" x="635" y="486"/>
<rect fill="#000000" height="1" stroke="#000000" stroke-width="1" width="153" x="635" y="507"/>
<polyline fill="none" points="699,424 699,462" stroke="#000000" stroke-width="1"/>
<line fill="#000000" stroke="#000000" stroke-width="1" x1="692" x2="699" y1="450" y2="462"/>
<line fill="#000000" stroke="#000000" stroke-width="1" x1="706" x2="699" y1="450" y2="462"/>
<text font-family="Dialog" font-size="12" x="707" y="449">
won:hasConnections</text>
<polyline fill="none" points="715,529 715,614" stroke="#000000" stroke-width="1"/>
<line fill="#000000" stroke="#000000" stroke-width="1" x1="708" x2="715" y1="602" y2="614"/>
<line fill="#000000" stroke="#000000" stroke-width="1" x1="722" x2="715" y1="602" y2="614"/>
<text font-family="Dialog" font-size="12" x="718" y="569">
rdfs:member</text>
<polyline fill="none" points="787,489 867,489" stroke="#000000" stroke-width="1"/>
<polygon fill="#ffffff" points="867,489 855,496 855,482" stroke="#ffffff" stroke-width="1"/>
<polygon fill="none" points="867,489 855,496 855,482" stroke="#000000" stroke-width="1"/>
<rect fill="#ffffff" height="68" stroke="#ffffff" stroke-width="1" width="123" x="701" y="158"/>
<rect fill="none" height="68" stroke="#000000" stroke-width="1" width="123" x="701" y="158"/>
<text font-family="Dialog" font-size="12" x="706" y="172">
won:BasicNeedType</text>
<rect fill="#000000" height="1" stroke="#000000" stroke-width="1" width="123" x="701" y="182"/>
<rect fill="#000000" height="1" stroke="#000000" stroke-width="1" width="123" x="701" y="203"/>
<polyline fill="none" points="751,286 751,225" stroke="#000000" stroke-width="1"/>
<line fill="#000000" stroke="#000000" stroke-width="1" x1="758" x2="751" y1="237" y2="225"/>
<line fill="#000000" stroke="#000000" stroke-width="1" x1="744" x2="751" y1="237" y2="225"/>
<text font-family="Dialog" font-size="12" x="762" y="261">
won:hasBasicNeedType</text>
<line fill="#000000" stroke="#000000" stroke-width="1" x1="706" x2="706" y1="81" y2="86"/>
<line fill="#000000" stroke="#000000" stroke-width="1" x1="706" x2="706" y1="91" y2="96"/>
<line fill="#000000" stroke="#000000" stroke-width="1" x1="706" x2="706" y1="101" y2="106"/>
<line fill="#000000" stroke="#000000" stroke-width="1" x1="706" x2="706" y1="111" y2="116"/>
<line fill="#000000" stroke="#000000" stroke-width="1" x1="706" x2="706" y1="121" y2="126"/>
<line fill="#000000" stroke="#000000" stroke-width="1" x1="706" x2="706" y1="131" y2="136"/>
<line fill="#000000" stroke="#000000" stroke-width="1" x1="706" x2="706" y1="141" y2="146"/>
<line fill="#000000" stroke="#000000" stroke-width="1" x1="706" x2="706" y1="151" y2="156"/>
<polygon fill="#ffffff" points="706,158 699,146 713,146" stroke="#ffffff" stroke-width="1"/>
<polygon fill="none" points="706,158 699,146 713,146" stroke="#000000" stroke-width="1"/>
<line fill="#000000" stroke="#000000" stroke-width="1" x1="763" x2="763" y1="84" y2="89"/>
<line fill="#000000" stroke="#000000" stroke-width="1" x1="763" x2="763" y1="94" y2="99"/>
<line fill="#000000" stroke="#000000" stroke-width="1" x1="763" x2="763" y1="104" y2="109"/>
<line fill="#000000" stroke="#000000" stroke-width="1" x1="763" x2="763" y1="114" y2="119"/>
<line fill="#000000" stroke="#000000" stroke-width="1" x1="763" x2="763" y1="124" y2="129"/>
<line fill="#000000" stroke="#000000" stroke-width="1" x1="763" x2="763" y1="134" y2="139"/>
<line fill="#000000" stroke="#000000" stroke-width="1" x1="763" x2="763" y1="144" y2="149"/>
<line fill="#000000" stroke="#000000" stroke-width="1" x1="763" x2="763" y1="154" y2="158"/>
<polygon fill="#ffffff" points="763,158 756,146 770,146" stroke="#ffffff" stroke-width="1"/>
<polygon fill="none" points="763,158 756,146 770,146" stroke="#000000" stroke-width="1"/>
<rect fill="#ffffff" height="72" stroke="#ffffff" stroke-width="1" width="95" x="819" y="14"/>
<rect fill="none" height="72" stroke="#000000" stroke-width="1" width="95" x="819" y="14"/>
<text font-family="Dialog" font-size="12" x="845" y="28">
won:Do</text>
<rect fill="#000000" height="1" stroke="#000000" stroke-width="1" width="95" x="819" y="38"/>
<rect fill="#000000" height="1" stroke="#000000" stroke-width="1" width="95" x="819" y="61"/>
<line fill="#000000" stroke="#000000" stroke-width="1" x1="819" x2="819" y1="85" y2="90"/>
<line fill="#000000" stroke="#000000" stroke-width="1" x1="819" x2="819" y1="95" y2="100"/>
<line fill="#000000" stroke="#000000" stroke-width="1" x1="819" x2="819" y1="105" y2="110"/>
<line fill="#000000" stroke="#000000" stroke-width="1" x1="819" x2="819" y1="115" y2="120"/>
<line fill="#000000" stroke="#000000" stroke-width="1" x1="819" x2="819" y1="125" y2="130"/>
<line fill="#000000" stroke="#000000" stroke-width="1" x1="819" x2="819" y1="135" y2="140"/>
<line fill="#000000" stroke="#000000" stroke-width="1" x1="819" x2="819" y1="145" y2="150"/>
<line fill="#000000" stroke="#000000" stroke-width="1" x1="819" x2="819" y1="155" y2="158"/>
<polygon fill="#ffffff" points="819,158 812,146 826,146" stroke="#ffffff" stroke-width="1"/>
<polygon fill="none" points="819,158 812,146 826,146" stroke="#000000" stroke-width="1"/>
<rect fill="#ffffff" height="68" stroke="#ffffff" stroke-width="1" width="110" x="923" y="334"/>
<rect fill="none" height="68" stroke="#000000" stroke-width="1" width="110" x="923" y="334"/>
<text font-family="Dialog" font-size="12" x="928" y="348">
won:NeedModality</text>
<rect fill="#000000" height="1" stroke="#000000" stroke-width="1" width="110" x="923" y="358"/>
<rect fill="#000000" height="1" stroke="#000000" stroke-width="1" width="110" x="923" y="379"/>
<polyline fill="none" points="760,373 923,373" stroke="#000000" stroke-width="1"/>
<line fill="#000000" stroke="#000000" stroke-width="1" x1="911" x2="923" y1="380" y2="373"/>
<line fill="#000000" stroke="#000000" stroke-width="1" x1="911" x2="923" y1="366" y2="373"/>
<text font-family="Dialog" font-size="12" x="768" y="346">
won:hasNeedModality (1..*)</text>
<rect fill="#ffffff" height="105" stroke="#ffffff" stroke-width="1" width="208" x="995" y="126"/>
<rect fill="none" height="105" stroke="#000000" stroke-width="1" width="208" x="995" y="126"/>
<text font-family="Dialog" font-size="12" x="1037" y="140">
won:PriceSpecification</text>
<rect fill="#000000" height="1" stroke="#000000" stroke-width="1" width="208" x="995" y="150"/>
<text font-family="Dialog" font-size="12" x="999" y="165">
won:hasLowerPriceLimit : xsd:float</text>
<text font-family="Dialog" font-size="12" x="999" y="182">
won:hasUpperPriceLimit : xsd:float</text>
<text font-family="Dialog" font-size="12" x="999" y="199">
won:hasCurrency : xsd:string</text>
<rect fill="#000000" height="1" stroke="#000000" stroke-width="1" width="208" x="995" y="209"/>
<polyline fill="none" points="1011,334 1011,230" stroke="#000000" stroke-width="1"/>
<line fill="#000000" stroke="#000000" stroke-width="1" x1="1018" x2="1011" y1="242" y2="230"/>
<line fill="#000000" stroke="#000000" stroke-width="1" x1="1004" x2="1011" y1="242" y2="230"/>
<text font-family="Dialog" font-size="12" x="1014" y="281">
won:hasPriceSpecification (1..*)</text>
<rect fill="#ffffff" height="71" stroke="#ffffff" stroke-width="1" width="159" x="1259" y="342"/>
<rect fill="none" height="71" stroke="#000000" stroke-width="1" width="159" x="1259" y="342"/>
<text font-family="Dialog" font-size="12" x="1267" y="356">
won:LocationSpecification</text>
<rect fill="#000000" height="1" stroke="#000000" stroke-width="1" width="159" x="1259" y="366"/>
<text font-family="Dialog" font-size="12" x="1263" y="381">
won:isConcealed : Boolean</text>
<rect fill="#000000" height="1" stroke="#000000" stroke-width="1" width="159" x="1259" y="391"/>
<polyline fill="none" points="1032,366 1259,366" stroke="#000000" stroke-width="1"/>
<line fill="#000000" stroke="#000000" stroke-width="1" x1="1247" x2="1259" y1="373" y2="366"/>
<line fill="#000000" stroke="#000000" stroke-width="1" x1="1247" x2="1259" y1="359" y2="366"/>
<text font-family="Dialog" font-size="12" x="1037" y="358">
won:hasLocationSpecification (1..*)</text>
<rect fill="#99cc00" height="88" stroke="#99cc00" stroke-width="1" width="137" x="1275" y="222"/>
<rect fill="none" height="88" stroke="#000000" stroke-width="1" width="137" x="1275" y="222"/>
<text font-family="Dialog" font-size="12" x="1317" y="236">
geo:Point</text>
<rect fill="#000000" height="1" stroke="#000000" stroke-width="1" width="137" x="1275" y="246"/>
<text font-family="Dialog" font-size="12" x="1279" y="261">
geo:longitude : xsd:float</text>
<text font-family="Dialog" font-size="12" x="1279" y="278">
geo:latitude : xsd:float</text>
<rect fill="#000000" height="1" stroke="#000000" stroke-width="1" width="137" x="1275" y="288"/>
<rect fill="#ffffff" height="139" stroke="#ffffff" stroke-width="1" width="242" x="1163" y="486"/>
<rect fill="none" height="139" stroke="#000000" stroke-width="1" width="242" x="1163" y="486"/>
<text font-family="Dialog" font-size="12" x="1222" y="500">
won:TimeSpecification</text>
<rect fill="#000000" height="1" stroke="#000000" stroke-width="1" width="242" x="1163" y="510"/>
<text font-family="Dialog" font-size="12" x="1167" y="525">
won:hasStartTime : xsd:DateTimeStamp</text>
<text font-family="Dialog" font-size="12" x="1167" y="542">
won:hasEndTime : xsd:DateTimeStamp</text>
<text font-family="Dialog" font-size="12" x="1167" y="559">
won:hasRecursIn : xsd:duration</text>
<text font-family="Dialog" font-size="12" x="1167" y="576">
won:hasRecursTimes : xsd:integer</text>
<text font-family="Dialog" font-size="12" x="1167" y="593">
won:hasRecursInfiniteTimes : xsd:boolean</text>
<rect fill="#000000" height="1" stroke="#000000" stroke-width="1" width="242" x="1163" y="603"/>
<polyline fill="none" points="1032,401 1163,486" stroke="#000000" stroke-width="1"/>
<line fill="#000000" stroke="#000000" stroke-width="1" x1="1149" x2="1163" y1="485" y2="486"/>
<line fill="#000000" stroke="#000000" stroke-width="1" x1="1156" x2="1163" y1="473" y2="486"/>
<text font-family="Dialog" font-size="12" x="1104" y="442">
won:hasTimeSpecification (1..*)</text>
<polyline fill="none" points="1361,309 1361,342" stroke="#000000" stroke-width="1"/>
<polygon fill="#ffffff" points="1361,342 1354,330 1368,330" stroke="#ffffff" stroke-width="1"/>
<polygon fill="none" points="1361,342 1354,330 1368,330" stroke="#000000" stroke-width="1"/>
<rect fill="#ffffff" height="92" stroke="#ffffff" stroke-width="1" width="186" x="1443" y="222"/>
<rect fill="none" height="92" stroke="#000000" stroke-width="1" width="186" x="1443" y="222"/>
<text font-family="Dialog" font-size="12" x="1503" y="236">
won:Region</text>
<rect fill="#000000" height="1" stroke="#000000" stroke-width="1" width="186" x="1443" y="246"/>
<text font-family="Dialog" font-size="12" x="1447" y="261">
won:hasISOCode : xsd:string</text>
<rect fill="#000000" height="1" stroke="#000000" stroke-width="1" width="186" x="1443" y="281"/>
<polyline fill="none" points="1451,313 1451,358 1417,358" stroke="#000000" stroke-width="1"/>
<polygon fill="#ffffff" points="1417,358 1429,351 1429,365" stroke="#ffffff" stroke-width="1"/>
<polygon fill="none" points="1417,358 1429,351 1429,365" stroke="#000000" stroke-width="1"/>
<rect fill="#ffffff" height="68" stroke="#ffffff" stroke-width="1" width="72" x="299" y="374"/>
<rect fill="none" height="68" stroke="#000000" stroke-width="1" width="72" x="299" y="374"/>
<text font-family="Dialog" font-size="12" x="304" y="388">
won:Owner</text>
<rect fill="#000000" height="1" stroke="#000000" stroke-width="1" width="72" x="299" y="398"/>
<rect fill="#000000" height="1" stroke="#000000" stroke-width="1" width="72" x="299" y="419"/>
<rect fill="#99cc00" height="67" stroke="#99cc00" stroke-width="1" width="120" x="323" y="495"/>
<rect fill="none" height="67" stroke="#000000" stroke-width="1" width="120" x="323" y="495"/>
<text font-family="Dialog" font-size="12" x="339" y="509">
schema:Person</text>
<rect fill="#000000" height="1" stroke="#000000" stroke-width="1" width="120" x="323" y="519"/>
<rect fill="#000000" height="1" stroke="#000000" stroke-width="1" width="120" x="323" y="540"/>
<rect fill="#ffffff" height="68" stroke="#ffffff" stroke-width="1" width="142" x="75" y="390"/>
<rect fill="none" height="68" stroke="#000000" stroke-width="1" width="142" x="75" y="390"/>
<text font-family="Dialog" font-size="12" x="82" y="404">
won:AnonymizedOwner</text>
<rect fill="#000000" height="1" stroke="#000000" stroke-width="1" width="142" x="75" y="414"/>
<rect fill="#000000" height="1" stroke="#000000" stroke-width="1" width="142" x="75" y="435"/>
<polyline fill="none" points="216,422 299,422" stroke="#000000" stroke-width="1"/>
<polygon fill="#ffffff" points="299,422 287,429 287,415" stroke="#ffffff" stroke-width="1"/>
<polygon fill="none" points="299,422 287,429 287,415" stroke="#000000" stroke-width="1"/>
<polyline fill="none" points="362,495 362,441" stroke="#000000" stroke-width="1"/>
<polygon fill="#ffffff" points="362,441 369,453 355,453" stroke="#ffffff" stroke-width="1"/>
<polygon fill="none" points="362,441 369,453 355,453" stroke="#000000" stroke-width="1"/>
<polyline fill="none" points="475,374 370,374" stroke="#000000" stroke-width="1"/>
<line fill="#000000" stroke="#000000" stroke-width="1" x1="382" x2="370" y1="367" y2="374"/>
<line fill="#000000" stroke="#000000" stroke-width="1" x1="382" x2="370" y1="381" y2="374"/>
<text font-family="Dialog" font-size="12" x="379" y="396">
won:hasOwner</text>
<rect fill="#ffffff" height="122" stroke="#ffffff" stroke-width="1" width="270" x="171" y="638"/>
<rect fill="none" height="122" stroke="#000000" stroke-width="1" width="270" x="171" y="638"/>
<text font-family="Dialog" font-size="12" x="256" y="652">
won:NeedContent</text>
<rect fill="#000000" height="1" stroke="#000000" stroke-width="1" width="270" x="171" y="662"/>
<text font-family="Dialog" font-size="12" x="175" y="677">
won:hasTextDescription : xsd:string</text>
<text font-family="Dialog" font-size="12" x="175" y="694">
won:hasContentDescription : owl:Thing</text>
<text font-family="Dialog" font-size="12" x="175" y="711">
dc:title : rdfs:Literal</text>
<rect fill="#000000" height="1" stroke="#000000" stroke-width="1" width="270" x="171" y="729"/>
<polyline fill="none" points="515,424 515,646 440,646" stroke="#000000" stroke-width="1"/>
<line fill="#000000" stroke="#000000" stroke-width="1" x1="452" x2="440" y1="639" y2="646"/>
<line fill="#000000" stroke="#000000" stroke-width="1" x1="452" x2="440" y1="653" y2="646"/>
<text font-family="Dialog" font-size="12" x="423" y="603">
won:hasContent</text>
<rect fill="#99cc00" height="122" stroke="#99cc00" stroke-width="1" width="215" x="187" y="878"/>
<rect fill="none" height="122" stroke="#000000" stroke-width="1" width="215" x="187" y="878"/>
<text font-family="Dialog" font-size="12" x="240" y="892">
gr:QuantitativeValue</text>
<rect fill="#000000" height="1" stroke="#000000" stroke-width="1" width="215" x="187" y="902"/>
<text font-family="Dialog" font-size="12" x="191" y="917">
gr:hasUnitOfMeasurement : xsd:string</text>
<text font-family="Dialog" font-size="12" x="191" y="934">
gr:hasMinValue : rdfs:Literal</text>
<text font-family="Dialog" font-size="12" x="191" y="951">
gr:hasMaxValue : rdfs:Literal</text>
<text font-family="Dialog" font-size="12" x="191" y="968">
gr:hasValue : rdfs:Literal</text>
<rect fill="#000000" height="1" stroke="#000000" stroke-width="1" width="215" x="187" y="978"/>
<polyline fill="none" points="203,759 203,878" stroke="#000000" stroke-width="1"/>
<line fill="#000000" stroke="#000000" stroke-width="1" x1="196" x2="203" y1="866" y2="878"/>
<line fill="#000000" stroke="#000000" stroke-width="1" x1="210" x2="203" y1="866" y2="878"/>
<text font-family="Dialog" font-size="12" x="15" y="806">
won:hasQuantitativeProperty (1..*)</text>
<polyline fill="none" points="299,759 299,878" stroke="#000000" stroke-width="1"/>
<line fill="#000000" stroke="#000000" stroke-width="1" x1="292" x2="299" y1="866" y2="878"/>
<line fill="#000000" stroke="#000000" stroke-width="1" x1="306" x2="299" y1="866" y2="878"/>
<text font-family="Dialog" font-size="12" x="302" y="844">
won:hasDepth</text>
<polyline fill="none" points="259,759 259,878" stroke="#000000" stroke-width="1"/>
<line fill="#000000" stroke="#000000" stroke-width="1" x1="252" x2="259" y1="866" y2="878"/>
<line fill="#000000" stroke="#000000" stroke-width="1" x1="266" x2="259" y1="866" y2="878"/>
<text font-family="Dialog" font-size="12" x="262" y="817">
won:hasHeight</text>
<polyline fill="none" points="347,759 347,878" stroke="#000000" stroke-width="1"/>
<line fill="#000000" stroke="#000000" stroke-width="1" x1="340" x2="347" y1="866" y2="878"/>
<line fill="#000000" stroke="#000000" stroke-width="1" x1="354" x2="347" y1="866" y2="878"/>
<text font-family="Dialog" font-size="12" x="349" y="798">
won:hasWidth</text>
<polyline fill="none" points="387,759 387,878" stroke="#000000" stroke-width="1"/>
<line fill="#000000" stroke="#000000" stroke-width="1" x1="380" x2="387" y1="866" y2="878"/>
<line fill="#000000" stroke="#000000" stroke-width="1" x1="394" x2="387" y1="866" y2="878"/>
<text font-family="Dialog" font-size="12" x="390" y="823">
won:hasWeight</text>
<rect fill="#ffffff" height="68" stroke="#ffffff" stroke-width="1" width="94" x="419" y="158"/>
<rect fill="none" height="68" stroke="#000000" stroke-width="1" width="94" x="419" y="158"/>
<text font-family="Dialog" font-size="12" x="424" y="172">
won:NeedState</text>
<rect fill="#000000" height="1" stroke="#000000" stroke-width="1" width="94" x="419" y="182"/>
<rect fill="#000000" height="1" stroke="#000000" stroke-width="1" width="94" x="419" y="203"/>
<polyline fill="none" points="539,286 539,198 512,198" stroke="#000000" stroke-width="1"/>
<line fill="#000000" stroke="#000000" stroke-width="1" x1="524" x2="512" y1="191" y2="198"/>
<line fill="#000000" stroke="#000000" stroke-width="1" x1="524" x2="512" y1="205" y2="198"/>
<text font-family="Dialog" font-size="12" x="449" y="257">
won:isInState</text>
<rect fill="#ffffff" height="68" stroke="#ffffff" stroke-width="1" width="68" x="371" y="62"/>
<rect fill="none" height="68" stroke="#000000" stroke-width="1" width="68" x="371" y="62"/>
<text font-family="Dialog" font-size="12" x="376" y="76">
won:Active</text>
<rect fill="#000000" height="1" stroke="#000000" stroke-width="1" width="68" x="371" y="86"/>
<rect fill="#000000" height="1" stroke="#000000" stroke-width="1" width="68" x="371" y="107"/>
<rect fill="#ffffff" height="68" stroke="#ffffff" stroke-width="1" width="77" x="467" y="62"/>
<rect fill="none" height="68" stroke="#000000" stroke-width="1" width="77" x="467" y="62"/>
<text font-family="Dialog" font-size="12" x="472" y="76">
won:Inactive</text>
<rect fill="#000000" height="1" stroke="#000000" stroke-width="1" width="77" x="467" y="86"/>
<rect fill="#000000" height="1" stroke="#000000" stroke-width="1" width="77" x="467" y="107"/>
<line fill="#000000" stroke="#000000" stroke-width="1" x1="427" x2="427" y1="129" y2="134"/>
<line fill="#000000" stroke="#000000" stroke-width="1" x1="427" x2="427" y1="139" y2="144"/>
<line fill="#000000" stroke="#000000" stroke-width="1" x1="427" x2="427" y1="149" y2="154"/>
<polygon fill="#ffffff" points="427,158 420,146 434,146" stroke="#ffffff" stroke-width="1"/>
<polygon fill="none" points="427,158 420,146 434,146" stroke="#000000" stroke-width="1"/>
<line fill="#000000" stroke="#000000" stroke-width="1" x1="499" x2="499" y1="129" y2="134"/>
<line fill="#000000" stroke="#000000" stroke-width="1" x1="499" x2="499" y1="139" y2="144"/>
<line fill="#000000" stroke="#000000" stroke-width="1" x1="499" x2="499" y1="149" y2="154"/>
<polygon fill="#ffffff" points="499,158 492,146 506,146" stroke="#ffffff" stroke-width="1"/>
<polygon fill="none" points="499,158 492,146 506,146" stroke="#000000" stroke-width="1"/>
<rect fill="#99cc00" height="68" stroke="#99cc00" stroke-width="1" width="127" x="163" y="494"/>
<rect fill="none" height="68" stroke="#000000" stroke-width="1" width="127" x="163" y="494"/>
<text font-family="Dialog" font-size="12" x="168" y="508">
schema:Organization</text>
<rect fill="#000000" height="1" stroke="#000000" stroke-width="1" width="127" x="163" y="518"/>
<rect fill="#000000" height="1" stroke="#000000" stroke-width="1" width="127" x="163" y="539"/>
<polyline fill="none" points="243,494 243,478 323,478 323,441" stroke="#000000" stroke-width="1"/>
<polygon fill="#ffffff" points="323,441 330,453 316,453" stroke="#ffffff" stroke-width="1"/>
<polygon fill="none" points="323,441 330,453 316,453" stroke="#000000" stroke-width="1"/>
<rect fill="#ffffff" height="68" stroke="#ffffff" stroke-width="1" width="127" x="651" y="774"/>
<rect fill="none" height="68" stroke="#000000" stroke-width="1" width="127" x="651" y="774"/>
<text font-family="Dialog" font-size="12" x="656" y="788">
won:ConnectionState</text>
<rect fill="#000000" height="1" stroke="#000000" stroke-width="1" width="127" x="651" y="798"/>
<rect fill="#000000" height="1" stroke="#000000" stroke-width="1" width="127" x="651" y="819"/>
<polyline fill="none" points="715,680 715,774" stroke="#000000" stroke-width="1"/>
<line fill="#000000" stroke="#000000" stroke-width="1" x1="708" x2="715" y1="762" y2="774"/>
<line fill="#000000" stroke="#000000" stroke-width="1" x1="722" x2="715" y1="762" y2="774"/>
<text font-family="Dialog" font-size="12" x="716" y="732">
won:hasConnectionState</text>
<polyline fill="none" points="701,198 603,198 603,174 701,174" stroke="#000000" stroke-width="1"/>
<line fill="#000000" stroke="#000000" stroke-width="1" x1="689" x2="701" y1="181" y2="174"/>
<line fill="#000000" stroke="#000000" stroke-width="1" x1="689" x2="701" y1="167" y2="174"/>
<text font-family="Dialog" font-size="12" x="553" y="217">
won:allowsMatchWith</text>
<rect fill="#ffffff" height="88" stroke="#ffffff" stroke-width="1" width="239" x="35" y="94"/>
<rect fill="none" height="88" stroke="#000000" stroke-width="1" width="239" x="35" y="94"/>
<text font-family="Dialog" font-size="12" x="119" y="108">
oslc:Property</text>
<rect fill="#000000" height="1" stroke="#000000" stroke-width="1" width="239" x="35" y="118"/>
<text font-family="Dialog" font-size="12" x="39" y="133">
won:hasMinValueConstraint : xsd:decimal</text>
<text font-family="Dialog" font-size="12" x="39" y="150">
won:hasMaxValueConstraint : xsd:decimal</text>
<rect fill="#000000" height="1" stroke="#000000" stroke-width="1" width="239" x="35" y="160"/>
</svg>
