<?xml version="1.0" encoding="UTF-8" standalone="no"?>
<svg
   xmlns:dc="http://purl.org/dc/elements/1.1/"
   xmlns:cc="http://creativecommons.org/ns#"
   xmlns:rdf="http://www.w3.org/1999/02/22-rdf-syntax-ns#"
   xmlns:svg="http://www.w3.org/2000/svg"
   xmlns="http://www.w3.org/2000/svg"
   xmlns:xlink="http://www.w3.org/1999/xlink"
   xml:space="preserve"
   enable-background="new 0 0 27 27"
   viewBox="0 0 27 27"
   height="27px"
   width="27px"
   y="0px"
   x="0px"
   id="Layer_1"
   version="1.1"><metadata
     id="metadata23"><rdf:RDF><cc:Work
         rdf:about=""><dc:format>image/svg+xml</dc:format><dc:type
           rdf:resource="http://purl.org/dc/dcmitype/StillImage" /><dc:title></dc:title></cc:Work></rdf:RDF></metadata><defs
     id="defs21"><pattern
       id="EMFhbasepattern"
       patternUnits="userSpaceOnUse"
       width="6"
       height="6"
       x="0"
       y="0" /><pattern
       id="EMFhbasepattern-3"
       patternUnits="userSpaceOnUse"
       width="6"
       height="6"
       x="0"
       y="0" /><clipPath
       id="SVGID_2_"><use
         height="100%"
         width="100%"
         y="0"
         x="0"
         style="overflow:visible"
         id="use15"
         overflow="visible"
         xlink:href="#SVGID_1_" /></clipPath></defs><g
     id="g7"
     transform="matrix(0.87756723,0,0,0.87756723,-1.8612037,-2.3244829)"><g
       id="g9"><defs
         id="defs11"><path
           d="M 18,36 C 27.941,36 36,27.941 36,18 36,8.059 27.941,0 18,0 8.059,0 0,8.059 0,18 0,27.941 8.059,36 18,36 l 0,0 z"
           id="SVGID_1_" /></defs><clipPath
         id="clipPath4154"><use
           height="100%"
           width="100%"
           y="0"
           x="0"
           style="overflow:visible"
           id="use4156"
           overflow="visible"
           xlink:href="#SVGID_1_" /></clipPath><path
         style="fill:var(--local-primary)"
         id="path17"
         d="m 18,7.299 c -4.142,0 -7.5,3.358 -7.5,7.5 0,6.145 7.5,13.903 7.5,13.903 0,0 7.5,-7.759 7.5,-13.903 0,-4.142 -3.357,-7.5 -7.5,-7.5 l 0,0 z m 0,12.133 c -2.071,0 -3.75,-1.68 -3.75,-3.75 0,-2.071 1.679,-3.75 3.75,-3.75 2.07,0 3.75,1.679 3.75,3.75 0,2.069 -1.68,3.75 -3.75,3.75 l 0,0 z"
         clip-path="url(#SVGID_2_)" /></g></g></svg>