<?xml version="1.0" encoding="UTF-8" standalone="no"?>
<svg
   xmlns:dc="http://purl.org/dc/elements/1.1/"
   xmlns:cc="http://creativecommons.org/ns#"
   xmlns:rdf="http://www.w3.org/1999/02/22-rdf-syntax-ns#"
   xmlns:svg="http://www.w3.org/2000/svg"
   xmlns="http://www.w3.org/2000/svg"
   xml:space="preserve"
   enable-background="new 0 0 27 27"
   viewBox="0 0 27 27"
   height="27px"
   width="27px"
   y="0px"
   x="0px"
   id="Layer_1"
   version="1.1"><metadata
     id="metadata23"><rdf:RDF><cc:Work
         rdf:about=""><dc:format>image/svg+xml</dc:format><dc:type
           rdf:resource="http://purl.org/dc/dcmitype/StillImage" /><dc:title></dc:title></cc:Work></rdf:RDF></metadata><defs
     id="defs21"><pattern
       id="EMFhbasepattern"
       patternUnits="userSpaceOnUse"
       width="6"
       height="6"
       x="0"
       y="0" /><pattern
       id="EMFhbasepattern-3"
       patternUnits="userSpaceOnUse"
       width="6"
       height="6"
       x="0"
       y="0" /></defs><rect
     id="rect3"
     height="27"
     width="27"
     fill="#FFFFFF" /><path
     style="fill:#000000;fill-opacity:1;fill-rule:nonzero;stroke:none"
     d="m 13.95762,4.157082 c -3.606037,0 -6.5564453,2.9504045 -6.5564453,6.556441 0,5.376294 6.5564453,12.129395 6.5564453,12.129395 0,0 6.55646,-6.753101 6.55646,-12.129395 0,-3.6060365 -2.950424,-6.556441 -6.55646,-6.556441 l 0,0 z m 0,10.621433 c -1.835801,0 -3.278223,-1.507992 -3.278223,-3.278213 0,-1.8358095 1.442422,-3.2782221 3.278223,-3.2782221 1.83581,0 3.278213,1.4424126 3.278213,3.2782221 0,1.770221 -1.442403,3.278213 -3.278213,3.278213 l 0,0 z"
     id="path4169" /></svg>