<?xml version="1.0" encoding="UTF-8" standalone="no"?>
<svg
   xmlns:dc="http://purl.org/dc/elements/1.1/"
   xmlns:cc="http://creativecommons.org/ns#"
   xmlns:rdf="http://www.w3.org/1999/02/22-rdf-syntax-ns#"
   xmlns:svg="http://www.w3.org/2000/svg"
   xmlns="http://www.w3.org/2000/svg"
   xml:space="preserve"
   enable-background="new 0 0 16 16"
   viewBox="0 0 16 16"
   height="16px"
   width="16px"
   y="0px"
   x="0px"
   id="Layer_1"
   version="1.1"><metadata
     id="metadata11"><rdf:RDF><cc:Work
         rdf:about=""><dc:format>image/svg+xml</dc:format><dc:type
           rdf:resource="http://purl.org/dc/dcmitype/StillImage" /><dc:title></dc:title></cc:Work></rdf:RDF></metadata><defs
     id="defs9" /><g
     transform="matrix(0.99572504,0,0,0.99572504,0.1300786,0.06839942)"
     id="g3"><path
       style="fill:#939598"
       id="path5"
       d="M 8,9.069 C 6.452,9.069 5.197,7.814 5.197,6.266 5.197,4.718 6.452,3.463 8,3.463 c 1.548,0 2.803,1.255 2.803,2.803 0,1.548 -1.255,2.803 -2.803,2.803 M 8,0 C 4.904,0 2.393,2.51 2.393,5.607 2.393,10.2 8,16 8,16 8,16 13.607,10.2 13.607,5.607 13.607,2.51 11.096,0 8,0" /></g></svg>