<?xml version="1.0" encoding="utf-8"?>
<!-- Generator: Adobe Illustrator 15.0.0, SVG Export Plug-In . SVG Version: 6.00 Build 0)  -->
<!DOCTYPE svg PUBLIC "-//W3C//DTD SVG 1.1//EN" "http://www.w3.org/Graphics/SVG/1.1/DTD/svg11.dtd">
<svg version="1.1" id="Layer_1" xmlns="http://www.w3.org/2000/svg" xmlns:xlink="http://www.w3.org/1999/xlink" x="0px" y="0px"
	 width="16px" height="16px" viewBox="0 0 16 16" enable-background="new 0 0 16 16" xml:space="preserve">
<g>
	<path fill="var(--local-primary)" d="M7.433,3.767v4.466L10.2,11l0.8-0.8L8.567,7.767v-4H7.433z M4.3,12.567C2.855,11.389,2.133,9.867,2.133,8
		c0-1.378,0.434-2.611,1.3-3.7C4.611,2.856,6.133,2.133,8,2.133c1.378,0,2.611,0.434,3.7,1.3c1.443,1.178,2.167,2.7,2.167,4.567
		c0,1.378-0.435,2.611-1.3,3.7c-1.179,1.444-2.7,2.167-4.567,2.167C6.622,13.867,5.389,13.433,4.3,12.567 M3,2.4
		C1.333,3.889,0.5,5.756,0.5,8c0,1.889,0.633,3.556,1.9,5c1.489,1.667,3.355,2.5,5.6,2.5c1.889,0,3.555-0.633,5-1.9
		c1.667-1.488,2.5-3.354,2.5-5.6c0-1.889-0.633-3.555-1.9-5C12.111,1.333,10.244,0.5,8,0.5C6.111,0.5,4.444,1.133,3,2.4"/>
</g>
</svg>
