<?xml version="1.0" encoding="UTF-8" standalone="no"?>
<!-- Generator: Adobe Illustrator 15.0.0, SVG Export Plug-In . SVG Version: 6.00 Build 0)  -->

<svg
   xmlns:dc="http://purl.org/dc/elements/1.1/"
   xmlns:cc="http://creativecommons.org/ns#"
   xmlns:rdf="http://www.w3.org/1999/02/22-rdf-syntax-ns#"
   xmlns:svg="http://www.w3.org/2000/svg"
   xmlns="http://www.w3.org/2000/svg"
   xmlns:sodipodi="http://sodipodi.sourceforge.net/DTD/sodipodi-0.dtd"
   xmlns:inkscape="http://www.inkscape.org/namespaces/inkscape"
   version="1.1"
   id="Layer_1"
   x="0px"
   y="0px"
   width="16px"
   height="16px"
   viewBox="0 0 16 16"
   enable-background="new 0 0 16 16"
   xml:space="preserve"
   inkscape:version="0.91 r13725"
   sodipodi:docname="ico16_indicator_info.svg"><metadata
     id="metadata11"><rdf:RDF><cc:Work
         rdf:about=""><dc:format>image/svg+xml</dc:format><dc:type
           rdf:resource="http://purl.org/dc/dcmitype/StillImage" /></cc:Work></rdf:RDF></metadata><defs
     id="defs9" /><sodipodi:namedview
     pagecolor="#ffffff"
     bordercolor="#666666"
     borderopacity="1"
     objecttolerance="10"
     gridtolerance="10"
     guidetolerance="10"
     inkscape:pageopacity="0"
     inkscape:pageshadow="2"
     inkscape:window-width="1869"
     inkscape:window-height="958"
     id="namedview7"
     showgrid="false"
     inkscape:zoom="41.7193"
     inkscape:cx="3.9482575"
     inkscape:cy="7.9699439"
     inkscape:window-x="0"
     inkscape:window-y="0"
     inkscape:window-maximized="0"
     inkscape:current-layer="Layer_1" /><path
     style="fill:#939598"
     inkscape:connector-curvature="0"
     id="path5"
     d="M 3,2.4 C 1.333,3.889 0.5,5.756 0.5,8 c 0,1.889 0.633,3.556 1.9,5 1.489,1.667 3.355,2.5 5.6,2.5 1.889,0 3.555,-0.633 5,-1.9 C 14.667,12.112 15.5,10.246 15.5,8 15.5,6.111 14.867,4.445 13.6,3 12.111,1.333 10.244,0.5 8,0.5 6.111,0.5 4.444,1.133 3,2.4"
     sodipodi:nodetypes="cscscscsc" /><g
     style="font-style:normal;font-weight:normal;font-size:40px;line-height:5.99999987%;font-family:sans-serif;letter-spacing:0px;word-spacing:0px;fill:#ffffff;fill-opacity:1;stroke:none;stroke-width:1px;stroke-linecap:butt;stroke-linejoin:miter;stroke-opacity:1"
     id="text3362"><path
       d="m 10.05,12.59375 -4.0499999,0 0,-0.2 0.3,-0.0125 q 0.3625,-0.0375 0.4375,-0.175 0.075,-0.1375 0.075,-0.6 l 0.0125,-0.575 0,-2.9875 -0.0125,-0.5125 q -0.025,-0.3 -0.075,-0.45 -0.05,-0.15 -0.45,-0.1875 l -0.3375,-0.025 0,-0.2 3.275,0 0,4.3625 0.0125,0.575 q 0,0.45 0.075,0.6 0.075,0.1375 0.4375,0.175 l 0.2999999,0.0125 0,0.2 z M 6.8000001,4.58125 q 0,-0.4875 0.35,-0.825 0.3625,-0.35 0.8625,-0.35 0.5125,0 0.8625,0.3375 0.3625,0.325 0.3625,0.8375 0,0.5 -0.3625,0.85 -0.35,0.3375 -0.8625,0.3375 -0.5,0 -0.8625,-0.3375 -0.35,-0.35 -0.35,-0.85 z"
       style="font-style:normal;font-variant:normal;font-weight:normal;font-stretch:normal;font-size:12.5px;line-height:5.99999987%;font-family:Elephant;-inkscape-font-specification:'Elephant, Normal';text-align:start;writing-mode:lr-tb;text-anchor:start;fill:#ffffff"
       id="path3373" /></g></svg>