<?xml version="1.0" encoding="UTF-8" standalone="no"?>
<svg
   xmlns:dc="http://purl.org/dc/elements/1.1/"
   xmlns:cc="http://creativecommons.org/ns#"
   xmlns:rdf="http://www.w3.org/1999/02/22-rdf-syntax-ns#"
   xmlns:svg="http://www.w3.org/2000/svg"
   xmlns="http://www.w3.org/2000/svg"
   xml:space="preserve"
   enable-background="new 0 0 16 16"
   viewBox="0 0 16 16"
   height="16px"
   width="16px"
   y="0px"
   x="0px"
   id="Layer_1"
   version="1.1"><metadata
     id="metadata11"><rdf:RDF><cc:Work
         rdf:about=""><dc:format>image/svg+xml</dc:format><dc:type
           rdf:resource="http://purl.org/dc/dcmitype/StillImage" /><dc:title></dc:title></cc:Work></rdf:RDF></metadata><defs
     id="defs9" /><path
     id="path4160"
     d="M 7.984375 1.8710938 C 7.667302 1.8904787 7.3588369 2.0618162 7.1992188 2.3359375 C 7.1992187 2.3359375 0.81744591 13.397373 0.7578125 13.53125 C 0.40526046 14.322731 0.87742522 14.957337 1.5644531 14.951172 C 2.0329209 14.946972 14.332365 14.962736 14.421875 14.960938 C 15.304875 14.942842 15.650019 14.174813 15.296875 13.507812 C 15.217913 13.358673 8.8203125 2.3164062 8.8203125 2.3164062 C 8.6271288 1.984276 8.301448 1.8517086 7.984375 1.8710938 z M 7.0351562 5.484375 L 9.0273438 5.484375 L 8.796875 11.345703 L 7.2851562 11.345703 L 7.0351562 5.484375 z M 7.125 12.425781 L 8.9394531 12.425781 L 8.9394531 13.572266 L 7.125 13.572266 L 7.125 12.425781 z "
     style="fill:#ffffff;fill-opacity:1;fill-rule:evenodd;stroke:none;stroke-width:1px;stroke-linecap:butt;stroke-linejoin:miter;stroke-opacity:1" /></svg>