<?xml version="1.0" encoding="UTF-8" standalone="no"?>
<!-- Generator: Adobe Illustrator 15.0.0, SVG Export Plug-In . SVG Version: 6.00 Build 0)  -->

<svg
   xmlns:dc="http://purl.org/dc/elements/1.1/"
   xmlns:cc="http://creativecommons.org/ns#"
   xmlns:rdf="http://www.w3.org/1999/02/22-rdf-syntax-ns#"
   xmlns:svg="http://www.w3.org/2000/svg"
   xmlns="http://www.w3.org/2000/svg"
   xmlns:sodipodi="http://sodipodi.sourceforge.net/DTD/sodipodi-0.dtd"
   xmlns:inkscape="http://www.inkscape.org/namespaces/inkscape"
   version="1.1"
   id="Layer_1"
   x="0px"
   y="0px"
   width="14px"
   height="16px"
   viewBox="0 0 14 16"
   enable-background="new 0 0 14 16"
   xml:space="preserve"
   inkscape:version="0.92.3 (2405546, 2018-03-11)"
   sodipodi:docname="ico16_copy_to_clipboard.svg"><metadata
     id="metadata3379"><rdf:RDF><cc:Work
         rdf:about=""><dc:format>image/svg+xml</dc:format><dc:type
           rdf:resource="http://purl.org/dc/dcmitype/StillImage" /><dc:title /></cc:Work></rdf:RDF></metadata><defs
     id="defs3377" /><sodipodi:namedview
     pagecolor="#ffffff"
     bordercolor="#666666"
     borderopacity="1"
     objecttolerance="10"
     gridtolerance="10"
     guidetolerance="10"
     inkscape:pageopacity="0"
     inkscape:pageshadow="2"
     inkscape:window-width="2493"
     inkscape:window-height="1385"
     id="namedview3375"
     showgrid="false"
     inkscape:zoom="52.444444"
     inkscape:cx="12.903282"
     inkscape:cy="3.9216548"
     inkscape:window-x="67"
     inkscape:window-y="27"
     inkscape:window-maximized="1"
     inkscape:current-layer="Layer_1"
     inkscape:snap-object-midpoints="true"
     inkscape:snap-smooth-nodes="true"
     showguides="true"
     inkscape:guide-bbox="true"><sodipodi:guide
       position="8.7890625,4"
       orientation="1,0"
       id="guide20"
       inkscape:locked="false" /></sodipodi:namedview><path
     style="fill:var(--local-primary)"
     d="M 6,1.2109375 C 5.0030704,1.2109375 4.2109375,2.0030704 4.2109375,3 4.2106002,3.1163576 4.1163576,3.2106002 4,3.2109375 H 1 C 0.56538028,3.2109375 0.2109375,3.5653803 0.2109375,4 v 11 c 0,0.43462 0.35444278,0.789062 0.7890625,0.789062 h 9.984375 c 0.237812,-0.01699 0.413358,-0.09545 0.570313,-0.24414 0.146493,-0.138783 0.217005,-0.31738 0.234374,-0.560547 V 13.210938 H 11.210938 V 15 C 11.210601,15.116358 11.116358,15.210601 11,15.210938 H 1 C 0.88364225,15.210601 0.78939954,15.116358 0.7890625,15 V 6 C 0.78939982,5.8836424 0.88364244,5.7893998 1,5.7890625 H 11 C 11.116358,5.7893995 11.210601,5.8836422 11.210938,6 v 2.7890625 h 0.578124 V 4 C 11.789062,3.5653803 11.43462,3.2109375 11,3.2109375 H 8 C 7.8836424,3.2106002 7.7893998,3.1163576 7.7890625,3 7.7890625,2.0030704 6.9969296,1.2109375 6,1.2109375 Z m 0,0.578125 C 6.6653803,1.7890625 7.2109375,2.3346197 7.2109375,3 7.2109375,3.4346197 7.5653803,3.7890625 8,3.7890625 H 9 C 9.6653803,3.7890625 10.210938,4.3346197 10.210938,5 10.210601,5.1163578 10.116358,5.2106005 10,5.2109375 H 2 C 1.8836424,5.2106002 1.7893998,5.1163576 1.7890625,5 1.7890625,4.3346197 2.3346197,3.7890625 3,3.7890625 H 4 C 4.4346197,3.7890625 4.7890625,3.4346197 4.7890625,3 4.7890625,2.3346197 5.3346197,1.7890625 6,1.7890625 Z m -3.7890625,5.421875 v 0.578125 h 4.578125 V 7.2109375 Z M 8.7890625,8.5117188 6.3007812,11 8.7890625,13.488281 V 11.789062 H 13.789062 V 10.210938 H 8.7890625 Z m -6.578125,0.6992187 v 0.578125 h 2.078125 v -0.578125 z m 0,2.0000005 v 0.578124 h 2.078125 v -0.578124 z m 0,2 v 0.578124 h 3.578125 v -0.578124 z"
     id="path5"
     inkscape:connector-curvature="0"
     sodipodi:nodetypes="sccsssscccccccccccccccssccsssssccccsssscccccccccccccccccccccccccccc" /></svg>