<?xml version="1.0" encoding="UTF-8" standalone="no"?>
<!-- Generator: Adobe Illustrator 15.0.0, SVG Export Plug-In . SVG Version: 6.00 Build 0)  -->

<svg
   xmlns:dc="http://purl.org/dc/elements/1.1/"
   xmlns:cc="http://creativecommons.org/ns#"
   xmlns:rdf="http://www.w3.org/1999/02/22-rdf-syntax-ns#"
   xmlns:svg="http://www.w3.org/2000/svg"
   xmlns="http://www.w3.org/2000/svg"
   xmlns:sodipodi="http://sodipodi.sourceforge.net/DTD/sodipodi-0.dtd"
   xmlns:inkscape="http://www.inkscape.org/namespaces/inkscape"
   version="1.1"
   id="Layer_1"
   x="0px"
   y="0px"
   width="16px"
   height="16px"
   viewBox="0 0 16 16"
   enable-background="new 0 0 16 16"
   xml:space="preserve"
   inkscape:version="0.91 r13725"
   sodipodi:docname="ico16_indicator_warning.svg"><metadata
     id="metadata11"><rdf:RDF><cc:Work
         rdf:about=""><dc:format>image/svg+xml</dc:format><dc:type
           rdf:resource="http://purl.org/dc/dcmitype/StillImage" /><dc:title /></cc:Work></rdf:RDF></metadata><defs
     id="defs9" /><sodipodi:namedview
     pagecolor="#ffffff"
     bordercolor="#666666"
     borderopacity="1"
     objecttolerance="10"
     gridtolerance="10"
     guidetolerance="10"
     inkscape:pageopacity="0"
     inkscape:pageshadow="2"
     inkscape:window-width="2311"
     inkscape:window-height="1279"
     id="namedview7"
     showgrid="false"
     inkscape:zoom="22.627417"
     inkscape:cx="-20.042536"
     inkscape:cy="11.969544"
     inkscape:window-x="0"
     inkscape:window-y="0"
     inkscape:window-maximized="0"
     inkscape:current-layer="Layer_1" /><path
     style="fill:var(--local-primary);fill-opacity:1;fill-rule:evenodd;stroke:none;stroke-width:1px;stroke-linecap:butt;stroke-linejoin:miter;stroke-opacity:1"
     d="M 7.984375 1.8710938 C 7.667302 1.8904787 7.3588369 2.0618162 7.1992188 2.3359375 C 7.1992187 2.3359375 0.81744591 13.397373 0.7578125 13.53125 C 0.40526046 14.322731 0.87742522 14.957337 1.5644531 14.951172 C 2.0329209 14.946972 14.332365 14.962736 14.421875 14.960938 C 15.304875 14.942842 15.650019 14.174813 15.296875 13.507812 C 15.217913 13.358673 8.8203125 2.3164062 8.8203125 2.3164062 C 8.6271288 1.984276 8.301448 1.8517086 7.984375 1.8710938 z M 7.0351562 5.484375 L 9.0273438 5.484375 L 8.796875 11.345703 L 7.2851562 11.345703 L 7.0351562 5.484375 z M 7.125 12.425781 L 8.9394531 12.425781 L 8.9394531 13.572266 L 7.125 13.572266 L 7.125 12.425781 z "
     id="path4160" /></svg>
