<?xml version="1.0" encoding="UTF-8" standalone="no"?>
<!-- Generator: Adobe Illustrator 15.0.0, SVG Export Plug-In . SVG Version: 6.00 Build 0)  -->

<svg
   xmlns:dc="http://purl.org/dc/elements/1.1/"
   xmlns:cc="http://creativecommons.org/ns#"
   xmlns:rdf="http://www.w3.org/1999/02/22-rdf-syntax-ns#"
   xmlns:svg="http://www.w3.org/2000/svg"
   xmlns="http://www.w3.org/2000/svg"
   xmlns:sodipodi="http://sodipodi.sourceforge.net/DTD/sodipodi-0.dtd"
   xmlns:inkscape="http://www.inkscape.org/namespaces/inkscape"
   version="1.1"
   id="Layer_1"
   x="0px"
   y="0px"
   width="16px"
   height="16px"
   viewBox="0 0 16 16"
   enable-background="new 0 0 16 16"
   xml:space="preserve"
   inkscape:version="0.91 r13725"
   sodipodi:docname="ico16_indicator_info.svg"><metadata
     id="metadata11"><rdf:RDF><cc:Work
         rdf:about=""><dc:format>image/svg+xml</dc:format><dc:type
           rdf:resource="http://purl.org/dc/dcmitype/StillImage" /></cc:Work></rdf:RDF></metadata><defs
     id="defs9" /><sodipodi:namedview
     pagecolor="#ffffff"
     bordercolor="#666666"
     borderopacity="1"
     objecttolerance="10"
     gridtolerance="10"
     guidetolerance="10"
     inkscape:pageopacity="0"
     inkscape:pageshadow="2"
     inkscape:window-width="1869"
     inkscape:window-height="958"
     id="namedview7"
     showgrid="false"
     inkscape:zoom="41.7193"
     inkscape:cx="0.36478414"
     inkscape:cy="7.9699439"
     inkscape:window-x="0"
     inkscape:window-y="0"
     inkscape:window-maximized="0"
     inkscape:current-layer="Layer_1" /><path
     style="fill:var(--local-primary)"
     d="M 8 0.5 C 6.111 0.5 4.444 1.1333906 3 2.4003906 C 1.333 3.8893906 0.5 5.756 0.5 8 C 0.5 9.889 1.1333906 11.556 2.4003906 13 C 3.8893906 14.667 5.755 15.5 8 15.5 C 9.889 15.5 11.555 14.866609 13 13.599609 C 14.667 12.111609 15.5 10.246 15.5 8 C 15.5 6.111 14.866609 4.445 13.599609 3 C 12.110609 1.333 10.244 0.5 8 0.5 z M 8.0117188 3.40625 C 8.3533853 3.40625 8.6416667 3.5191406 8.875 3.7441406 C 9.1166667 3.9608073 9.2382812 4.2403647 9.2382812 4.5820312 C 9.2382812 4.9153646 9.1166667 5.1983073 8.875 5.4316406 C 8.6416667 5.6566406 8.3533853 5.7695313 8.0117188 5.7695312 C 7.6783853 5.7695312 7.3920573 5.6566406 7.1503906 5.4316406 C 6.9170573 5.1983073 6.8007813 4.9153646 6.8007812 4.5820312 C 6.8007812 4.2570314 6.9170573 3.9808594 7.1503906 3.7558594 C 7.3920573 3.522526 7.6783853 3.40625 8.0117188 3.40625 z M 5.9492188 6.6679688 L 9.2246094 6.6679688 L 9.2246094 11.03125 L 9.2382812 11.605469 C 9.2382812 11.905469 9.2625 12.107031 9.3125 12.207031 C 9.3625 12.298698 9.5083333 12.355859 9.75 12.380859 L 10.050781 12.394531 L 10.050781 12.59375 L 6 12.59375 L 6 12.394531 L 6.3007812 12.380859 C 6.5424479 12.355859 6.6882813 12.298698 6.7382812 12.207031 C 6.7882813 12.115365 6.8125 11.913802 6.8125 11.605469 L 6.8242188 11.03125 L 6.8242188 8.0429688 L 6.8125 7.53125 C 6.7958333 7.33125 6.7716146 7.1820312 6.7382812 7.0820312 C 6.7049479 6.9820312 6.553776 6.9195313 6.2871094 6.8945312 L 5.9492188 6.8691406 L 5.9492188 6.6679688 z "
     id="path5" /></svg>