<?xml version="1.0" encoding="UTF-8" standalone="no"?>
<!-- Generator: Adobe Illustrator 15.0.0, SVG Export Plug-In . SVG Version: 6.00 Build 0)  -->

<svg
   xmlns:dc="http://purl.org/dc/elements/1.1/"
   xmlns:cc="http://creativecommons.org/ns#"
   xmlns:rdf="http://www.w3.org/1999/02/22-rdf-syntax-ns#"
   xmlns:svg="http://www.w3.org/2000/svg"
   xmlns="http://www.w3.org/2000/svg"
   xmlns:sodipodi="http://sodipodi.sourceforge.net/DTD/sodipodi-0.dtd"
   xmlns:inkscape="http://www.inkscape.org/namespaces/inkscape"
   version="1.1"
   id="Layer_1"
   x="0px"
   y="0px"
   width="16"
   height="16"
   viewBox="0 0 16 16"
   enable-background="new 0 0 36 36"
   xml:space="preserve"
   inkscape:version="0.91 r13725"
   sodipodi:docname="ico16_indicator_message.svg"><metadata
     id="metadata11"><rdf:RDF><cc:Work
         rdf:about=""><dc:format>image/svg+xml</dc:format><dc:type
           rdf:resource="http://purl.org/dc/dcmitype/StillImage" /><dc:title /></cc:Work></rdf:RDF></metadata><defs
     id="defs9" /><sodipodi:namedview
     pagecolor="#ffffff"
     bordercolor="#666666"
     borderopacity="1"
     objecttolerance="10"
     gridtolerance="10"
     guidetolerance="10"
     inkscape:pageopacity="0"
     inkscape:pageshadow="2"
     inkscape:window-width="1641"
     inkscape:window-height="941"
     id="namedview7"
     showgrid="false"
     inkscape:zoom="31.372559"
     inkscape:cx="12.52147"
     inkscape:cy="6.1446821"
     inkscape:window-x="661"
     inkscape:window-y="24"
     inkscape:window-maximized="0"
     inkscape:current-layer="g4157"
     fit-margin-top="1"
     fit-margin-bottom="1"
     fit-margin-left="1"
     fit-margin-right="1" /><g
     id="g4157"><path
       id="path5"
       d="m 13.027424,2.0996119 -10.0548477,0 c 0,0 -1.4364067,0 -1.4364067,1.4364068 l 0,5.745627 c 0,0 0,1.4364073 1.4364067,1.4364073 l 4.2474547,0 0.8517892,2.681772 c 0.096958,0.306672 0.3792115,0.500587 0.6858843,0.500587 0.07182,0 0.1436407,-0.01149 0.2176156,-0.03448 0.3763386,-0.11994 0.5867721,-0.52357 0.466114,-0.902063 l -0.7146123,-2.245822 4.3006022,0 c 0,0 1.436406,0 1.436406,-1.4364073 l 0,-5.745627 c 0,0 0,-1.4364068 -1.436406,-1.4364068 l 0,0 z"
       style="fill:#ffffff;stroke:#949698;stroke-width:1.072;stroke-miterlimit:4;stroke-dasharray:none;stroke-opacity:1"
       inkscape:connector-curvature="0" /><path
       sodipodi:nodetypes="cccccccccc"
       style="fill:var(--local-primary);fill-opacity:1"
       id="path3-4"
       d="m 3.6383745,8.4822575 4.7430194,0 0,-1.4371249 -4.7430194,0 z m 0,-2.8728135 7.9002365,0 0,-1.4364068 -7.9002365,0 z"
       inkscape:connector-curvature="0" /></g></svg>