<?xml version="1.0" encoding="UTF-8" standalone="no"?>
<!-- Created with Inkscape (http://www.inkscape.org/) -->

<svg
   xmlns:dc="http://purl.org/dc/elements/1.1/"
   xmlns:cc="http://creativecommons.org/ns#"
   xmlns:rdf="http://www.w3.org/1999/02/22-rdf-syntax-ns#"
   xmlns:svg="http://www.w3.org/2000/svg"
   xmlns="http://www.w3.org/2000/svg"
   xmlns:sodipodi="http://sodipodi.sourceforge.net/DTD/sodipodi-0.dtd"
   xmlns:inkscape="http://www.inkscape.org/namespaces/inkscape"
   width="11.799949mm"
   height="7.7405014mm"
   viewBox="0 0 11.799949 7.7405014"
   version="1.1"
   id="svg296"
   inkscape:version="0.92.2 (5c3e80d, 2017-08-06)">
  <defs
     id="defs290" />
  <sodipodi:namedview
     id="base"
     pagecolor="#ffffff"
     bordercolor="#666666"
     borderopacity="1.0"
     inkscape:pageopacity="0.0"
     inkscape:pageshadow="2"
     inkscape:zoom="7.9195959"
     inkscape:cx="80.965475"
     inkscape:cy="1.3298956"
     inkscape:document-units="mm"
     inkscape:current-layer="layer1"
     showgrid="false"
     fit-margin-top="0"
     fit-margin-left="0"
     fit-margin-right="0"
     fit-margin-bottom="0"
     inkscape:window-width="1920"
     inkscape:window-height="1137"
     inkscape:window-x="1912"
     inkscape:window-y="-8"
     inkscape:window-maximized="1" />
  <metadata
     id="metadata293">
    <rdf:RDF>
      <cc:Work
         rdf:about="">
        <dc:format>image/svg+xml</dc:format>
        <dc:type
           rdf:resource="http://purl.org/dc/dcmitype/StillImage" />
        <dc:title></dc:title>
      </cc:Work>
    </rdf:RDF>
  </metadata>
  <g
     inkscape:label="Layer 1"
     inkscape:groupmode="layer"
     id="layer1"
     transform="translate(356.66187,-154.03444)">
    <path
       style="stroke-width:0.02362351"
       d="m -353.21358,161.26101 c 0.007,-0.50964 0.008,-0.51482 0.0733,-0.63858 0.13637,-0.25879 0.51954,-0.60042 1.07739,-0.96054 0.20928,-0.1351 0.24061,-0.16327 0.21262,-0.19115 -0.018,-0.018 -0.3039,-0.14068 -0.63521,-0.27267 -0.33134,-0.13198 -0.65173,-0.26488 -0.71203,-0.29534 -0.18856,-0.0953 -0.18568,-0.0877 -0.18568,-0.48442 v -0.35294 l 0.1062,-0.15973 c 0.11769,-0.17698 0.1913,-0.36402 0.23413,-0.59495 0.027,-0.14558 0.032,-0.15359 0.10541,-0.1686 0.0983,-0.0201 0.16931,-0.0873 0.24107,-0.22815 0.045,-0.0883 0.0587,-0.15733 0.0652,-0.32735 0.0101,-0.25989 -0.0227,-0.34425 -0.15155,-0.39082 -0.0801,-0.029 -0.0843,-0.0356 -0.0718,-0.11383 0.0492,-0.30873 0.0658,-0.66409 0.0386,-0.82526 -0.0997,-0.59098 -0.68836,-1.04397 -1.40591,-1.08187 -0.73806,-0.039 -1.33096,0.34235 -1.5131,0.97318 -0.0339,0.11733 -0.0383,0.19747 -0.0259,0.47247 0.008,0.18214 0.0217,0.38166 0.03,0.44338 0.0148,0.10977 0.0138,0.11221 -0.0483,0.11221 -0.052,0 -0.0715,0.0182 -0.10769,0.1004 -0.0616,0.13992 -0.0831,0.36564 -0.0486,0.50976 0.036,0.15029 0.16184,0.30083 0.28125,0.33661 0.0884,0.0265 0.0886,0.0267 0.12988,0.23087 0.0493,0.2436 0.14793,0.48726 0.24884,0.61465 l 0.0733,0.0926 v 0.36706 0.36706 l -0.065,0.046 c -0.0628,0.0445 -0.21039,0.10907 -0.78549,0.34372 -0.39002,0.15913 -0.45175,0.19789 -0.51324,0.32219 -0.0748,0.15135 -0.10959,0.50259 -0.0911,0.92131 0.0145,0.33093 0.0702,1.04007 0.0978,1.24614 l 0.0135,0.1004 h 1.66235 1.66235 z"
       id="path146"
       inkscape:connector-curvature="0" />
    <path
       style="stroke-width:0.02362351"
       d="m -353.22114,161.70146 c -3e-5,-0.0368 -0.0169,-0.19623 -0.0379,-0.35436 -0.0251,-0.19104 -0.0345,-0.39449 -0.0279,-0.60641 0.009,-0.28556 0.0169,-0.33409 0.0753,-0.4639 0.036,-0.0797 0.099,-0.17725 0.1401,-0.2167 0.0411,-0.0394 0.21825,-0.14848 0.39367,-0.24231 0.58283,-0.31177 0.86691,-0.53086 0.98169,-0.75712 0.0521,-0.10263 0.10498,-0.44053 0.10498,-0.67048 v -0.0776 l -0.18309,0.0921 c -0.18568,0.0934 -0.37851,0.15018 -0.57483,0.16914 l -0.10827,0.0104 0.0304,-0.0852 c 0.0655,-0.18316 0.0633,-0.18507 -0.2214,-0.19667 -0.16888,-0.007 -0.28723,-0.0243 -0.35327,-0.052 l -0.0993,-0.0417 0.16108,-0.0806 c 0.22196,-0.11104 0.36579,-0.26797 0.40463,-0.44147 0.0265,-0.11849 0.0238,-0.15976 -0.027,-0.39941 -0.0508,-0.23989 -0.0566,-0.32531 -0.0562,-0.83422 0,-0.61125 0.0222,-0.78727 0.14545,-1.1782 0.17785,-0.56396 0.48709,-0.88761 0.88672,-0.92805 0.1106,-0.0112 0.16976,-0.0315 0.2313,-0.0793 0.3411,-0.26501 0.85288,-0.30652 1.3707,-0.11118 0.33766,0.12738 0.56057,0.32722 0.72864,0.6532 0.31779,0.61643 0.41637,1.4363 0.29794,2.4779 -0.0474,0.41667 -0.01,0.57888 0.16902,0.73617 0.0485,0.0426 0.1402,0.10155 0.2037,0.13097 l 0.11544,0.0535 -0.1257,0.0432 c -0.0966,0.0332 -0.19815,0.0434 -0.43866,0.0438 l -0.31292,5.3e-4 -1.1e-4,0.075 c -2e-5,0.0463 0.0233,0.10278 0.0611,0.14765 l 0.0611,0.0727 -0.13793,-1.4e-4 c -0.16314,-1.7e-4 -0.27003,-0.0269 -0.48852,-0.12205 -0.0889,-0.0387 -0.16502,-0.0669 -0.16923,-0.0627 -0.0138,0.014 0.0351,0.43121 0.0618,0.52729 0.0674,0.24167 0.27715,0.41886 0.96589,0.81578 0.77764,0.44815 1.0355,0.6566 1.18314,0.9565 0.0812,0.16492 0.0819,0.17041 0.10049,0.78256 l 0.009,0.28686 -2.76045,-0.003 -2.76043,-0.003 -2e-5,-0.0669 z"
       id="path144-9"
       inkscape:connector-curvature="0" />
    <path
       style="stroke-width:0.02362351"
       d="m -348.31022,161.26101 c -0.007,-0.50964 -0.008,-0.51482 -0.0733,-0.63858 -0.13637,-0.25879 -0.51954,-0.60042 -1.07739,-0.96054 -0.20928,-0.1351 -0.24061,-0.16327 -0.21262,-0.19115 0.018,-0.018 0.3039,-0.14068 0.63521,-0.27267 0.33134,-0.13198 0.65173,-0.26488 0.71203,-0.29534 0.18856,-0.0953 0.18568,-0.0877 0.18568,-0.48442 v -0.35294 l -0.1062,-0.15973 c -0.11769,-0.17698 -0.1913,-0.36402 -0.23413,-0.59495 -0.027,-0.14558 -0.032,-0.15359 -0.10541,-0.1686 -0.0983,-0.0201 -0.16931,-0.0873 -0.24107,-0.22815 -0.045,-0.0883 -0.0587,-0.15733 -0.0652,-0.32735 -0.0101,-0.25989 0.0227,-0.34425 0.15155,-0.39082 0.0801,-0.029 0.0843,-0.0356 0.0718,-0.11383 -0.0492,-0.30873 -0.0658,-0.66409 -0.0386,-0.82526 0.0997,-0.59098 0.68836,-1.04397 1.40591,-1.08187 0.73806,-0.039 1.33096,0.34235 1.5131,0.97318 0.0339,0.11733 0.0383,0.19747 0.0259,0.47247 -0.008,0.18214 -0.0217,0.38166 -0.03,0.44338 -0.0148,0.10977 -0.0138,0.11221 0.0483,0.11221 0.052,0 0.0715,0.0182 0.10769,0.1004 0.0616,0.13992 0.0831,0.36564 0.0486,0.50976 -0.036,0.15029 -0.16184,0.30083 -0.28125,0.33661 -0.0884,0.0265 -0.0886,0.0267 -0.12988,0.23087 -0.0493,0.2436 -0.14793,0.48726 -0.24884,0.61465 l -0.0733,0.0926 v 0.36706 0.36706 l 0.065,0.046 c 0.0628,0.0445 0.21039,0.10907 0.78549,0.34372 0.39002,0.15913 0.45175,0.19789 0.51324,0.32219 0.0748,0.15135 0.10959,0.50259 0.0911,0.92131 -0.0145,0.33093 -0.0702,1.04007 -0.0978,1.24614 l -0.0135,0.1004 h -1.66235 -1.66235 z"
       id="path146-6"
       inkscape:connector-curvature="0" />
  </g>
</svg>
