<?xml version="1.0" encoding="UTF-8" standalone="no"?>
<svg 
	xmlns:dc="http://purl.org/dc/elements/1.1/" 
	xmlns:cc="http://creativecommons.org/ns#" 
	xmlns:rdf="http://www.w3.org/1999/02/22-rdf-syntax-ns#" 
	xmlns:svg="http://www.w3.org/2000/svg" 
	xmlns="http://www.w3.org/2000/svg" version="1.1" id="detail_location" width="36px" height="36px" viewBox="0 0 36 36">
	<metadata id="metadata29">
		<rdf:RDF>
			<cc:Work rdf:about="">
				<dc:format>image/svg+xml</dc:format>
				<dc:type rdf:resource="http://purl.org/dc/dcmitype/StillImage" />
				<dc:title></dc:title>
			</cc:Work>
		</rdf:RDF>
	</metadata>
	<path id="path5" d="m 18.322045,7.0939443 c -3.552317,-0.066565 -6.899547,2.5999873 -7.642545,6.0714117 -0.6949283,3.054032 0.57905,6.11472 2.024714,8.749171 1.550848,2.739748 3.478218,5.258527 5.617831,7.563307 2.809103,-3.067207 5.366584,-6.463233 6.943051,-10.339434 0.978543,-2.392762 1.332601,-5.218361 0.128427,-7.60156 C 24.131832,8.860736 21.284831,7.0610677 18.322045,7.0939443 Z m -0.03005,4.8308987 c 0.273345,-0.002 0.54692,0.02826 0.819724,0.0929 2.20615,0.387134 3.685414,2.889237 2.956464,5.008505 -0.479586,1.608166 -2.06601,2.778818 -3.746132,2.754268 -2.243893,0.06831 -4.198873,-2.097236 -3.901878,-4.32267 0.142179,-1.956615 1.958415,-3.519295 3.871822,-3.533003 z" style="fill:var(--local-primary);fill-opacity:1;stroke:none;" />
</svg>