<?xml version="1.0" encoding="UTF-8" standalone="no"?>
<svg 
	xmlns:dc="http://purl.org/dc/elements/1.1/" 
	xmlns:cc="http://creativecommons.org/ns#" 
	xmlns:rdf="http://www.w3.org/1999/02/22-rdf-syntax-ns#" 
	xmlns:svg="http://www.w3.org/2000/svg" 
	xmlns="http://www.w3.org/2000/svg" viewBox="0 0 36 36" height="36px" width="36px" id="detail_media" version="1.1">
	<metadata id="metadata29">
		<rdf:RDF>
			<cc:Work rdf:about="">
				<dc:format>image/svg+xml</dc:format>
				<dc:type rdf:resource="http://purl.org/dc/dcmitype/StillImage" />
				<dc:title></dc:title>
			</cc:Work>
		</rdf:RDF>
	</metadata>
	<path style="fill:var(--local-primary);fill-opacity:1;stroke:none" id="rect814" d="M 1.5390625 2.6054688 C 0.70806243 2.6054688 0.0390625 3.2744685 0.0390625 4.1054688 L 0.0390625 7.609375 L 0.0390625 23.148438 L 0.0390625 30.753906 C 0.0390625 31.584906 0.70806243 32.253906 1.5390625 32.253906 L 4.7773438 32.253906 C 4.7840933 32.254 4.7900918 32.255855 4.796875 32.255859 L 32.259766 32.275391 C 33.079121 32.275947 33.821855 31.620298 33.925781 30.806641 L 36.099609 13.794922 C 36.203536 12.981264 35.625996 12.326728 34.806641 12.326172 L 7.3457031 12.306641 C 6.5263477 12.306084 5.7836142 12.961733 5.6796875 13.775391 L 3.7851562 28.597656 L 3.78125 28.580078 L 1.6074219 28.386719 L 3.4804688 11.375 C 3.5843955 10.561342 4.327129 9.905693 5.1464844 9.90625 L 33.53125 9.9257812 L 33.53125 7.609375 C 33.53125 6.7783749 32.86225 6.109375 32.03125 6.109375 L 17.896484 6.109375 L 17.896484 4.1054688 C 17.896484 3.2744687 17.227484 2.6054686 16.396484 2.6054688 L 1.5390625 2.6054688 z " />
</svg>