<?xml version="1.0" encoding="UTF-8" standalone="no"?>
<svg
   xmlns:dc="http://purl.org/dc/elements/1.1/"
   xmlns:cc="http://creativecommons.org/ns#"
   xmlns:rdf="http://www.w3.org/1999/02/22-rdf-syntax-ns#"
   xmlns:svg="http://www.w3.org/2000/svg"
   xmlns="http://www.w3.org/2000/svg"
   id="svg3827"
   version="1.1"
   viewBox="0 0 8.9958332 8.9958336"
   height="34"
   width="34">
  <defs
     id="defs3821" />
  <metadata
     id="metadata3824">
    <rdf:RDF>
      <cc:Work
         rdf:about="">
        <dc:format>image/svg+xml</dc:format>
        <dc:type
           rdf:resource="http://purl.org/dc/dcmitype/StillImage" />
        <dc:title></dc:title>
      </cc:Work>
    </rdf:RDF>
  </metadata>
  <g
     transform="translate(-69.539681,-100.26479)"
     id="layer1">
    <g
       transform="matrix(0.04319496,0,0,0.04319496,48.272638,52.038715)"
       id="g3779"
       style="clip-rule:evenodd;fill-rule:evenodd;stroke-linejoin:round;stroke-miterlimit:2;fill:var(--local-primary)">
      <path
         d="m 656.273,1278.11 c -0.006,4.54 -0.015,8.6 -0.03,11.93 0,6 -3.388,11.48 -8.752,14.17 -37.91,18.89 -73.526,19.39 -106.71,0.35 -4.957,-2.83 -8.017,-8.1 -8.017,-13.81 0,-7.96 0,-20.48 0,-33.94 0,-22.11 11.218,-41.6 28.274,-53.1 8.892,7.96 20.628,12.8 33.485,12.8 13.488,0 25.742,-5.33 34.773,-13.99 3.416,2.23 6.619,4.83 9.548,7.75 11.166,11.17 17.439,26.32 17.439,42.11 v 2.34 c -4.116,-6.69 -11.434,-11.43 -19.295,-11.58 -1.009,0 -1.059,0.01 -1.476,0.03 -7.667,0.39 -14.244,4.85 -18.126,10.95 -4.176,-6.37 -11.291,-10.83 -18.917,-10.98 -1.009,0 -1.059,0.01 -1.475,0.03 -13.362,0.68 -23.414,13.73 -21.66,26.25 1.546,11.04 11.875,19.85 22.839,19.85 7.688,0 15,-4.35 19.249,-10.65 4.262,6.35 11.61,10.65 19.27,10.65 7.892,0 15.388,-4.58 19.581,-11.16 z m 18.938,-27.52 c 8.617,0 15.613,7 15.613,15.62 0,8.61 -6.996,15.61 -15.613,15.61 -8.617,0 -15.613,-7 -15.613,-15.61 0,-8.62 6.996,-15.62 15.613,-15.62 z m -38.721,0 c -10.263,0.2 -18.707,12.35 -13.87,22.38 3.413,7.08 12.673,10.68 19.971,7.69 7.914,-3.23 12.04,-13.68 8.005,-21.56 -2.572,-5.02 -7.966,-8.4 -13.702,-8.51 -0.202,0 -0.202,0 -0.404,0 z m -38.518,0 c -10.263,0.2 -18.707,12.35 -13.871,22.38 3.413,7.08 12.674,10.68 19.971,7.69 7.915,-3.23 12.04,-13.68 8.005,-21.56 -2.66,-5.19 -7.994,-8.54 -14.105,-8.51 z m -3.449,-127.99 c 24.088,0 43.644,19.56 43.644,43.65 0,24.08 -19.556,43.64 -43.644,43.64 -24.087,0 -43.644,-19.56 -43.644,-43.64 0,-24.09 19.557,-43.65 43.644,-43.65 z"
         id="path3777" />
    </g>
  </g>
</svg>
