<?xml version="1.0" encoding="UTF-8" standalone="no"?>
<svg 
	xmlns:dc="http://purl.org/dc/elements/1.1/" 
	xmlns:cc="http://creativecommons.org/ns#" 
	xmlns:rdf="http://www.w3.org/1999/02/22-rdf-syntax-ns#" 
	xmlns:svg="http://www.w3.org/2000/svg" 
	xmlns="http://www.w3.org/2000/svg" version="1.1" id="detail_datetime" width="36px" height="36px" viewBox="0 0 36 36">
	<metadata id="metadata29">
		<rdf:RDF>
			<cc:Work rdf:about="">
				<dc:format>image/svg+xml</dc:format>
				<dc:type rdf:resource="http://purl.org/dc/dcmitype/StillImage" />
				<dc:title></dc:title>
			</cc:Work>
		</rdf:RDF>
	</metadata>
	<path style="fill:var(--local-primary);fill-opacity:1;stroke:none" d="m 12.664062,7.9570312 c -0.413444,0.00647 -0.743674,0.3463064 -0.738281,0.7597657 V 9.5332031 H 8.6640625 c -0.9105082,0 -1.6679688,0.7550359 -1.6679687,1.6660159 v 14.177734 c 0,0.91098 0.7574605,1.666016 1.6679687,1.666016 H 20.75 c -2.207871,-7.073856 0.767014,-11.490706 8.332019,-8.761719 v -7.082031 c 0,-0.91098 -0.75746,-1.6660159 -1.667969,-1.6660159 H 23.953125 V 8.7167969 c 0.0055,-0.4226368 -0.339098,-0.7663631 -0.761719,-0.7597657 -0.413444,0.00647 -0.743674,0.3463064 -0.738281,0.7597657 V 9.5332031 H 18.791016 V 8.7167969 c 0.0055,-0.4226368 -0.339098,-0.7663631 -0.761719,-0.7597657 -0.413444,0.00647 -0.743674,0.3463064 -0.738281,0.7597657 V 9.5332031 H 13.425781 V 8.7167969 C 13.431293,8.2941601 13.086683,7.9504338 12.664062,7.9570312 Z M 8.6640625,11.033203 h 3.2617185 v 0.484375 c -0.01434,1.014242 1.514344,1.014242 1.5,0 v -0.484375 h 3.865235 v 0.484375 c -0.01434,1.014242 1.514344,1.014242 1.5,0 v -0.484375 h 3.662109 v 0.484375 c -0.01434,1.014242 1.514344,1.014242 1.5,0 v -0.484375 h 3.460937 c 0.106733,0 0.167969,0.06137 0.167969,0.166016 V 17.4375 c -7.094734,-2.384062 -7.813347,2.681481 -7.613281,8.105469 H 8.6640625 c -0.1067324,0 -0.1679687,-0.06137 -0.1679687,-0.166016 V 11.199219 c 0,-0.104646 0.061236,-0.166016 0.1679687,-0.166016 z" id="rect845" />
	<path style="fill:var(--local-primary);fill-opacity:1;stroke:none" d="m 10.195312,13.195312 c -0.277,1e-6 -0.4999995,0.223001 -0.4999995,0.5 v 1.515626 c 0,0.277 0.2229995,0.5 0.4999995,0.5 h 2.279297 c 0.277,-1e-6 0.5,-0.223001 0.5,-0.5 v -1.515626 c 0,-0.277 -0.223,-0.5 -0.5,-0.5 z m 4.466797,0 c -0.277,1e-6 -0.5,0.223001 -0.5,0.5 v 1.515626 c 0,0.277 0.223,0.5 0.5,0.5 h 2.279297 c 0.277,-1e-6 0.5,-0.223001 0.5,-0.5 v -1.515626 c 0,-0.277 -0.223,-0.5 -0.5,-0.5 z m 4.486329,0 c -0.277001,1e-6 -0.5,0.223001 -0.5,0.5 v 1.515626 c 0,0.277 0.222999,0.5 0.5,0.5 h 2.279296 c 0.277,-1e-6 0.5,-0.223001 0.5,-0.5 v -1.515626 c 0,-0.277 -0.223,-0.5 -0.5,-0.5 z m 4.43164,0 c -0.277,1e-6 -0.5,0.223001 -0.5,0.5 v 1.515626 c 0,0.277 0.223,0.5 0.5,0.5 h 2.279297 c 0.277,-1e-6 0.5,-0.223001 0.5,-0.5 v -1.515626 c 0,-0.277 -0.223,-0.5 -0.5,-0.5 z m -13.384766,4.029297 c -0.277,0 -0.4999995,0.223 -0.4999995,0.5 v 1.517579 c 0,0.277 0.2229995,0.5 0.4999995,0.5 h 2.279297 c 0.277,0 0.5,-0.223 0.5,-0.5 v -1.517579 c 0,-0.277 -0.223,-0.5 -0.5,-0.5 z m 4.466797,0 c -0.277,0 -0.5,0.223 -0.5,0.5 v 1.517579 c 0,0.277 0.223,0.5 0.5,0.5 h 2.279297 c 0.277,0 0.5,-0.223 0.5,-0.5 v -1.517579 c 0,-0.277 -0.223,-0.5 -0.5,-0.5 z m -4.466797,4.017579 c -0.277,0 -0.4999995,0.222999 -0.4999995,0.5 v 1.517578 c 0,0.277 0.2229995,0.5 0.4999995,0.5 h 2.279297 c 0.277,0 0.5,-0.223 0.5,-0.5 v -1.517578 c 0,-0.277001 -0.223,-0.5 -0.5,-0.5 z m 4.466797,0 c -0.277,0 -0.5,0.222999 -0.5,0.5 v 1.517578 c 0,0.277 0.223,0.5 0.5,0.5 h 2.279297 c 0.277,0 0.5,-0.223 0.5,-0.5 v -1.517578 c 0,-0.277001 -0.223,-0.5 -0.5,-0.5 z" id="rect869" />
	<path id="path10" d="m 20.897653,17.907786 c -1.410258,1.259839 -2.115387,2.839557 -2.115387,4.738519 0,1.599394 0.535669,3.009017 1.607643,4.231411 1.25984,1.410258 2.839558,2.115387 4.739155,2.115387 1.598123,0 3.009016,-0.535669 4.23141,-1.607644 1.410258,-1.259839 2.115387,-2.839557 2.115387,-4.739154 0,-1.598124 -0.535669,-3.008382 -1.607644,-4.23141 -1.261108,-1.410258 -2.839557,-2.115387 -4.739153,-2.115387 -1.598759,0 -3.009017,0.536304 -4.231411,1.608278 z m 1.100535,8.603084 c -1.223028,-0.995812 -1.83359,-2.284847 -1.83359,-3.864565 0,-1.165272 0.366845,-2.209321 1.0999,-3.130875 0.996448,-1.222393 2.284848,-1.83359 3.864566,-1.83359 1.165272,0 2.208685,0.366844 3.13151,1.0999 1.222393,0.997082 1.834224,2.284847 1.834224,3.864565 0,1.166541 -0.366845,2.209955 -1.100535,3.131511 -0.995812,1.223662 -2.285482,1.834224 -3.86393,1.834224 -1.167177,-0.0012 -2.211224,-0.368115 -3.132145,-1.10117 z m 2.651693,-7.446698 v 3.780153 l 2.341333,2.3407 0.676569,-0.67657 -2.059537,-2.059535 v -3.384748 z" style="fill:var(--local-primary);fill-opacity:1;stroke:none" />
</svg>