<?xml version="1.0" encoding="UTF-8" standalone="no"?>
<svg 
	xmlns:dc="http://purl.org/dc/elements/1.1/" 
	xmlns:cc="http://creativecommons.org/ns#" 
	xmlns:rdf="http://www.w3.org/1999/02/22-rdf-syntax-ns#" 
	xmlns:svg="http://www.w3.org/2000/svg" 
	xmlns="http://www.w3.org/2000/svg" version="1.1" id="Layerdetail_travelaction" width="36px" height="36px" viewBox="0 0 36 36">
	<metadata id="metadata29">
		<rdf:RDF>
			<cc:Work rdf:about="">
				<dc:format>image/svg+xml</dc:format>
				<dc:type rdf:resource="http://purl.org/dc/dcmitype/StillImage" />
				<dc:title></dc:title>
			</cc:Work>
		</rdf:RDF>
	</metadata>
	<path style="fill:var(--local-primary);fill-opacity:1;stroke:none" id="path5" d="M 5.5956866,2.0222158 C 3.0723637,1.9741327 0.69471964,3.9003417 0.16694387,6.4079576 -0.32668473,8.6140661 0.57826203,10.824984 1.605163,12.728003 c 1.1016165,1.979085 2.4706887,3.798549 3.9905236,5.463428 1.9953963,-2.215625 3.8120566,-4.668777 4.9318714,-7.468788 0.69509,-1.7284344 0.94659,-3.769533 0.09123,-5.4910592 C 9.7225627,3.2984735 7.700247,1.9984666 5.5956866,2.0222158 Z M 5.5743421,5.5118615 C 5.7685076,5.5104473 5.962836,5.5322743 6.1566173,5.5789739 7.7237169,5.8586226 8.7744847,7.6660412 8.2566891,9.1969145 7.9160235,10.358589 6.7891364,11.20422 5.5956917,11.186486 4.0017826,11.235837 2.6130982,9.6715284 2.8240638,8.0639643 2.925055,6.6505848 4.2151878,5.521768 5.5743421,5.5118667 Z" />
	<path style="fill:var(--local-primary);fill-opacity:1;stroke:none" id="path5-7" d="m 30.436213,14.800449 c -2.523323,-0.04808 -4.900967,1.878127 -5.428743,4.385743 -0.493629,2.206107 0.411318,4.417026 1.438218,6.320047 1.101618,1.979082 2.47069,3.798544 3.990525,5.463424 1.995396,-2.215626 3.812055,-4.668776 4.931871,-7.468787 0.695089,-1.728432 0.946588,-3.769533 0.09123,-5.491058 -0.89622,-1.93311 -2.918537,-3.233118 -5.023096,-3.209369 z m -0.02135,3.489647 c 0.194165,-0.0014 0.388494,0.02041 0.582275,0.06712 1.5671,0.279648 2.617868,2.087068 2.100072,3.61794 -0.340666,1.161674 -1.467552,2.007306 -2.660997,1.989571 -1.59391,0.04935 -2.982594,-1.514956 -2.771628,-3.12252 0.10099,-1.413381 1.391124,-2.542197 2.750278,-2.552098 z" />
	<path style="fill:none;stroke:var(--local-primary);stroke-width:1.29359961px;stroke-linecap:butt;stroke-linejoin:miter;stroke-opacity:1" d="m 5.421271,18.95886 c 5.800349,0.07271 19.672591,2.828933 8.686019,6.133381 -27.190592,6.297663 1.603257,7.189773 16.398689,6.679736" id="path848" />
</svg>