<?xml version="1.0" encoding="UTF-8" standalone="no"?>
<svg
   xmlns:dc="http://purl.org/dc/elements/1.1/"
   xmlns:cc="http://creativecommons.org/ns#"
   xmlns:rdf="http://www.w3.org/1999/02/22-rdf-syntax-ns#"
   xmlns:svg="http://www.w3.org/2000/svg"
   xmlns="http://www.w3.org/2000/svg"
   id="svg3827"
   version="1.1"
   viewBox="0 0 8.9958332 8.9958336"
   height="34"
   width="34">
  <defs
     id="defs3821" />
  <metadata
     id="metadata3824">
    <rdf:RDF>
      <cc:Work
         rdf:about="">
        <dc:format>image/svg+xml</dc:format>
        <dc:type
           rdf:resource="http://purl.org/dc/dcmitype/StillImage" />
        <dc:title></dc:title>
      </cc:Work>
    </rdf:RDF>
  </metadata>
  <g
     transform="translate(-69.539681,-100.26479)"
     id="layer1">
    <g
       transform="matrix(0.04319407,0,0,0.04319407,48.428732,49.566038)"
       id="g3791"
       style="clip-rule:evenodd;fill-rule:evenodd;stroke-linejoin:round;stroke-miterlimit:2;fill:var(--local-primary)">
      <path
         d="m 640.592,1363.07 c -36.679,17.31 -71.193,17.24 -103.414,-1.25 -4.957,-2.83 -8.017,-8.1 -8.017,-13.81 0,-7.96 0,-20.48 0,-33.94 0,-22.11 11.219,-41.6 28.275,-53.09 8.892,7.95 20.628,12.79 33.485,12.79 13.487,0 25.741,-5.33 34.772,-13.99 3.416,2.24 6.619,4.83 9.548,7.76 5.602,5.6 9.972,12.2 12.936,19.38 -0.313,0.25 -0.621,0.51 -0.922,0.79 l -16.575,16.58 -15.582,-15.59 -0.198,-0.18 c -4.832,-4.49 -12.031,-4.25 -17.511,-1.28 -1.802,0.98 -4.076,2.93 -4.076,2.93 -6.333,5.82 -8.292,16.79 -2.666,22.96 l 15.597,15.59 -16.576,16.58 c -1.001,1.1 -1.855,2.32 -2.48,3.66 -5.561,11.91 6.516,25.04 18.182,24.52 3.344,-0.15 6.354,-1.57 8.735,-3.74 l 16.575,-16.58 z m -44.87,-65.32 c 0.273,-0.42 0.573,-0.83 0.899,-1.22 0.811,-0.98 1.069,-1.15 1.364,-1.43 1.525,-1.33 1.851,-1.46 2.638,-1.9 3.171,-1.74 6.747,-1.84 9.028,-0.23 0.356,0.25 0.426,0.34 0.744,0.63 l 20.285,20.28 21.275,-21.27 c 0.123,-0.11 0.247,-0.23 0.37,-0.34 1.468,-1.15 2.099,-1.28 3.277,-1.47 5.617,-0.92 13.266,5.48 13.107,11.9 -0.047,1.88 -0.765,3.5 -1.913,4.75 l -14.117,14.12 -7.158,7.15 20.238,20.24 c 4.048,4.41 -0.657,15.06 -8.515,16.49 -2.111,0.38 -4.119,0.01 -5.582,-1.02 -0.355,-0.25 -0.426,-0.33 -0.744,-0.63 l -4.17,-4.17 -16.068,-16.06 -21.263,21.26 c -1.28,1.18 -1.896,1.41 -2.91,1.65 0,0 -0.209,0.05 -0.209,0.05 -0.321,0.08 -0.651,0.13 -0.987,0.16 -3.207,0.31 -6.304,-1.26 -8.602,-3.63 -2.416,-2.27 -4.121,-5.31 -4.046,-8.32 0.046,-1.88 0.765,-3.5 1.913,-4.75 l 21.264,-21.27 -20.286,-20.28 c -1.01,-1.1 -1.069,-1.39 -1.326,-2.05 -0.071,-0.19 -0.134,-0.38 -0.188,-0.57 -0.812,-2.64 0.057,-5.61 1.682,-8.07 z m -4.801,-117.89 c 24.087,0 43.643,19.56 43.643,43.65 0,24.09 -19.556,43.64 -43.643,43.64 -24.088,0 -43.644,-19.55 -43.644,-43.64 0,-24.09 19.556,-43.65 43.644,-43.65 z"
         id="path3789" />
    </g>
  </g>
</svg>
