<?xml version="1.0" encoding="UTF-8" standalone="no"?>
<svg
   xmlns:dc="http://purl.org/dc/elements/1.1/"
   xmlns:cc="http://creativecommons.org/ns#"
   xmlns:rdf="http://www.w3.org/1999/02/22-rdf-syntax-ns#"
   xmlns:svg="http://www.w3.org/2000/svg"
   xmlns="http://www.w3.org/2000/svg"
   xmlns:sodipodi="http://sodipodi.sourceforge.net/DTD/sodipodi-0.dtd"
   xmlns:inkscape="http://www.inkscape.org/namespaces/inkscape"
   version="1.1"
   id="Layer_1"
   x="0px"
   y="0px"
   viewBox="0 0 511.999 511.999"
   style="enable-background:new 0 0 511.999 511.999;"
   xml:space="preserve"
   fill="var(--local-primary)"
   sodipodi:docname="ico36_key.svg"
   inkscape:version="1.0.2 (e86c870879, 2021-01-15, custom)"><metadata
   id="metadata49"><rdf:RDF><cc:Work
       rdf:about=""><dc:format>image/svg+xml</dc:format><dc:type
         rdf:resource="http://purl.org/dc/dcmitype/StillImage" /></cc:Work></rdf:RDF></metadata><defs
   id="defs47">
		
	</defs><sodipodi:namedview
   pagecolor="#ffffff"
   bordercolor="#666666"
   borderopacity="1"
   objecttolerance="10"
   gridtolerance="10"
   guidetolerance="10"
   inkscape:pageopacity="0"
   inkscape:pageshadow="2"
   inkscape:window-width="1254"
   inkscape:window-height="1198"
   id="namedview45"
   showgrid="false"
   inkscape:zoom="1.9687539"
   inkscape:cx="255.9995"
   inkscape:cy="255.9995"
   inkscape:window-x="1014"
   inkscape:window-y="286"
   inkscape:window-maximized="0"
   inkscape:current-layer="g6"
   inkscape:document-rotation="0" />
<g
   id="g6"
   transform="matrix(0,1,1,0,5e-4,-5e-4)">
	<path
   d="m 255.999,0 c -71.086,0 -128.918,57.833 -128.918,128.918 0,48.412 26.829,90.671 66.396,112.707 v 211.951 c 0,4.672 1.969,9.127 5.422,12.272 l 45.924,41.824 c 3.167,2.885 7.172,4.327 11.177,4.327 4.005,0 8.01,-1.442 11.177,-4.327 l 45.924,-41.824 c 3.454,-3.145 5.422,-7.6 5.422,-12.272 v -18.949 c 0,-4.402 -1.75,-8.624 -4.861,-11.737 l -15.27,-15.27 14.96,-14.96 c 6.482,-6.482 6.482,-16.992 0,-23.474 l -14.959,-14.96 14.959,-14.96 c 6.482,-6.482 6.482,-16.992 0,-23.474 l -14.959,-14.96 15.27,-15.27 c 3.113,-3.113 4.861,-7.335 4.861,-11.737 v -32.2 C 358.089,219.589 384.919,177.331 384.919,128.918 384.918,57.833 327.085,0 255.999,0 Z m 29.325,266.95 -22.145,22.146 c -6.481,6.482 -6.481,16.992 0,23.474 l 14.959,14.96 -14.959,14.96 c -6.482,6.482 -6.482,16.992 0,23.474 l 14.959,14.96 -14.959,14.96 c -6.482,6.481 -6.482,16.992 0,23.474 l 22.145,22.145 v 4.741 l -29.325,26.707 -29.325,-26.707 v -191.75 c 9.671,2.253 19.801,3.343 29.325,3.343 9.48,0 19.608,-1.079 29.325,-3.343 z m -29.325,-42.311 c -52.774,0 -95.721,-42.934 -95.721,-95.721 0,-52.78 42.94,-95.721 95.721,-95.721 52.781,0 95.721,42.94 95.721,95.721 0,52.777 -42.937,95.721 -95.721,95.721 z"
   id="path2" />
</g>
    <g
   id="g12"
   transform="translate(-175.74569,179.30123)">
	<g
   id="g10">
		<circle
   cx="75.846001"
   cy="-255.99899"
   r="27.665001"
   id="circle8"
   transform="rotate(90)" />
	</g>
</g>
    <g
   id="g14">
</g>
    <g
   id="g16">
</g>
    <g
   id="g18">
</g>
    <g
   id="g20">
</g>
    <g
   id="g22">
</g>
    <g
   id="g24">
</g>
    <g
   id="g26">
</g>
    <g
   id="g28">
</g>
    <g
   id="g30">
</g>
    <g
   id="g32">
</g>
    <g
   id="g34">
</g>
    <g
   id="g36">
</g>
    <g
   id="g38">
</g>
    <g
   id="g40">
</g>
    <g
   id="g42">
</g>
</svg>
