<?xml version="1.0" encoding="UTF-8"?>
<!-- Generator: Adobe Illustrator 15.0.0, SVG Export Plug-In . SVG Version: 6.00 Build 0)  -->
<svg width="36px" height="36px" enable-background="new 0 0 36 36" version="1.1" viewBox="0 0 36 36" xml:space="preserve" 
    xmlns="http://www.w3.org/2000/svg" 
    xmlns:cc="http://creativecommons.org/ns#" 
    xmlns:dc="http://purl.org/dc/elements/1.1/" 
    xmlns:rdf="http://www.w3.org/1999/02/22-rdf-syntax-ns#">
    <metadata>
        <rdf:RDF>
            <cc:Work rdf:about="">
                <dc:format>image/svg+xml</dc:format>
                <dc:type rdf:resource="http://purl.org/dc/dcmitype/StillImage"/>
                <dc:title/>
            </cc:Work>
        </rdf:RDF>
    </metadata>
    <path d="m18 35c9.374 0 17-7.626 17-17s-7.627-17-17-17c-9.374 0-17 7.626-17 17s7.626 17 17 17z" fill="#fff"/>
    <path d="m18 35c9.374 0 17-7.626 17-17s-7.627-17-17-17c-9.374 0-17 7.626-17 17s7.626 17 17 17z" fill="none" stroke="var(--local-primary)" stroke-width="2"/>
    <g transform="matrix(.66175 0 0 .66175 5.7913 7.4553)">
        <path d="m26.997 20.09v-8.18c2.837-0.475 5.003-2.937 5.003-5.91 0-3.313-2.688-6-6-6-3.316 0-6 2.687-6 6 0 0.609 0.092 1.196 0.262 1.75l-9.424 4.711c-1.091-1.489-2.849-2.461-4.838-2.461-3.314 0-6 2.687-6 6 0 3.312 2.686 6 6 6 1.99 0 3.748-0.973 4.839-2.464l9.423 4.712c-0.17 0.555-0.262 1.143-0.262 1.752 0 3.312 2.684 6 6 6 3.312 0 6-2.688 6-6 0-2.973-2.166-5.436-5.003-5.91zm-1.998 1e-3c-1.573 0.265-2.935 1.14-3.838 2.372l-9.422-4.712c0.169-0.554 0.261-1.142 0.261-1.751 0-0.61-0.092-1.199-0.262-1.753l9.422-4.71c0.902 1.235 2.266 2.109 3.839 2.374z" fill="var(--local-primary)"/>
    </g>
</svg>
