<?xml version="1.0" encoding="UTF-8" standalone="no"?>
<svg
   xmlns:dc="http://purl.org/dc/elements/1.1/"
   xmlns:cc="http://creativecommons.org/ns#"
   xmlns:rdf="http://www.w3.org/1999/02/22-rdf-syntax-ns#"
   xmlns:svg="http://www.w3.org/2000/svg"
   xmlns="http://www.w3.org/2000/svg"
   id="svg3827"
   version="1.1"
   viewBox="0 0 8.9958332 8.9958336"
   height="34"
   width="34">
  <defs
     id="defs3821" />
  <metadata
     id="metadata3824">
    <rdf:RDF>
      <cc:Work
         rdf:about="">
        <dc:format>image/svg+xml</dc:format>
        <dc:type
           rdf:resource="http://purl.org/dc/dcmitype/StillImage" />
        <dc:title></dc:title>
      </cc:Work>
    </rdf:RDF>
  </metadata>
  <g
     transform="translate(-69.539681,-100.26479)"
     id="layer1">
    <g
       transform="matrix(0.04319429,0,0,0.04319429,47.033851,47.564137)"
       id="g3787"
       style="clip-rule:evenodd;fill-rule:evenodd;stroke-linejoin:round;stroke-miterlimit:2;fill:var(--local-primary)">
      <path
         d="m 658.404,1382.37 v 18.28 c 0.088,2.31 0.822,4.52 2.157,6.35 1.753,2.41 4.148,4.01 6.794,4.89 -34.624,14.76 -67.29,13.82 -97.887,-3.74 -4.957,-2.83 -8.017,-8.1 -8.017,-13.81 0,-7.96 0,-20.48 0,-33.94 0,-22.11 11.218,-41.6 28.275,-53.09 8.892,7.95 20.627,12.79 33.484,12.79 13.488,0 25.742,-5.33 34.773,-13.98 3.416,2.23 6.619,4.82 9.548,7.75 2.767,2.76 5.234,5.78 7.38,8.98 -0.483,-0.04 -1.042,-0.07 -1.738,-0.09 -7.476,-0.11 -14.454,5.29 -14.769,12.13 v 18.35 h -19.528 c -0.791,0.04 -0.992,0.07 -1.365,0.13 -0.955,0.14 -1.891,0.4 -2.782,0.77 -12.812,5.33 -8.793,26.2 2.256,28.05 0.591,0.1 0.725,0.13 1.909,0.18 z m 5.786,-5.78 h -25.163 c -1.235,-0.05 -1.782,-0.22 -2.376,-0.55 -3.575,-1.62 -4.774,-6.46 -3.921,-10.56 0.324,-1.86 1.092,-3.57 2.356,-4.78 0.629,-0.59 1.335,-1.03 2.082,-1.3 l 0.006,-0.01 h 0.003 l 0.025,-0.01 h 0.025 l 0.024,-0.01 0.078,-0.03 c 0.5,-0.17 0.766,-0.25 1.484,-0.3 0.071,-0.01 0.143,-0.01 0.214,-0.01 h 25.163 v -24.01 l 0.011,-0.22 c 0.06,-1.05 0.194,-1.27 0.419,-1.78 0.52,-1.18 1.532,-2.22 2.837,-3 l 0.032,-0.02 0.008,-0.01 h 0.013 l 0.031,-0.02 0.053,-0.03 0.026,-0.02 h 0.011 l 0.017,-0.01 0.051,-0.03 0.047,-0.03 h 0.009 l 0.008,-0.01 0.043,-0.02 0.071,-0.04 h 0.003 10e-4 c 0.125,-0.07 0.252,-0.13 0.38,-0.19 h 0.002 l 0.008,-0.01 0.078,-0.03 0.033,-0.02 h 0.012 l 0.017,-0.01 0.048,-0.02 0.047,-0.02 0.02,-0.02 h 0.016 l 0.029,-0.01 0.063,-0.03 0.026,-0.01 0.009,-0.01 c 0.042,-0.01 0.084,-0.03 0.126,-0.05 0.043,-0.02 0.086,-0.03 0.129,-0.05 h 0.007 l 0.034,-0.02 0.071,-0.02 0.018,-0.01 0.014,-0.01 0.035,-0.01 0.055,-0.02 0.027,-0.01 0.022,-0.01 0.03,-0.01 0.043,-0.01 0.039,-0.02 0.028,-0.01 h 0.024 l 0.031,-0.02 0.052,-0.01 0.034,-0.01 0.016,-0.01 h 0.021 l 0.071,-0.03 0.034,-0.01 h 0.008 0.011 l 0.124,-0.04 c 0.051,-0.02 0.103,-0.03 0.155,-0.05 h 0.009 l 0.043,-0.01 0.082,-0.02 0.021,-0.01 h 0.019 l 0.044,-0.02 0.062,-0.01 0.032,-0.01 0.027,-0.01 0.04,-0.01 0.049,-0.01 0.042,-0.01 0.036,-0.01 h 0.032 l 0.038,-0.01 0.053,-0.01 0.043,-0.01 0.025,-0.01 h 0.027 l 0.068,-0.02 0.048,-0.01 h 0.016 0.018 l 0.087,-0.02 0.046,-0.01 h 0.009 c 0.113,-0.02 0.227,-0.04 0.342,-0.06 h 0.037 l 0.063,-0.01 h 0.022 l 0.022,-0.01 c 0.359,-0.05 0.719,-0.08 1.081,-0.09 0.545,-0.03 0.753,0 1.011,0 1.688,0.12 1.96,0.24 2.681,0.45 2.905,0.84 5.085,2.9 5.48,5.2 0.061,0.36 0.054,0.45 0.069,0.81 v 24.01 h 25.175 c 0.141,0 0.281,0.01 0.421,0.01 1.546,0.2 1.998,0.49 2.809,1.07 3.865,2.78 4.603,11.1 0.711,14.8 -1.135,1.08 -2.523,1.62 -3.941,1.68 h -21.962 -3.213 v 23.95 c -0.065,1.52 -0.947,2.9 -2.298,3.98 h -0.004 -0.002 l -0.009,0.01 -0.105,0.08 c 0,0 -0.108,0.08 -0.108,0.08 l -0.01,0.01 h -0.004 l -0.012,0.01 c -3.142,2.34 -8.515,3.12 -12.24,0.54 -1.477,-1.02 -2.448,-2.42 -2.701,-3.9 -0.062,-0.36 -0.054,-0.45 -0.069,-0.81 z m -40.98,-150.4 c 24.088,0 43.644,19.56 43.644,43.65 0,24.08 -19.556,43.64 -43.644,43.64 -24.087,0 -43.643,-19.56 -43.643,-43.64 0,-24.09 19.556,-43.65 43.643,-43.65 z"
         id="path3785" />
    </g>
  </g>
</svg>
