<?xml version="1.0" encoding="UTF-8" standalone="no"?>
<svg
   xmlns:dc="http://purl.org/dc/elements/1.1/"
   xmlns:cc="http://creativecommons.org/ns#"
   xmlns:rdf="http://www.w3.org/1999/02/22-rdf-syntax-ns#"
   xmlns:svg="http://www.w3.org/2000/svg"
   xmlns="http://www.w3.org/2000/svg"
   xml:space="preserve"
   enable-background="new 0 0 36 36"
   viewBox="0 0 36 36"
   height="36px"
   width="36px"
   y="0px"
   x="0px"
   id="Layer_1"
   version="1.1"><metadata
     id="metadata29"><rdf:RDF><cc:Work
         rdf:about=""><dc:format>image/svg+xml</dc:format><dc:type
           rdf:resource="http://purl.org/dc/dcmitype/StillImage" /><dc:title></dc:title></cc:Work></rdf:RDF></metadata><defs
     id="defs27"><clipPath
       id="clipPath330"
       clipPathUnits="userSpaceOnUse"><path
         id="path332"
         d="m 0,0 1440,0 0,900 L 0,900 0,0 Z" /></clipPath><clipPath
       id="clipPath320"
       clipPathUnits="userSpaceOnUse"><path
         id="path322"
         d="m 235.674,83 c 0,-32.857 26.635,-59.492 59.493,-59.492 l 0,0 c 32.857,0 59.492,26.635 59.492,59.492 l 0,0 c 0,32.857 -26.635,59.492 -59.492,59.492 l 0,0 c -32.858,0 -59.493,-26.635 -59.493,-59.492" /></clipPath><clipPath
       clipPathUnits="userSpaceOnUse"
       id="clipEmfPath1"><path
         d="m -291.748,183.749 1799.988,0 0,-1124.992 -1799.988,0 0,1124.992 z"
         id="path4190" /></clipPath><clipPath
       clipPathUnits="userSpaceOnUse"
       id="clipEmfPath2"><path
         d="m 2.84998,80.0244 c 0,41.0246 33.22472,74.3246 74.32442,74.3246 l 0,0 c 41.0996,0 74.3996,-33.3 74.3996,-74.3246 l 0,0 c 0,-41.0997 -33.3,-74.39944 -74.3996,-74.39944 l 0,0 C 36.0747,5.62496 2.84998,38.9247 2.84998,80.0244"
         id="path4193" /></clipPath><pattern
       id="EMFhbasepattern"
       patternUnits="userSpaceOnUse"
       width="6"
       height="6"
       x="0"
       y="0" /></defs><path
     transform="translate(22.181956,-41.194859)"
     style="fill:none;stroke:none"
     clip-path="url(#clipEmfPath1)"
     d=""
     id="path4196" /><path
     transform="translate(22.181956,-41.194859)"
     style="fill:none;stroke:none"
     clip-path="url(#clipEmfPath2)"
     d=""
     id="path4202" /><g
     transform="matrix(0.82543001,0,0,0.82295384,-0.21314791,6.4927433)"
     id="g4220"><path
       transform="matrix(0.28222222,0,0,0.28222222,0.32371807,-8.6063107)"
       id="path4200"
       d="m 77.1744,157.199 c 42.5996,0 77.1746,-34.65 77.1746,-77.1746 C 154.349,37.4247 119.774,2.84998 77.1744,2.84998 34.6497,2.84998 0,37.4247 0,80.0244 0,122.549 34.6497,157.199 77.1744,157.199 Z"
       clip-path="url(#clipEmfPath1)"
       style="fill:var(--local-primary);fill-opacity:1;fill-rule:nonzero;stroke:none" /><path
       transform="matrix(0.28222222,0,0,0.28222222,0.32371807,-8.6063107)"
       id="path4204"
       d="m 121.274,75.9744 -88.1242,0 0,8.025 88.1242,0 0,-8.025 z m -88.1242,-11.9999 76.0492,0 0,-8.0249 -76.0492,0 0,8.0249 z m 76.0492,32.0248 -76.0492,0 0,8.0247 76.0492,0 0,-8.0247 z"
       clip-path="url(#clipEmfPath2)"
       style="fill:#ffffff;fill-opacity:1;fill-rule:nonzero;stroke:none" /></g></svg>