<?xml version="1.0" encoding="UTF-8" standalone="no"?>
<svg
   xmlns:dc="http://purl.org/dc/elements/1.1/"
   xmlns:cc="http://creativecommons.org/ns#"
   xmlns:rdf="http://www.w3.org/1999/02/22-rdf-syntax-ns#"
   xmlns:svg="http://www.w3.org/2000/svg"
   xmlns="http://www.w3.org/2000/svg"
   id="svg3827"
   version="1.1"
   viewBox="0 0 8.9958332 8.9958336"
   height="34"
   width="34">
  <defs
     id="defs3821" />
  <metadata
     id="metadata3824">
    <rdf:RDF>
      <cc:Work
         rdf:about="">
        <dc:format>image/svg+xml</dc:format>
        <dc:type
           rdf:resource="http://purl.org/dc/dcmitype/StillImage" />
        <dc:title></dc:title>
      </cc:Work>
    </rdf:RDF>
  </metadata>
  <g
     transform="translate(-69.539681,-100.26479)"
     id="layer1">
    <g
       transform="matrix(0.04319466,0,0,0.04319466,40.635698,50.160948)"
       id="g3783"
       style="clip-rule:evenodd;fill-rule:evenodd;stroke-linejoin:round;stroke-miterlimit:2;fill:var(--local-primary)">
      <path
         d="m 814.264,1352.28 c -34.175,14.24 -66.436,13.11 -96.677,-4.24 -4.957,-2.83 -8.017,-8.1 -8.017,-13.81 0,-7.96 0,-20.48 0,-33.94 0,-22.11 11.218,-41.61 28.275,-53.1 8.892,7.96 20.628,12.8 33.485,12.8 13.487,0 25.741,-5.33 34.772,-13.99 3.416,2.23 6.619,4.82 9.548,7.75 11.166,11.17 17.439,26.31 17.439,42.11 v 0.79 l -23.106,23.11 -15.848,-15.85 c -2.679,-2.56 -6.073,-4.19 -9.731,-4.68 -5.413,-0.49 -10.93,1.63 -14.382,5.76 -5.144,6.17 -4.686,16.11 0.99,22.04 l 16.579,16.58 c 0.276,0.27 0.554,0.54 0.839,0.81 7.07,6.55 16.718,9.07 25.834,7.86 z m 51.704,-75.07 c 7.41,0.63 12.559,10.27 7.459,16.67 -0.32,0.4 -0.416,0.49 -0.768,0.86 l -44.565,44.56 c -9.534,9.42 -26.223,9.88 -36.222,0.01 l -16.565,-16.57 c -5.366,-5.68 -1.904,-17.05 6.69,-17.53 2.498,-0.14 5.032,0.67 6.984,2.23 0.401,0.32 0.487,0.41 0.859,0.76 5.547,5.55 10.99,11.2 16.642,16.64 1.926,1.81 5.183,1.8 7.121,-0.11 l 44.522,-44.53 c 2.113,-1.99 4.842,-3.07 7.843,-2.99 z M 771.33,1166.08 c 24.087,0 43.643,19.56 43.643,43.64 0,24.09 -19.556,43.65 -43.643,43.65 -24.088,0 -43.644,-19.56 -43.644,-43.65 0,-24.08 19.556,-43.64 43.644,-43.64 z"
         id="path3781" />
    </g>
  </g>
</svg>
