<?xml version="1.0" encoding="UTF-8" standalone="no"?>
<svg
   xmlns:dc="http://purl.org/dc/elements/1.1/"
   xmlns:cc="http://creativecommons.org/ns#"
   xmlns:rdf="http://www.w3.org/1999/02/22-rdf-syntax-ns#"
   xmlns:svg="http://www.w3.org/2000/svg"
   xmlns="http://www.w3.org/2000/svg"
   xmlns:sodipodi="http://sodipodi.sourceforge.net/DTD/sodipodi-0.dtd"
   xmlns:inkscape="http://www.inkscape.org/namespaces/inkscape"
   width="36.041"
   height="36"
   version="1.1"
   viewBox="0 0 36.041 36"
   id="svg8"
   sodipodi:docname="ico36_uc_find_people.svg"
   inkscape:version="0.92.2 (5c3e80d, 2017-08-06)">
  <defs
     id="defs12" />
  <sodipodi:namedview
     pagecolor="#ffffff"
     bordercolor="#666666"
     borderopacity="1"
     objecttolerance="10"
     gridtolerance="10"
     guidetolerance="10"
     inkscape:pageopacity="0"
     inkscape:pageshadow="2"
     inkscape:window-width="2360"
     inkscape:window-height="1195"
     id="namedview10"
     showgrid="false"
     inkscape:zoom="13.111111"
     inkscape:cx="-9.9512109"
     inkscape:cy="7.9551722"
     inkscape:window-x="0"
     inkscape:window-y="0"
     inkscape:window-maximized="0"
     inkscape:current-layer="svg8" />
  <metadata
     id="metadata2">
    <rdf:RDF>
      <cc:Work
         rdf:about="">
        <dc:format>image/svg+xml</dc:format>
        <dc:type
           rdf:resource="http://purl.org/dc/dcmitype/StillImage" />
        <dc:title></dc:title>
      </cc:Work>
    </rdf:RDF>
  </metadata>
  <path
     d="m 34.956802,24.43005 c -1.52596,-0.835951 -4.762519,-1.764808 -4.762519,-2.245452 v -2.687755 c 0.643365,-0.596424 1.098428,-1.738033 1.367502,-3.422033 0.10647,0 0.241656,-0.02588 0.401928,-0.08083 0.590699,-0.270167 0.938743,-0.785805 1.046361,-1.547077 v -0.570326 c -0.0538,-1.140195 -0.348929,-1.654684 -0.884687,-1.547077 0.16141,-1.192871 0.242507,-2.199385 0.242507,-3.0133339 C 32.31409,8.7735433 32.153013,8.2038828 31.885135,7.6051478 30.811332,5.7059346 29.095866,4.7534539 26.736451,4.7534539 c -0.966184,0 -1.906686,0.2172943 -2.818009,0.6511703 -1.824717,0.9238315 -2.788924,2.2287014 -2.896531,3.9114365 -0.05381,0.3800611 0.02728,1.3842873 0.242506,3.0133333 -0.107606,0 -0.216869,0.02702 -0.323337,0.08083 -0.536896,0.217512 -0.725012,0.896378 -0.56359,2.036596 0,0.109894 0.02702,0.243862 0.08083,0.406422 0.375486,0.923831 0.830549,1.331404 1.367502,1.221498 0.107607,0.870028 0.321602,1.659282 0.644434,2.364359 l 0.725264,1.057581 v 2.687755 c 0,0.539401 -5.84595,2.356458 -5.881757,2.737666 -0.0098,0.294677 5.121735,2.775985 5.290879,5.256015 -0.0199,1.227706 0.04036,2.589552 -0.03318,3.377059 -0.404709,0.146246 -0.407535,-0.118183 -0.824717,0 -0.0085,-0.823226 -0.0046,-1.888406 -0.02245,-2.674304 -0.09703,-4.284611 -8.277213,-5.366197 -8.588652,-8.431494 L 12.969485,20.8147 c 0.950895,0.431474 1.818049,0.88326 3.130137,0.729749 -0.431622,-0.33772 -0.638236,-0.734301 -0.597274,-1.124951 0.893837,0.133371 2.501053,0.140682 3.379381,-0.408664 -1.715615,-0.60507 -2.156274,-1.5196 -1.897374,-3.224409 C 17.498243,13.40314 17.268775,8.2430742 14.898322,5.7750167 14.03134,4.8723042 12.129517,4.1509136 10.367111,4.236907 9.3096343,4.2885031 8.3028093,4.6303844 7.5985372,5.3978183 2.7981954,5.076826 2.5635529,13.876448 3.359222,16.786544 c 0.4547651,1.663306 -0.428691,2.619351 -2.1443174,3.224409 0.8782942,0.549347 1.8051723,0.564487 2.699021,0.431116 0.035754,0.290125 -0.028741,0.755708 -0.2896529,1.071055 1.3639386,-0.045 2.407701,-0.375507 3.3928317,-1.04636 l -0.179632,1.982678 c -0.1694692,1.871162 -2.8163998,3.027589 -5.0252124,4.221381 -2.19288156,1.26606 -0.95508926,5.683432 -0.95508926,6.88436 3.16018266,0 9.86104626,-0.05545 15.56707226,0 5.657266,0.05497 14.494595,0 18.876336,0 0,-1.24593 1.095209,-8.294333 -0.343782,-9.125133 z"
     fill="var(--local-primary)"
     id="path6"
     inkscape:connector-curvature="0"
     sodipodi:nodetypes="ccccccccccsccccccccccccccccccccccccccccccccsccc"
     style="stroke-width:1.14964485" />
</svg>
