<?xml version="1.0" encoding="UTF-8"?>
<svg width="36.041" height="36" version="1.1" viewBox="0 0 36.041 36" 
  xmlns="http://www.w3.org/2000/svg" 
  xmlns:cc="http://creativecommons.org/ns#" 
  xmlns:dc="http://purl.org/dc/elements/1.1/" 
  xmlns:rdf="http://www.w3.org/1999/02/22-rdf-syntax-ns#">
  <metadata>
    <rdf:RDF>
      <cc:Work rdf:about="">
        <dc:format>image/svg+xml</dc:format>
        <dc:type rdf:resource="http://purl.org/dc/dcmitype/StillImage"/>
        <dc:title/>
      </cc:Work>
    </rdf:RDF>
  </metadata>
  <path d="m-90.605 0.4082c-9.8768 0-17.91 8.0364-17.91 17.912 0 9.8757 8.0334 17.91 17.91 17.91s17.912-8.0344 17.912-17.91c0-9.8757-8.0353-17.912-17.912-17.912zm0 1.8301c8.8674 0 16.082 7.2156 16.082 16.082 0 5.0379-2.3325 9.5377-5.9707 12.488-0.64044-3.3455-7.2461-4.5211-7.4844-7.0742l-0.125-1.3438c0.82712 0.45621 1.5618 0.69017 2.7031 0.55664-0.37544-0.29376-0.55516-0.63872-0.51953-0.97852 0.77749 0.11601 2.1755 0.12237 2.9394-0.35547-1.4923-0.52631-1.8756-1.3218-1.6504-2.8047 0.447-2.9429 0.2474-7.4313-1.8144-9.5781-0.75413-0.78521-2.4084-1.4127-3.9414-1.3379-0.91983 0.044882-1.7956 0.34226-2.4082 1.0098-4.1755-0.27921-4.3796 7.375-3.6875 9.9063 0.39557 1.4468-0.37289 2.2784-1.8652 2.8047 0.76398 0.47784 1.5702 0.49101 2.3477 0.375 0.0311 0.25236-0.025 0.65734-0.25195 0.93164 1.1864-0.03914 2.1604-0.33198 2.8555-0.69922l-0.0606 1.5137c-0.11871 2.95-6.556 3.5331-7.4258 6.9414-3.5426-2.952-5.8027-7.3944-5.8027-12.355 0-8.8665 7.2127-16.082 16.08-16.082z" fill="var(--local-primary)"/>
  <path d="m18.025 0.050781c-9.8768 0-17.91 8.0364-17.91 17.912 0 9.8757 8.0334 17.91 17.91 17.91 9.8768 0 17.912-8.0344 17.912-17.91 0-9.8757-8.0353-17.912-17.912-17.912zm0 1.8301c8.8674 0 16.082 7.2156 16.082 16.082 0 2.7168-0.68225 5.2751-1.877 7.5215-0.43721-0.20383-0.88561-0.41813-1.2715-0.60547l-2.8711-1.3477v-2.3379c0.55962-0.51879 0.95545-1.5118 1.1895-2.9766 0.09261 0 0.2102-0.02251 0.34961-0.07031 0.51381-0.235 0.81655-0.68352 0.91016-1.3457v-0.49609c-0.0468-0.99178-0.30351-1.4393-0.76953-1.3457 0.1404-1.0376 0.21094-1.9131 0.21094-2.6211-0.0468-0.47199-0.18691-0.9675-0.41992-1.4883-0.93403-1.652-2.4262-2.4805-4.4785-2.4805-0.84042 0-1.6585 0.18901-2.4512 0.56641-1.5872 0.80358-2.4259 1.9386-2.5195 3.4023-0.0468 0.33059 0.02373 1.2041 0.21094 2.6211-0.0936 0-0.18864 0.0235-0.28125 0.07031-0.46701 0.1892-0.63064 0.7797-0.49023 1.7715 0 0.09559 0.02351 0.21212 0.07031 0.35352 0.32661 0.80358 0.72244 1.1581 1.1895 1.0625 0.0936 0.75678 0.27974 1.4433 0.56055 2.0566l0.63086 0.91992v2.3379l-3.0098 1.418c-0.234 0.09559-0.56125 0.23563-0.98047 0.42383-0.02917 0.01101-0.04922 0.02028-0.07813 0.03125 2.1959 1.3572 5.289 2.5756 5.3457 5.0801-0.01731 1.0679-0.07276 2.0767-0.13672 2.7617-0.35203 0.12721-0.37931 0.07298-0.74219 0.17578-0.0074-0.71607-4e-3 -1.6426-0.01953-2.3262-0.0844-3.7269-7.1998-4.6677-7.4707-7.334l-0.14453-1.4219c0.82712 0.37531 1.5814 0.76829 2.7227 0.63476-0.37544-0.29376-0.55516-0.63872-0.51953-0.97852 0.77749 0.11601 2.1755 0.12237 2.9395-0.35547-1.4923-0.52631-1.8756-1.3218-1.6504-2.8047 0.447-2.9429 0.2474-7.4313-1.8145-9.5781-0.75413-0.78521-2.4084-1.4127-3.9414-1.3379-0.91983 0.04488-1.7956 0.34226-2.4082 1.0098-4.1755-0.27921-4.3796 7.375-3.6875 9.9063 0.39557 1.4468-0.37289 2.2784-1.8652 2.8047 0.76397 0.47784 1.5702 0.49101 2.3477 0.375 0.0311 0.25236-0.025 0.65734-0.25195 0.93164 1.1864-0.03914 2.0943-0.32663 2.9512-0.91016l-0.15625 1.7246c-0.14741 1.6276-2.4498 2.6335-4.3711 3.6719-1.9483-2.6601-3.1133-5.9282-3.1133-9.4707 0-8.8665 7.2127-16.082 16.08-16.082z" fill="var(--local-primary)"/>
</svg>
