<?xml version="1.0" encoding="UTF-8" standalone="no"?>
<svg
   xmlns:dc="http://purl.org/dc/elements/1.1/"
   xmlns:cc="http://creativecommons.org/ns#"
   xmlns:rdf="http://www.w3.org/1999/02/22-rdf-syntax-ns#"
   xmlns:svg="http://www.w3.org/2000/svg"
   xmlns="http://www.w3.org/2000/svg"
   version="1.1"
   id="svg4362"
   viewBox="0 0 35.999999 35.999999"
   height="36"
   width="36">
  <defs
     id="defs4364">
    <clipPath
       id="clipPath708"
       clipPathUnits="userSpaceOnUse">
      <path
         id="path710"
         d="m 0,0 1440,0 0,900 L 0,900 0,0 Z" />
    </clipPath>
    <clipPath
       id="clipPath720"
       clipPathUnits="userSpaceOnUse">
      <path
         id="path722"
         d="m 944.383,652.172 c 0,-34.969 28.357,-63.328 63.335,-63.328 l 0,0 c 34.979,0 63.335,28.359 63.335,63.328 l 0,0 c 0,34.984 -28.356,63.343 -63.335,63.343 l 0,0 c -34.978,0 -63.335,-28.359 -63.335,-63.343" />
    </clipPath>
    <clipPath
       id="clipPath732"
       clipPathUnits="userSpaceOnUse">
      <path
         id="path734"
         d="m 0,0 1440,0 0,900 L 0,900 0,0 Z" />
    </clipPath>
    <clipPath
       id="clipPath212"
       clipPathUnits="userSpaceOnUse">
      <path
         id="path214"
         d="m 606.85,488 c 0,-9.942 8.059,-18 18,-18 l 0,0 c 9.942,0 18,8.058 18,18 l 0,0 c 0,9.941 -8.058,18 -18,18 l 0,0 c -9.941,0 -18,-8.059 -18,-18" />
    </clipPath>
    <clipPath
       id="clipPath708-2"
       clipPathUnits="userSpaceOnUse">
      <path
         id="path710-7"
         d="m 0,0 1440,0 0,900 L 0,900 0,0 Z" />
    </clipPath>
    <clipPath
       id="clipPath720-7"
       clipPathUnits="userSpaceOnUse">
      <path
         id="path722-4"
         d="m 944.383,652.172 c 0,-34.969 28.357,-63.328 63.335,-63.328 l 0,0 c 34.979,0 63.335,28.359 63.335,63.328 l 0,0 c 0,34.984 -28.356,63.343 -63.335,63.343 l 0,0 c -34.978,0 -63.335,-28.359 -63.335,-63.343" />
    </clipPath>
    <clipPath
       id="clipPath732-4"
       clipPathUnits="userSpaceOnUse">
      <path
         id="path734-6"
         d="m 0,0 1440,0 0,900 L 0,900 0,0 Z" />
    </clipPath>
    <clipPath
       id="clipPath212-8"
       clipPathUnits="userSpaceOnUse">
      <path
         id="path214-5"
         d="m 606.85,488 c 0,-9.942 8.059,-18 18,-18 l 0,0 c 9.942,0 18,8.058 18,18 l 0,0 c 0,9.941 -8.058,18 -18,18 l 0,0 c -9.941,0 -18,-8.059 -18,-18" />
    </clipPath>
    <clipPath
       id="clipPath212-8-8"
       clipPathUnits="userSpaceOnUse">
      <path
         id="path214-5-1"
         d="m 606.85,488 c 0,-9.942 8.059,-18 18,-18 l 0,0 c 9.942,0 18,8.058 18,18 l 0,0 c 0,9.941 -8.058,18 -18,18 l 0,0 c -9.941,0 -18,-8.059 -18,-18" />
    </clipPath>
  </defs>
  <metadata
     id="metadata4367">
    <rdf:RDF>
      <cc:Work
         rdf:about="">
        <dc:format>image/svg+xml</dc:format>
        <dc:type
           rdf:resource="http://purl.org/dc/dcmitype/StillImage" />
        <dc:title></dc:title>
      </cc:Work>
    </rdf:RDF>
  </metadata>
  <g
     transform="matrix(0.79872882,0,0,0.79872882,9.1016386,-58.894196)"
     id="layer1">
    <g
       transform="matrix(1.25,0,0,-1.25,-992.89903,865.93415)"
       id="g4192">
      <path
         id="path202"
         style="fill:#f04646;fill-opacity:1;fill-rule:nonzero;stroke:none"
         d="m 803.2031,597.7021 c 9.941,0 18,8.059 18,18 0,9.941 -8.059,18 -18,18 -9.941,0 -18,-8.059 -18,-18 0,-9.941 8.059,-18 18,-18" />
      <path
         id="path582"
         style="fill:#ffffff;fill-opacity:1;fill-rule:nonzero;stroke:none"
         d="m 793.2032,619.7031 0,-11 9,-5 0,11 -9,5 z" />
      <path
         id="path606"
         style="fill:#ffffff;fill-opacity:1;fill-rule:nonzero;stroke:none"
         d="m 812.2032,619.7031 0,-11 -9,-5 0,11 9,5 z" />
      <path
         id="path702"
         style="fill:#ffffff;fill-opacity:1;fill-rule:nonzero;stroke:none"
         d="m 793.6914,620.5039 9.09,5.199 8.828,-5.295 -8.789,-5 -9.129,5.096 z" />
    </g>
  </g>
</svg>
