<?xml version="1.0" encoding="UTF-8" standalone="no"?>
<svg
   xmlns:dc="http://purl.org/dc/elements/1.1/"
   xmlns:cc="http://creativecommons.org/ns#"
   xmlns:rdf="http://www.w3.org/1999/02/22-rdf-syntax-ns#"
   xmlns:svg="http://www.w3.org/2000/svg"
   xmlns="http://www.w3.org/2000/svg"
   xmlns:xlink="http://www.w3.org/1999/xlink"
   xml:space="preserve"
   enable-background="new 0 0 36 36"
   viewBox="0 0 36 36"
   height="36px"
   width="36px"
   y="0px"
   x="0px"
   id="Layer_1"
   version="1.1"><metadata
     id="metadata29"><rdf:RDF><cc:Work
         rdf:about=""><dc:format>image/svg+xml</dc:format><dc:type
           rdf:resource="http://purl.org/dc/dcmitype/StillImage" /><dc:title></dc:title></cc:Work></rdf:RDF></metadata><defs
     id="defs27" /><g
     id="g7"><g
       id="g9"><defs
         id="defs11"><path
           id="SVGID_1_"
           d="M 18,36 C 27.941,36 36,27.941 36,18 36,8.059 27.941,0 18,0 8.059,0 0,8.059 0,18 0,27.941 8.059,36 18,36 l 0,0 z" /></defs><clipPath
         id="SVGID_2_"><use
           xlink:href="#SVGID_1_"
           overflow="visible"
           id="use15"
           style="overflow:visible"
           x="0"
           y="0"
           width="100%"
           height="100%" /></clipPath><path
         clip-path="url(#SVGID_2_)"
         d="m 18,7.299 c -4.142,0 -7.5,3.358 -7.5,7.5 0,6.145 7.5,13.903 7.5,13.903 0,0 7.5,-7.759 7.5,-13.903 0,-4.142 -3.357,-7.5 -7.5,-7.5 l 0,0 z m 0,12.133 c -2.071,0 -3.75,-1.68 -3.75,-3.75 0,-2.071 1.679,-3.75 3.75,-3.75 2.07,0 3.75,1.679 3.75,3.75 0,2.069 -1.68,3.75 -3.75,3.75 l 0,0 z"
         id="path17"
         style="fill:#f04646" /></g></g></svg>