<?xml version="1.0" encoding="UTF-8" standalone="no"?>
<svg 
	xmlns:dc="http://purl.org/dc/elements/1.1/" 
	xmlns:cc="http://creativecommons.org/ns#" 
	xmlns:rdf="http://www.w3.org/1999/02/22-rdf-syntax-ns#" 
	xmlns:svg="http://www.w3.org/2000/svg" 
	xmlns="http://www.w3.org/2000/svg" viewBox="0 0 36 36" height="36px" width="36px" id="detail_datetime" version="1.1">
	<metadata id="metadata29">
		<rdf:RDF>
			<cc:Work rdf:about="">
				<dc:format>image/svg+xml</dc:format>
				<dc:type rdf:resource="http://purl.org/dc/dcmitype/StillImage" />
				<dc:title></dc:title>
			</cc:Work>
		</rdf:RDF>
	</metadata>
	<path style="fill:var(--local-primary);fill-opacity:1;stroke:none" id="rect845" d="M 8.3501862,2.2342158 C 7.7426159,2.2437191 7.2573312,2.7431251 7.2652564,3.350718 V 4.5504555 H 2.4720469 c -1.3380236,0 -2.45113845,1.1095517 -2.4511383,2.4482688 V 27.8334 c 0,1.338718 1.1131147,2.44827 2.4511383,2.44827 H 20.232755 C 16.988212,19.886391 21.359908,13.395675 32.476949,17.406018 V 6.9987243 c 0,-1.3387171 -1.113115,-2.4482688 -2.45114,-2.4482688 H 24.93986 V 3.350718 c 0.0081,-0.6210795 -0.498317,-1.1261973 -1.119375,-1.1165022 -0.607568,0.0095 -1.092853,0.5089093 -1.084928,1.1165022 V 4.5504555 H 17.35396 V 3.350718 c 0.0081,-0.6210795 -0.498316,-1.1261973 -1.119372,-1.1165022 -0.607572,0.0095 -1.092857,0.5089093 -1.08493,1.1165022 V 4.5504555 H 9.4695589 V 3.350718 C 9.4776591,2.7296385 8.9712425,2.2245207 8.3501862,2.2342158 Z M 2.4720469,6.7547579 h 4.7932095 v 0.711806 c -0.021073,1.490464 2.2253816,1.490464 2.2043025,0 v -0.711806 h 5.6800991 v 0.711806 c -0.02108,1.490464 2.22538,1.490464 2.204302,0 v -0.711806 h 5.381597 v 0.711806 c -0.02107,1.490464 2.225382,1.490464 2.204303,0 v -0.711806 h 5.085966 c 0.15685,0 0.246838,0.090184 0.246838,0.2439664 V 16.166096 C 19.846704,12.662634 18.790677,20.106627 19.084682,28.077367 H 2.4720469 c -0.1568469,0 -0.2468357,-0.09018 -0.2468357,-0.243967 V 6.9987243 c 0,-0.1537812 0.089988,-0.2439664 0.2468357,-0.2439664 z" />
	<path style="fill:var(--local-primary);fill-opacity:1;stroke:none" id="rect869" d="M 4.7222717,9.9320532 C 4.3152105,9.9320542 3.987505,10.259761 3.987505,10.66682 v 2.227265 c 0,0.407061 0.3277055,0.734769 0.7347667,0.734769 h 3.3495066 c 0.4070613,-2e-6 0.7347675,-0.327709 0.7347675,-0.734769 V 10.66682 c 0,-0.407061 -0.3277062,-0.7347668 -0.7347675,-0.7347668 z m 6.5641153,0 c -0.407062,10e-7 -0.734769,0.3277078 -0.734769,0.7347668 v 2.227265 c 0,0.407061 0.327707,0.734769 0.734769,0.734769 h 3.349506 c 0.40706,-2e-6 0.734767,-0.327709 0.734767,-0.734769 V 10.66682 c 0,-0.407061 -0.327707,-0.7347668 -0.734767,-0.7347668 z m 6.592817,0 c -0.407063,10e-7 -0.734768,0.3277078 -0.734768,0.7347668 v 2.227265 c 0,0.407061 0.327705,0.734769 0.734768,0.734769 h 3.349505 c 0.40706,-2e-6 0.734767,-0.327709 0.734767,-0.734769 V 10.66682 c 0,-0.407061 -0.327707,-0.7347668 -0.734767,-0.7347668 z m 6.51245,0 c -0.407061,10e-7 -0.734767,0.3277078 -0.734767,0.7347668 v 2.227265 c 0,0.407061 0.327706,0.734769 0.734767,0.734769 h 3.349507 c 0.407062,-2e-6 0.734767,-0.327709 0.734767,-0.734769 V 10.66682 c 0,-0.407061 -0.327705,-0.7347668 -0.734767,-0.7347668 z M 4.7222717,15.853245 c -0.4070612,0 -0.7347667,0.327707 -0.7347667,0.734767 v 2.230137 c 0,0.40706 0.3277055,0.734767 0.7347667,0.734767 h 3.3495066 c 0.4070613,0 0.7347675,-0.327707 0.7347675,-0.734767 v -2.230137 c 0,-0.40706 -0.3277062,-0.734767 -0.7347675,-0.734767 z m 6.5641153,0 c -0.407062,0 -0.734769,0.327707 -0.734769,0.734767 v 2.230137 c 0,0.40706 0.327707,0.734767 0.734769,0.734767 h 3.349506 c 0.40706,0 0.734767,-0.327707 0.734767,-0.734767 v -2.230137 c 0,-0.40706 -0.327707,-0.734767 -0.734767,-0.734767 z M 4.7222717,21.75722 c -0.4070612,0 -0.7347667,0.327704 -0.7347667,0.734767 v 2.230134 c 0,0.407061 0.3277055,0.734766 0.7347667,0.734766 h 3.3495066 c 0.4070613,0 0.7347675,-0.327705 0.7347675,-0.734766 v -2.230134 c 0,-0.407063 -0.3277062,-0.734767 -0.7347675,-0.734767 z m 6.5641153,0 c -0.407062,0 -0.734769,0.327704 -0.734769,0.734767 v 2.230134 c 0,0.407061 0.327707,0.734766 0.734769,0.734766 h 3.349506 c 0.40706,0 0.734767,-0.327705 0.734767,-0.734766 v -2.230134 c 0,-0.407063 -0.327707,-0.734767 -0.734767,-0.734767 z" />
	<path style="fill:var(--local-primary);fill-opacity:1;stroke:none" d="m 20.449736,16.857198 c -2.072424,1.851378 -3.108635,4.172828 -3.108635,6.96342 0,2.350365 0.787184,4.421856 2.362488,6.218206 1.85138,2.072425 4.172829,3.108636 6.964354,3.108636 2.348498,0 4.421854,-0.787184 6.218206,-2.36249 2.072423,-1.851377 3.108634,-4.172827 3.108634,-6.964352 0,-2.3485 -0.787184,-4.420923 -2.362489,-6.218206 -1.853242,-2.072424 -4.172829,-3.108635 -6.964351,-3.108635 -2.349432,0 -4.421856,0.788118 -6.218207,2.363421 z m 1.617275,12.642533 c -1.797282,-1.46338 -2.694525,-3.357661 -2.694525,-5.679113 0,-1.712408 0.539091,-3.246675 1.616343,-4.60093 1.464314,-1.79635 3.357663,-2.694526 5.679114,-2.694526 1.712408,0 3.24574,0.53909 4.601864,1.616343 1.796349,1.465247 2.695457,3.357662 2.695457,5.679113 0,1.714274 -0.539093,3.247606 -1.617276,4.601864 -1.46338,1.798216 -3.358595,2.695458 -5.678181,2.695458 -1.715206,-0.0018 -3.24947,-0.540959 -4.602796,-1.618209 z m 3.896756,-10.943182 v 5.555067 l 3.440669,3.43974 0.994243,-0.994243 -3.026561,-3.026559 v -4.974005 z" id="path10" />
</svg>