<?xml version="1.0" encoding="UTF-8" standalone="no"?>
<svg 
	xmlns:dc="http://purl.org/dc/elements/1.1/" 
	xmlns:cc="http://creativecommons.org/ns#" 
	xmlns:rdf="http://www.w3.org/1999/02/22-rdf-syntax-ns#" 
	xmlns:svg="http://www.w3.org/2000/svg" 
	xmlns="http://www.w3.org/2000/svg" version="1.1" id="detail_person" viewBox="0 0 36 36" height="36px" width="36px">
	<metadata id="metadata4367">
		<rdf:RDF>
			<cc:Work rdf:about="">
				<dc:format>image/svg+xml</dc:format>
				<dc:type rdf:resource="http://purl.org/dc/dcmitype/StillImage" />
				<dc:title></dc:title>
			</cc:Work>
		</rdf:RDF>
	</metadata>
	<path style="fill:var(--local-primary);fill-opacity:1;stroke:none;" d="m 18.339844,7.5175781 c 1.533054,-0.074803 3.18728,0.5526837 3.941406,1.3378907 2.06185,2.1468252 2.261449,6.6351892 1.814453,9.5781252 -0.225237,1.482918 0.158046,2.27838 1.650391,2.804687 -0.763977,0.47784 -2.161964,0.471478 -2.939453,0.355469 -0.03563,0.339798 0.144096,0.684752 0.519531,0.978516 -1.141303,0.133527 -1.876006,-0.100433 -2.703125,-0.556641 l 0.125,1.34375 c 0.239562,2.566984 6.833799,3.540239 7.412109,6.927734 -2.752584,2.271896 -6.279519,3.638672 -10.11914,3.638672 -3.882308,0 -7.441299,-1.401296 -10.2070316,-3.71875 0.8408709,-3.433772 7.3165026,-3.889401 7.4355466,-6.847656 l 0.06055,-1.513672 c -0.69508,0.367234 -1.669091,0.660079 -2.855469,0.699219 0.226963,-0.274299 0.283014,-0.679284 0.251953,-0.931641 -0.777489,0.116009 -1.583679,0.10284 -2.347656,-0.375 1.492349,-0.526307 2.260805,-1.357862 1.865235,-2.804687 -0.692065,-2.531271 -0.487991,-10.1854639 3.6875,-9.9062502 0.61262,-0.6675091 1.488371,-0.9648837 2.408203,-1.0097657 z" id="path206" />
</svg>