<?xml version="1.0" encoding="UTF-8" standalone="no"?>
<!-- Created with Inkscape (http://www.inkscape.org/) -->

<svg
   xmlns:dc="http://purl.org/dc/elements/1.1/"
   xmlns:cc="http://creativecommons.org/ns#"
   xmlns:rdf="http://www.w3.org/1999/02/22-rdf-syntax-ns#"
   xmlns:svg="http://www.w3.org/2000/svg"
   xmlns="http://www.w3.org/2000/svg"
   xmlns:sodipodi="http://sodipodi.sourceforge.net/DTD/sodipodi-0.dtd"
   xmlns:inkscape="http://www.inkscape.org/namespaces/inkscape"
   width="10.476664mm"
   height="8.1668501mm"
   viewBox="0 0 10.476664 8.1668501"
   version="1.1"
   id="svg226"
   inkscape:version="0.92.2 (5c3e80d, 2017-08-06)">
  <defs
     id="defs220" />
  <sodipodi:namedview
     id="base"
     pagecolor="#ffffff"
     bordercolor="#666666"
     borderopacity="1.0"
     inkscape:pageopacity="0.0"
     inkscape:pageshadow="2"
     inkscape:zoom="15.839192"
     inkscape:cx="22.592943"
     inkscape:cy="13.707659"
     inkscape:document-units="mm"
     inkscape:current-layer="layer1"
     showgrid="false"
     fit-margin-top="0"
     fit-margin-left="0"
     fit-margin-right="0"
     fit-margin-bottom="0"
     inkscape:window-width="1920"
     inkscape:window-height="1137"
     inkscape:window-x="1912"
     inkscape:window-y="-8"
     inkscape:window-maximized="1" />
  <metadata
     id="metadata223">
    <rdf:RDF>
      <cc:Work
         rdf:about="">
        <dc:format>image/svg+xml</dc:format>
        <dc:type
           rdf:resource="http://purl.org/dc/dcmitype/StillImage" />
        <dc:title></dc:title>
      </cc:Work>
    </rdf:RDF>
  </metadata>
  <g
     inkscape:label="Layer 1"
     inkscape:groupmode="layer"
     id="layer1"
     transform="translate(-480.98033,-271.29556)">
    <path
       id="path958-3-2"
       d="m 482.65077,279.4225 c 0.42301,0.0699 1.6177,0.26364 2.27607,-1.72175 1.50238,0.049 2.95864,0.18606 3.52077,-1.20804 0.37543,-0.93111 -1.60975,-0.21202 -2.01,-1.0878 l 3.48889,-2.67226 c -0.17322,0.005 2.73633,-0.39757 0.94584,-1.43709 l -4.82699,3.58338 c -0.0892,-0.37339 -0.43417,-0.85757 -0.6969,-1.0046 -0.26273,-0.14703 -0.67307,-0.0526 -0.93135,0.20339 -0.30239,0.29966 -0.31293,0.55673 -0.65454,0.97625 -0.53675,0.89069 -1.108,0.56758 -1.95457,0.56015 -0.41863,0.003 -0.81953,0.93934 -0.82726,1.33109 -0.008,0.39174 0.1036,0.78794 0.37143,1.16884 0.26784,0.38089 0.68036,0.97794 1.29861,1.30844 z"
       style="fill:var(--local-primary);fill-opacity:1;stroke:none;stroke-width:0.26458332"
       inkscape:connector-curvature="0"
       sodipodi:nodetypes="cccccccssccssc" />
  </g>
</svg>
