<?xml version="1.0" encoding="UTF-8" standalone="no"?>
<svg xmlns:dc="http://purl.org/dc/elements/1.1/" 
    xmlns:cc="http://creativecommons.org/ns#" 
    xmlns:rdf="http://www.w3.org/1999/02/22-rdf-syntax-ns#" 
    xmlns:svg="http://www.w3.org/2000/svg" 
    xmlns="http://www.w3.org/2000/svg" viewBox="0 0 243.66667 56.693333" height="56.693333" width="243.66667" xml:space="preserve" id="svg2" version="1.1">
    <metadata id="metadata8">
        <rdf:RDF>
            <cc:Work rdf:about="">
                <dc:format>image/svg+xml</dc:format>
                <dc:type rdf:resource="http://purl.org/dc/dcmitype/StillImage" />
            </cc:Work>
        </rdf:RDF>
    </metadata>
    <defs id="defs6" />
    <g transform="matrix(1.3333333,0,0,-1.3333333,0,56.693333)" id="g10">
        <g transform="scale(0.1)" id="g12">
            <path id="path14" style="fill:#1a387b;fill-opacity:1;fill-rule:nonzero;stroke:none" d="m 1051.49,338.152 h -0.25 c -0.99,-1.867 -4.46,-2.5 -6.57,-2.871 -13.26,-2.336 -29.76,-2.215 -29.76,-14.738 0,-7.82 6.95,-12.648 14.26,-12.648 11.9,0 22.44,7.558 22.32,20.078 z m -41.67,9.411 c 0.76,15 11.29,21.46 25.92,21.46 11.28,0 23.57,-3.48 23.57,-20.589 v -33.969 c 0,-2.981 1.47,-4.707 4.58,-4.707 0.87,0 1.85,0.246 2.48,0.484 v -6.57 c -1.75,-0.367 -2.98,-0.496 -5.09,-0.496 -7.93,0 -9.17,4.465 -9.17,11.172 h -0.25 c -5.45,-8.325 -11.03,-13.024 -23.31,-13.024 -11.78,0 -21.44,5.821 -21.44,18.711 0,17.988 17.48,18.598 34.34,20.59 6.44,0.738 10.04,1.609 10.04,8.676 0,10.543 -7.56,13.144 -16.74,13.144 -9.66,0 -16.86,-4.472 -17.11,-14.882 h -7.82" />
            <path id="path16" style="fill:#1a387b;fill-opacity:1;fill-rule:nonzero;stroke:none" d="m 1127.13,303.176 h -7.2 v 11.535 h -0.23 c -4.1,-8.559 -12.53,-13.387 -22.08,-13.387 -16.11,0 -22.44,9.418 -22.44,24.301 v 41.527 h 7.81 v -41.66 c 0.38,-11.527 4.71,-17.597 17.11,-17.597 13.39,0 19.22,12.648 19.22,25.668 v 33.589 h 7.81 v -63.976" />
            <path id="path18" style="fill:#1a387b;fill-opacity:1;fill-rule:nonzero;stroke:none" d="m 1181.06,348.438 c -0.37,9.671 -7.8,14 -16.73,14 -6.94,0 -15.14,-2.723 -15.14,-11.024 0,-6.945 7.93,-9.437 13.28,-10.785 l 10.41,-2.371 c 8.93,-1.36 18.23,-6.559 18.23,-17.711 0,-13.899 -13.76,-19.219 -25.67,-19.219 -14.87,0 -25.05,6.93 -26.29,22.559 h 7.82 c 0.62,-10.539 8.43,-16 18.85,-16 7.31,0 17.48,3.23 17.48,12.152 0,7.438 -6.95,9.918 -14.01,11.66 l -10.05,2.235 c -10.17,2.714 -17.85,6.191 -17.85,17.117 0,13.008 12.77,17.976 24.05,17.976 12.78,0 22.93,-6.699 23.44,-20.589 h -7.82" />
            <path id="path20" style="fill:#1a387b;fill-opacity:1;fill-rule:nonzero;stroke:none" d="m 1215.18,367.156 h 13.01 v -6.57 h -13.01 v -43.148 c 0,-5.079 0.74,-8.059 6.31,-8.43 2.23,0 4.47,0.117 6.7,0.371 v -6.703 c -2.36,0 -4.59,-0.25 -6.95,-0.25 -10.41,0 -14,3.48 -13.88,14.398 v 43.762 h -11.16 v 6.57 h 11.16 v 19.219 h 7.82 v -19.219" />
            <path id="path22" style="fill:#1a387b;fill-opacity:1;fill-rule:nonzero;stroke:none" d="m 1239.11,367.156 h 7.19 v -15 h 0.24 c 3.98,10.282 12.65,16.375 24.18,15.871 v -7.808 c -14.13,0.738 -23.81,-9.672 -23.81,-22.93 V 303.18 h -7.8 v 63.976" />
            <path id="path24" style="fill:#1a387b;fill-opacity:1;fill-rule:nonzero;stroke:none" d="m 1279.65,367.156 h 7.81 V 303.18 h -7.81 z m 0,24.543 h 7.81 V 379.18 h -7.81 v 12.519" />
            <path id="path26" style="fill:#1a387b;fill-opacity:1;fill-rule:nonzero;stroke:none" d="M 1344.25,338.152 H 1344 c -0.99,-1.867 -4.46,-2.5 -6.57,-2.871 -13.27,-2.336 -29.75,-2.215 -29.75,-14.738 0,-7.82 6.93,-12.648 14.25,-12.648 11.9,0 22.45,7.558 22.32,20.078 z m -41.66,9.411 c 0.74,15 11.28,21.46 25.92,21.46 11.28,0 23.56,-3.48 23.56,-20.589 v -33.969 c 0,-2.981 1.47,-4.707 4.58,-4.707 0.87,0 1.86,0.246 2.48,0.484 v -6.57 c -1.74,-0.367 -2.98,-0.496 -5.1,-0.496 -7.92,0 -9.17,4.465 -9.17,11.172 h -0.24 c -5.45,-8.325 -11.04,-13.024 -23.31,-13.024 -11.78,0 -21.45,5.821 -21.45,18.711 0,17.988 17.48,18.598 34.34,20.59 6.45,0.738 10.05,1.609 10.05,8.676 0,10.543 -7.57,13.144 -16.74,13.144 -9.67,0 -16.86,-4.472 -17.11,-14.882 h -7.81" />
            <path id="path28" style="fill:#1a387b;fill-opacity:1;fill-rule:nonzero;stroke:none" d="m 776.484,237.988 h 8.313 l 16.363,-54.804 h 0.246 l 15.629,54.804 h 8.809 l 15.609,-54.804 h 0.25 l 16.363,54.804 h 8.317 l -20.578,-63.984 h -8.571 l -15.742,53.805 h -0.238 l -15.629,-53.805 h -8.551 l -20.59,63.984" />
            <path id="path30" style="fill:#1a387b;fill-opacity:1;fill-rule:nonzero;stroke:none" d="m 876.051,237.988 h 7.812 v -63.976 h -7.812 z m 0,24.539 h 7.812 v -12.515 h -7.812 v 12.515" />
            <path id="path32" style="fill:#1a387b;fill-opacity:1;fill-rule:nonzero;stroke:none" d="m 899.355,237.988 h 7.2 v -15.011 h 0.242 c 3.973,10.289 12.644,16.382 24.187,15.878 v -7.804 c -14.148,0.734 -23.812,-9.672 -23.812,-22.942 v -34.105 h -7.817 v 63.984" />
            <path id="path34" style="fill:#1a387b;fill-opacity:1;fill-rule:nonzero;stroke:none" d="m 955.535,237.988 h 13.02 v -6.574 h -13.02 v -43.152 c 0,-5.078 0.735,-8.059 6.32,-8.426 2.215,0 4.461,0.125 6.7,0.367 v -6.695 c -2.364,0 -4.59,-0.246 -6.953,-0.246 -10.411,0 -14.004,3.476 -13.875,14.394 v 43.758 h -11.172 v 6.574 h 11.172 v 19.219 h 7.808 v -19.219" />
            <path id="path36" style="fill:#1a387b;fill-opacity:1;fill-rule:nonzero;stroke:none" d="m 1017.77,219.266 c -0.37,9.668 -7.8,14 -16.73,14 -6.938,0 -15.142,-2.719 -15.142,-11.02 0,-6.949 7.93,-9.437 13.282,-10.785 l 10.42,-2.375 c 8.92,-1.356 18.22,-6.559 18.22,-17.719 0,-13.887 -13.77,-19.219 -25.67,-19.219 -14.877,0 -25.048,6.946 -26.291,22.571 h 7.825 c 0.613,-10.539 8.433,-15.996 18.846,-15.996 7.31,0 17.48,3.218 17.48,12.144 0,7.442 -6.95,9.918 -14.01,11.66 l -10.055,2.239 c -10.152,2.711 -17.847,6.191 -17.847,17.113 0,13.008 12.761,17.98 24.052,17.98 12.77,0 22.95,-6.699 23.44,-20.593 h -7.82" />
            <path id="path38" style="fill:#1a387b;fill-opacity:1;fill-rule:nonzero;stroke:none" d="m 1084.86,217.898 c -2.11,9.543 -7.94,15.372 -18.1,15.372 -15,0 -22.44,-13.633 -22.44,-27.258 0,-13.66 7.44,-27.289 22.44,-27.289 9.67,0 17.61,7.566 18.6,18.218 h 7.8 c -2.11,-15.371 -12.14,-24.793 -26.4,-24.793 -19.6,0 -30.25,15.508 -30.25,33.864 0,18.347 10.65,33.836 30.25,33.836 13.63,0 24.17,-7.321 25.91,-21.95 h -7.81" />
            <path id="path40" style="fill:#1a387b;fill-opacity:1;fill-rule:nonzero;stroke:none" d="m 1104.95,262.527 h 7.8 v -35.589 h 0.26 c 2.85,7.699 11.4,12.91 20.46,12.91 17.98,0 23.43,-9.426 23.43,-24.668 v -41.188 h -7.82 v 39.949 c 0,11.02 -3.58,19.325 -16.24,19.325 -12.39,0 -19.83,-9.418 -20.09,-21.938 v -37.336 h -7.8 v 88.535" />
            <path id="path42" style="fill:#1a387b;fill-opacity:1;fill-rule:nonzero;stroke:none" d="m 1213.32,208.973 h -0.24 c -1,-1.868 -4.48,-2.489 -6.59,-2.86 -13.26,-2.347 -29.74,-2.218 -29.74,-14.746 0,-7.82 6.94,-12.644 14.27,-12.644 11.89,0 22.43,7.566 22.3,20.086 z m -41.66,9.422 c 0.74,15 11.29,21.457 25.92,21.457 11.28,0 23.55,-3.473 23.55,-20.59 v -33.981 c 0,-2.968 1.5,-4.695 4.58,-4.695 0.87,0 1.87,0.254 2.48,0.488 v -6.57 c -1.72,-0.371 -2.96,-0.5 -5.07,-0.5 -7.93,0 -9.18,4.473 -9.18,11.172 h -0.25 c -5.46,-8.321 -11.02,-13.028 -23.31,-13.028 -11.78,0 -21.45,5.829 -21.45,18.719 0,17.977 17.5,18.598 34.35,20.586 6.45,0.742 10.04,1.613 10.04,8.684 0,10.539 -7.57,13.14 -16.74,13.14 -9.68,0 -16.85,-4.472 -17.11,-14.882 h -7.81" />
            <path id="path44" style="fill:#1a387b;fill-opacity:1;fill-rule:nonzero;stroke:none" d="m 1261.3,231.414 h -12.64 v -57.41 h -7.81 v 57.41 h -10.9 v 6.574 h 10.9 v 5.817 c -0.12,11.054 2.97,18.718 15.5,18.718 2.24,0 4.1,-0.097 6.58,-0.488 v -6.699 c -2.11,0.391 -3.85,0.633 -5.71,0.633 -8.68,0 -8.44,-5.461 -8.56,-12.406 v -5.575 h 12.64 v -6.574" />
            <path id="path46" style="fill:#1a387b;fill-opacity:1;fill-rule:nonzero;stroke:none" d="m 1285.86,237.988 h 13.03 v -6.574 h -13.03 v -43.152 c 0,-5.078 0.74,-8.059 6.33,-8.426 2.21,0 4.46,0.125 6.7,0.367 v -6.695 c -2.37,0 -4.59,-0.246 -6.96,-0.246 -10.42,0 -14,3.476 -13.87,14.394 v 43.758 h -11.18 v 6.574 h 11.18 v 19.219 h 7.8 v -19.219" />
            <path id="path48" style="fill:#1a387b;fill-opacity:1;fill-rule:nonzero;stroke:none" d="m 1348.11,219.266 c -0.38,9.668 -7.81,14 -16.74,14 -6.95,0 -15.14,-2.719 -15.14,-11.02 0,-6.949 7.93,-9.437 13.28,-10.785 l 10.42,-2.375 c 8.92,-1.356 18.21,-6.559 18.21,-17.719 0,-13.887 -13.76,-19.219 -25.66,-19.219 -14.87,0 -25.05,6.946 -26.29,22.571 h 7.82 c 0.62,-10.539 8.44,-15.996 18.85,-15.996 7.31,0 17.48,3.218 17.48,12.144 0,7.442 -6.95,9.918 -14.01,11.66 l -10.05,2.239 c -10.16,2.711 -17.85,6.191 -17.85,17.113 0,13.008 12.76,17.98 24.05,17.98 12.77,0 22.95,-6.699 23.43,-20.593 h -7.8" />
            <path id="path50" style="fill:#1a387b;fill-opacity:1;fill-rule:nonzero;stroke:none" d="m 1023.03,94.6484 c -0.37,9.6676 -7.82,14.0036 -16.74,14.0036 -6.942,0 -15.13,-2.722 -15.13,-11.0231 0,-6.9531 7.942,-9.4453 13.27,-10.793 l 10.41,-2.3632 c 8.94,-1.3672 18.23,-6.5625 18.23,-17.7266 0,-13.8867 -13.76,-19.2188 -25.67,-19.2188 -14.88,0 -25.037,6.9454 -26.279,22.5704 h 7.817 c 0.613,-10.5391 8.425,-15.9961 18.842,-15.9961 7.31,0 17.48,3.2226 17.48,12.1484 0,7.4414 -6.94,9.9219 -14,11.6602 l -10.05,2.2343 c -10.163,2.7149 -17.858,6.1953 -17.858,17.1133 0,13.0042 12.781,17.9762 24.048,17.9762 12.78,0 22.95,-6.699 23.45,-20.5856 h -7.82" />
            <path id="path52" style="fill:#1a387b;fill-opacity:1;fill-rule:nonzero;stroke:none" d="m 1091.11,85.8398 c -0.37,11.7891 -7.7,22.8122 -20.35,22.8122 -12.77,0 -19.82,-11.1637 -21.06,-22.8122 z m -41.41,-6.5625 c 0.12,-11.4179 6.06,-25.1757 21.06,-25.1757 11.42,0 17.61,6.6914 20.09,16.3672 h 7.82 c -3.35,-14.5 -11.78,-22.9415 -27.91,-22.9415 -20.32,0 -28.88,15.6172 -28.88,33.8516 0,16.8516 8.56,33.8551 28.88,33.8551 20.59,0 28.77,-17.9762 28.16,-35.9567 h -49.22" />
            <path id="path54" style="fill:#1a387b;fill-opacity:1;fill-rule:nonzero;stroke:none" d="m 1110.96,113.367 h 7.17 V 98.3594 h 0.26 c 3.96,10.2926 12.64,16.3746 24.18,15.8786 v -7.812 c -14.13,0.742 -23.81,-9.6682 -23.81,-22.9416 V 49.3867 h -7.8 v 63.9803" />
            <path id="path56" style="fill:#1a387b;fill-opacity:1;fill-rule:nonzero;stroke:none" d="m 1147.89,113.367 h 8.68 l 20.09,-56.16 h 0.25 l 19.84,56.16 h 8.05 l -23.92,-63.9803 h -8.31 l -24.68,63.9803" />
            <path id="path58" style="fill:#1a387b;fill-opacity:1;fill-rule:nonzero;stroke:none" d="m 1213.88,113.367 h 7.8 V 49.3945 h -7.8 z m 0,24.543 h 7.8 v -12.519 h -7.8 v 12.519" />
            <path id="path60" style="fill:#1a387b;fill-opacity:1;fill-rule:nonzero;stroke:none" d="m 1282.56,93.2813 c -2.09,9.5387 -7.94,15.3707 -18.1,15.3707 -15,0 -22.43,-13.6325 -22.43,-27.2731 0,-13.6445 7.43,-27.2773 22.43,-27.2773 9.68,0 17.61,7.5586 18.6,18.2226 h 7.82 c -2.11,-15.3711 -12.15,-24.7969 -26.42,-24.7969 -19.59,0 -30.25,15.5079 -30.25,33.8516 0,18.3477 10.66,33.8551 30.25,33.8551 13.64,0 24.18,-7.324 25.92,-21.9527 h -7.82" />
            <path id="path62" style="fill:#1a387b;fill-opacity:1;fill-rule:nonzero;stroke:none" d="m 1348.91,85.8398 c -0.37,11.7891 -7.7,22.8122 -20.34,22.8122 -12.79,0 -19.84,-11.1637 -21.08,-22.8122 z m -41.42,-6.5625 c 0.13,-11.4179 6.08,-25.1757 21.08,-25.1757 11.41,0 17.61,6.6914 20.09,16.3672 h 7.8 c -3.33,-14.5 -11.77,-22.9415 -27.89,-22.9415 -20.33,0 -28.89,15.6172 -28.89,33.8516 0,16.8516 8.56,33.8551 28.89,33.8551 20.59,0 28.76,-17.9762 28.14,-35.9567 h -49.22" />
            <path id="path64" style="fill:#1a387b;fill-opacity:1;fill-rule:nonzero;stroke:none" d="M 1827.48,212.605 C 1827.48,95.2031 1732.28,0 1614.89,0 c -117.41,0 -212.6,95.2031 -212.6,212.605 0,117.411 95.19,212.59 212.6,212.59 117.39,0 212.59,-95.179 212.59,-212.59" />
            <path id="path66" style="fill:#ffffff;fill-opacity:1;fill-rule:nonzero;stroke:none" d="m 1507.99,187.637 c 12.4,0 16.53,7.043 15.93,23.418 -3.69,-2.289 -10.42,-2.75 -16.09,-4.289 -5.82,-1.371 -10.72,-3.817 -10.72,-10.094 0,-6.438 5.06,-9.035 10.88,-9.035 m -33.69,41.191 c 0.46,10.41 5.36,17.149 12.4,21.301 7.05,3.969 16.24,5.508 25.25,5.508 18.85,0 37.07,-4.137 37.07,-26.649 v -34.769 c 0,-6.739 0,-14.09 3.07,-20.371 h -26.19 c -0.91,2.453 -1.22,4.902 -1.52,7.507 -6.74,-7.05 -16.7,-9.8 -26.2,-9.8 -15.16,0 -27.1,7.656 -27.1,24.05 0,25.868 28.18,23.891 46.24,27.563 4.45,0.918 6.9,2.445 6.9,7.348 0,5.972 -7.2,8.261 -12.56,8.261 -7.21,0 -11.8,-3.211 -13.02,-9.949 h -24.34" />
            <path id="path68" style="fill:#ffffff;fill-opacity:1;fill-rule:nonzero;stroke:none" d="m 1655.63,173.848 h -26.33 l -12.56,52.84 h -0.31 l -12.41,-52.84 h -26.33 l -24.82,79.48 h 26.34 l 13.33,-51.449 h 0.3 l 11.34,51.449 h 24.8 l 11.65,-51.301 h 0.3 l 13.02,51.301 h 26.5 l -24.82,-79.48" />
            <path id="path70" style="fill:#ffffff;fill-opacity:1;fill-rule:nonzero;stroke:none" d="m 1705.89,200.027 c 0,-3.972 1.68,-6.875 4.29,-8.875 2.45,-1.836 5.96,-2.765 9.64,-2.765 5.06,0 12.25,2.16 12.25,8.437 0,6.125 -8.11,7.356 -12.7,8.414 -16.39,4.141 -36.92,4.59 -36.92,26.039 0,19.145 20.68,24.364 36.3,24.364 17.46,0 35.69,-5.059 36.6,-25.743 h -24.04 c 0,3.368 -1.22,5.524 -3.37,6.887 -2.14,1.383 -5.06,1.992 -8.27,1.992 -4.29,0 -11.17,-0.449 -11.17,-5.968 0,-7.512 17.45,-8.879 29.4,-11.481 16.07,-3.207 20.22,-14.848 20.22,-21.437 0,-21.297 -20.22,-28.336 -38.14,-28.336 -18.84,0 -38.13,6.277 -38.91,28.472 h 24.82" />
        </g>
    </g>
</svg>