<?xml version="1.0" encoding="UTF-8" standalone="no"?>
<svg
   xmlns:dc="http://purl.org/dc/elements/1.1/"
   xmlns:cc="http://creativecommons.org/ns#"
   xmlns:rdf="http://www.w3.org/1999/02/22-rdf-syntax-ns#"
   xmlns:svg="http://www.w3.org/2000/svg"
   xmlns="http://www.w3.org/2000/svg"
   xmlns:sodipodi="http://sodipodi.sourceforge.net/DTD/sodipodi-0.dtd"
   xmlns:inkscape="http://www.inkscape.org/namespaces/inkscape"
   version="1.1"
   id="detail_floorsize"
   width="36px"
   height="36px"
   viewBox="0 0 36 36"
   sodipodi:docname="ico36_detail_workflow.svg"
   inkscape:version="0.92.3 (2405546, 2018-03-11)">
  <defs
     id="defs873" />
  <sodipodi:namedview
     borderopacity="1"
     objecttolerance="10"
     gridtolerance="10"
     guidetolerance="10"
     inkscape:pageopacity="0"
     inkscape:pageshadow="2"
     inkscape:window-width="2560"
     inkscape:window-height="1377"
     id="namedview871"
     showgrid="false"
     inkscape:zoom="11.86368"
     inkscape:cx="46.436475"
     inkscape:cy="21.103139"
     inkscape:window-x="-8"
     inkscape:window-y="-8"
     inkscape:window-maximized="1"
     inkscape:current-layer="detail_floorsize" />
  <metadata
     id="metadata29">
    <rdf:RDF>
      <cc:Work
         rdf:about="">
        <dc:format>image/svg+xml</dc:format>
        <dc:type
           rdf:resource="http://purl.org/dc/dcmitype/StillImage" />
        <dc:title />
      </cc:Work>
    </rdf:RDF>
  </metadata>
  <g
     id="g896"
     transform="matrix(0.0361529,0,0,0.0361529,-0.07637838,-0.07625181)"
     style="fill:var(--local-primary)">
    <g
       id="g894"
       transform="matrix(0.1,0,0,-0.1,0,512)"
       style="fill:var(--local-primary)">
      <path
         id="path892"
         d="m 1831,5008 c -21.1,-3.8 -103.4,-19.2 -183.9,-34.5 C 1308.1,4908.4 978.7,4730.3 703,4466 65.3,3853.2 -82.2,2922.5 335.3,2137.3 c 107.2,-201.1 218.3,-346.6 386.9,-505.6 239.4,-226 540,-388.8 844.5,-463.5 93.8,-23 180,-44 195.3,-47.9 17.2,-3.8 -107.2,-143.6 -319.8,-358.1 -346.6,-348.5 -348.5,-352.4 -348.5,-434.7 0,-99.6 34.5,-155.1 113,-189.6 99.6,-40.2 151.3,-9.6 407.9,245.1 l 245.1,241.3 V -116.8 -856 l -823.5,-5.8 -823.5,-5.7 -51.7,-53.6 -53.6,-51.7 v -1848 -1848 l 53.6,-51.7 51.7,-53.6 h 1848 1848 l 51.7,53.6 53.6,51.7 5.7,1809.7 c 5.7,2012.7 11.5,1918.9 -118.7,1972.5 -55.5,23 -206.8,28.7 -854.1,28.7 h -785.2 v 741.1 739.2 L 2518.3,371.5 C 2786.4,107.2 2819,88.1 2918.5,139.8 c 99.6,49.8 137.9,172.4 88.1,271.9 -11.5,23 -168.5,189.6 -348.5,371.5 -206.8,208.7 -317.9,333.2 -298.8,337 13.4,3.8 103.4,26.8 199.2,49.8 323.6,78.5 697.1,298.8 930.7,551.5 266.2,289.2 455.8,677.9 507.5,1045.6 l 11.5,90 H 4757 5503.9 L 5253,2600.5 c -197.2,-199.2 -252.8,-268.1 -252.8,-308.3 0,-157 160.9,-249 302.6,-174.3 28.7,15.3 214.5,191.5 415.6,392.6 L 6082.3,2876.3 6909.6,2049 7739,1220 V 417.6 -384.8 L 7482.3,-134 C 7214.2,130.3 7181.6,149.4 7082.1,97.7 6982.5,48 6944.2,-74.6 6994,-174.2 c 11.5,-23 168.5,-189.6 348.6,-371.5 206.8,-208.7 317.9,-333.2 298.8,-337.1 -13.4,-3.8 -103.4,-26.8 -199.2,-49.8 -323.7,-78.5 -697.1,-298.8 -930.7,-551.6 -875.3,-949.8 -626.3,-2458.8 507.4,-3062.1 785.2,-417.5 1715.9,-270 2328.7,367.7 90,93.8 204.9,237.5 256.6,317.9 494.1,794.8 358.1,1821.2 -325.6,2466.6 -239.4,226 -540,388.8 -844.6,463.5 -93.8,23 -180,44 -195.3,47.9 -17.2,3.8 107.3,143.6 319.8,358.1 346.6,348.6 348.5,352.4 348.5,434.7 0,99.6 -34.5,155.1 -113,189.6 -99.6,40.2 -151.3,9.6 -407.9,-245.1 L 8141,-386.7 V 415.7 1220 l 869.5,871.4 c 586,586 875.2,888.6 884.7,925 5.8,28.7 1.9,76.6 -9.6,105.3 -13.4,30.6 -438.5,469.2 -946,976.7 -990.1,988.2 -957.5,961.4 -1082,896.3 -28.7,-15.3 -438.6,-415.6 -913.5,-890.5 L 6084.2,3240.5 5687.9,3633 c -394.5,392.6 -394.5,392.6 -478.8,392.6 -99.6,0 -155.1,-34.5 -189.6,-113 -40.2,-99.6 -9.6,-151.3 245.1,-407.9 l 241.3,-245.1 h -748.8 -748.8 l -11.5,91.9 c -23,159 -88.1,371.5 -164.7,534.3 -275.8,587.9 -808.2,993.9 -1453.5,1106.9 -151.2,26.8 -457.6,36.3 -547.6,15.3 z m 568.8,-419.4 C 2960.9,4460.3 3388,4058.1 3568,3487.4 c 38.3,-122.6 44,-181.9 44,-429 -1.9,-245.1 -7.7,-308.3 -46,-430.9 -164.7,-530.5 -543.9,-909.7 -1074.4,-1074.4 -122.6,-38.3 -185.8,-44 -430.9,-46 -247,0 -306.4,5.7 -429,44 -570.7,180 -972.9,607.1 -1101.2,1168.2 -65.1,289.2 -26.8,699 90,965.2 153.2,344.7 469.2,660.7 810.1,812 270.1,118.9 678.1,157.2 969.2,92.1 z m 6283.3,-2271.3 -743,-743 -741.1,741.1 -743,743 741.1,741.1 743,743 741.1,-741.1 743,-743 z M 3621.6,-2830.4 v -1570.4 l -1564.6,3.8 -1566.5,5.7 -5.7,1566.5 -4,1564.8 h 1570.4 1570.4 z m 4757,1512.9 c 564.9,-180 965.2,-607.1 1091.6,-1164.4 65.1,-291.1 26.8,-699 -91.9,-970.9 -151.3,-339 -467.3,-655 -812,-808.2 -266.2,-116.8 -676,-155.1 -965.2,-90 -561.1,128.3 -988.2,530.5 -1168.2,1101.2 -38.3,122.6 -44,181.9 -44,429 1.9,245.1 7.7,308.3 46,430.9 164.7,528.6 553.4,919.2 1064.8,1068.6 187.7,55.5 218.3,59.4 497.9,51.7 193.3,-3.8 279.5,-15.3 381,-47.9 z"
         inkscape:connector-curvature="0"
         style="fill:var(--local-primary)" />
    </g>
  </g>
</svg>
