<?xml version="1.0" encoding="UTF-8" standalone="no"?>
<svg 
	xmlns:dc="http://purl.org/dc/elements/1.1/" 
	xmlns:cc="http://creativecommons.org/ns#" 
	xmlns:rdf="http://www.w3.org/1999/02/22-rdf-syntax-ns#" 
	xmlns:svg="http://www.w3.org/2000/svg" 
	xmlns="http://www.w3.org/2000/svg" viewBox="0 0 36 36" height="36px" width="36px" id="detail_measurement" version="1.1">
	<metadata id="metadata29">
		<rdf:RDF>
			<cc:Work rdf:about="">
				<dc:format>image/svg+xml</dc:format>
				<dc:type rdf:resource="http://purl.org/dc/dcmitype/StillImage" />
				<dc:title></dc:title>
			</cc:Work>
		</rdf:RDF>
	</metadata>
	<path style="fill:var(--local-primary);fill-opacity:1;stroke:none" d="m 0.61056678,29.253594 c -0.37163619,0.382772 -0.36406406,1.027978 0.0187084,1.399613 l 5.21152962,5.059901 c 0.3827733,0.371636 1.0299002,0.362084 1.4015378,-0.02069 L 35.357393,6.7348555 C 35.72903,6.3520822 35.719476,5.7049547 35.336697,5.3333182 L 30.125168,0.27341681 c -0.382773,-0.37163563 -1.027919,-0.36015953 -1.399557,0.0226136 z m 1.70855642,0.673745 1.0942926,-1.127085 0.8596744,0.834664 c 0.056186,0.05454 0.144554,0.05325 0.1991047,-0.0029 L 5.218391,28.863462 c 0.054551,-0.05619 0.053245,-0.144554 -0.00294,-0.199103 l -0.8596704,-0.83469 2.4616779,-2.535446 1.4717472,1.428928 c 0.076021,0.07381 0.1821307,0.08589 0.2366826,0.02969 l 0.7442711,-0.766606 c 0.05455,-0.05618 0.039339,-0.1619 -0.036668,-0.235701 l -1.4717471,-1.428927 2.4616797,-2.535446 0.859674,0.834662 c 0.05619,0.05455 0.144553,0.05325 0.199103,-0.0029 L 12.0284,21.849371 c 0.05455,-0.0562 0.05325,-0.144554 -0.0029,-0.199107 l -0.859673,-0.83466 2.461676,-2.535446 1.471746,1.428926 c 0.07603,0.07381 0.180209,0.08787 0.23476,0.03167 l 0.7462,-0.768554 c 0.05454,-0.0562 0.03742,-0.159922 -0.03859,-0.233723 l -1.471745,-1.428926 2.461676,-2.535447 0.859674,0.834663 c 0.05619,0.05454 0.144555,0.05325 0.199104,-0.0029 l 0.746197,-0.768559 c 0.05455,-0.05619 0.05518,-0.146536 -9.78e-4,-0.201086 l -0.859674,-0.834663 2.461676,-2.535444 1.471747,1.428925 c 0.07603,0.0738 0.180209,0.08787 0.234759,0.03167 l 0.746194,-0.768557 c 0.05455,-0.05619 0.03742,-0.15992 -0.03859,-0.233723 l -1.471748,-1.428926 2.461677,-2.5354463 0.859674,0.8346628 c 0.0562,0.05455 0.144553,0.053248 0.199104,-0.00297 L 25.64657,7.8231989 c 0.05454,-0.056189 0.05325,-0.1445542 -0.0029,-0.1991047 l -0.859724,-0.8345987 2.461677,-2.5354457 1.471747,1.428927 c 0.07603,0.073805 0.180209,0.087863 0.234759,0.03168 l 0.746197,-0.7685579 c 0.05455,-0.056185 0.03742,-0.1599203 -0.03859,-0.2337215 L 28.187893,3.2833708 29.449502,1.9839548 33.646854,6.0591853 6.5164746,34.00257 Z" id="rect827" />
</svg>