<?xml version="1.0" encoding="UTF-8" standalone="no"?>
<svg 
	xmlns:dc="http://purl.org/dc/elements/1.1/" 
	xmlns:cc="http://creativecommons.org/ns#" 
	xmlns:rdf="http://www.w3.org/1999/02/22-rdf-syntax-ns#" 
	xmlns:svg="http://www.w3.org/2000/svg" 
	xmlns="http://www.w3.org/2000/svg" version="1.1" id="detail_media" width="36px" height="36px" viewBox="0 0 36 36">
	<metadata id="metadata29">
		<rdf:RDF>
			<cc:Work rdf:about="">
				<dc:format>image/svg+xml</dc:format>
				<dc:type rdf:resource="http://purl.org/dc/dcmitype/StillImage" />
				<dc:title></dc:title>
			</cc:Work>
		</rdf:RDF>
	</metadata>
	<path style="fill:var(--local-primary);fill-opacity:1;stroke:none" id="path10" d="m 15.587418,14.670727 c -1.998658,0.945364 -2.997987,2.528301 -2.997987,4.746812 0,0.831442 0.193869,1.634902 0.583609,2.41238 0.999328,1.998657 2.608247,2.997986 4.830755,2.997986 0.833439,0 1.6369,-0.193869 2.416377,-0.58161 1.998658,-0.999329 2.997987,-2.610247 2.997987,-4.828756 0,-0.833441 -0.197867,-1.636901 -0.585607,-2.416377 -0.999329,-1.942697 -2.610247,-2.914043 -4.830757,-2.914043 -0.83344,0 -1.638898,0.195868 -2.414377,0.583608 z M 28.079029,8.6747536 C 27.415474,8.6207898 26.94579,8.287014 26.665978,7.6754247 L 25.498761,4.3436623 C 25.278909,3.6781093 24.83121,3.3163523 24.167655,3.2603899 h -12.32772 c -0.611591,0.055962 -1.055291,0.3897382 -1.333106,0.9993288 L 9.3416121,7.5914811 C 9.0637987,8.2030703 8.5921154,8.5368462 7.9265624,8.5908099 H 3.5954712 c -0.4457007,0 -0.887404,0.083943 -1.3331047,0.2498322 C 0.76337323,9.396269 0.01387659,10.507523 0.01387659,12.172404 v 16.239094 c 0,0.445701 0.08394362,0.885406 0.24983221,1.331105 0.55362818,1.498994 1.6648818,2.248491 3.3317624,2.248491 H 32.412119 c 0.443701,0 0.883407,-0.08195 1.331105,-0.249832 1.496995,-0.553629 2.246492,-1.664882 2.246492,-3.329764 V 12.254349 c 0,-0.443702 -0.08195,-0.915384 -0.249832,-1.415049 C 35.072332,9.396269 33.963076,8.6747536 32.410119,8.6747536 Z M 13.005152,26.912504 C 10.340941,25.1337 9.0078362,22.635377 9.0078362,19.417539 c 0,-1.778805 0.4996645,-3.445687 1.4989928,-4.996644 1.776807,-2.664211 4.275129,-3.997316 7.494966,-3.997316 1.776807,0 3.443689,0.499664 4.996646,1.498994 2.666209,1.778804 3.997314,4.277127 3.997314,7.494966 0,1.776806 -0.499663,3.443687 -1.498992,4.996644 -1.776808,2.662212 -4.275129,3.997315 -7.494968,3.997315 -1.776805,0 -3.443687,-0.499665 -4.996643,-1.498994 z" />
</svg>