<?xml version="1.0" encoding="UTF-8" standalone="no"?>
<svg
   xmlns:dc="http://purl.org/dc/elements/1.1/"
   xmlns:cc="http://creativecommons.org/ns#"
   xmlns:rdf="http://www.w3.org/1999/02/22-rdf-syntax-ns#"
   xmlns:svg="http://www.w3.org/2000/svg"
   xmlns="http://www.w3.org/2000/svg"
   xml:space="preserve"
   enable-background="new 0 0 36 36"
   viewBox="0 0 18.000751 23.254"
   height="23.254"
   width="18.000751"
   y="0px"
   x="0px"
   id="Layer_1"
   version="1.1"><metadata
     id="metadata11"><rdf:RDF><cc:Work
         rdf:about=""><dc:format>image/svg+xml</dc:format><dc:type
           rdf:resource="http://purl.org/dc/dcmitype/StillImage" /><dc:title></dc:title></cc:Work></rdf:RDF></metadata><defs
     id="defs9" /><g
     transform="translate(-8.999593,-6.373)"
     id="g3"><path
       style="fill:var(--local-primary)"
       id="path5"
       d="m 23.566,28.721 c 0.353,0.568 0.883,0.871 1.591,0.906 0.459,0 0.866,-0.178 1.22,-0.533 0.707,-0.676 0.812,-1.441 0.318,-2.293 l -3.5,-5.922 0.159,-0.213 c 0.742,-0.781 1.325,-1.688 1.75,-2.72 1.061,-2.595 0.865,-5.102 -0.584,-7.52 -0.105,-0.177 -0.229,-0.355 -0.371,-0.533 -1.662,-2.347 -3.924,-3.52 -6.788,-3.52 -1.379,0 -2.669,0.32 -3.871,0.96 -2.227,1.138 -3.642,2.952 -4.242,5.44 -0.53,2.312 -0.212,4.445 0.955,6.401 0.106,0.178 0.229,0.355 0.371,0.533 1.661,2.346 3.924,3.52 6.788,3.52 0.955,0 1.856,-0.143 2.705,-0.426 l 3.499,5.92 0,0 z M 12.483,17.787 c -0.778,-1.351 -0.99,-2.809 -0.637,-4.374 0.141,-0.534 0.353,-1.048 0.637,-1.547 1.095,-1.848 2.739,-2.773 4.931,-2.773 2.086,0.107 3.712,1.032 4.879,2.773 0.742,1.352 0.954,2.792 0.636,4.32 -0.142,0.533 -0.354,1.049 -0.636,1.546 -1.097,1.884 -2.74,2.828 -4.932,2.828 -2.086,-0.107 -3.712,-1.031 -4.878,-2.773 l 0,0 0,0 z" /></g></svg>