<?xml version="1.0" encoding="UTF-8" standalone="no"?>
<svg
   xmlns:dc="http://purl.org/dc/elements/1.1/"
   xmlns:cc="http://creativecommons.org/ns#"
   xmlns:rdf="http://www.w3.org/1999/02/22-rdf-syntax-ns#"
   xmlns:svg="http://www.w3.org/2000/svg"
   xmlns="http://www.w3.org/2000/svg"
   xml:space="preserve"
   enable-background="new 0 0 36 36"
   viewBox="0 0 36 36"
   height="36px"
   width="36px"
   y="0px"
   x="0px"
   id="Layer_1"
   version="1.1"><metadata
     id="metadata13"><rdf:RDF><cc:Work
         rdf:about=""><dc:format>image/svg+xml</dc:format><dc:type
           rdf:resource="http://purl.org/dc/dcmitype/StillImage" /><dc:title></dc:title></cc:Work></rdf:RDF></metadata><defs
     id="defs11"><clipPath
       clipPathUnits="userSpaceOnUse"
       id="clipPath6471"><path
         d="m 0,0 1440,0 0,900 L 0,900 0,0 Z"
         id="path6473" /></clipPath><clipPath
       clipPathUnits="userSpaceOnUse"
       id="clipPath6507"><path
         d="m 0,0 1440,0 0,900 L 0,900 0,0 Z"
         id="path6509" /></clipPath><clipPath
       clipPathUnits="userSpaceOnUse"
       id="clipPath6507-9"><path
         d="m 0,0 1440,0 0,900 L 0,900 0,0 Z"
         id="path6509-2" /></clipPath></defs><g
     id="g4287"><g
       id="g6503"
       transform="matrix(1.1584034,0,0,-1.1926229,-850.63485,318.03635)"><g
         id="g6505"
         clip-path="url(#clipPath6507-9)"><g
           id="g6511"
           transform="translate(750,237.5449)"><path
             d="M 0,0 C 7.732,0 14,6.268 14,14 14,21.732 7.732,28 0,28 -7.732,28 -14,21.732 -14,14 -14,6.268 -7.732,0 0,0 Z"
             style="fill:none;stroke:var(--local-primary);stroke-width:2;stroke-linecap:butt;stroke-linejoin:miter;stroke-miterlimit:10;stroke-dasharray:none;stroke-opacity:1"
             id="path6513" /></g><g
           id="g6515"
           transform="translate(745.5,254.0449)"><path
             d="M 0,0 C 0.552,0 1,0.448 1,1 1,1.552 0.552,2 0,2 -0.552,2 -1,1.552 -1,1 -1,0.448 -0.552,0 0,0"
             style="fill:var(--local-primary);fill-opacity:1;fill-rule:nonzero;stroke:none"
             id="path6517" /></g><g
           id="g6519"
           transform="translate(745.5,254.0449)"><path
             d="M 0,0 C 0.552,0 1,0.448 1,1 1,1.552 0.552,2 0,2 -0.552,2 -1,1.552 -1,1 -1,0.448 -0.552,0 0,0 Z"
             style="fill:none;stroke:var(--local-primary);stroke-width:3;stroke-linecap:butt;stroke-linejoin:miter;stroke-miterlimit:10;stroke-dasharray:none;stroke-opacity:1"
             id="path6521" /></g><g
           id="g6523"
           transform="translate(754.5,254.0449)"><path
             d="M 0,0 C 0.552,0 1,0.448 1,1 1,1.552 0.552,2 0,2 -0.552,2 -1,1.552 -1,1 -1,0.448 -0.552,0 0,0"
             style="fill:var(--local-primary);fill-opacity:1;fill-rule:nonzero;stroke:none"
             id="path6525" /></g><g
           id="g6527"
           transform="translate(754.5,254.0449)"><path
             d="M 0,0 C 0.552,0 1,0.448 1,1 1,1.552 0.552,2 0,2 -0.552,2 -1,1.552 -1,1 -1,0.448 -0.552,0 0,0 Z"
             style="fill:none;stroke:var(--local-primary);stroke-width:3;stroke-linecap:butt;stroke-linejoin:miter;stroke-miterlimit:10;stroke-dasharray:none;stroke-opacity:1"
             id="path6529" /></g></g></g><g
       id="g6531"
       transform="matrix(1.1584034,0,0,-1.1926229,12.954884,25.790185)"><path
         d="M 0,0 9,0"
         style="fill:none;stroke:var(--local-primary);stroke-width:2;stroke-linecap:butt;stroke-linejoin:miter;stroke-miterlimit:10;stroke-dasharray:none;stroke-opacity:1"
         id="path6533" /></g></g></svg>