<?xml version="1.0" encoding="UTF-8" standalone="no"?>
<svg
   xmlns:dc="http://purl.org/dc/elements/1.1/"
   xmlns:cc="http://creativecommons.org/ns#"
   xmlns:rdf="http://www.w3.org/1999/02/22-rdf-syntax-ns#"
   xmlns:svg="http://www.w3.org/2000/svg"
   xmlns="http://www.w3.org/2000/svg"
   xmlns:sodipodi="http://sodipodi.sourceforge.net/DTD/sodipodi-0.dtd"
   xmlns:inkscape="http://www.inkscape.org/namespaces/inkscape"
   version="1.1"
   id="svg4362"
   viewBox="0 0 35.999999 35.999999"
   height="36"
   width="36"
   sodipodi:docname="ico36_uc_custom.svg"
   inkscape:version="0.92.2 (5c3e80d, 2017-08-06)">
  <defs
     id="defs12" />
  <sodipodi:namedview
     pagecolor="#ffffff"
     bordercolor="#666666"
     borderopacity="1"
     objecttolerance="10"
     gridtolerance="10"
     guidetolerance="10"
     inkscape:pageopacity="0"
     inkscape:pageshadow="2"
     inkscape:window-width="2560"
     inkscape:window-height="1377"
     id="namedview38"
     showgrid="false"
     inkscape:object-nodes="true"
     inkscape:snap-others="true"
     inkscape:snap-global="false"
     inkscape:zoom="22.627417"
     inkscape:cx="7.6010998"
     inkscape:cy="13.505016"
     inkscape:window-x="2552"
     inkscape:window-y="-8"
     inkscape:window-maximized="1"
     inkscape:current-layer="svg4362"
     inkscape:snap-bbox="true"
     inkscape:snap-bbox-midpoints="true"
     inkscape:snap-bbox-edge-midpoints="true"
     inkscape:bbox-nodes="true"
     inkscape:snap-nodes="true"
     inkscape:snap-midpoints="true"
     inkscape:snap-smooth-nodes="true"
     inkscape:snap-intersection-paths="true"
     inkscape:object-paths="true"
     inkscape:snap-object-midpoints="true"
     inkscape:snap-center="true" />
  <metadata
     id="metadata4367">
    <rdf:RDF>
      <cc:Work
         rdf:about="">
        <dc:format>image/svg+xml</dc:format>
        <dc:type
           rdf:resource="http://purl.org/dc/dcmitype/StillImage" />
        <dc:title />
      </cc:Work>
    </rdf:RDF>
  </metadata>
  <path
     style="color:var(--local-primary);font-style:normal;font-variant:normal;font-weight:normal;font-stretch:normal;font-size:medium;line-height:normal;font-family:sans-serif;font-variant-ligatures:normal;font-variant-position:normal;font-variant-caps:normal;font-variant-numeric:normal;font-variant-alternates:normal;font-feature-settings:normal;text-indent:0;text-align:start;text-decoration:none;text-decoration-line:none;text-decoration-style:solid;text-decoration-color:var(--local-primary);letter-spacing:normal;word-spacing:normal;text-transform:none;writing-mode:lr-tb;direction:ltr;text-orientation:mixed;dominant-baseline:auto;baseline-shift:baseline;text-anchor:start;white-space:normal;shape-padding:0;clip-rule:nonzero;display:inline;overflow:visible;visibility:visible;opacity:1;isolation:auto;mix-blend-mode:normal;color-interpolation:sRGB;color-interpolation-filters:linearRGB;solid-color:var(--local-primary);solid-opacity:1;vector-effect:none;fill:var(--local-primary);fill-opacity:1;fill-rule:nonzero;stroke:none;stroke-width:1.79999995;stroke-linecap:square;stroke-linejoin:round;stroke-miterlimit:4;stroke-dasharray:none;stroke-dashoffset:0;stroke-opacity:1;paint-order:fill markers stroke;color-rendering:auto;image-rendering:auto;shape-rendering:auto;text-rendering:auto;enable-background:accumulate"
     d="M 17.869141 0.765625 C 8.4128877 0.76562489 0.72656271 8.4499993 0.7265625 17.90625 C 0.7265625 27.3625 8.4128874 35.046876 17.869141 35.046875 C 19.051172 35.046875 20.206085 34.927623 21.322266 34.699219 C 22.438446 34.470815 23.5153 34.135014 24.541016 33.701172 C 24.314427 33.797012 24.572356 33.704374 24.875 33.714844 C 25.177649 33.725314 25.600289 33.763045 26.085938 33.820312 C 27.05723 33.934846 28.29049 34.128782 29.494141 34.335938 C 31.901441 34.750248 34.193359 35.216797 34.193359 35.216797 C 35.137918 35.40684 35.680379 34.180345 34.904297 33.609375 C 34.904297 33.609375 33.483508 32.568882 32.169922 31.453125 C 31.513129 30.895247 30.882123 30.31256 30.503906 29.880859 C 30.397978 29.759952 30.376247 29.712145 30.318359 29.628906 C 30.951829 28.956238 31.562904 28.258644 32.082031 27.490234 C 32.698053 26.578404 33.228268 25.603842 33.662109 24.578125 C 34.09595 23.552409 34.433706 22.475556 34.662109 21.359375 C 34.890514 20.243194 35.009766 19.088281 35.009766 17.90625 C 35.009766 8.4499998 27.325391 0.76562563 17.869141 0.765625 z M 9.4941406 10.076172 L 17.515625 10.076172 L 17.515625 16.880859 L 9.4941406 16.880859 L 9.4941406 10.076172 z M 19.261719 10.085938 L 26.505859 10.085938 L 26.505859 12.275391 L 19.261719 12.275391 L 19.261719 10.085938 z M 19.261719 14.634766 L 26.505859 14.634766 L 26.505859 16.824219 L 19.261719 16.824219 L 19.261719 14.634766 z M 9.4941406 19.183594 L 26.505859 19.183594 L 26.505859 21.375 L 9.4941406 21.375 L 9.4941406 19.183594 z M 9.4941406 23.732422 L 26.505859 23.732422 L 26.505859 25.923828 L 9.4941406 25.923828 L 9.4941406 23.732422 z "
     id="path828" />
</svg>
