<?xml version="1.0" encoding="utf-8"?>
<!-- Generator: Adobe Illustrator 15.0.0, SVG Export Plug-In . SVG Version: 6.00 Build 0)  -->
<!DOCTYPE svg PUBLIC "-//W3C//DTD SVG 1.1//EN" "http://www.w3.org/Graphics/SVG/1.1/DTD/svg11.dtd">
<svg version="1.1" id="Layer_1" xmlns="http://www.w3.org/2000/svg" xmlns:xlink="http://www.w3.org/1999/xlink" x="0px" y="0px"
	 width="36px" height="36px" viewBox="0 0 36 36" enable-background="new 0 0 36 36" xml:space="preserve">
<path fill="#FFFFFF" d="M18,35c9.374,0,17-7.626,17-17S27.374,1,18,1S1,8.626,1,18S8.626,35,18,35L18,35z"/>
<path fill="#CCD2D2" d="M29,19v-2H7v2H29L29,19z M7,14h19v-2H7V14L7,14z M26,22H7v2h19V22L26,22z"/>
<path fill="none" stroke="#CCD2D2" stroke-width="2" d="M18,35c9.374,0,17-7.626,17-17S27.374,1,18,1S1,8.626,1,18S8.626,35,18,35
	L18,35z"/>
</svg>
