<?xml version="1.0" encoding="UTF-8" standalone="no"?>
<!-- Generator: Adobe Illustrator 15.0.0, SVG Export Plug-In . SVG Version: 6.00 Build 0)  -->

<svg
   xmlns:dc="http://purl.org/dc/elements/1.1/"
   xmlns:cc="http://creativecommons.org/ns#"
   xmlns:rdf="http://www.w3.org/1999/02/22-rdf-syntax-ns#"
   xmlns:svg="http://www.w3.org/2000/svg"
   xmlns="http://www.w3.org/2000/svg"
   xmlns:xlink="http://www.w3.org/1999/xlink"
   xmlns:sodipodi="http://sodipodi.sourceforge.net/DTD/sodipodi-0.dtd"
   xmlns:inkscape="http://www.inkscape.org/namespaces/inkscape"
   version="1.1"
   id="Layer_1"
   x="0px"
   y="0px"
   width="36px"
   height="36px"
   viewBox="0 0 36 36"
   enable-background="new 0 0 36 36"
   xml:space="preserve"
   sodipodi:docname="ico36_media_circle.svg"
   inkscape:version="0.92.2 (5c3e80d, 2017-08-06)"><metadata
     id="metadata29"><rdf:RDF><cc:Work
         rdf:about=""><dc:format>image/svg+xml</dc:format><dc:type
           rdf:resource="http://purl.org/dc/dcmitype/StillImage" /><dc:title></dc:title></cc:Work></rdf:RDF></metadata><defs
     id="defs27" /><sodipodi:namedview
     pagecolor="#ffffff"
     bordercolor="#666666"
     borderopacity="1"
     objecttolerance="10"
     gridtolerance="10"
     guidetolerance="10"
     inkscape:pageopacity="0"
     inkscape:pageshadow="2"
     inkscape:window-width="1136"
     inkscape:window-height="648"
     id="namedview25"
     showgrid="false"
     inkscape:pagecheckerboard="true"
     inkscape:zoom="6.5555556"
     inkscape:cx="18"
     inkscape:cy="18"
     inkscape:window-x="0"
     inkscape:window-y="0"
     inkscape:window-maximized="0"
     inkscape:current-layer="Layer_1" /><path
     inkscape:connector-curvature="0"
     style="fill:none;stroke:var(--local-primary);stroke-opacity:1"
     id="path2"
     d="M 18,35 C 27.374,35 35,27.374 35,18 35,8.626 27.374,1 18,1 8.626,1 1,8.626 1,18 1,27.374 8.626,35 18,35 Z" /><g
     style="stroke:var(--local-primary);stroke-opacity:1"
     id="g14"><g
       style="stroke:var(--local-primary);stroke-opacity:1"
       id="g12"><defs
         id="defs5"><path
           inkscape:connector-curvature="0"
           d="M 18,36 C 27.941,36 36,27.941 36,18 36,8.059 27.941,0 18,0 8.059,0 0,8.059 0,18 0,27.941 8.059,36 18,36 Z"
           id="SVGID_1_" /></defs><clipPath
         id="SVGID_2_"><use
           height="100%"
           width="100%"
           y="0"
           x="0"
           style="overflow:visible"
           id="use7"
           overflow="visible"
           xlink:href="#SVGID_1_" /></clipPath><path
         inkscape:connector-curvature="0"
         style="stroke:var(--local-primary);stroke-opacity:1"
         id="path10"
         d="m 16.792,16.521 c -1,0.473 -1.5,1.265 -1.5,2.375 0,0.416 0.097,0.818 0.292,1.207 0.5,1 1.305,1.5 2.417,1.5 0.417,0 0.819,-0.097 1.209,-0.291 1,-0.5 1.5,-1.306 1.5,-2.416 0,-0.417 -0.099,-0.819 -0.293,-1.209 -0.5,-0.972 -1.306,-1.458 -2.417,-1.458 -0.417,0 -0.82,0.098 -1.208,0.292 z m 6.25,-3 c -0.332,-0.027 -0.567,-0.194 -0.707,-0.5 l -0.584,-1.667 c -0.11,-0.333 -0.334,-0.514 -0.666,-0.542 h -6.168 c -0.306,0.028 -0.528,0.195 -0.667,0.5 l -0.583,1.667 c -0.139,0.306 -0.375,0.473 -0.708,0.5 h -2.167 c -0.223,0 -0.444,0.042 -0.667,0.125 C 9.375,13.882 9,14.438 9,15.271 v 8.125 c 0,0.223 0.042,0.443 0.125,0.666 0.277,0.75 0.833,1.125 1.667,1.125 H 25.21 c 0.222,0 0.442,-0.041 0.666,-0.125 C 26.625,24.785 27,24.229 27,23.396 V 15.312 C 27,15.09 26.959,14.854 26.875,14.604 26.541,13.882 25.986,13.521 25.209,13.521 Z M 15.5,22.646 c -1.333,-0.89 -2,-2.14 -2,-3.75 0,-0.89 0.25,-1.724 0.75,-2.5 0.889,-1.333 2.139,-2 3.75,-2 0.889,0 1.723,0.25 2.5,0.75 1.334,0.89 2,2.14 2,3.75 0,0.889 -0.25,1.723 -0.75,2.5 -0.889,1.332 -2.139,2 -3.75,2 -0.889,0 -1.723,-0.25 -2.5,-0.75 z"
         fill="var(--local-primary)"
         clip-path="url(#SVGID_2_)" /></g></g><g
     style="stroke:var(--local-primary);stroke-opacity:1"
     id="g20"><g
       style="stroke:var(--local-primary);stroke-opacity:1"
       id="g18"><path
         inkscape:connector-curvature="0"
         style="fill:none;stroke:var(--local-primary);stroke-width:2;stroke-opacity:1"
         id="path16"
         d="M 18,35 C 27.374,35 35,27.374 35,18 35,8.626 27.374,1 18,1 8.626,1 1,8.626 1,18 1,27.374 8.626,35 18,35 Z" /></g></g></svg>