<?xml version="1.0" encoding="UTF-8" standalone="no"?>
<svg
   xmlns:dc="http://purl.org/dc/elements/1.1/"
   xmlns:cc="http://creativecommons.org/ns#"
   xmlns:rdf="http://www.w3.org/1999/02/22-rdf-syntax-ns#"
   xmlns:svg="http://www.w3.org/2000/svg"
   xmlns="http://www.w3.org/2000/svg"
   xmlns:sodipodi="http://sodipodi.sourceforge.net/DTD/sodipodi-0.dtd"
   xmlns:inkscape="http://www.inkscape.org/namespaces/inkscape"
   version="1.1"
   id="svg4362"
   viewBox="0 0 35.999999 35.999999"
   height="36"
   width="36"
   sodipodi:docname="ico36_uc_realestate.svg"
   inkscape:version="0.92.2 (5c3e80d, 2017-08-06)">
  <sodipodi:namedview
     pagecolor="#ffffff"
     bordercolor="#666666"
     borderopacity="1"
     objecttolerance="10"
     gridtolerance="10"
     guidetolerance="10"
     inkscape:pageopacity="0"
     inkscape:pageshadow="2"
     inkscape:window-width="1600"
     inkscape:window-height="837"
     id="namedview38"
     showgrid="false"
     inkscape:object-nodes="false"
     inkscape:snap-others="false"
     inkscape:snap-global="false"
     inkscape:zoom="16"
     inkscape:cx="12.202509"
     inkscape:cy="19.110719"
     inkscape:window-x="-8"
     inkscape:window-y="-8"
     inkscape:window-maximized="1"
     inkscape:current-layer="svg4362" />
  <defs
     id="defs4364" />
  <metadata
     id="metadata4367">
    <rdf:RDF>
      <cc:Work
         rdf:about="">
        <dc:format>image/svg+xml</dc:format>
        <dc:type
           rdf:resource="http://purl.org/dc/dcmitype/StillImage" />
        <dc:title />
      </cc:Work>
    </rdf:RDF>
  </metadata>
  <path
     style="fill:var(--local-primary);fill-opacity:1;stroke:none;stroke-width:0.77640688"
     d="M 18 2.0722656 L 9.1015625 9.4492188 L 0.20507812 16.826172 L 3.625 16.826172 L 3.625 33.927734 L 32.375 33.927734 L 32.375 16.826172 L 35.794922 16.826172 L 26.898438 9.4492188 L 18 2.0722656 z M 7.9648438 17.646484 L 11.0625 17.646484 L 11.0625 21.46875 L 7.9648438 21.46875 L 7.9648438 17.646484 z M 12.75 17.646484 L 15.810547 17.646484 L 15.810547 21.46875 L 12.75 21.46875 L 12.75 17.646484 z M 21.162109 19.744141 L 28.800781 19.744141 L 28.800781 32.791016 L 21.162109 32.791016 L 21.162109 19.744141 z M 7.9648438 23.15625 L 11.0625 23.15625 L 11.0625 27.126953 L 7.9648438 27.126953 L 7.9648438 23.15625 z M 12.75 23.15625 L 15.810547 23.15625 L 15.810547 27.126953 L 12.75 27.126953 L 12.75 23.15625 z "
     id="path827" />
</svg>
