<?xml version="1.0" encoding="UTF-8" standalone="no"?>
<svg
   xmlns:dc="http://purl.org/dc/elements/1.1/"
   xmlns:cc="http://creativecommons.org/ns#"
   xmlns:rdf="http://www.w3.org/1999/02/22-rdf-syntax-ns#"
   xmlns:svg="http://www.w3.org/2000/svg"
   xmlns="http://www.w3.org/2000/svg"
   xmlns:sodipodi="http://sodipodi.sourceforge.net/DTD/sodipodi-0.dtd"
   xmlns:inkscape="http://www.inkscape.org/namespaces/inkscape"
   version="1.1"
   id="svg4362"
   viewBox="0 0 35.999999 35.999999"
   height="36"
   width="36"
   sodipodi:docname="ico36_uc_breakfast.svg"
   inkscape:version="0.92.2 (5c3e80d, 2017-08-06)">
  <sodipodi:namedview
     pagecolor="#ffffff"
     bordercolor="#666666"
     borderopacity="1"
     objecttolerance="10"
     gridtolerance="10"
     guidetolerance="10"
     inkscape:pageopacity="0"
     inkscape:pageshadow="2"
     inkscape:window-width="2173"
     inkscape:window-height="1368"
     id="namedview38"
     showgrid="false"
     inkscape:object-nodes="false"
     inkscape:snap-others="false"
     inkscape:snap-global="false"
     inkscape:zoom="16"
     inkscape:cx="5.8988293"
     inkscape:cy="12.84119"
     inkscape:window-x="252"
     inkscape:window-y="19"
     inkscape:window-maximized="0"
     inkscape:current-layer="svg4362" />
  <defs
     id="defs4364">
    <clipPath
       id="clipPath708"
       clipPathUnits="userSpaceOnUse">
      <path
         id="path710"
         d="M 0,0 H 1440 V 900 H 0 Z"
         inkscape:connector-curvature="0" />
    </clipPath>
    <clipPath
       id="clipPath720"
       clipPathUnits="userSpaceOnUse">
      <path
         id="path722"
         d="m 944.383,652.172 c 0,-34.969 28.357,-63.328 63.335,-63.328 v 0 c 34.979,0 63.335,28.359 63.335,63.328 v 0 c 0,34.984 -28.356,63.343 -63.335,63.343 v 0 c -34.978,0 -63.335,-28.359 -63.335,-63.343"
         inkscape:connector-curvature="0" />
    </clipPath>
    <clipPath
       id="clipPath732"
       clipPathUnits="userSpaceOnUse">
      <path
         id="path734"
         d="M 0,0 H 1440 V 900 H 0 Z"
         inkscape:connector-curvature="0" />
    </clipPath>
    <clipPath
       id="clipPath212"
       clipPathUnits="userSpaceOnUse">
      <path
         id="path214"
         d="m 606.85,488 c 0,-9.942 8.059,-18 18,-18 v 0 c 9.942,0 18,8.058 18,18 v 0 c 0,9.941 -8.058,18 -18,18 v 0 c -9.941,0 -18,-8.059 -18,-18"
         inkscape:connector-curvature="0" />
    </clipPath>
    <clipPath
       id="clipPath708-2"
       clipPathUnits="userSpaceOnUse">
      <path
         id="path710-7"
         d="M 0,0 H 1440 V 900 H 0 Z"
         inkscape:connector-curvature="0" />
    </clipPath>
    <clipPath
       id="clipPath720-7"
       clipPathUnits="userSpaceOnUse">
      <path
         id="path722-4"
         d="m 944.383,652.172 c 0,-34.969 28.357,-63.328 63.335,-63.328 v 0 c 34.979,0 63.335,28.359 63.335,63.328 v 0 c 0,34.984 -28.356,63.343 -63.335,63.343 v 0 c -34.978,0 -63.335,-28.359 -63.335,-63.343"
         inkscape:connector-curvature="0" />
    </clipPath>
    <clipPath
       id="clipPath732-4"
       clipPathUnits="userSpaceOnUse">
      <path
         id="path734-6"
         d="M 0,0 H 1440 V 900 H 0 Z"
         inkscape:connector-curvature="0" />
    </clipPath>
    <clipPath
       id="clipPath212-8"
       clipPathUnits="userSpaceOnUse">
      <path
         id="path214-5"
         d="m 606.85,488 c 0,-9.942 8.059,-18 18,-18 v 0 c 9.942,0 18,8.058 18,18 v 0 c 0,9.941 -8.058,18 -18,18 v 0 c -9.941,0 -18,-8.059 -18,-18"
         inkscape:connector-curvature="0" />
    </clipPath>
    <clipPath
       id="clipPath212-8-8"
       clipPathUnits="userSpaceOnUse">
      <path
         id="path214-5-1"
         d="m 606.85,488 c 0,-9.942 8.059,-18 18,-18 v 0 c 9.942,0 18,8.058 18,18 v 0 c 0,9.941 -8.058,18 -18,18 v 0 c -9.941,0 -18,-8.059 -18,-18"
         inkscape:connector-curvature="0" />
    </clipPath>
    <clipPath
       id="clipPath212-8-8-5"
       clipPathUnits="userSpaceOnUse">
      <path
         id="path214-5-1-7"
         d="m 606.85,488 c 0,-9.942 8.059,-18 18,-18 v 0 c 9.942,0 18,8.058 18,18 v 0 c 0,9.941 -8.058,18 -18,18 v 0 c -9.941,0 -18,-8.059 -18,-18"
         inkscape:connector-curvature="0" />
    </clipPath>
  </defs>
  <metadata
     id="metadata4367">
    <rdf:RDF>
      <cc:Work
         rdf:about="">
        <dc:format>image/svg+xml</dc:format>
        <dc:type
           rdf:resource="http://purl.org/dc/dcmitype/StillImage" />
        <dc:title></dc:title>
      </cc:Work>
    </rdf:RDF>
  </metadata>
  <g
     id="g19"
     transform="translate(0.02040672)">
    <g
       id="g21">
      <path
         style="fill:none;stroke-width:2"
         id="path23"
         d="M 18,35 C 27.373,35 35,27.374 35,18 35,8.626 27.373,1 18,1 8.626,1 1,8.626 1,18 1,27.374 8.626,35 18,35 Z"
         inkscape:connector-curvature="0" />
    </g>
  </g>
  <g
     id="g985"
     transform="matrix(1.110184,0,0,1.110184,-1.6432657,-1.2555838)">
    <rect
       style="fill:#000000;fill-opacity:1;stroke:#000000;stroke-width:3.75176644;stroke-linejoin:round;stroke-miterlimit:4;stroke-dasharray:none;stroke-dashoffset:0;stroke-opacity:1"
       id="rect973"
       width="22.777729"
       height="0.68994957"
       x="20.808542"
       y="16.374269"
       transform="matrix(0.89019186,0.45558584,-0.84143279,0.54036179,0,0)" />
    <rect
       transform="matrix(0.89019186,0.45558584,-0.84143279,0.54036179,0,0)"
       y="8.7345381"
       x="20.678431"
       height="0.68994957"
       width="22.777729"
       id="rect971"
       style="fill:#000000;fill-opacity:1;stroke:#000000;stroke-width:3.75176644;stroke-linejoin:round;stroke-miterlimit:4;stroke-dasharray:none;stroke-dashoffset:0;stroke-opacity:1" />
    <g
       id="g967"
       transform="translate(15.597876,-4.5712256)">
      <g
         id="g965">
        <path
           transform="translate(-3.0935922,0.08838835)"
           d="m 4.3691406,8.8183594 c -0.2113621,0.013923 -0.4016559,0.050877 -0.5625,0.1152344 -0.2189067,0.087589 -0.399527,0.257133 -0.515625,0.4902343 -0.1160979,0.2331014 -0.177742,0.524594 -0.203125,0.8945309 -0.050766,0.739875 0.046438,1.806363 0.2734375,3.359375 0.05039,0.344745 0.095485,0.691578 0.1289063,0.972657 0.033421,0.281078 0.054687,0.512709 0.054687,0.558593 0,0.01048 -0.00799,0.106195 -0.023437,0.230469 -0.015444,0.124275 -0.038419,0.288172 -0.066406,0.476563 -0.055975,0.37678 -0.1337825,0.85553 -0.21875,1.345703 -0.1820525,1.050252 -0.3219743,1.909028 -0.4179687,2.546875 -0.095994,0.637846 -0.148133,1.035828 -0.1484375,1.242187 -1.667e-4,0.112977 0.015885,0.23498 0.078125,0.341797 0.06224,0.106817 0.146992,0.184762 0.2636719,0.285156 0.3002584,0.258354 0.8885301,0.619118 1.5703124,0.998047 0.6817824,0.378929 1.4479927,0.763721 2.0683594,1.025391 0.1793748,0.07566 0.7242231,0.352079 1.1660156,0.595703 1.4714707,0.811431 3.9355858,1.994318 4.9980468,2.394531 0.131393,0.04949 0.258029,0.09512 0.359375,0.128906 0.05067,0.01689 0.09404,0.03034 0.13086,0.04102 0.03682,0.01068 0.04006,0.02005 0.117187,0.02344 0.07505,0.0032 0.179718,-0.03523 0.236328,-0.09766 0.05661,-0.06243 0.0771,-0.126886 0.09375,-0.193359 0.0333,-0.132947 0.04366,-0.295852 0.04492,-0.552734 0.0025,-0.513766 -0.04052,-1.386088 -0.125,-2.875 -0.07911,-1.394197 -0.119256,-2.709247 -0.103516,-3.339844 0.01484,-0.594496 0.01131,-0.822003 0.08984,-1.136719 0.07854,-0.314715 0.25152,-0.745017 0.621094,-1.695312 0.495561,-1.274244 0.713931,-2.018232 0.728515,-2.574219 0.0094,-0.357138 -0.03726,-0.557966 -0.201171,-0.855469 C 14.312391,12.66739 13.231266,11.797646 11.833984,11.117188 10.879393,10.652314 10.241704,10.433506 9.3125,10.248047 9.138786,10.213375 8.9605696,10.168156 8.8183594,10.125 8.6761492,10.081844 8.5513048,10.019265 8.5683594,10.03125 8.3966022,9.9105453 8.0866532,9.7613538 7.7265625,9.5996094 7.3664718,9.4378649 6.9722059,9.2761265 6.6796875,9.1796875 6.1337071,8.9996859 5.5669792,8.8826132 5.0644531,8.8359375 4.8131901,8.8125997 4.5805027,8.8044366 4.3691406,8.8183594 Z"
           id="path961"
           style="fill:#ffffff;fill-opacity:1;stroke:none;stroke-width:0.025;stroke-miterlimit:4;stroke-dasharray:none;stroke-dashoffset:0;stroke-opacity:1"
           inkscape:original="M 3.890625 9.140625 C 3.2080989 9.4137179 3.1297006 10.549915 3.5820312 13.644531 C 3.6833818 14.33792 3.7675781 15.04204 3.7675781 15.208984 C 3.7675781 15.375928 3.6275468 16.317086 3.4570312 17.300781 C 3.0932853 19.399213 2.8930511 20.730268 2.8925781 21.050781 C 2.8922938 21.243465 2.9351932 21.315928 3.1582031 21.507812 C 3.69089 21.966155 5.5190986 22.982668 6.7363281 23.496094 C 6.942129 23.582901 7.4769531 23.855135 7.9238281 24.101562 C 9.3830413 24.906234 11.860195 26.093539 12.892578 26.482422 C 13.15039 26.579533 13.392971 26.660409 13.431641 26.662109 C 13.616079 26.67008 13.618093 26.153998 13.449219 23.177734 C 13.369907 21.77992 13.329543 20.467727 13.345703 19.820312 C 13.375257 18.636232 13.331789 18.813045 14.070312 16.914062 C 14.563047 15.647085 14.772056 14.913469 14.785156 14.414062 C 14.7942 14.069421 14.768235 13.956661 14.611328 13.671875 C 14.155499 12.844546 13.106083 11.985413 11.736328 11.318359 C 10.791661 10.858319 10.185269 10.649568 9.2695312 10.466797 C 8.9070933 10.394458 8.5340081 10.281294 8.4394531 10.214844 C 8.1748847 10.028915 7.1668803 9.5763794 6.609375 9.3925781 C 5.5501259 9.0433594 4.4017248 8.9361235 3.890625 9.140625 z "
           inkscape:radius="0.22358398"
           sodipodi:type="inkscape:offset" />
        <path
           sodipodi:nodetypes="csscssssccccsscsccccc"
           inkscape:connector-curvature="0"
           id="path963"
           d="m -0.11995919,9.892138 c -0.412267,0.897363 0.45008,4.754005 0.38339,5.628544 -0.10478,1.374088 -1.161347,5.689053 -0.609727,6.277594 0.212522,0.226747 2.39077299,1.565235 4.31836399,2.34827 1.86509,1.01741 6.1764892,3.464704 7.0303072,3.127809 0.401088,-0.158259 0.672808,-0.16274 0.863808,-0.287638 0.551392,-0.360561 -0.203224,-7.788801 -0.07152,-8.203406 0.172947,-0.544451 1.732728,-2.540557 1.504243,-4.826942 C 13.087953,11.845423 10.017585,10.304382 7.407129,9.81352 5.0602258,8.2575442 0.93879281,7.4150267 -0.11995919,9.89214 Z M 11.886705,14.011034 c 0.3837,1.158244 -1.324226,4.230172 -1.398406,5.102383 -0.200378,2.356064 0.552701,7.802136 0.03028,7.890573 -0.529467,0.08963 -4.6978062,-1.946661 -6.4979572,-3.002282 -1.8939,-0.789996 -4.28348399,-2.057165 -4.44293899,-2.648042 -0.12106,-0.448602 0.615783,-4.205097 0.874048,-5.830155 0.136805,-0.860807 -1.21942,-5.667287 0.08977,-6.4403238 0.92740499,-0.547605 3.48844199,0.07194 5.12208899,1.1496028 2.0691512,0.20743 5.4819722,1.777596 6.2231152,3.778244 z"
           style="fill:#000000;fill-opacity:1;stroke:#000000;stroke-width:0.40000001;stroke-miterlimit:4;stroke-dasharray:none;stroke-dashoffset:0;stroke-opacity:1" />
      </g>
    </g>
    <g
       transform="translate(8.1291261,-2.2274757)"
       id="g945">
      <g
         id="g959">
        <path
           sodipodi:type="inkscape:offset"
           inkscape:radius="0.22358398"
           inkscape:original="M 3.890625 9.140625 C 3.2080989 9.4137179 3.1297006 10.549915 3.5820312 13.644531 C 3.6833818 14.33792 3.7675781 15.04204 3.7675781 15.208984 C 3.7675781 15.375928 3.6275468 16.317086 3.4570312 17.300781 C 3.0932853 19.399213 2.8930511 20.730268 2.8925781 21.050781 C 2.8922938 21.243465 2.9351932 21.315928 3.1582031 21.507812 C 3.69089 21.966155 5.5190986 22.982668 6.7363281 23.496094 C 6.942129 23.582901 7.4769531 23.855135 7.9238281 24.101562 C 9.3830413 24.906234 11.860195 26.093539 12.892578 26.482422 C 13.15039 26.579533 13.392971 26.660409 13.431641 26.662109 C 13.616079 26.67008 13.618093 26.153998 13.449219 23.177734 C 13.369907 21.77992 13.329543 20.467727 13.345703 19.820312 C 13.375257 18.636232 13.331789 18.813045 14.070312 16.914062 C 14.563047 15.647085 14.772056 14.913469 14.785156 14.414062 C 14.7942 14.069421 14.768235 13.956661 14.611328 13.671875 C 14.155499 12.844546 13.106083 11.985413 11.736328 11.318359 C 10.791661 10.858319 10.185269 10.649568 9.2695312 10.466797 C 8.9070933 10.394458 8.5340081 10.281294 8.4394531 10.214844 C 8.1748847 10.028915 7.1668803 9.5763794 6.609375 9.3925781 C 5.5501259 9.0433594 4.4017248 8.9361235 3.890625 9.140625 z "
           style="fill:#ffffff;fill-opacity:1;stroke:none;stroke-width:0.025;stroke-miterlimit:4;stroke-dasharray:none;stroke-dashoffset:0;stroke-opacity:1"
           id="path951"
           d="m 4.3691406,8.8183594 c -0.2113621,0.013923 -0.4016559,0.050877 -0.5625,0.1152344 -0.2189067,0.087589 -0.399527,0.257133 -0.515625,0.4902343 -0.1160979,0.2331014 -0.177742,0.524594 -0.203125,0.8945309 -0.050766,0.739875 0.046438,1.806363 0.2734375,3.359375 0.05039,0.344745 0.095485,0.691578 0.1289063,0.972657 0.033421,0.281078 0.054687,0.512709 0.054687,0.558593 0,0.01048 -0.00799,0.106195 -0.023437,0.230469 -0.015444,0.124275 -0.038419,0.288172 -0.066406,0.476563 -0.055975,0.37678 -0.1337825,0.85553 -0.21875,1.345703 -0.1820525,1.050252 -0.3219743,1.909028 -0.4179687,2.546875 -0.095994,0.637846 -0.148133,1.035828 -0.1484375,1.242187 -1.667e-4,0.112977 0.015885,0.23498 0.078125,0.341797 0.06224,0.106817 0.146992,0.184762 0.2636719,0.285156 0.3002584,0.258354 0.8885301,0.619118 1.5703124,0.998047 0.6817824,0.378929 1.4479927,0.763721 2.0683594,1.025391 0.1793748,0.07566 0.7242231,0.352079 1.1660156,0.595703 1.4714707,0.811431 3.9355858,1.994318 4.9980468,2.394531 0.131393,0.04949 0.258029,0.09512 0.359375,0.128906 0.05067,0.01689 0.09404,0.03034 0.13086,0.04102 0.03682,0.01068 0.04006,0.02005 0.117187,0.02344 0.07505,0.0032 0.179718,-0.03523 0.236328,-0.09766 0.05661,-0.06243 0.0771,-0.126886 0.09375,-0.193359 0.0333,-0.132947 0.04366,-0.295852 0.04492,-0.552734 0.0025,-0.513766 -0.04052,-1.386088 -0.125,-2.875 -0.07911,-1.394197 -0.119256,-2.709247 -0.103516,-3.339844 0.01484,-0.594496 0.01131,-0.822003 0.08984,-1.136719 0.07854,-0.314715 0.25152,-0.745017 0.621094,-1.695312 0.495561,-1.274244 0.713931,-2.018232 0.728515,-2.574219 0.0094,-0.357138 -0.03726,-0.557966 -0.201171,-0.855469 C 14.312391,12.66739 13.231266,11.797646 11.833984,11.117188 10.879393,10.652314 10.241704,10.433506 9.3125,10.248047 9.138786,10.213375 8.9605696,10.168156 8.8183594,10.125 8.6761492,10.081844 8.5513048,10.019265 8.5683594,10.03125 8.3966022,9.9105453 8.0866532,9.7613538 7.7265625,9.5996094 7.3664718,9.4378649 6.9722059,9.2761265 6.6796875,9.1796875 6.1337071,8.9996859 5.5669792,8.8826132 5.0644531,8.8359375 4.8131901,8.8125997 4.5805027,8.8044366 4.3691406,8.8183594 Z"
           transform="translate(-3.0935922,0.08838835)" />
        <path
           style="fill:#000000;fill-opacity:1;stroke:#000000;stroke-width:0.40000001;stroke-miterlimit:4;stroke-dasharray:none;stroke-dashoffset:0;stroke-opacity:1"
           d="m -0.11995919,9.892138 c -0.412267,0.897363 0.45008,4.754005 0.38339,5.628544 -0.10478,1.374088 -1.161347,5.689053 -0.609727,6.277594 0.212522,0.226747 2.39077299,1.565235 4.31836399,2.34827 1.86509,1.01741 6.1764892,3.464704 7.0303072,3.127809 0.401088,-0.158259 0.672808,-0.16274 0.863808,-0.287638 0.551392,-0.360561 -0.203224,-7.788801 -0.07152,-8.203406 0.172947,-0.544451 1.732728,-2.540557 1.504243,-4.826942 C 13.087953,11.845423 10.017585,10.304382 7.407129,9.81352 5.0602258,8.2575442 0.93879281,7.4150267 -0.11995919,9.89214 Z M 11.886705,14.011034 c 0.3837,1.158244 -1.324226,4.230172 -1.398406,5.102383 -0.200378,2.356064 0.552701,7.802136 0.03028,7.890573 -0.529467,0.08963 -4.6978062,-1.946661 -6.4979572,-3.002282 -1.8939,-0.789996 -4.28348399,-2.057165 -4.44293899,-2.648042 -0.12106,-0.448602 0.615783,-4.205097 0.874048,-5.830155 0.136805,-0.860807 -1.21942,-5.667287 0.08977,-6.4403238 0.92740499,-0.547605 3.48844199,0.07194 5.12208899,1.1496028 2.0691512,0.20743 5.4819722,1.777596 6.2231152,3.778244 z"
           id="path927"
           inkscape:connector-curvature="0"
           sodipodi:nodetypes="csscssssccccsscsccccc" />
      </g>
    </g>
  </g>
</svg>
