<?xml version="1.0" encoding="UTF-8" standalone="no"?>
<svg
   xmlns:dc="http://purl.org/dc/elements/1.1/"
   xmlns:cc="http://creativecommons.org/ns#"
   xmlns:rdf="http://www.w3.org/1999/02/22-rdf-syntax-ns#"
   xmlns:svg="http://www.w3.org/2000/svg"
   xmlns="http://www.w3.org/2000/svg"
   xmlns:sodipodi="http://sodipodi.sourceforge.net/DTD/sodipodi-0.dtd"
   xmlns:inkscape="http://www.inkscape.org/namespaces/inkscape"
   version="1.1"
   id="svg4362"
   viewBox="0 0 35.999999 35.999999"
   height="36"
   width="36"
   sodipodi:docname="ico36_uc_breakfast.svg"
   inkscape:version="0.92.2 (5c3e80d, 2017-08-06)">
  <sodipodi:namedview
     pagecolor="#ffffff"
     bordercolor="#666666"
     borderopacity="1"
     objecttolerance="10"
     gridtolerance="10"
     guidetolerance="10"
     inkscape:pageopacity="0"
     inkscape:pageshadow="2"
     inkscape:window-width="2173"
     inkscape:window-height="1368"
     id="namedview38"
     showgrid="false"
     inkscape:object-nodes="false"
     inkscape:snap-others="false"
     inkscape:snap-global="false"
     inkscape:zoom="22.627417"
     inkscape:cx="11.668735"
     inkscape:cy="26.4739"
     inkscape:window-x="2629"
     inkscape:window-y="0"
     inkscape:window-maximized="0"
     inkscape:current-layer="svg4362" />
  <defs
     id="defs4364" />
  <metadata
     id="metadata4367">
    <rdf:RDF>
      <cc:Work
         rdf:about="">
        <dc:format>image/svg+xml</dc:format>
        <dc:type
           rdf:resource="http://purl.org/dc/dcmitype/StillImage" />
        <dc:title />
      </cc:Work>
    </rdf:RDF>
  </metadata>
  <path
     style="color:var(--local-primary);font-style:normal;font-variant:normal;font-weight:normal;font-stretch:normal;font-size:medium;line-height:normal;font-family:sans-serif;font-variant-ligatures:normal;font-variant-position:normal;font-variant-caps:normal;font-variant-numeric:normal;font-variant-alternates:normal;font-feature-settings:normal;text-indent:0;text-align:start;text-decoration:none;text-decoration-line:none;text-decoration-style:solid;text-decoration-color:var(--local-primary);letter-spacing:normal;word-spacing:normal;text-transform:none;writing-mode:lr-tb;direction:ltr;text-orientation:mixed;dominant-baseline:auto;baseline-shift:baseline;text-anchor:start;white-space:normal;shape-padding:0;clip-rule:nonzero;display:inline;overflow:visible;visibility:visible;opacity:1;isolation:auto;mix-blend-mode:normal;color-interpolation:sRGB;color-interpolation-filters:linearRGB;solid-color:var(--local-primary);solid-opacity:1;vector-effect:none;fill-opacity:1;fill-rule:nonzero;stroke:none;stroke-width:0.5810765;stroke-linecap:butt;stroke-linejoin:miter;stroke-miterlimit:4;stroke-dasharray:none;stroke-dashoffset:0;stroke-opacity:1;color-rendering:auto;image-rendering:auto;shape-rendering:auto;text-rendering:auto;enable-background:accumulate;fill:var(--local-primary)"
     d="M 18.345703 2.6230469 C 17.448299 2.6423371 16.583019 2.7769849 15.794922 3.0722656 C 14.743947 3.4660409 13.826219 4.1816195 13.302734 5.2441406 C 12.981555 5.8648775 13.003267 6.5193473 13.039062 7.2382812 C 13.071706 7.8939472 13.165531 8.6235308 13.271484 9.3515625 L 15.371094 9.3515625 C 15.340838 9.1502897 15.303135 8.9701857 15.277344 8.7695312 C 15.159179 7.8502133 15.105969 6.9456105 15.181641 6.3046875 C 15.257551 5.6617604 15.454693 5.4030889 15.546875 5.3554688 C 15.664323 5.2947957 16.090668 5.2086167 16.626953 5.203125 C 17.163137 5.197635 17.828359 5.2528929 18.521484 5.3925781 C 19.917656 5.6739479 21.481246 6.2315785 22.636719 6.8984375 C 22.751275 6.9646575 22.877948 7.004139 23.009766 7.015625 C 24.460016 7.14282 26.530237 7.7228502 28.298828 8.5820312 C 30.053709 9.4345522 31.486053 10.622867 31.904297 11.585938 C 31.908197 11.600767 31.932125 11.729476 31.921875 11.908203 C 31.911315 12.09233 31.875506 12.33149 31.804688 12.599609 C 31.65938 13.149726 31.396818 13.826867 31.103516 14.501953 C 30.809905 15.177749 30.488525 15.855571 30.224609 16.457031 C 29.964147 17.050621 29.733455 17.542592 29.679688 18.095703 C 29.50732 19.868833 29.737347 22.504916 29.888672 24.759766 C 29.964362 25.887659 30.022277 26.915211 30.013672 27.617188 C 30.012372 27.725538 30.001944 27.773972 29.996094 27.853516 C 29.809804 27.798196 29.638791 27.749132 29.392578 27.664062 C 28.654768 27.409143 27.690535 27.036781 26.666016 26.613281 C 25.505269 26.133468 24.309477 25.604739 23.201172 25.095703 L 23.201172 27.326172 C 24.156419 27.775242 25.163521 28.243523 26.150391 28.667969 C 27.266679 29.148078 28.340078 29.572025 29.251953 29.857422 C 29.707607 30.00003 30.123915 30.10933 30.507812 30.169922 C 30.879404 30.228572 31.260355 30.270361 31.675781 30.126953 C 32.168012 29.957031 32.594614 29.995148 33.169922 29.666016 C 33.506472 29.473477 33.638376 29.1737 33.703125 29.003906 C 33.776345 28.811903 33.816866 28.622129 33.847656 28.423828 C 33.909596 28.024938 33.934246 27.55763 33.941406 27.023438 C 33.955746 25.953753 33.891307 24.617539 33.810547 23.28125 C 33.729777 21.944742 33.629751 20.611408 33.5625 19.585938 C 33.52886 19.073002 33.504261 18.633983 33.494141 18.324219 C 33.489441 18.179006 33.488634 18.067023 33.490234 17.992188 C 33.512334 17.953608 33.538399 17.908097 33.574219 17.847656 C 33.656349 17.709071 33.769796 17.522141 33.898438 17.320312 C 34.160578 16.909036 34.495439 16.377425 34.814453 15.755859 C 35.452082 14.513507 36.050756 12.884542 35.84375 11.072266 C 35.627456 9.1789442 34.068487 7.7774466 32.207031 6.7441406 C 30.376677 5.7281016 28.144054 5.0347028 26.056641 4.6796875 C 24.120205 3.5935634 21.619862 2.7764811 19.251953 2.640625 C 18.947252 2.6231433 18.644838 2.6166168 18.345703 2.6230469 z "
     id="path927-4" />
  <path
     style="fill-opacity:1;stroke-width:0.5810765;stroke-miterlimit:4;stroke-dasharray:none;stroke-dashoffset:0;stroke-opacity:1;fill:var(--local-primary)"
     d="M 9.2853588,6.5623526 C 7.067561,6.3881446 4.395042,6.9891776 3.33614,9.1658676 2.740201,10.661083 3.224958,12.309648 3.388642,13.850666 c 0.204541,1.534284 0.688027,3.095251 0.237051,4.632787 -0.418405,2.430642 -1.11233,4.905131 -0.768069,7.371869 0.689234,1.313541 2.42784,1.624651 3.623419,2.37714 1.9016878,0.931394 3.927506,1.562598 5.794377,2.567715 2.696119,1.222281 5.35669,2.647224 8.265798,3.291473 1.127411,0.05294 2.796313,-0.08021 3.244456,-1.309768 0.422911,-2.24703 0.06062,-4.5565 -0.0215,-6.821652 -0.08012,-1.348614 -0.216232,-2.69505 -0.240537,-4.046315 1.392318,-2.135677 2.791043,-4.621535 2.297487,-7.269186 C 25.253956,12.243675 22.892581,10.894409 20.8008,9.9645796 19.292731,9.3232136 17.704094,8.8787516 16.090046,8.6014146 14.00465,7.4510106 11.666618,6.7154946 9.2853588,6.5623526 Z m -2.6249998,2.5625 c 2.1755817,0.014374 4.28883,0.760544 6.189816,1.7744314 2.967511,0.38821 5.983091,1.414724 8.225649,3.459488 1.424353,0.926313 0.722166,2.60077 0.169476,3.811908 -0.622638,1.605511 -1.720308,3.127551 -1.589895,4.92695 -0.05418,2.898709 0.419659,5.781315 0.374094,8.677613 -3.249531,-1.048655 -6.33157,-2.551897 -9.423211,-3.97884 C 8.5943855,27.002082 6.533382,26.22611 4.746978,24.987646 4.321689,24.007382 5.018524,22.695512 5.085679,21.602454 5.357348,20.038668 5.781742,18.494483 5.947294,16.917097 5.760682,14.552228 4.899425,12.199117 5.291175,9.8135606 c 0.072876,-0.7375 0.824849,-0.648946 1.369184,-0.688708 z"
     id="path822"
     inkscape:connector-curvature="0" />
</svg>
