<?xml version="1.0" encoding="UTF-8" standalone="no"?>
<svg 
	xmlns:dc="http://purl.org/dc/elements/1.1/" 
	xmlns:cc="http://creativecommons.org/ns#" 
	xmlns:rdf="http://www.w3.org/1999/02/22-rdf-syntax-ns#" 
	xmlns:svg="http://www.w3.org/2000/svg" 
	xmlns="http://www.w3.org/2000/svg" version="1.1" id="detail_date" width="36px" height="36px" viewBox="0 0 36 36">
	<metadata id="metadata29">
		<rdf:RDF>
			<cc:Work rdf:about="">
				<dc:format>image/svg+xml</dc:format>
				<dc:type rdf:resource="http://purl.org/dc/dcmitype/StillImage" />
				<dc:title></dc:title>
			</cc:Work>
		</rdf:RDF>
	</metadata>
	<path style="fill:var(--local-primary);fill-opacity:1;stroke:none;" d="M 12.664062 7.9570312 A 0.750075 0.750075 0 0 0 11.925781 8.7167969 L 11.925781 9.5332031 L 8.6640625 9.5332031 C 7.7535543 9.5332031 6.9960937 10.288239 6.9960938 11.199219 L 6.9960938 25.376953 C 6.9960938 26.287933 7.7535543 27.042969 8.6640625 27.042969 L 27.414062 27.042969 C 28.324572 27.042969 29.082031 26.287933 29.082031 25.376953 L 29.082031 11.199219 C 29.082031 10.288239 28.324571 9.5332031 27.414062 9.5332031 L 23.953125 9.5332031 L 23.953125 8.7167969 A 0.750075 0.750075 0 0 0 23.191406 7.9570312 A 0.750075 0.750075 0 0 0 22.453125 8.7167969 L 22.453125 9.5332031 L 18.791016 9.5332031 L 18.791016 8.7167969 A 0.750075 0.750075 0 0 0 18.029297 7.9570312 A 0.750075 0.750075 0 0 0 17.291016 8.7167969 L 17.291016 9.5332031 L 13.425781 9.5332031 L 13.425781 8.7167969 A 0.750075 0.750075 0 0 0 12.664062 7.9570312 z M 8.6640625 11.033203 L 11.925781 11.033203 L 11.925781 11.517578 A 0.750075 0.750075 0 1 0 13.425781 11.517578 L 13.425781 11.033203 L 17.291016 11.033203 L 17.291016 11.517578 A 0.750075 0.750075 0 1 0 18.791016 11.517578 L 18.791016 11.033203 L 22.453125 11.033203 L 22.453125 11.517578 A 0.750075 0.750075 0 1 0 23.953125 11.517578 L 23.953125 11.033203 L 27.414062 11.033203 C 27.520795 11.033203 27.582031 11.094573 27.582031 11.199219 L 27.582031 25.376953 C 27.582031 25.481599 27.520791 25.542969 27.414062 25.542969 L 8.6640625 25.542969 C 8.5573301 25.542969 8.4960938 25.481599 8.4960938 25.376953 L 8.4960938 11.199219 C 8.4960938 11.094573 8.5573298 11.033203 8.6640625 11.033203 z " id="rect845" />
	<path style="fill:var(--local-primary);fill-opacity:1;stroke:none;" d="M 10.195312 13.195312 C 9.918312 13.195313 9.6953125 13.418313 9.6953125 13.695312 L 9.6953125 15.210938 C 9.6953125 15.487938 9.918312 15.710938 10.195312 15.710938 L 12.474609 15.710938 C 12.751609 15.710937 12.974609 15.487937 12.974609 15.210938 L 12.974609 13.695312 C 12.974609 13.418312 12.751609 13.195312 12.474609 13.195312 L 10.195312 13.195312 z M 14.662109 13.195312 C 14.385109 13.195313 14.162109 13.418313 14.162109 13.695312 L 14.162109 15.210938 C 14.162109 15.487938 14.385109 15.710938 14.662109 15.710938 L 16.941406 15.710938 C 17.218406 15.710937 17.441406 15.487937 17.441406 15.210938 L 17.441406 13.695312 C 17.441406 13.418312 17.218406 13.195312 16.941406 13.195312 L 14.662109 13.195312 z M 19.148438 13.195312 C 18.871437 13.195313 18.648438 13.418313 18.648438 13.695312 L 18.648438 15.210938 C 18.648438 15.487938 18.871437 15.710938 19.148438 15.710938 L 21.427734 15.710938 C 21.704734 15.710937 21.927734 15.487937 21.927734 15.210938 L 21.927734 13.695312 C 21.927734 13.418312 21.704734 13.195312 21.427734 13.195312 L 19.148438 13.195312 z M 23.580078 13.195312 C 23.303078 13.195313 23.080078 13.418313 23.080078 13.695312 L 23.080078 15.210938 C 23.080078 15.487938 23.303078 15.710938 23.580078 15.710938 L 25.859375 15.710938 C 26.136375 15.710937 26.359375 15.487937 26.359375 15.210938 L 26.359375 13.695312 C 26.359375 13.418312 26.136375 13.195312 25.859375 13.195312 L 23.580078 13.195312 z M 10.195312 17.224609 C 9.918312 17.224609 9.6953125 17.447609 9.6953125 17.724609 L 9.6953125 19.242188 C 9.6953125 19.519188 9.918312 19.742188 10.195312 19.742188 L 12.474609 19.742188 C 12.751609 19.742188 12.974609 19.519188 12.974609 19.242188 L 12.974609 17.724609 C 12.974609 17.447609 12.751609 17.224609 12.474609 17.224609 L 10.195312 17.224609 z M 14.662109 17.224609 C 14.385109 17.224609 14.162109 17.447609 14.162109 17.724609 L 14.162109 19.242188 C 14.162109 19.519188 14.385109 19.742188 14.662109 19.742188 L 16.941406 19.742188 C 17.218406 19.742188 17.441406 19.519188 17.441406 19.242188 L 17.441406 17.724609 C 17.441406 17.447609 17.218406 17.224609 16.941406 17.224609 L 14.662109 17.224609 z M 19.148438 17.224609 C 18.871437 17.224609 18.648438 17.447609 18.648438 17.724609 L 18.648438 19.242188 C 18.648438 19.519188 18.871437 19.742188 19.148438 19.742188 L 21.427734 19.742188 C 21.704734 19.742188 21.927734 19.519188 21.927734 19.242188 L 21.927734 17.724609 C 21.927734 17.447609 21.704734 17.224609 21.427734 17.224609 L 19.148438 17.224609 z M 23.580078 17.224609 C 23.303078 17.224609 23.080078 17.447609 23.080078 17.724609 L 23.080078 19.242188 C 23.080078 19.519188 23.303078 19.742188 23.580078 19.742188 L 25.859375 19.742188 C 26.136375 19.742188 26.359375 19.519188 26.359375 19.242188 L 26.359375 17.724609 C 26.359375 17.447609 26.136375 17.224609 25.859375 17.224609 L 23.580078 17.224609 z M 10.195312 21.242188 C 9.918312 21.242188 9.6953125 21.465187 9.6953125 21.742188 L 9.6953125 23.259766 C 9.6953125 23.536766 9.918312 23.759766 10.195312 23.759766 L 12.474609 23.759766 C 12.751609 23.759766 12.974609 23.536766 12.974609 23.259766 L 12.974609 21.742188 C 12.974609 21.465187 12.751609 21.242188 12.474609 21.242188 L 10.195312 21.242188 z M 14.662109 21.242188 C 14.385109 21.242188 14.162109 21.465187 14.162109 21.742188 L 14.162109 23.259766 C 14.162109 23.536766 14.385109 23.759766 14.662109 23.759766 L 16.941406 23.759766 C 17.218406 23.759766 17.441406 23.536766 17.441406 23.259766 L 17.441406 21.742188 C 17.441406 21.465187 17.218406 21.242188 16.941406 21.242188 L 14.662109 21.242188 z M 19.148438 21.242188 C 18.871437 21.242188 18.648438 21.465187 18.648438 21.742188 L 18.648438 23.259766 C 18.648438 23.536766 18.871437 23.759766 19.148438 23.759766 L 21.427734 23.759766 C 21.704734 23.759766 21.927734 23.536766 21.927734 23.259766 L 21.927734 21.742188 C 21.927734 21.465187 21.704734 21.242188 21.427734 21.242188 L 19.148438 21.242188 z " id="rect869" />
</svg>