<?xml version="1.0" encoding="UTF-8" standalone="no"?>
<!-- Generator: Adobe Illustrator 15.0.0, SVG Export Plug-In . SVG Version: 6.00 Build 0)  -->

<svg
   xmlns:dc="http://purl.org/dc/elements/1.1/"
   xmlns:cc="http://creativecommons.org/ns#"
   xmlns:rdf="http://www.w3.org/1999/02/22-rdf-syntax-ns#"
   xmlns:svg="http://www.w3.org/2000/svg"
   xmlns="http://www.w3.org/2000/svg"
   xmlns:sodipodi="http://sodipodi.sourceforge.net/DTD/sodipodi-0.dtd"
   xmlns:inkscape="http://www.inkscape.org/namespaces/inkscape"
   width="36px"
   height="36px"
   enable-background="new 0 0 36 36"
   version="1.1"
   viewBox="0 0 36 36"
   xml:space="preserve"
   id="svg12"
   sodipodi:docname="ico36_rdf_logo_circle.svg"
   inkscape:version="0.92.2 (5c3e80d, 2017-08-06)"><defs
     id="defs16" /><sodipodi:namedview
     pagecolor="#ffffff"
     bordercolor="#666666"
     borderopacity="1"
     objecttolerance="10"
     gridtolerance="10"
     guidetolerance="10"
     inkscape:pageopacity="0"
     inkscape:pageshadow="2"
     inkscape:window-width="1600"
     inkscape:window-height="837"
     id="namedview14"
     showgrid="false"
     inkscape:pagecheckerboard="true"
     inkscape:zoom="18.541911"
     inkscape:cx="17.985167"
     inkscape:cy="18.038601"
     inkscape:window-x="-8"
     inkscape:window-y="-8"
     inkscape:window-maximized="1"
     inkscape:current-layer="svg12" /><metadata
     id="metadata2"><rdf:RDF><cc:Work
         rdf:about=""><dc:format>image/svg+xml</dc:format><dc:type
           rdf:resource="http://purl.org/dc/dcmitype/StillImage" /><dc:title></dc:title></cc:Work></rdf:RDF></metadata><path
     d="m18 35c9.374 0 17-7.626 17-17s-7.627-17-17-17c-9.374 0-17 7.626-17 17s7.626 17 17 17z"
     fill="#fff"
     id="path4"
     style="fill:none;stroke:var(--local-primary);stroke-opacity:1" /><path
     d="m18 35c9.374 0 17-7.626 17-17s-7.627-17-17-17c-9.374 0-17 7.626-17 17s7.626 17 17 17z"
     fill="none"
     stroke="var(--local-primary)"
     stroke-width="2"
     id="path6"
     style="stroke:var(--local-primary);stroke-opacity:1" /><path
     style="stroke-width:0.66175002"
     d="m 22.996094,6.9296875 c -2.478343,0 -4.496094,2.0197962 -4.496094,4.4960935 0,0.297448 0.07304,0.573984 0.128906,0.855469 l -5.601562,2.800781 c -0.82136,-0.903595 -1.949363,-1.535156 -3.2656252,-1.535156 -2.4771911,0 -4.4960938,2.019584 -4.4960938,4.496094 0,2.475933 2.018797,4.496093 4.4960938,4.496093 1.3170262,0 2.4459082,-0.632163 3.2675782,-1.537109 l 5.599609,2.802735 C 18.573064,24.086093 18.5,24.362707 18.5,24.660156 c 0,2.475722 2.017645,4.496094 4.496094,4.496094 2.476145,0 4.496094,-2.019949 4.496094,-4.496094 0,-2.058196 -1.416201,-3.743291 -3.310547,-4.271484 v -4.691406 c 1.894155,-0.528662 3.310547,-2.213288 3.310547,-4.271485 0,-2.4767203 -2.020055,-4.4960935 -4.496094,-4.4960935 z m -3.285156,7.4648435 c 0.55925,0.618226 1.271606,1.062977 2.097656,1.294922 v 4.708985 c -0.825344,0.231989 -1.536985,0.676594 -2.095703,1.292968 l -5.582032,-2.792968 c 0.05521,-0.281442 0.126953,-0.558787 0.126953,-0.855469 0,-0.298054 -0.07296,-0.575285 -0.128906,-0.857422 z"
     id="path8" /></svg>