<?xml version="1.0" encoding="utf-8"?>
<!-- Generator: Adobe Illustrator 15.0.0, SVG Export Plug-In . SVG Version: 6.00 Build 0)  -->
<!DOCTYPE svg PUBLIC "-//W3C//DTD SVG 1.1//EN" "http://www.w3.org/Graphics/SVG/1.1/DTD/svg11.dtd">
<svg version="1.1" id="Layer_1" xmlns="http://www.w3.org/2000/svg" xmlns:xlink="http://www.w3.org/1999/xlink" x="0px" y="0px"
	 width="36px" height="36px" viewBox="0 0 36 36" enable-background="new 0 0 36 36" xml:space="preserve">
<g>
	<path fill="var(--local-primary)" d="M18,0C27.942,0,36,8.059,36,18S27.942,36,18,36c-9.94,0-18-8.059-18-18S8.059,0,18,0L18,0z"/>
	<path fill="#FFFFFF" d="M23.657,15.193c-0.391-0.391-1.023-0.391-1.414,0L19,18.436V5.458h-2v12.978l-3.243-3.243
		c-0.391-0.391-1.023-0.391-1.414,0s-0.391,1.023,0,1.414l4.95,4.951c0.188,0.188,0.442,0.293,0.707,0.293
		c0.266,0,0.52-0.105,0.707-0.293l4.949-4.951C24.047,16.216,24.047,15.583,23.657,15.193L23.657,15.193z M15,26.797
		c0,1.656,1.344,3,3,3c1.657,0,3.001-1.344,3.001-3c0-1.657-1.344-3-3.001-3C16.343,23.797,15,25.14,15,26.797L15,26.797z"/>
</g>
</svg>
