<?xml version="1.0" encoding="UTF-8" standalone="no"?>
<svg
   xmlns:dc="http://purl.org/dc/elements/1.1/"
   xmlns:cc="http://creativecommons.org/ns#"
   xmlns:rdf="http://www.w3.org/1999/02/22-rdf-syntax-ns#"
   xmlns:svg="http://www.w3.org/2000/svg"
   xmlns="http://www.w3.org/2000/svg"
   xmlns:xlink="http://www.w3.org/1999/xlink"
   xml:space="preserve"
   enable-background="new 0 0 36 36"
   viewBox="0 0 28 28"
   height="28"
   width="28"
   y="0px"
   x="0px"
   id="Layer_1"
   version="1.1"><metadata
     id="metadata23"><rdf:RDF><cc:Work
         rdf:about=""><dc:format>image/svg+xml</dc:format><dc:type
           rdf:resource="http://purl.org/dc/dcmitype/StillImage" /><dc:title></dc:title></cc:Work></rdf:RDF></metadata><defs
     id="defs21" /><g
     transform="translate(-4,-4)"
     id="g3"><path
       style="fill:var(--local-primary)"
       id="path5"
       d="M 18,32 C 25.733,32 32,25.732 32,18 32,10.268 25.733,4 18,4 10.268,4 4,10.268 4,18 c 0,7.732 6.268,14 14,14 l 0,0 z" /><g
       id="g7"><defs
         id="defs9"><path
           d="M 18,32 C 25.733,32 32,25.732 32,18 32,10.268 25.733,4 18,4 10.268,4 4,10.268 4,18 c 0,7.732 6.268,14 14,14 l 0,0 z"
           id="SVGID_1_" /></defs><clipPath
         id="SVGID_2_"><use
           height="100%"
           width="100%"
           y="0"
           x="0"
           style="overflow:visible"
           id="use13"
           overflow="visible"
           xlink:href="#SVGID_1_" /></clipPath><g
         id="g15"
         clip-path="url(#SVGID_2_)"><text
           style="font-size:13px;font-family:OpenSans-Bold;fill:#ffffff"
           id="text17"
           font-size="13"
           transform="translate(14.8833,22.9609)">?</text>
</g></g></g></svg>