<?xml version="1.0" encoding="UTF-8" standalone="no"?>
<svg
   xmlns:dc="http://purl.org/dc/elements/1.1/"
   xmlns:cc="http://creativecommons.org/ns#"
   xmlns:rdf="http://www.w3.org/1999/02/22-rdf-syntax-ns#"
   xmlns:svg="http://www.w3.org/2000/svg"
   xmlns="http://www.w3.org/2000/svg"
   xmlns:sodipodi="http://sodipodi.sourceforge.net/DTD/sodipodi-0.dtd"
   xmlns:inkscape="http://www.inkscape.org/namespaces/inkscape"
   version="1.1"
   id="detail_time"
   width="36px"
   height="36px"
   viewBox="0 0 36 36"
   sodipodi:docname="ico36_pokemon-raid.svg"
   inkscape:version="0.92.3 (2405546, 2018-03-11)">
  <defs
     id="defs1012" />
  <sodipodi:namedview
     borderopacity="1"
     objecttolerance="10"
     gridtolerance="10"
     guidetolerance="10"
     inkscape:pageopacity="0"
     inkscape:pageshadow="2"
     inkscape:window-width="2560"
     inkscape:window-height="1377"
     id="namedview1010"
     showgrid="false"
     inkscape:zoom="16.777778"
     inkscape:cx="2.3424958"
     inkscape:cy="13.235796"
     inkscape:window-x="-8"
     inkscape:window-y="-8"
     inkscape:window-maximized="1"
     inkscape:current-layer="detail_time" />
  <metadata
     id="metadata29">
    <rdf:RDF>
      <cc:Work
         rdf:about="">
        <dc:format>image/svg+xml</dc:format>
        <dc:type
           rdf:resource="http://purl.org/dc/dcmitype/StillImage" />
        <dc:title />
      </cc:Work>
    </rdf:RDF>
  </metadata>
  <g
     inkscape:groupmode="layer"
     id="layer1"
     inkscape:label="Layer 1" />
  <g
     id="g854"
     transform="translate(3.3675493,-1.3200072)">
    <ellipse
       ry="6.5619917"
       rx="6.7597609"
       cy="14.171171"
       cx="14.586621"
       id="path1016"
       style="fill:none;stroke-width:0.75757557" />
    <path
       inkscape:connector-curvature="0"
       id="path850"
       d="M 14.63245,3.4277344 A 11.205163,10.877335 0 0 0 3.4277344,14.304636 11.205163,10.877335 0 0 0 14.63245,25.181538 11.205163,10.877335 0 0 0 25.837167,14.304636 11.205163,10.877335 0 0 0 14.63245,3.4277344 Z m 0,1.600702 A 9.3490932,9.2757655 0 0 1 23.980977,14.304636 9.3490932,9.2757655 0 0 1 14.63245,23.580835 9.3490932,9.2757655 0 0 1 5.2839238,14.304636 9.3490932,9.2757655 0 0 1 14.63245,5.0284364 Z"
       style="fill:var(--local-primary);stroke-width:0.75757557" />
    <path
       inkscape:connector-curvature="0"
       id="path856-1"
       d="M 15.273706,4.2062179 8.8115851,6.0299686 5.558748,10.033182 4.3663415,14.170515 9.3432119,14.192382 A 5.2932366,5.1606173 0 0 1 14.63245,9.1439029 5.2932366,5.1606173 0 0 1 19.923191,14.237575 l 5.066976,0.02187 -2.24665,-6.7177003 z m 4.649485,10.0313571 -1.603892,-0.0073 a 3.6892256,3.5812905 0 0 1 0.003,0.07435 3.6892256,3.5812905 0 0 1 -3.689853,3.581899 3.6892256,3.5812905 0 0 1 -3.689852,-3.581899 3.6892256,3.5812905 0 0 1 0.006,-0.106422 l -1.6053931,-0.0058 a 5.2932366,5.1606173 0 0 0 -0.00451,0.112254 5.2932366,5.1606173 0 0 0 5.2937441,5.160733 5.2932366,5.1606173 0 0 0 5.293745,-5.160733 5.2932366,5.1606173 0 0 0 -0.003,-0.06706 z m -8.974586,-0.03936 7.370694,0.03207 a 3.6892256,3.5812905 0 0 0 -3.686849,-3.50755 3.6892256,3.5812905 0 0 0 -3.683845,3.475477 z"
       style="fill:var(--local-primary);stroke-width:1.08930635" />
    <path
       sodipodi:nodetypes="cccccccc"
       inkscape:connector-curvature="0"
       id="path842"
       d="m 14.721854,34.271524 9.238411,-14.84106 -2.80158,2.945697 -2.863055,1.759666 -4.64737,0.494155 -3.8726095,-1.227074 -4.5902201,-4.210855 z"
       style="fill:var(--local-primary);fill-opacity:1;stroke:var(--local-primary);stroke-width:1px;stroke-linecap:butt;stroke-linejoin:miter;stroke-opacity:1" />
  </g>
</svg>
