<?xml version="1.0" encoding="UTF-8" standalone="no"?>
<!-- Generator: Adobe Illustrator 15.0.0, SVG Export Plug-In . SVG Version: 6.00 Build 0)  -->

<svg
   xmlns:dc="http://purl.org/dc/elements/1.1/"
   xmlns:cc="http://creativecommons.org/ns#"
   xmlns:rdf="http://www.w3.org/1999/02/22-rdf-syntax-ns#"
   xmlns:svg="http://www.w3.org/2000/svg"
   xmlns="http://www.w3.org/2000/svg"
   xmlns:xlink="http://www.w3.org/1999/xlink"
   xmlns:sodipodi="http://sodipodi.sourceforge.net/DTD/sodipodi-0.dtd"
   xmlns:inkscape="http://www.inkscape.org/namespaces/inkscape"
   version="1.1"
   id="Layer_1"
   x="0px"
   y="0px"
   width="36px"
   height="36px"
   viewBox="0 0 36 36"
   enable-background="new 0 0 36 36"
   xml:space="preserve"
   sodipodi:docname="ico36_area_circle.svg"
   inkscape:version="0.92.2 (5c3e80d, 2017-08-06)"><metadata
     id="metadata29"><rdf:RDF><cc:Work
         rdf:about=""><dc:format>image/svg+xml</dc:format><dc:type
           rdf:resource="http://purl.org/dc/dcmitype/StillImage" /><dc:title></dc:title></cc:Work></rdf:RDF></metadata><defs
     id="defs27" /><sodipodi:namedview
     pagecolor="#ffffff"
     bordercolor="#666666"
     borderopacity="1"
     objecttolerance="10"
     gridtolerance="10"
     guidetolerance="10"
     inkscape:pageopacity="0"
     inkscape:pageshadow="2"
     inkscape:window-width="1156"
     inkscape:window-height="766"
     id="namedview25"
     showgrid="false"
     inkscape:pagecheckerboard="true"
     inkscape:zoom="6.5555556"
     inkscape:cx="18"
     inkscape:cy="18"
     inkscape:window-x="0"
     inkscape:window-y="0"
     inkscape:window-maximized="0"
     inkscape:current-layer="Layer_1" /><path
     style="fill:none;stroke:var(--local-primary);stroke-opacity:1"
     id="path2"
     d="M 18,35 C 27.373,35 35,27.374 35,18 35,8.626 27.373,1 18,1 8.626,1 1,8.626 1,18 1,27.374 8.626,35 18,35 Z"
     inkscape:connector-curvature="0" /><g
     style="stroke:var(--local-primary);stroke-opacity:1"
     id="g14"><g
       style="stroke:var(--local-primary);stroke-opacity:1"
       id="g12"><defs
         id="defs5"><path
           d="M 18,36 C 27.941,36 36,27.941 36,18 36,8.059 27.941,0 18,0 8.059,0 0,8.059 0,18 0,27.941 8.059,36 18,36 Z"
           id="SVGID_1_"
           inkscape:connector-curvature="0" /></defs><clipPath
         id="SVGID_2_"><use
           id="use7"
           overflow="visible"
           xlink:href="#SVGID_1_"
           style="overflow:visible"
           x="0"
           y="0"
           width="100%"
           height="100%" /></clipPath><path
         style="stroke:var(--local-primary);stroke-opacity:1"
         id="path10"
         d="m 18,7.299 c -4.142,0 -7.5,3.358 -7.5,7.5 0,6.145 7.5,13.903 7.5,13.903 0,0 7.5,-7.759 7.5,-13.903 0,-4.142 -3.357,-7.5 -7.5,-7.5 z m 0,12.133 c -2.071,0 -3.75,-1.68 -3.75,-3.75 0,-2.071 1.679,-3.75 3.75,-3.75 2.07,0 3.75,1.679 3.75,3.75 0,2.069 -1.68,3.75 -3.75,3.75 z"
         fill="var(--local-primary)"
         clip-path="url(#SVGID_2_)"
         inkscape:connector-curvature="0" /></g></g><g
     style="stroke:var(--local-primary);stroke-opacity:1"
     id="g20"><g
       style="stroke:var(--local-primary);stroke-opacity:1"
       id="g18"><path
         style="fill:none;stroke:var(--local-primary);stroke-width:2;stroke-opacity:1"
         id="path16"
         d="M 18,35 C 27.373,35 35,27.374 35,18 35,8.626 27.373,1 18,1 8.626,1 1,8.626 1,18 1,27.374 8.626,35 18,35 Z"
         inkscape:connector-curvature="0" /></g></g></svg>