<?xml version="1.0" encoding="UTF-8" standalone="no"?>
<svg 
	xmlns:dc="http://purl.org/dc/elements/1.1/" 
	xmlns:cc="http://creativecommons.org/ns#" 
	xmlns:rdf="http://www.w3.org/1999/02/22-rdf-syntax-ns#" 
	xmlns:svg="http://www.w3.org/2000/svg" 
	xmlns="http://www.w3.org/2000/svg" viewBox="0 0 36 36" height="36px" width="36px" id="Layerdetail_travelaction" version="1.1">
	<metadata id="metadata29">
		<rdf:RDF>
			<cc:Work rdf:about="">
				<dc:format>image/svg+xml</dc:format>
				<dc:type rdf:resource="http://purl.org/dc/dcmitype/StillImage" />
				<dc:title></dc:title>
			</cc:Work>
		</rdf:RDF>
	</metadata>
	<path style="fill:var(--local-primary);fill-opacity:1;stroke:none" d="M 5.5956866,2.0222158 C 3.0723637,1.9741327 0.69471964,3.9003417 0.16694387,6.4079576 -0.32668473,8.6140661 0.57826203,10.824984 1.605163,12.728003 c 1.1016165,1.979085 2.4706887,3.798549 3.9905236,5.463428 1.9953963,-2.215625 3.8120566,-4.668777 4.9318714,-7.468788 0.69509,-1.7284344 0.94659,-3.769533 0.09123,-5.4910592 C 9.7225627,3.2984735 7.700247,1.9984666 5.5956866,2.0222158 Z M 5.5743421,5.5118615 C 5.7685076,5.5104473 5.962836,5.5322743 6.1566173,5.5789739 7.7237169,5.8586226 8.7744847,7.6660412 8.2566891,9.1969145 7.9160235,10.358589 6.7891364,11.20422 5.5956917,11.186486 4.0017826,11.235837 2.6130982,9.6715284 2.8240638,8.0639643 2.925055,6.6505848 4.2151878,5.521768 5.5743421,5.5118667 Z" id="path5" />
	<path style="fill:var(--local-primary);fill-opacity:1;stroke:none" d="m 30.436213,14.800449 c -2.523323,-0.04808 -4.900967,1.878127 -5.428743,4.385743 -0.493629,2.206107 0.411318,4.417026 1.438218,6.320047 1.101618,1.979082 2.47069,3.798544 3.990525,5.463424 1.995396,-2.215626 3.812055,-4.668776 4.931871,-7.468787 0.695089,-1.728432 0.946588,-3.769533 0.09123,-5.491058 -0.89622,-1.93311 -2.918537,-3.233118 -5.023096,-3.209369 z m -0.02135,3.489647 c 0.194165,-0.0014 0.388494,0.02041 0.582275,0.06712 1.5671,0.279648 2.617868,2.087068 2.100072,3.61794 -0.340666,1.161674 -1.467552,2.007306 -2.660997,1.989571 -1.59391,0.04935 -2.982594,-1.514956 -2.771628,-3.12252 0.10099,-1.413381 1.391124,-2.542197 2.750278,-2.552098 z" id="path5-7" />
	<path style="fill:var(--local-primary);fill-opacity:1;stroke:none" id="path848" d="m 5.4296875,18.3125 -0.015625,1.292969 c 2.8042116,0.03515 7.7399995,0.759079 10.4082035,1.810547 0.667051,0.262866 1.188434,0.54947 1.472656,0.792968 0.284221,0.243499 0.289703,0.329673 0.273437,0.40625 -0.01627,0.07658 -0.185196,0.36336 -0.771484,0.710938 -0.586288,0.347578 -1.531529,0.742407 -2.875,1.146484 -3.386998,0.785638 -5.9244361,1.489134 -7.7382812,2.125 -1.8229439,0.639056 -2.9163809,1.155939 -3.5390626,1.826172 -0.3113408,0.335117 -0.5173673,0.831619 -0.3828124,1.292969 0.1345548,0.46135 0.4811353,0.735635 0.8652343,0.953125 0.7681981,0.434979 1.8841826,0.711198 3.328125,0.953125 5.7757699,0.967709 16.6471349,1.050885 24.0722659,0.794922 L 30.484375,31.125 C 23.114074,31.379073 12.190334,31.272908 6.6679688,30.347656 5.2873776,30.116343 4.2345737,29.811562 3.7636719,29.544922 3.528221,29.411602 3.490029,29.305934 3.5039062,29.353516 c 0.013877,0.04758 -0.047306,0.09669 0.087891,-0.04883 0.2703934,-0.291043 1.2724372,-0.873178 3.0214843,-1.486329 1.7490472,-0.61315 4.2556598,-1.311705 7.6406248,-2.095703 l 0.01953,-0.0059 0.01953,-0.0059 c 1.403172,-0.422035 2.428747,-0.835556 3.164062,-1.271485 0.735315,-0.435928 1.239386,-0.907045 1.376953,-1.554687 0.137568,-0.647643 -0.224822,-1.253451 -0.697265,-1.658204 C 17.664276,20.82181 17.039715,20.503671 16.296875,20.210938 13.325513,19.040004 8.4258249,18.350058 5.4296875,18.3125 Z" />
</svg>