<?xml version="1.0" encoding="utf-8"?>
<!-- Generator: Adobe Illustrator 15.0.0, SVG Export Plug-In . SVG Version: 6.00 Build 0)  -->
<!DOCTYPE svg PUBLIC "-//W3C//DTD SVG 1.1//EN" "http://www.w3.org/Graphics/SVG/1.1/DTD/svg11.dtd">
<svg version="1.1" id="Layer_1" xmlns="http://www.w3.org/2000/svg" xmlns:xlink="http://www.w3.org/1999/xlink" x="0px" y="0px"
	 width="36px" height="36px" viewBox="0 0 36 36" enable-background="new 0 0 36 36" xml:space="preserve">
<g>
	<path fill="#FFFFFF" d="M18,35c9.374,0,17-7.626,17-17S27.374,1,18,1S1,8.626,1,18S8.626,35,18,35L18,35z"/>
	<g>
		<g>
			<defs>
				<path id="SVGID_1_" d="M18,36c9.941,0,18-8.059,18-18c0-9.941-8.059-18-18-18C8.059,0,0,8.059,0,18C0,27.941,8.059,36,18,36
					L18,36z"/>
			</defs>
			<clipPath id="SVGID_2_">
				<use xlink:href="#SVGID_1_"  overflow="visible"/>
			</clipPath>
			<path clip-path="url(#SVGID_2_)" d="M11.333,10.534C9.111,12.519,8,15.008,8,18c0,2.52,0.844,4.741,2.533,6.667
				C12.518,26.889,15.007,28,18,28c2.518,0,4.741-0.844,6.667-2.533C26.889,23.482,28,20.993,28,18c0-2.518-0.844-4.74-2.533-6.667
				C23.48,9.111,20.993,8,18,8C15.481,8,13.259,8.845,11.333,10.534L11.333,10.534L11.333,10.534z M13.067,24.089
				c-1.927-1.569-2.889-3.6-2.889-6.089c0-1.836,0.578-3.481,1.733-4.933c1.57-1.926,3.6-2.889,6.089-2.889
				c1.836,0,3.48,0.578,4.934,1.733c1.926,1.571,2.89,3.6,2.89,6.089c0,1.838-0.578,3.482-1.734,4.934
				c-1.569,1.928-3.601,2.89-6.088,2.89C16.163,25.822,14.518,25.244,13.067,24.089L13.067,24.089L13.067,24.089z M17.245,12.356
				v5.956L20.934,22L22,20.934l-3.245-3.245v-5.333H17.245L17.245,12.356z"/>
		</g>
	</g>
	<g>
		<g>
			<path fill="none" stroke="#000000" stroke-width="2" d="M18,35c9.374,0,17-7.626,17-17S27.374,1,18,1S1,8.626,1,18
				S8.626,35,18,35L18,35z"/>
		</g>
	</g>
</g>
</svg>
