<?xml version="1.0" encoding="UTF-8" standalone="no"?>
<!-- Created with Inkscape (http://www.inkscape.org/) -->

<svg
   xmlns:dc="http://purl.org/dc/elements/1.1/"
   xmlns:cc="http://creativecommons.org/ns#"
   xmlns:rdf="http://www.w3.org/1999/02/22-rdf-syntax-ns#"
   xmlns:svg="http://www.w3.org/2000/svg"
   xmlns="http://www.w3.org/2000/svg"
   xmlns:sodipodi="http://sodipodi.sourceforge.net/DTD/sodipodi-0.dtd"
   xmlns:inkscape="http://www.inkscape.org/namespaces/inkscape"
   width="32"
   height="32"
   viewBox="0 0 8.4666667 8.4666667"
   version="1.1"
   id="svg314"
   inkscape:version="0.92.2 (5c3e80d, 2017-08-06)">
  <defs
     id="defs308" />
  <sodipodi:namedview
     id="base"
     pagecolor="#ffffff"
     bordercolor="#666666"
     borderopacity="1.0"
     inkscape:pageopacity="0.0"
     inkscape:pageshadow="2"
     inkscape:zoom="126.71353"
     inkscape:cx="6.8232377"
     inkscape:cy="15.937469"
     inkscape:document-units="mm"
     inkscape:current-layer="layer1"
     showgrid="true"
     units="px"
     inkscape:window-width="1920"
     inkscape:window-height="1137"
     inkscape:window-x="1912"
     inkscape:window-y="-8"
     inkscape:window-maximized="1">
    <inkscape:grid
       type="xygrid"
       id="grid381" />
  </sodipodi:namedview>
  <metadata
     id="metadata311">
    <rdf:RDF>
      <cc:Work
         rdf:about="">
        <dc:format>image/svg+xml</dc:format>
        <dc:type
           rdf:resource="http://purl.org/dc/dcmitype/StillImage" />
        <dc:title></dc:title>
      </cc:Work>
    </rdf:RDF>
  </metadata>
  <g
     inkscape:label="Layer 1"
     inkscape:groupmode="layer"
     id="layer1"
     transform="translate(0,-288.53333)">
    <path
       style="fill:var(--local-primary);stroke-width:0.26458332"
       id="path318-1"
       sodipodi:type="arc"
       sodipodi:cx="5.6799693"
       sodipodi:cy="293.97937"
       sodipodi:rx="1.1820526"
       sodipodi:ry="1.2127068"
       sodipodi:start="5.678708"
       sodipodi:end="5.6035887"
       d="m 6.6525613,293.29015 a 1.1820526,1.2127068 0 0 1 -0.282648,1.67392 1.1820526,1.2127068 0 0 1 -1.6366235,-0.2585 1.1820526,1.2127068 0 0 1 0.2211807,-1.68362 1.1820526,1.2127068 0 0 1 1.6449304,0.19526"
       sodipodi:open="true" />
    <path
       id="path375"
       transform="matrix(0.26458333,0,0,0.26458333,0,288.53333)"
       style="fill:var(--local-primary);font-style:normal;font-variant:normal;font-weight:normal;font-stretch:normal;font-size:medium;line-height:normal;font-family:sans-serif;font-variant-ligatures:normal;font-variant-position:normal;font-variant-caps:normal;font-variant-numeric:normal;font-variant-alternates:normal;font-feature-settings:normal;text-indent:0;text-align:start;text-decoration:none;text-decoration-line:none;text-decoration-style:solid;text-decoration-color:#000000;letter-spacing:normal;word-spacing:normal;text-transform:none;writing-mode:lr-tb;direction:ltr;text-orientation:mixed;dominant-baseline:auto;baseline-shift:baseline;text-anchor:start;white-space:normal;shape-padding:0;clip-rule:nonzero;display:inline;overflow:visible;visibility:visible;opacity:1;isolation:auto;mix-blend-mode:normal;color-interpolation:sRGB;color-interpolation-filters:linearRGB;solid-color:#000000;solid-opacity:1;vector-effect:none;fill:#502d16;fill-opacity:1;fill-rule:nonzero;stroke:none;stroke-width:0.99999994px;stroke-linecap:butt;stroke-linejoin:miter;stroke-miterlimit:4;stroke-dasharray:none;stroke-dashoffset:0;stroke-opacity:1;color-rendering:auto;image-rendering:auto;shape-rendering:auto;text-rendering:auto;enable-background:accumulate"
       d="m 26,3 -10,3 -9,3 0.087891,7.53125 -0.0625,6.689453 1.9335938,2.722656 c -0.00719,-0.01627 -0.016749,-0.02944 -0.015625,-0.05469 -0.0023,0.004 -0.00206,-1.24e-4 -0.00586,0.0059 6.897e-4,-0.0026 0.00172,-0.0093 0.00391,-0.01563 2.45e-4,-0.0024 -3.323e-4,-0.0034 0,-0.0059 0.00313,-0.02366 0.00975,-0.03031 0.011719,-0.04687 -1.968e-4,-0.005 -0.00444,-0.01228 0,-0.01367 h 0.00195 c 3.39e-4,-0.0018 0.00168,-0.0037 0.00195,-0.0059 -0.025972,-0.02 -0.046959,-0.05386 -0.037109,-0.113282 0.00499,-0.03024 0.010031,-0.06156 0.015625,-0.0918 0.00488,-0.02646 0.010409,-0.05205 0.015625,-0.07812 0.00274,-0.01512 0.00181,-0.03005 0.00781,-0.04102 0.00266,-0.0053 0.00718,-0.0091 0.00977,-0.01563 5.49e-5,-0.03253 0.018461,-0.04135 0.03125,-0.05859 V 16 11 l 9,-3 6,-2 v 5 8 l 1.835938,1.835938 c 1.7e-4,-0.0019 -0.0023,-0.0041 -0.002,-0.0059 0.0044,-0.02268 0.01631,-0.04247 0.02734,-0.0625 0.0033,-0.01134 0.0054,-0.01991 0.0098,-0.03125 0.0061,-0.01134 0.01445,-0.02577 0.02148,-0.03711 0.0015,-0.0025 0.0025,-0.0053 0.0039,-0.0078 -0.0018,0.01686 -0.0047,0.05941 -0.002,0.04492 0.003,-0.01666 0.0025,-0.0329 0.0039,-0.04883 4.94e-4,-0.0057 0.0013,-0.01176 0.002,-0.01758 0.0046,-0.01512 0.0023,-0.0062 0.0059,-0.01758 0.0081,-0.02538 0.02063,-0.03957 0.0332,-0.05273 -0.04557,0.0052 -0.07925,-0.03191 -0.05273,-0.115234 0.0234,-0.06917 0.0299,-0.11556 0.07617,-0.171875 0.03532,-0.043 0.01585,-0.01057 0.03711,-0.0293 v -0.002 c -0.0027,0.0012 -0.0052,0.0018 -0.0078,0.002 2.6e-4,-0.0012 -2.65e-4,-0.0027 0,-0.0039 0.0014,-0.0062 0.006,-0.0063 0.0078,-0.01172 V 10 Z m 0,17.564453 c -0.0016,0.0015 -0.0023,0.0044 -0.0039,0.0059 0.0014,-3.5e-5 0.0026,-0.002 0.0039,-0.002 z m 0,0.273438 c -5.92e-4,0.0013 -0.0014,0.0026 -0.002,0.0039 5.4e-4,0.0013 0.0014,0.0027 0.002,0.0039 z M 8.96875,25.501953 c 0.00803,0.03118 0.013274,0.04725 0.03125,0.05469 v -0.03516 c -0.02079,0.0052 -0.0247,0.0032 -0.029297,-0.01953 0,0 -0.00195,0 -0.00195,0 z" />
    <path
       style="fill:var(--local-primary);stroke-width:0.26458332"
       id="path318-1-3"
       sodipodi:type="arc"
       sodipodi:cx="1.2331372"
       sodipodi:cy="295.37463"
       sodipodi:rx="1.1358955"
       sodipodi:ry="1.2027128"
       sodipodi:start="5.7067645"
       sodipodi:end="5.6296693"
       d="m 2.1854934,294.71912 a 1.1358955,1.2027128 0 0 1 -0.3150235,1.65107 1.1358955,1.2027128 0 0 1 -1.56512263,-0.30167 1.1358955,1.2027128 0 0 1 0.25469549,-1.6627 1.1358955,1.2027128 0 0 1 1.57493994,0.23759"
       sodipodi:open="true" />
    <path
       style="fill:var(--local-primary);stroke-width:0.06313454"
       d="M 4.1342694,30.332741 C 2.5660001,30.135516 1.1859479,28.956347 0.63441218,27.34233 0.38856803,26.62289 0.34676245,25.480891 0.53851167,24.722626 0.95560021,23.073265 2.1895603,21.816418 3.7660022,21.435276 c 0.4778851,-0.11554 1.3956059,-0.0998 1.8929571,0.03247 0.3891997,0.103507 1.0695463,0.404723 1.247258,0.55221 0.045483,0.03775 0.1033191,0.04799 0.128523,0.02275 0.025203,-0.02523 0.041312,-2.968271 0.035797,-6.540079 L 7.0605087,9.0084311 11.710925,7.4608832 c 2.893109,-0.9627578 6.445191,-2.0853178 9.399983,-2.9706649 2.612262,-0.7827144 4.778566,-1.423117 4.814008,-1.423117 0.04352,0 0.0638,2.7716427 0.06247,8.5389457 -0.0023,10.141658 0.01121,9.908024 -0.649236,11.190596 -0.3039,0.590162 -1.05804,1.386613 -1.633253,1.724886 -1.685074,0.99096 -3.770474,0.763097 -5.195464,-0.567687 -1.026947,-0.959055 -1.552818,-2.257045 -1.465493,-3.617227 0.04679,-0.728768 0.172033,-1.194804 0.501128,-1.864687 0.211428,-0.430368 0.376634,-0.65079 0.834213,-1.113024 0.493656,-0.49868 0.651428,-0.614885 1.170352,-0.862012 0.76052,-0.362181 1.138832,-0.450385 1.925603,-0.448957 0.777631,0.0014 1.271201,0.122083 2.004521,0.490084 l 0.552428,0.277223 v -5.421976 c 0,-2.9820869 -0.02131,-5.4197682 -0.04735,-5.4170696 -0.02604,0.0027 -3.414,1.1320176 -7.528793,2.5095977 l -7.4814427,2.5046909 -0.032943,7.828683 -0.032944,7.828682 -0.1447934,0.471781 c -0.2507097,0.81689 -0.6111517,1.427498 -1.1761995,1.992546 -0.9575116,0.957512 -2.1614977,1.38304 -3.4534524,1.220564 z"
       id="path4115"
       inkscape:connector-curvature="0"
       transform="matrix(0.26458333,0,0,0.26458333,0,288.53333)" />
  </g>
</svg>
