<?xml version="1.0" encoding="utf-8"?>
<!-- Generator: Adobe Illustrator 15.0.0, SVG Export Plug-In . SVG Version: 6.00 Build 0)  -->
<!DOCTYPE svg PUBLIC "-//W3C//DTD SVG 1.1//EN" "http://www.w3.org/Graphics/SVG/1.1/DTD/svg11.dtd">
<svg version="1.1" id="Layer_1" xmlns="http://www.w3.org/2000/svg" xmlns:xlink="http://www.w3.org/1999/xlink" x="0px" y="0px"
	 width="36px" height="36px" viewBox="0 0 36 36" enable-background="new 0 0 36 36" xml:space="preserve">
<path fill="#CCD2D2" d="M18,36c9.941,0,18-8.059,18-18c0-9.941-8.059-18-18-18C8.059,0,0,8.059,0,18C0,27.941,8.059,36,18,36L18,36z
	"/>
<path fill="#FFFFFF" d="M27.611,18c0-1.657-1.342-3-3-3c-1.213,0-2.252,0.724-2.725,1.76h-7.775c-0.471-1.036-1.51-1.76-2.724-1.76
	c-1.657,0-3,1.343-3,3s1.343,3,3,3c1.213,0,2.253-0.725,2.725-1.76h7.774c0.473,1.035,1.512,1.76,2.725,1.76
	C26.27,21,27.611,19.657,27.611,18L27.611,18z"/>
</svg>
