<?xml version="1.0" encoding="UTF-8" standalone="no"?>
<svg
   xmlns:osb="http://www.openswatchbook.org/uri/2009/osb"
   xmlns:dc="http://purl.org/dc/elements/1.1/"
   xmlns:cc="http://creativecommons.org/ns#"
   xmlns:rdf="http://www.w3.org/1999/02/22-rdf-syntax-ns#"
   xmlns:svg="http://www.w3.org/2000/svg"
   xmlns="http://www.w3.org/2000/svg"
   xmlns:sodipodi="http://sodipodi.sourceforge.net/DTD/sodipodi-0.dtd"
   xmlns:inkscape="http://www.inkscape.org/namespaces/inkscape"
   version="1.1"
   id="svg4362"
   viewBox="0 0 35.999999 35.999999"
   height="36"
   width="36"
   sodipodi:docname="ico36_uc_postdoc.svg"
   inkscape:version="0.92.2 (5c3e80d, 2017-08-06)">
  <sodipodi:namedview
     pagecolor="#ffffff"
     bordercolor="#666666"
     borderopacity="1"
     objecttolerance="10"
     gridtolerance="10"
     guidetolerance="10"
     inkscape:pageopacity="0"
     inkscape:pageshadow="2"
     inkscape:window-width="2560"
     inkscape:window-height="1377"
     id="namedview38"
     showgrid="false"
     inkscape:object-nodes="true"
     inkscape:snap-others="true"
     inkscape:snap-global="false"
     inkscape:zoom="8"
     inkscape:cx="-31.8372"
     inkscape:cy="50.53675"
     inkscape:window-x="-8"
     inkscape:window-y="-8"
     inkscape:window-maximized="1"
     inkscape:current-layer="svg4362"
     inkscape:snap-bbox="true"
     inkscape:snap-bbox-midpoints="true"
     inkscape:snap-bbox-edge-midpoints="true"
     inkscape:bbox-nodes="true"
     inkscape:snap-nodes="true"
     inkscape:snap-midpoints="true"
     inkscape:snap-smooth-nodes="true"
     inkscape:snap-intersection-paths="true"
     inkscape:object-paths="true"
     inkscape:snap-object-midpoints="true"
     inkscape:snap-center="true" />
  <defs
     id="defs4364">
    <linearGradient
       id="linearGradient6111"
       osb:paint="solid">
      <stop
         style="stop-color:var(--local-primary);stop-opacity:1;"
         offset="0"
         id="stop6109" />
    </linearGradient>
    <linearGradient
       inkscape:collect="always"
       id="linearGradient6103"
       osb:paint="gradient">
      <stop
         style="stop-color:var(--local-primary);stop-opacity:1;"
         offset="0"
         id="stop6099" />
      <stop
         style="stop-color:var(--local-primary);stop-opacity:0;"
         offset="1"
         id="stop6101" />
    </linearGradient>
  </defs>
  <metadata
     id="metadata4367">
    <rdf:RDF>
      <cc:Work
         rdf:about="">
        <dc:format>image/svg+xml</dc:format>
        <dc:type
           rdf:resource="http://purl.org/dc/dcmitype/StillImage" />
        <dc:title></dc:title>
      </cc:Work>
    </rdf:RDF>
  </metadata>
  <path
     sodipodi:type="inkscape:offset"
     inkscape:radius="0.1875"
     inkscape:original="M 9.15625 11.25 C 7.5943197 11.25 5.5548278 11.528655 4.53125 12.484375 C 4.2753557 12.723301 2.9416171 12.641884 2.65625 12.806641 C 2.562384 13.156952 2.5749282 13.646799 2.6601562 13.964844 C 3.1119853 13.964844 3.5749751 14.139727 3.5175781 15.417969 C 3.5008175 15.791062 3.5 16.166656 3.5 16.53125 C 3.5 17.989627 3.57017 19.497406 4.59375 20.453125 C 5.6173299 21.408843 7.5943197 21.8125 9.15625 21.8125 C 10.71818 21.8125 12.69517 21.096343 13.71875 20.140625 C 14.74233 19.184906 15.375 16.593316 15.375 15.15625 C 15.941773 14.541238 16.502545 14.4375 17.136719 14.4375 C 17.770894 14.4375 18.444038 14.549392 18.898438 15.15625 C 18.898438 16.615355 19.531105 19.184906 20.554688 20.140625 C 21.578267 21.096343 23.555258 21.8125 25.117188 21.8125 C 26.679118 21.8125 28.656105 21.408843 29.679688 20.453125 C 30.703267 19.497406 30.773435 17.989627 30.773438 16.53125 C 30.773438 16.166656 30.772615 15.791062 30.755859 15.417969 C 30.698459 14.139727 31.161452 13.964844 31.613281 13.964844 C 31.698501 13.646799 31.709004 13.156952 31.615234 12.806641 C 31.329867 12.641884 29.998081 12.723301 29.742188 12.484375 C 28.718611 11.528655 26.679117 11.25 25.117188 11.25 C 23.555256 11.25 20.828266 11.653656 19.804688 12.609375 C 18.878522 13.316001 18.071439 13.472656 17.136719 13.472656 C 16.201999 13.472656 15.29602 13.161964 14.46875 12.609375 C 13.445078 11.653656 10.71818 11.25 9.15625 11.25 z M 9.25 12.0625 C 10.647971 12.0625 12.976446 12.483263 13.892578 13.263672 C 14.80871 14.044081 14.4375 15.184136 14.3125 16.375 C 14.188183 17.559357 13.55871 18.955919 12.642578 19.736328 C 11.726446 20.516737 10.647971 20.6875 9.25 20.6875 C 7.8520292 20.6875 6.3360542 20.579237 5.4199219 19.798828 C 4.5037896 19.018419 4.625 17.565864 4.625 16.375 C 4.625 15.184136 4.4412896 13.856581 5.3574219 13.076172 C 6.2735542 12.295763 7.8520292 12.0625 9.25 12.0625 z M 25.113281 12.0625 C 26.511251 12.0625 28.089726 12.295763 29.005859 13.076172 C 29.921991 13.856581 29.738281 15.184136 29.738281 16.375 C 29.738281 17.565864 29.859491 19.018419 28.943359 19.798828 C 28.027226 20.579237 26.511251 20.6875 25.113281 20.6875 C 23.71531 20.6875 22.638788 20.516737 21.722656 19.736328 C 20.806524 18.955919 20.175098 17.559357 20.050781 16.375 C 19.925781 15.184136 19.556523 14.044081 20.472656 13.263672 C 21.388788 12.483263 23.71531 12.0625 25.113281 12.0625 z "
     style="fill:var(--local-primary);fill-opacity:1;stroke:none;stroke-width:1;stroke-linecap:butt;stroke-linejoin:miter;stroke-miterlimit:4;stroke-dasharray:none;stroke-dashoffset:0;stroke-opacity:1;paint-order:fill markers stroke"
     id="path6407"
     d="m 9.15625,11.0625 c -1.5842308,0 -3.6528074,0.257054 -4.7539062,1.285156 -7.054e-4,6.59e-4 -0.1105209,0.05366 -0.2636719,0.08008 -0.153151,0.02641 -0.3497573,0.04365 -0.5488281,0.05859 -0.1990709,0.01494 -0.4015566,0.02676 -0.578125,0.04687 -0.1765685,0.02011 -0.3173153,0.03517 -0.4492188,0.111328 a 0.18751875,0.18751875 0 0 0 -0.087891,0.113281 c -0.1062568,0.396554 -0.09259,0.895764 0.00391,1.25586 a 0.18751875,0.18751875 0 0 0 0.1816406,0.138672 c 0.2017236,0 0.3546602,0.02984 0.4746094,0.177734 0.1199492,0.147892 0.2229804,0.46391 0.1953125,1.080078 -0.017002,0.378456 -0.017578,0.75622 -0.017578,1.121094 0,1.464391 0.059987,3.038658 1.1523438,4.058594 C 5.5572007,21.609779 7.5620154,22 9.15625,22 c 1.619243,0 3.613951,-0.716635 4.691406,-1.722656 0.559498,-0.522404 0.970492,-1.430616 1.261719,-2.394532 0.2808,-0.929404 0.43423,-1.897123 0.445313,-2.634765 0.515744,-0.537699 0.984192,-0.623047 1.582031,-0.623047 0.598737,0 1.175377,0.101443 1.582031,0.615234 0.01011,0.748125 0.163505,1.720365 0.445312,2.650391 0.291284,0.9613 0.702746,1.864805 1.261719,2.386719 C 21.503235,21.283365 23.497944,22 25.117188,22 c 1.594234,0 3.599046,-0.390221 4.691406,-1.410156 1.092356,-1.019937 1.15234,-2.594203 1.152344,-4.058594 0,-0.364876 -5.82e-4,-0.742641 -0.01758,-1.121094 -0.02767,-0.616168 0.07536,-0.932186 0.195313,-1.080078 0.119949,-0.147892 0.272886,-0.177734 0.474609,-0.177734 a 0.18751875,0.18751875 0 0 0 0.181641,-0.138672 c 0.09668,-0.360816 0.107916,-0.859996 0.002,-1.25586 a 0.18751875,0.18751875 0 0 0 -0.08789,-0.113281 c -0.131823,-0.07611 -0.272827,-0.09121 -0.449218,-0.111328 -0.176391,-0.02011 -0.3793,-0.03193 -0.578125,-0.04687 -0.198825,-0.01494 -0.393917,-0.03218 -0.546875,-0.05859 -0.152959,-0.02641 -0.262881,-0.07934 -0.263672,-0.08008 -1.101098,-1.028102 -3.169677,-1.285156 -4.753906,-1.285156 -0.797119,0 -1.877942,0.102381 -2.898438,0.326172 -1.01232,0.221998 -1.962707,0.553944 -2.527344,1.072266 -0.895028,0.682869 -1.640917,0.824218 -2.554687,0.824218 -0.893171,0 -1.762768,-0.296531 -2.564453,-0.832031 -0.565729,-0.513713 -1.5105,-0.843602 -2.517578,-1.064453 C 11.034203,11.164881 9.9533671,11.0625 9.15625,11.0625 Z M 9.25,12.25 c 0.6801742,0 1.60239,0.103433 2.458984,0.302734 0.856595,0.199302 1.651465,0.503375 2.0625,0.853516 0.41424,0.352871 0.527467,0.76104 0.533204,1.261719 0.0057,0.500679 -0.113872,1.079081 -0.177735,1.6875 -0.119055,1.134223 -0.74112,2.501984 -1.605469,3.238281 C 11.650371,20.33581 10.632702,20.5 9.25,20.5 7.8617096,20.5 6.3859361,20.375997 5.5410156,19.65625 5.1297713,19.305931 4.9460993,18.800151 4.8652344,18.214844 4.7843694,17.629536 4.8125,16.976793 4.8125,16.375 c 0,-0.605074 -0.044077,-1.22848 0.021484,-1.78125 0.065561,-0.55277 0.2311273,-1.022841 0.6445312,-1.375 C 6.3277553,12.495324 7.8728865,12.25 9.25,12.25 Z m 15.863281,0 c 1.377113,0 2.922244,0.245324 3.771485,0.96875 0.413403,0.352159 0.57897,0.82223 0.644531,1.375 0.06556,0.55277 0.02148,1.176176 0.02148,1.78125 0,0.601793 0.02813,1.254536 -0.05273,1.839844 -0.08086,0.585307 -0.264537,1.091087 -0.675781,1.441406 C 27.977344,20.375997 26.501571,20.5 25.113281,20.5 c -1.382702,0 -2.398317,-0.164105 -3.269531,-0.90625 -0.864448,-0.736382 -1.488388,-2.104261 -1.607422,-3.238281 -0.06385,-0.608318 -0.183931,-1.186831 -0.177734,-1.6875 0.0062,-0.500669 0.120866,-0.908805 0.535156,-1.261719 0.411085,-0.350184 1.204449,-0.654218 2.060547,-0.853516 C 23.510395,12.353437 24.433107,12.25 25.113281,12.25 Z"
     transform="matrix(1.1781377,0,0,1.1781377,-2.1887782,-1.4760889)" />
</svg>
