<?xml version="1.0" encoding="utf-8"?>
<!-- Generator: Adobe Illustrator 15.0.0, SVG Export Plug-In . SVG Version: 6.00 Build 0)  -->
<!DOCTYPE svg PUBLIC "-//W3C//DTD SVG 1.1//EN" "http://www.w3.org/Graphics/SVG/1.1/DTD/svg11.dtd">
<svg version="1.1" id="Layer_1" xmlns="http://www.w3.org/2000/svg" xmlns:xlink="http://www.w3.org/1999/xlink" x="0px" y="0px"
	 width="36px" height="36px" viewBox="0 0 36 36" enable-background="new 0 0 36 36" xml:space="preserve">
<g>
	<path fill="var(--local-primary)" d="M18,36C27.942,36,36,27.941,36,18C36,8.059,27.942,0,18,0C8.059,0,0,8.059,0,18C0,27.941,8.059,36,18,36
		L18,36z"/>
	<polyline fill="none" stroke="#FFFFFF" stroke-width="1.5" stroke-linejoin="round" stroke-miterlimit="10" points="26.381,12.566 
		21.928,23.435 18.083,12.609 14.237,23.435 9.785,12.566 	"/>
	<path fill="#FFFFFF" d="M11.564,13.15c0,0.846-0.687,1.532-1.532,1.532S8.5,13.996,8.5,13.15c0-0.846,0.687-1.532,1.532-1.532
		S11.564,12.304,11.564,13.15L11.564,13.15z"/>
	<path fill="none" stroke="#FFFFFF" stroke-miterlimit="10" d="M11.564,13.15c0,0.846-0.687,1.532-1.532,1.532S8.5,13.996,8.5,13.15
		c0-0.846,0.687-1.532,1.532-1.532S11.564,12.304,11.564,13.15L11.564,13.15z"/>
	<path fill="#FFFFFF" d="M15.583,22.851c0,0.846-0.687,1.532-1.532,1.532s-1.531-0.687-1.531-1.532c0-0.847,0.686-1.532,1.531-1.532
		S15.583,22.004,15.583,22.851L15.583,22.851z"/>
	<path fill="none" stroke="#FFFFFF" stroke-miterlimit="10" d="M15.583,22.851c0,0.846-0.687,1.532-1.532,1.532
		s-1.531-0.687-1.531-1.532c0-0.847,0.686-1.532,1.531-1.532S15.583,22.004,15.583,22.851L15.583,22.851z"/>
	<path fill="#FFFFFF" d="M19.615,13.194c0,0.846-0.687,1.532-1.532,1.532s-1.532-0.686-1.532-1.532s0.687-1.532,1.532-1.532
		S19.615,12.348,19.615,13.194L19.615,13.194z"/>
	<path fill="none" stroke="#FFFFFF" stroke-miterlimit="10" d="M19.615,13.194c0,0.846-0.687,1.532-1.532,1.532
		s-1.532-0.686-1.532-1.532s0.687-1.532,1.532-1.532S19.615,12.348,19.615,13.194L19.615,13.194z"/>
	<path fill="#FFFFFF" d="M23.645,22.851c0,0.846-0.686,1.532-1.531,1.532s-1.531-0.687-1.531-1.532c0-0.847,0.686-1.532,1.531-1.532
		S23.645,22.004,23.645,22.851L23.645,22.851z"/>
	<path fill="none" stroke="#FFFFFF" stroke-miterlimit="10" d="M23.645,22.851c0,0.846-0.686,1.532-1.531,1.532
		s-1.531-0.687-1.531-1.532c0-0.847,0.686-1.532,1.531-1.532S23.645,22.004,23.645,22.851L23.645,22.851z"/>
	<path fill="#FFFFFF" d="M27.5,13.15c0,0.846-0.686,1.532-1.531,1.532s-1.533-0.686-1.533-1.532c0-0.846,0.688-1.532,1.533-1.532
		S27.5,12.304,27.5,13.15L27.5,13.15z"/>
	<path fill="none" stroke="#FFFFFF" stroke-miterlimit="10" d="M27.5,13.15c0,0.846-0.686,1.532-1.531,1.532
		s-1.533-0.686-1.533-1.532c0-0.846,0.688-1.532,1.533-1.532S27.5,12.304,27.5,13.15L27.5,13.15z"/>
</g>
</svg>
