<?xml version="1.0" encoding="UTF-8" standalone="no"?>
<svg
   xmlns:dc="http://purl.org/dc/elements/1.1/"
   xmlns:cc="http://creativecommons.org/ns#"
   xmlns:rdf="http://www.w3.org/1999/02/22-rdf-syntax-ns#"
   xmlns:svg="http://www.w3.org/2000/svg"
   xmlns="http://www.w3.org/2000/svg"
   xml:space="preserve"
   enable-background="new 0 0 36 36"
   viewBox="0 0 36 36"
   height="36px"
   width="36px"
   y="0px"
   x="0px"
   id="Layer_1"
   version="1.1"><metadata
     id="metadata13"><rdf:RDF><cc:Work
         rdf:about=""><dc:format>image/svg+xml</dc:format><dc:type
           rdf:resource="http://purl.org/dc/dcmitype/StillImage" /><dc:title></dc:title></cc:Work></rdf:RDF></metadata><defs
     id="defs11"><clipPath
       clipPathUnits="userSpaceOnUse"
       id="clipPath6471"><path
         d="m 0,0 1440,0 0,900 L 0,900 0,0 Z"
         id="path6473" /></clipPath><clipPath
       clipPathUnits="userSpaceOnUse"
       id="clipPath6507"><path
         d="m 0,0 1440,0 0,900 L 0,900 0,0 Z"
         id="path6509" /></clipPath><clipPath
       clipPathUnits="userSpaceOnUse"
       id="clipPath6507-9"><path
         d="m 0,0 1440,0 0,900 L 0,900 0,0 Z"
         id="path6509-2" /></clipPath><clipPath
       clipPathUnits="userSpaceOnUse"
       id="clipPath6543"><path
         d="m 0,0 1440,0 0,900 L 0,900 0,0 Z"
         id="path6545" /></clipPath></defs><g
     id="g4364"><g
       id="g6547"
       transform="matrix(1.1889831,0,0,-1.1889831,18.000035,34.645764)"><path
         d="M 0,0 C 7.732,0 14,6.268 14,14 14,21.732 7.732,28 0,28 -7.732,28 -14,21.732 -14,14 -14,6.268 -7.732,0 0,0 Z"
         style="fill:none;stroke:var(--local-primary);stroke-width:2;stroke-linecap:butt;stroke-linejoin:miter;stroke-miterlimit:10;stroke-dasharray:none;stroke-opacity:1"
         id="path6549" /></g><g
       id="g6551"
       transform="matrix(1.1889831,0,0,-1.1889831,10.853414,26.827962)"><path
         d="M 0,0 C 3.32,3.32 8.702,3.32 12.021,0"
         style="fill:none;stroke:var(--local-primary);stroke-width:2;stroke-linecap:butt;stroke-linejoin:miter;stroke-miterlimit:10;stroke-dasharray:none;stroke-opacity:1"
         id="path6553" /></g><g
       id="g6555"
       transform="matrix(1.1889831,0,0,-1.1889831,12.649611,15.027542)"
       style="fill:var(--local-primary)"><path
         d="M 0,0 C 0.552,0 1,0.448 1,1 1,1.552 0.552,2 0,2 -0.552,2 -1,1.552 -1,1 -1,0.448 -0.552,0 0,0"
         style="fill:var(--local-primary);fill-opacity:1;fill-rule:nonzero;stroke:none"
         id="path6557" /></g><g
       id="g6559"
       transform="matrix(1.1889831,0,0,-1.1889831,12.649611,15.027542)"
       style="fill:var(--local-primary)"><path
         d="M 0,0 C 0.552,0 1,0.448 1,1 1,1.552 0.552,2 0,2 -0.552,2 -1,1.552 -1,1 -1,0.448 -0.552,0 0,0 Z"
         style="fill:var(--local-primary);stroke:var(--local-primary);stroke-width:3;stroke-linecap:butt;stroke-linejoin:miter;stroke-miterlimit:10;stroke-dasharray:none;stroke-opacity:1"
         id="path6561" /></g><g
       id="g6563"
       transform="matrix(1.1889831,0,0,-1.1889831,23.350459,15.027542)"
       style="fill:var(--local-primary)"><path
         d="M 0,0 C 0.552,0 1,0.448 1,1 1,1.552 0.552,2 0,2 -0.552,2 -1,1.552 -1,1 -1,0.448 -0.552,0 0,0"
         style="fill:var(--local-primary);fill-opacity:1;fill-rule:nonzero;stroke:none"
         id="path6565" /></g><g
       id="g6567"
       transform="matrix(1.1889831,0,0,-1.1889831,23.350459,15.027542)"
       style="fill:var(--local-primary)"><path
         d="M 0,0 C 0.552,0 1,0.448 1,1 1,1.552 0.552,2 0,2 -0.552,2 -1,1.552 -1,1 -1,0.448 -0.552,0 0,0 Z"
         style="fill:var(--local-primary);stroke:var(--local-primary);stroke-width:3;stroke-linecap:butt;stroke-linejoin:miter;stroke-miterlimit:10;stroke-dasharray:none;stroke-opacity:1"
         id="path6569" /></g></g></svg>
