<?xml version="1.0" encoding="UTF-8" standalone="no"?>
<svg 
	xmlns:dc="http://purl.org/dc/elements/1.1/" 
	xmlns:cc="http://creativecommons.org/ns#" 
	xmlns:rdf="http://www.w3.org/1999/02/22-rdf-syntax-ns#" 
	xmlns:svg="http://www.w3.org/2000/svg" 
	xmlns="http://www.w3.org/2000/svg" viewBox="0 0 36 36" height="36px" width="36px" id="detail_number-of-rooms" version="1.1">
	<metadata id="metadata29">
		<rdf:RDF>
			<cc:Work rdf:about="">
				<dc:format>image/svg+xml</dc:format>
				<dc:type rdf:resource="http://purl.org/dc/dcmitype/StillImage" />
				<dc:title></dc:title>
			</cc:Work>
		</rdf:RDF>
	</metadata>
	<path id="path849" d="m 26.619141,22.344174 v 5.724185 H 5.8535156 v -11.99414 -0.04492 -4.791016 l 7.6816414,0 v -1.201174 l -8.8808601,0 v 5.992188 0.04492 13.195312 H 27.818359 l 0.0039,-6.925355" style="fill:var(--local-primary);fill-opacity:1;stroke:none" />
	<path id="path855" d="m 19.568359,26.640607 0,1.984393 h 0.900391 l 0,-1.984393 z" style="fill:var(--local-primary);fill-opacity:1;stroke:none" />
	<path id="path862" d="m 5.2597656,18.939453 v 0.900391 h 4.6328125 v -0.900391 z" style="fill:var(--local-primary);fill-opacity:1;stroke:none" />
	<path d="m 24.957984,14.072707 -0.799629,4.119297 h 3.428709 v 1.56291 h -3.719482 l -1.017709,5.209699 h -1.659834 l 1.017708,-5.209699 h -3.67102 l -0.993478,5.209699 H 15.89553 l 0.969247,-5.209699 h -3.174282 v -1.56291 h 3.477171 l 0.82386,-4.119297 H 14.63551 v -1.538678 h 3.622558 l 0.993478,-5.2823929 h 1.684065 l -0.993477,5.2823929 h 3.695252 l 1.017708,-5.2823929 h 1.623488 l -1.017709,5.2823929 h 3.198513 v 1.538678 z m -6.130483,4.119297 h 3.67102 l 0.799628,-4.119297 h -3.67102 z" style="fill:var(--local-primary);fill-opacity:1;stroke:none" id="path825" />
</svg>