<?xml version="1.0" encoding="UTF-8" standalone="no"?>
<svg
   xmlns:osb="http://www.openswatchbook.org/uri/2009/osb"
   xmlns:dc="http://purl.org/dc/elements/1.1/"
   xmlns:cc="http://creativecommons.org/ns#"
   xmlns:rdf="http://www.w3.org/1999/02/22-rdf-syntax-ns#"
   xmlns:svg="http://www.w3.org/2000/svg"
   xmlns="http://www.w3.org/2000/svg"
   xmlns:sodipodi="http://sodipodi.sourceforge.net/DTD/sodipodi-0.dtd"
   xmlns:inkscape="http://www.inkscape.org/namespaces/inkscape"
   version="1.1"
   id="svg4362"
   viewBox="0 0 35.999999 35.999999"
   height="36"
   width="36"
   sodipodi:docname="ico36_uc_consortium.svg"
   inkscape:version="0.92.2 (5c3e80d, 2017-08-06)">
  <sodipodi:namedview
     pagecolor="#ffffff"
     bordercolor="#666666"
     borderopacity="1"
     objecttolerance="10"
     gridtolerance="10"
     guidetolerance="10"
     inkscape:pageopacity="0"
     inkscape:pageshadow="2"
     inkscape:window-width="2560"
     inkscape:window-height="1377"
     id="namedview38"
     showgrid="false"
     inkscape:object-nodes="true"
     inkscape:snap-others="true"
     inkscape:snap-global="false"
     inkscape:zoom="16"
     inkscape:cx="2.0074089"
     inkscape:cy="13.649341"
     inkscape:window-x="-8"
     inkscape:window-y="-8"
     inkscape:window-maximized="1"
     inkscape:current-layer="svg4362"
     inkscape:snap-bbox="true"
     inkscape:snap-bbox-midpoints="true"
     inkscape:snap-bbox-edge-midpoints="true"
     inkscape:bbox-nodes="true"
     inkscape:snap-nodes="true"
     inkscape:snap-midpoints="true"
     inkscape:snap-smooth-nodes="true"
     inkscape:snap-intersection-paths="true"
     inkscape:object-paths="true"
     inkscape:snap-object-midpoints="true"
     inkscape:snap-center="true" />
  <defs
     id="defs4364">
    <linearGradient
       id="linearGradient6111"
       osb:paint="solid">
      <stop
         style="stop-color:var(--local-primary);stop-opacity:1;"
         offset="0"
         id="stop6109" />
    </linearGradient>
    <linearGradient
       inkscape:collect="always"
       id="linearGradient6103"
       osb:paint="gradient">
      <stop
         style="stop-color:var(--local-primary);stop-opacity:1;"
         offset="0"
         id="stop6099" />
      <stop
         style="stop-color:var(--local-primary);stop-opacity:0;"
         offset="1"
         id="stop6101" />
    </linearGradient>
  </defs>
  <metadata
     id="metadata4367">
    <rdf:RDF>
      <cc:Work
         rdf:about="">
        <dc:format>image/svg+xml</dc:format>
        <dc:type
           rdf:resource="http://purl.org/dc/dcmitype/StillImage" />
        <dc:title />
      </cc:Work>
    </rdf:RDF>
  </metadata>
  <g
     id="g6212"
     transform="matrix(1.0368001,0,0,1.0858945,-0.30600171,-0.11511021)">
    <path
       sodipodi:nodetypes="ssssscsccccc"
       inkscape:connector-curvature="0"
       id="path882"
       d="m 17.656244,2.4849178 c -1.830802,-3e-7 -3.31496,1.510649 -3.31496,3.3741295 0,1.8634806 1.484158,3.3741299 3.31496,3.3741296 1.830801,-8e-7 3.314958,-1.5106498 3.314958,-3.3741296 0,-1.8634797 -1.484157,-3.3741287 -3.314958,-3.3741295 z m 0.02527,6.9694296 c -1.685816,-0.026769 -3.387282,0.2984982 -4.815786,1.1547136 -1.428504,0.856214 -2.582233,2.592355 -2.582233,4.384825 1.996958,0 12.508133,0 14.745508,0 0,-1.392116 -1.166325,-3.416749 -2.572126,-4.274242 C 21.051068,9.8621542 19.367328,9.4811179 17.681509,9.4543474 Z"
       style="fill:var(--local-primary);fill-opacity:1;stroke:var(--local-primary);stroke-width:1;stroke-linecap:butt;stroke-linejoin:miter;stroke-miterlimit:4;stroke-dasharray:none;stroke-dashoffset:0;stroke-opacity:1;paint-order:fill markers stroke" />
    <path
       sodipodi:nodetypes="ssssscsccccc"
       inkscape:connector-curvature="0"
       id="path882-5"
       d="m 8.874995,18.370516 c -1.830802,0 -3.31496,1.510649 -3.31496,3.37413 0,1.86348 1.484158,3.37413 3.31496,3.374129 1.830801,-1e-6 3.314958,-1.51065 3.314958,-3.374129 0,-1.86348 -1.484157,-3.374129 -3.314958,-3.37413 z m 0.02527,6.96943 c -1.685816,-0.02677 -3.387282,0.298498 -4.815786,1.154713 -1.4285041,0.856214 -2.5822331,2.592355 -2.5822331,4.384825 1.996958,0 12.5081331,0 14.7455081,0 0,-1.392116 -1.166325,-3.416749 -2.572126,-4.274242 -1.405809,-0.857489 -3.089549,-1.238526 -4.775368,-1.265296 z"
       style="fill:var(--local-primary);fill-opacity:1;stroke:var(--local-primary);stroke-width:1;stroke-linecap:butt;stroke-linejoin:miter;stroke-miterlimit:4;stroke-dasharray:none;stroke-dashoffset:0;stroke-opacity:1;paint-order:fill markers stroke" />
    <path
       sodipodi:nodetypes="ssssscsccccc"
       inkscape:connector-curvature="0"
       id="path882-8"
       d="m 26.437495,18.370516 c -1.830802,0 -3.31496,1.510649 -3.31496,3.37413 0,1.86348 1.484158,3.374129 3.31496,3.374129 1.830801,-1e-6 3.314958,-1.51065 3.314958,-3.374129 0,-1.86348 -1.484157,-3.374129 -3.314958,-3.37413 z m 0.02527,6.96943 c -1.685816,-0.02677 -3.387282,0.298498 -4.815786,1.154713 -1.428504,0.856214 -2.582233,2.592355 -2.582233,4.384825 1.996958,0 12.508133,0 14.745508,0 0,-1.392116 -1.166325,-3.416749 -2.572126,-4.274242 -1.405809,-0.85749 -3.089549,-1.238526 -4.775368,-1.265296 z"
       style="fill:none;fill-opacity:1;stroke:var(--local-primary);stroke-width:1;stroke-linecap:butt;stroke-linejoin:miter;stroke-miterlimit:4;stroke-dasharray:none;stroke-dashoffset:0;stroke-opacity:1;paint-order:fill markers stroke" />
  </g>
</svg>
