<?xml version="1.0" encoding="UTF-8" standalone="no"?>
<svg 
	xmlns:dc="http://purl.org/dc/elements/1.1/" 
	xmlns:cc="http://creativecommons.org/ns#" 
	xmlns:rdf="http://www.w3.org/1999/02/22-rdf-syntax-ns#" 
	xmlns:svg="http://www.w3.org/2000/svg" 
	xmlns="http://www.w3.org/2000/svg" viewBox="0 0 36 36" height="36px" width="36px" id="detail_date" version="1.1">
	<metadata id="metadata29">
		<rdf:RDF>
			<cc:Work rdf:about="">
				<dc:format>image/svg+xml</dc:format>
				<dc:type rdf:resource="http://purl.org/dc/dcmitype/StillImage" />
				<dc:title></dc:title>
			</cc:Work>
		</rdf:RDF>
	</metadata>
	<path style="fill:var(--local-primary);fill-opacity:1;stroke:none" id="rect845" d="m 9.2504633,1.8116598 a 1.2219509,1.2219509 0 0 0 -1.202738,1.237738 v 1.3300118 h -5.313681 c -1.4833134,0 -2.7172962,1.2300324 -2.71729599,2.7141138 V 30.190539 c 0,1.484083 1.23398259,2.714115 2.71729599,2.714115 H 33.27976 c 1.483316,0 2.717296,-1.230032 2.717296,-2.714115 V 7.0935234 c 0,-1.4840814 -1.233982,-2.7141138 -2.717296,-2.7141138 H 27.641531 V 3.0493978 a 1.2219509,1.2219509 0 0 0 -1.24092,-1.237738 1.2219509,1.2219509 0 0 0 -1.202738,1.237738 V 4.3794096 H 19.231914 V 3.0493978 a 1.2219509,1.2219509 0 0 0 -1.24092,-1.237738 1.2219509,1.2219509 0 0 0 -1.202738,1.237738 V 4.3794096 H 10.491383 V 3.0493978 A 1.2219509,1.2219509 0 0 0 9.2504633,1.8116598 Z m -6.516419,5.0114064 h 5.313681 V 7.612164 a 1.2219509,1.2219509 0 1 0 2.4436577,0 V 6.8230662 h 6.296873 V 7.612164 a 1.2219509,1.2219509 0 1 0 2.443658,0 V 6.8230662 h 5.965959 V 7.612164 a 1.2219509,1.2219509 0 1 0 2.443658,0 V 6.8230662 h 5.638229 c 0.173878,0 0.273639,0.099981 0.273639,0.2704572 V 30.190539 c 0,0.17048 -0.09977,0.270457 -0.273639,0.270457 H 2.7340443 c -0.1738783,0 -0.2736386,-0.09998 -0.2736386,-0.270457 V 7.0935234 c 0,-0.1704785 0.09976,-0.2704572 0.2736386,-0.2704572 z" />
	<path style="fill:var(--local-primary);fill-opacity:1;stroke:none" id="rect869" d="m 5.2286101,10.345369 c -0.4512614,1e-6 -0.8145518,0.36329 -0.8145518,0.814552 v 2.469113 c 0,0.451264 0.3632904,0.814553 0.8145518,0.814553 h 3.7132145 c 0.4512615,-2e-6 0.8145518,-0.363292 0.8145518,-0.814553 v -2.469113 c 0,-0.451263 -0.3632903,-0.814552 -0.8145518,-0.814552 z m 7.2768809,0 c -0.451262,1e-6 -0.814552,0.36329 -0.814552,0.814552 v 2.469113 c 0,0.451264 0.36329,0.814553 0.814552,0.814553 h 3.713214 c 0.451262,-2e-6 0.814553,-0.363292 0.814553,-0.814553 v -2.469113 c 0,-0.451263 -0.363291,-0.814552 -0.814553,-0.814552 z m 7.3087,0 c -0.451264,1e-6 -0.814552,0.36329 -0.814552,0.814552 v 2.469113 c 0,0.451264 0.363288,0.814553 0.814552,0.814553 h 3.713212 c 0.451264,-2e-6 0.814554,-0.363292 0.814554,-0.814553 v -2.469113 c 0,-0.451263 -0.36329,-0.814552 -0.814554,-0.814552 z m 7.219607,0 c -0.451261,1e-6 -0.814552,0.36329 -0.814552,0.814552 v 2.469113 c 0,0.451264 0.363291,0.814553 0.814552,0.814553 h 3.713214 c 0.451261,-2e-6 0.814552,-0.363292 0.814552,-0.814553 v -2.469113 c 0,-0.451263 -0.363291,-0.814552 -0.814552,-0.814552 z M 5.2286101,16.909516 c -0.4512614,0 -0.8145518,0.363291 -0.8145518,0.814552 v 2.472297 c 0,0.451261 0.3632904,0.81455 0.8145518,0.81455 h 3.7132145 c 0.4512615,0 0.8145518,-0.363289 0.8145518,-0.81455 v -2.472297 c 0,-0.451261 -0.3632903,-0.814552 -0.8145518,-0.814552 z m 7.2768809,0 c -0.451262,0 -0.814552,0.363291 -0.814552,0.814552 v 2.472297 c 0,0.451261 0.36329,0.81455 0.814552,0.81455 h 3.713214 c 0.451262,0 0.814553,-0.363289 0.814553,-0.81455 v -2.472297 c 0,-0.451261 -0.363291,-0.814552 -0.814553,-0.814552 z m 7.3087,0 c -0.451264,0 -0.814552,0.363291 -0.814552,0.814552 v 2.472297 c 0,0.451261 0.363288,0.81455 0.814552,0.81455 h 3.713212 c 0.451264,0 0.814554,-0.363289 0.814554,-0.81455 v -2.472297 c 0,-0.451261 -0.36329,-0.814552 -0.814554,-0.814552 z m 7.219607,0 c -0.451261,0 -0.814552,0.363291 -0.814552,0.814552 v 2.472297 c 0,0.451261 0.363291,0.81455 0.814552,0.81455 h 3.713214 c 0.451261,0 0.814552,-0.363289 0.814552,-0.81455 v -2.472297 c 0,-0.451261 -0.363291,-0.814552 -0.814552,-0.814552 z M 5.2286101,23.454573 c -0.4512614,0 -0.8145518,0.363289 -0.8145518,0.814553 v 2.472293 c 0,0.451263 0.3632904,0.814554 0.8145518,0.814554 h 3.7132145 c 0.4512615,0 0.8145518,-0.363291 0.8145518,-0.814554 v -2.472293 c 0,-0.451264 -0.3632903,-0.814553 -0.8145518,-0.814553 z m 7.2768809,0 c -0.451262,0 -0.814552,0.363289 -0.814552,0.814553 v 2.472293 c 0,0.451263 0.36329,0.814554 0.814552,0.814554 h 3.713214 c 0.451262,0 0.814553,-0.363291 0.814553,-0.814554 v -2.472293 c 0,-0.451264 -0.363291,-0.814553 -0.814553,-0.814553 z m 7.3087,0 c -0.451264,0 -0.814552,0.363289 -0.814552,0.814553 v 2.472293 c 0,0.451263 0.363288,0.814554 0.814552,0.814554 h 3.713212 c 0.451264,0 0.814554,-0.363291 0.814554,-0.814554 v -2.472293 c 0,-0.451264 -0.36329,-0.814553 -0.814554,-0.814553 z" />
</svg>