<?xml version="1.0" encoding="UTF-8" standalone="no"?>
<svg
   xmlns:dc="http://purl.org/dc/elements/1.1/"
   xmlns:cc="http://creativecommons.org/ns#"
   xmlns:rdf="http://www.w3.org/1999/02/22-rdf-syntax-ns#"
   xmlns:svg="http://www.w3.org/2000/svg"
   xmlns="http://www.w3.org/2000/svg"
   xmlns:sodipodi="http://sodipodi.sourceforge.net/DTD/sodipodi-0.dtd"
   xmlns:inkscape="http://www.inkscape.org/namespaces/inkscape"
   version="1.1"
   id="svg4362"
   viewBox="0 0 35.999999 35.999999"
   height="36"
   width="36"
   sodipodi:docname="ico36_uc_drinks.svg"
   inkscape:version="0.92.2 (5c3e80d, 2017-08-06)">
  <sodipodi:namedview
     pagecolor="#ffffff"
     bordercolor="#666666"
     borderopacity="1"
     objecttolerance="10"
     gridtolerance="10"
     guidetolerance="10"
     inkscape:pageopacity="0"
     inkscape:pageshadow="2"
     inkscape:window-width="2560"
     inkscape:window-height="1377"
     id="namedview38"
     showgrid="false"
     inkscape:object-nodes="false"
     inkscape:snap-others="false"
     inkscape:snap-global="false"
     inkscape:zoom="2"
     inkscape:cx="-66.218315"
     inkscape:cy="-27.379965"
     inkscape:window-x="2552"
     inkscape:window-y="-8"
     inkscape:window-maximized="1"
     inkscape:current-layer="svg4362" />
  <defs
     id="defs4364" />
  <metadata
     id="metadata4367">
    <rdf:RDF>
      <cc:Work
         rdf:about="">
        <dc:format>image/svg+xml</dc:format>
        <dc:type
           rdf:resource="http://purl.org/dc/dcmitype/StillImage" />
        <dc:title />
      </cc:Work>
    </rdf:RDF>
  </metadata>
  <path
     style="fill:var(--local-primary);fill-opacity:1;stroke:none;stroke-width:0.58664984;stroke-linejoin:round;stroke-miterlimit:4;stroke-dasharray:none;stroke-dashoffset:0;stroke-opacity:1"
     d="M 24.796875 3.2871094 A 0.63344008 0.63344008 0 0 0 24.164062 3.9199219 A 0.63344008 0.63344008 0 0 0 24.796875 4.5546875 A 0.63344008 0.63344008 0 0 0 25.429688 3.9199219 A 0.63344008 0.63344008 0 0 0 24.796875 3.2871094 z M 31.917969 4.7539062 A 0.43530543 0.43530543 0 0 0 31.837891 4.765625 L 23.878906 6.5839844 L 15.916016 8.4023438 A 0.43530543 0.43530543 0 0 0 15.693359 9.1210938 L 21.28125 15.240234 L 25.669922 20.048828 L 28.160156 30.949219 C 27.642648 31.185756 27.077758 31.448041 26.539062 31.654297 C 25.657272 31.991924 23.767579 32.578125 23.767578 32.578125 A 0.43530543 0.43530543 0 0 0 23.470703 33.091797 L 23.595703 33.634766 A 0.43530543 0.43530543 0 0 0 24.117188 33.960938 L 29.839844 32.652344 L 35.537109 31.349609 A 0.43530543 0.43530543 0 0 0 35.863281 30.830078 L 35.736328 30.277344 A 0.43530543 0.43530543 0 0 0 35.246094 29.941406 C 35.246094 29.941406 33.306793 30.240956 32.375 30.320312 C 31.798564 30.369407 31.172867 30.379142 30.603516 30.390625 L 28.113281 19.490234 L 29.976562 13.251953 L 32.351562 5.3125 A 0.43530543 0.43530543 0 0 0 31.917969 4.7539062 z M 21.787109 5.2539062 A 0.63344008 0.63344008 0 0 0 21.197266 5.8867188 A 0.63344008 0.63344008 0 0 0 21.830078 6.5195312 A 0.63344008 0.63344008 0 0 0 22.464844 5.8867188 A 0.63344008 0.63344008 0 0 0 21.830078 5.2539062 A 0.63344008 0.63344008 0 0 0 21.787109 5.2539062 z M 30.001953 7.0605469 L 29.003906 10.292969 C 29.00172 10.295817 29.000249 10.295951 28.998047 10.298828 C 28.826361 10.990489 27.368457 11.317369 25.380859 10.367188 C 24.239434 9.8215739 23.245809 9.5963601 22.40625 9.5820312 C 21.566691 9.5677034 20.880181 9.7635216 20.353516 10.0625 C 20.008304 10.258471 19.75505 10.490042 19.541016 10.71875 L 18.570312 9.6738281 L 24.287109 8.3691406 L 30.001953 7.0605469 z M 26.728516 8.3769531 A 0.63344008 0.63344008 0 0 0 26.09375 9.0117188 A 0.63344008 0.63344008 0 0 0 26.728516 9.6445312 A 0.63344008 0.63344008 0 0 0 27.361328 9.0117188 A 0.63344008 0.63344008 0 0 0 26.728516 8.3769531 z M 23.222656 10.914062 A 0.63344008 0.63344008 0 0 1 23.857422 11.548828 A 0.63344008 0.63344008 0 0 1 23.222656 12.181641 A 0.63344008 0.63344008 0 0 1 22.589844 11.548828 A 0.63344008 0.63344008 0 0 1 23.222656 10.914062 z M 26.191406 11.847656 A 0.63344008 0.63344008 0 0 1 26.826172 12.482422 A 0.63344008 0.63344008 0 0 1 26.191406 13.115234 A 0.63344008 0.63344008 0 0 1 25.558594 12.482422 A 0.63344008 0.63344008 0 0 1 26.191406 11.847656 z M 25.873047 14.34375 A 0.63344008 0.63344008 0 0 1 26.507812 14.976562 A 0.63344008 0.63344008 0 0 1 25.873047 15.611328 A 0.63344008 0.63344008 0 0 1 25.240234 14.976562 A 0.63344008 0.63344008 0 0 1 25.873047 14.34375 z "
     id="path866-1-9" />
  <path
     style="fill:var(--local-primary);fill-opacity:1;stroke:none;stroke-width:0.58664984;stroke-linejoin:round;stroke-miterlimit:4;stroke-dasharray:none;stroke-dashoffset:0;stroke-opacity:1"
     d="m 10.636719,1.2675781 c -0.344735,-7.726e-4 -0.624694,0.2783114 -0.625,0.6230469 3.06e-4,0.3447355 0.280265,0.6238195 0.625,0.6230469 C 10.980691,2.5133656 11.25946,2.2345973 11.259766,1.890625 11.25946,1.5466527 10.980691,1.2678844 10.636719,1.2675781 Z M 1.2109375,2.0078125 C 0.88282649,2.004248 0.6589103,2.3385744 0.78710938,2.640625 l 3.24023442,7.626953 2.5429687,5.984375 -1.2617187,11.087891 c -0.5628946,0.05152 -1.1740026,0.113131 -1.7441407,0.128906 -0.9420481,0.02607 -2.92187496,-0.04883 -2.92187498,-0.04883 -0.23729275,-0.0087 -0.4414064,0.16647 -0.46875,0.402344 L 0.109375,28.375 c -0.02861294,0.249723 0.15066189,0.475346 0.40039062,0.503906 l 5.83203128,0.664063 5.8066411,0.660156 c 0.248326,0.02751 0.472387,-0.150347 0.501953,-0.398437 l 0.06641,-0.564454 c 0.02777,-0.237198 -0.132551,-0.455508 -0.367188,-0.5 0,0 -1.932307,-0.362039 -2.8359371,-0.595703 C 8.9599506,28.001353 8.3745922,27.805311 7.8378906,27.628906 L 9.1015625,16.541016 12.923828,11.28125 17.796875,4.578125 c 0.203834,-0.2817764 0.02906,-0.6787867 -0.316406,-0.71875 L 9.3671875,2.9355469 1.2558594,2.0117188 c -0.0149,-0.00204 -0.029893,-0.00335 -0.044922,-0.00391 z m 2.1542969,2.125 5.7910156,0.6601563 5.792969,0.65625 -0.65625,0.8867187 C 13.209756,5.8754126 10.819792,5.1687043 8.5839844,6.6445312 6.9349459,7.7330399 4.8592312,7.496345 4.5625,6.8769531 Z M 7.5800781,4.8183594 C 7.2361058,4.8186658 6.9573377,5.0974339 6.9570312,5.4414062 6.9562586,5.786141 7.2353426,6.0660999 7.5800781,6.0664062 7.9248136,6.0660999 8.2038976,5.786141 8.203125,5.4414062 8.2028185,5.0974339 7.9240504,4.8186658 7.5800781,4.8183594 Z M 10.53125,7.4316406 c 6.51e-4,-1e-6 0.0013,-1e-6 0.002,0 0.01497,-5.395e-4 0.02995,-5.395e-4 0.04492,0 0.343972,3.063e-4 0.622741,0.2790746 0.623047,0.6230469 -3.06e-4,0.3439723 -0.279075,0.6227406 -0.623047,0.6230469 C 10.23339,8.678507 9.9534313,8.399423 9.953125,8.0546875 9.9525454,7.7275007 10.204934,7.455501 10.53125,7.4316406 Z M 8.0820312,8.9882812 C 8.4260035,8.9885876 8.7047717,9.2673558 8.7050781,9.6113281 8.7047717,9.9553004 8.4260035,10.234069 8.0820312,10.234375 7.7380589,10.234069 7.4592908,9.9553004 7.4589844,9.6113281 7.4592908,9.2673558 7.7380589,8.9885877 8.0820312,8.9882812 Z m 0.3125,3.1816408 c 0.3439723,3.06e-4 0.6227406,0.279075 0.6230469,0.623047 -3.063e-4,0.343972 -0.2790746,0.622741 -0.6230469,0.623047 -0.3447348,7.73e-4 -0.6246937,-0.278311 -0.625,-0.623047 3.063e-4,-0.344736 0.2802652,-0.62382 0.625,-0.623047 z"
     id="path866-1"
     inkscape:connector-curvature="0"
     sodipodi:nodetypes="ccccccccccsccccccccccccccccccccccscccccccccccccccccccccccc" />
</svg>
