<?xml version="1.0" encoding="UTF-8" standalone="no"?>
<svg
   xmlns:dc="http://purl.org/dc/elements/1.1/"
   xmlns:cc="http://creativecommons.org/ns#"
   xmlns:rdf="http://www.w3.org/1999/02/22-rdf-syntax-ns#"
   xmlns:svg="http://www.w3.org/2000/svg"
   xmlns="http://www.w3.org/2000/svg"
   xmlns:sodipodi="http://sodipodi.sourceforge.net/DTD/sodipodi-0.dtd"
   xmlns:inkscape="http://www.inkscape.org/namespaces/inkscape"
   version="1.1"
   id="svg4362"
   viewBox="0 0 35.999999 35.999999"
   height="36"
   width="36"
   sodipodi:docname="ico36_uc_meal-x.svg"
   inkscape:version="0.92.2 (5c3e80d, 2017-08-06)">
  <sodipodi:namedview
     pagecolor="#ffffff"
     bordercolor="#666666"
     borderopacity="1"
     objecttolerance="10"
     gridtolerance="10"
     guidetolerance="10"
     inkscape:pageopacity="0"
     inkscape:pageshadow="2"
     inkscape:window-width="1830"
     inkscape:window-height="1040"
     id="namedview38"
     showgrid="false"
     inkscape:object-nodes="false"
     inkscape:snap-others="false"
     inkscape:snap-global="false"
     inkscape:zoom="11.313709"
     inkscape:cx="20.084902"
     inkscape:cy="22.065706"
     inkscape:window-x="371"
     inkscape:window-y="130"
     inkscape:window-maximized="0"
     inkscape:current-layer="svg4362" />
  <defs
     id="defs4364">
    <clipPath
       id="clipPath708"
       clipPathUnits="userSpaceOnUse">
      <path
         id="path710"
         d="M 0,0 H 1440 V 900 H 0 Z"
         inkscape:connector-curvature="0" />
    </clipPath>
    <clipPath
       id="clipPath720"
       clipPathUnits="userSpaceOnUse">
      <path
         id="path722"
         d="m 944.383,652.172 c 0,-34.969 28.357,-63.328 63.335,-63.328 v 0 c 34.979,0 63.335,28.359 63.335,63.328 v 0 c 0,34.984 -28.356,63.343 -63.335,63.343 v 0 c -34.978,0 -63.335,-28.359 -63.335,-63.343"
         inkscape:connector-curvature="0" />
    </clipPath>
    <clipPath
       id="clipPath732"
       clipPathUnits="userSpaceOnUse">
      <path
         id="path734"
         d="M 0,0 H 1440 V 900 H 0 Z"
         inkscape:connector-curvature="0" />
    </clipPath>
    <clipPath
       id="clipPath212"
       clipPathUnits="userSpaceOnUse">
      <path
         id="path214"
         d="m 606.85,488 c 0,-9.942 8.059,-18 18,-18 v 0 c 9.942,0 18,8.058 18,18 v 0 c 0,9.941 -8.058,18 -18,18 v 0 c -9.941,0 -18,-8.059 -18,-18"
         inkscape:connector-curvature="0" />
    </clipPath>
    <clipPath
       id="clipPath708-2"
       clipPathUnits="userSpaceOnUse">
      <path
         id="path710-7"
         d="M 0,0 H 1440 V 900 H 0 Z"
         inkscape:connector-curvature="0" />
    </clipPath>
    <clipPath
       id="clipPath720-7"
       clipPathUnits="userSpaceOnUse">
      <path
         id="path722-4"
         d="m 944.383,652.172 c 0,-34.969 28.357,-63.328 63.335,-63.328 v 0 c 34.979,0 63.335,28.359 63.335,63.328 v 0 c 0,34.984 -28.356,63.343 -63.335,63.343 v 0 c -34.978,0 -63.335,-28.359 -63.335,-63.343"
         inkscape:connector-curvature="0" />
    </clipPath>
    <clipPath
       id="clipPath732-4"
       clipPathUnits="userSpaceOnUse">
      <path
         id="path734-6"
         d="M 0,0 H 1440 V 900 H 0 Z"
         inkscape:connector-curvature="0" />
    </clipPath>
    <clipPath
       id="clipPath212-8"
       clipPathUnits="userSpaceOnUse">
      <path
         id="path214-5"
         d="m 606.85,488 c 0,-9.942 8.059,-18 18,-18 v 0 c 9.942,0 18,8.058 18,18 v 0 c 0,9.941 -8.058,18 -18,18 v 0 c -9.941,0 -18,-8.059 -18,-18"
         inkscape:connector-curvature="0" />
    </clipPath>
    <clipPath
       id="clipPath212-8-8"
       clipPathUnits="userSpaceOnUse">
      <path
         id="path214-5-1"
         d="m 606.85,488 c 0,-9.942 8.059,-18 18,-18 v 0 c 9.942,0 18,8.058 18,18 v 0 c 0,9.941 -8.058,18 -18,18 v 0 c -9.941,0 -18,-8.059 -18,-18"
         inkscape:connector-curvature="0" />
    </clipPath>
    <clipPath
       id="clipPath212-8-8-5"
       clipPathUnits="userSpaceOnUse">
      <path
         id="path214-5-1-7"
         d="m 606.85,488 c 0,-9.942 8.059,-18 18,-18 v 0 c 9.942,0 18,8.058 18,18 v 0 c 0,9.941 -8.058,18 -18,18 v 0 c -9.941,0 -18,-8.059 -18,-18"
         inkscape:connector-curvature="0" />
    </clipPath>
  </defs>
  <metadata
     id="metadata4367">
    <rdf:RDF>
      <cc:Work
         rdf:about="">
        <dc:format>image/svg+xml</dc:format>
        <dc:type
           rdf:resource="http://purl.org/dc/dcmitype/StillImage" />
        <dc:title></dc:title>
      </cc:Work>
    </rdf:RDF>
  </metadata>
  <rect
     style="fill:none;fill-opacity:1;stroke:none;stroke-width:0.2;stroke-linejoin:round;stroke-miterlimit:4;stroke-dasharray:none;stroke-dashoffset:0;stroke-opacity:1"
     id="rect992"
     width="2.5"
     height="25.75"
     x="29"
     y="5.0625" />
  <path
     style="fill:#000000;fill-opacity:1;stroke:none;stroke-width:0.24071579;stroke-linejoin:round;stroke-miterlimit:4;stroke-dasharray:none;stroke-dashoffset:0;stroke-opacity:1"
     d="m 10.664122,11.713338 c 0.995366,-0.98944 2.413083,-0.944132 3.835473,-0.201462 1.422389,0.742671 3.399745,2.921442 4.24984,4.550937 0.865378,1.658717 1.945943,3.229699 1.945943,3.229699 l 4.191707,4.216151 c 0,0 2.861515,2.8249 4.153409,4.17763 0.30804,0.3226 -0.637426,1.262684 -0.948952,0.943451 -1.333175,-1.366168 -8.345118,-8.393782 -8.345118,-8.393782 0,0 -7.058391,-6.569856 -9.082302,-8.522624 z"
     id="rect1000"
     inkscape:connector-curvature="0"
     sodipodi:nodetypes="czsccsscc" />
  <path
     style="fill:#000000;fill-opacity:1;stroke:none;stroke-width:6.37373304;stroke-linejoin:round;stroke-miterlimit:4;stroke-dasharray:none;stroke-dashoffset:0;stroke-opacity:1"
     d="m 21.854895,8.8084871 c 0.396442,0.350933 -3.328584,3.9386759 -2.994936,4.2340239 0.359062,0.317844 3.410842,-3.8658609 3.786582,-3.5332529 0.448741,0.397229 -3.32855,3.9387059 -2.994936,4.2340239 0.393515,0.348342 3.384484,-3.8891919 3.786581,-3.533254 0.395581,0.350171 -3.387709,3.886236 -2.994934,4.234025 0.340451,0.301458 3.446048,-3.834695 3.786582,-3.533254 0.218256,0.193203 -2.177028,2.97801 -3.203856,4.062408 -0.968473,1.022763 -2.388463,0.931561 -2.903889,1.508153 -1.828134,2.045016 -5.448039,6.154537 -5.448039,6.154537 0,0 -3.7682185,4.241003 -5.1362595,5.802327 -0.2278557,0.26012 -1.1409783,-0.548202 -0.9147906,-0.80978 1.3792947,-1.595115 5.1362591,-5.802327 5.1362591,-5.802327 0,0 3.658315,-4.195628 5.448039,-6.154536 0.538031,-0.588975 0.08008,-2.067366 1.003938,-3.190004 0.923861,-1.122635 3.357026,-3.9268189 3.643659,-3.6730899 z"
     id="rect1002"
     inkscape:connector-curvature="0"
     sodipodi:nodetypes="ssssssssscsscszs" />
  <g
     id="g1068"
     transform="matrix(1.5036482,0,0,1.5036482,-11.70861,-1.6757186)">
    <circle
       r="8.3306017"
       cy="13.08532"
       cx="19.86528"
       id="path1049"
       style="fill:none;fill-opacity:1;stroke:#000000;stroke-width:0.69999999;stroke-linejoin:round;stroke-miterlimit:4;stroke-dasharray:none;stroke-dashoffset:0;stroke-opacity:1" />
    <circle
       r="6.4432554"
       cy="13.08532"
       cx="19.86528"
       id="path1049-9"
       style="fill:none;fill-opacity:1;stroke:#000000;stroke-width:0.34099999;stroke-linejoin:round;stroke-miterlimit:4;stroke-dasharray:none;stroke-dashoffset:0;stroke-opacity:1" />
  </g>
</svg>
