<?xml version="1.0" encoding="utf-8"?>
<!-- Generator: Adobe Illustrator 15.0.0, SVG Export Plug-In . SVG Version: 6.00 Build 0)  -->
<!DOCTYPE svg PUBLIC "-//W3C//DTD SVG 1.1//EN" "http://www.w3.org/Graphics/SVG/1.1/DTD/svg11.dtd">
<svg version="1.1" id="Layer_1" xmlns="http://www.w3.org/2000/svg" xmlns:xlink="http://www.w3.org/1999/xlink" x="0px" y="0px"
	 width="36px" height="36px" viewBox="0 0 36 36" enable-background="new 0 0 36 36" xml:space="preserve">
<g>
	<path d="M23.566,28.721c0.353,0.568,0.883,0.871,1.591,0.906c0.459,0,0.866-0.178,1.22-0.533c0.707-0.676,0.812-1.441,0.318-2.293
		l-3.5-5.922l0.158-0.213c0.742-0.781,1.326-1.688,1.75-2.72c1.062-2.595,0.865-5.102-0.584-7.52
		c-0.104-0.177-0.229-0.355-0.371-0.533c-1.662-2.347-3.924-3.52-6.788-3.52c-1.379,0-2.669,0.32-3.871,0.96
		c-2.227,1.138-3.642,2.952-4.242,5.44c-0.53,2.312-0.212,4.445,0.955,6.401c0.106,0.178,0.229,0.355,0.371,0.533
		c1.661,2.346,3.924,3.52,6.788,3.52c0.955,0,1.856-0.143,2.705-0.426L23.566,28.721L23.566,28.721z M12.483,17.787
		c-0.778-1.351-0.99-2.809-0.637-4.374c0.141-0.534,0.353-1.048,0.637-1.547c1.095-1.848,2.739-2.773,4.931-2.773
		c2.086,0.107,3.712,1.032,4.879,2.773c0.742,1.352,0.954,2.792,0.637,4.32c-0.143,0.533-0.354,1.049-0.637,1.546
		c-1.098,1.884-2.74,2.829-4.932,2.829C15.275,20.453,13.649,19.529,12.483,17.787L12.483,17.787L12.483,17.787z"/>
</g>
</svg>
