<?xml version="1.0" encoding="utf-8"?>
<!-- Generator: Adobe Illustrator 15.0.0, SVG Export Plug-In . SVG Version: 6.00 Build 0)  -->
<!DOCTYPE svg PUBLIC "-//W3C//DTD SVG 1.1//EN" "http://www.w3.org/Graphics/SVG/1.1/DTD/svg11.dtd">
<svg version="1.1" id="Layer_1" xmlns="http://www.w3.org/2000/svg" xmlns:xlink="http://www.w3.org/1999/xlink" x="0px" y="0px"
	 width="36px" height="36px" viewBox="0 0 36 36" enable-background="new 0 0 36 36" xml:space="preserve">
<g>
	<path d="M18,32c7.732,0,14-6.268,14-14c0-7.732-6.268-14-14-14C10.268,4,4,10.268,4,18C4,25.732,10.268,32,18,32L18,32z"/>
	<g>
		<g>
			<defs>
				<path id="SVGID_1_" d="M18,32c7.732,0,14-6.268,14-14c0-7.732-6.268-14-14-14C10.268,4,4,10.268,4,18C4,25.732,10.268,32,18,32
					L18,32z"/>
			</defs>
			<clipPath id="SVGID_2_">
				<use xlink:href="#SVGID_1_"  overflow="visible"/>
			</clipPath>
			<g clip-path="url(#SVGID_2_)">
				<text transform="matrix(1 0 0 1 14.8833 22.9609)" fill="#FFFFFF" font-family="'OpenSans-Bold'" font-size="13">?</text>
			</g>
		</g>
	</g>
</g>
</svg>
