<?xml version="1.0" encoding="UTF-8" standalone="no"?>
<!-- Generator: Adobe Illustrator 15.0.0, SVG Export Plug-In . SVG Version: 6.00 Build 0)  -->

<svg
   xmlns:dc="http://purl.org/dc/elements/1.1/"
   xmlns:cc="http://creativecommons.org/ns#"
   xmlns:rdf="http://www.w3.org/1999/02/22-rdf-syntax-ns#"
   xmlns:svg="http://www.w3.org/2000/svg"
   xmlns="http://www.w3.org/2000/svg"
   xmlns:xlink="http://www.w3.org/1999/xlink"
   xmlns:sodipodi="http://sodipodi.sourceforge.net/DTD/sodipodi-0.dtd"
   xmlns:inkscape="http://www.inkscape.org/namespaces/inkscape"
   version="1.1"
   id="Layer_1"
   x="0px"
   y="0px"
   width="36px"
   height="36px"
   viewBox="0 0 36 36"
   enable-background="new 0 0 36 36"
   xml:space="preserve"
   sodipodi:docname="ico36_notification_circle.svg"
   inkscape:version="0.92.2 (5c3e80d, 2017-08-06)"><metadata
     id="metadata29"><rdf:RDF><cc:Work
         rdf:about=""><dc:format>image/svg+xml</dc:format><dc:type
           rdf:resource="http://purl.org/dc/dcmitype/StillImage" /><dc:title></dc:title></cc:Work></rdf:RDF></metadata><defs
     id="defs27" /><sodipodi:namedview
     pagecolor="#ffffff"
     bordercolor="#666666"
     borderopacity="1"
     objecttolerance="10"
     gridtolerance="10"
     guidetolerance="10"
     inkscape:pageopacity="0"
     inkscape:pageshadow="2"
     inkscape:window-width="1070"
     inkscape:window-height="802"
     id="namedview25"
     showgrid="false"
     inkscape:pagecheckerboard="true"
     inkscape:zoom="6.5555556"
     inkscape:cx="18"
     inkscape:cy="18"
     inkscape:window-x="0"
     inkscape:window-y="0"
     inkscape:window-maximized="0"
     inkscape:current-layer="Layer_1" /><path
     style="fill:none;stroke:var(--local-primary);stroke-opacity:1"
     inkscape:connector-curvature="0"
     id="path2"
     d="M 18,35 C 27.373,35 35,27.374 35,18 35,8.626 27.373,1 18,1 8.626,1 1,8.626 1,18 1,27.374 8.626,35 18,35 Z" /><g
     id="g14"
     style="stroke:none;stroke-opacity:1"><g
       id="g12"
       style="stroke:none;stroke-opacity:1"><defs
         id="defs5"><path
           inkscape:connector-curvature="0"
           d="M 18,36 C 27.941,36 36,27.941 36,18 36,8.059 27.941,0 18,0 8.059,0 0,8.059 0,18 0,27.941 8.059,36 18,36 Z"
           id="SVGID_1_" /></defs><clipPath
         id="SVGID_2_"><use
           height="100%"
           width="100%"
           y="0"
           x="0"
           style="overflow:visible"
           id="use7"
           overflow="visible"
           xlink:href="#SVGID_1_" /></clipPath><path
         inkscape:connector-curvature="0"
         id="path10"
         d="m 12.681,23.318 c -0.775,-0.774 -1.521,-1.582 -2.24,-2.412 -0.93,1.305 -0.813,3.125 0.357,4.296 1.17,1.17 2.991,1.286 4.296,0.356 -0.829,-0.717 -1.638,-1.464 -2.413,-2.24 z M 25.008,10.985 c 0.002,0.001 0.002,0.003 0.004,0.004 0,10e-4 0.002,0.002 0.002,0.003 z m -5.955,15.563 c 0.807,0 1.461,-0.653 1.463,-1.462 0.002,-1.344 0.517,-2.686 1.541,-3.711 l 2.949,-2.95 c 2.055,-2.054 2.057,-5.382 0.006,-7.436 -2.055,-2.05 -5.383,-2.049 -7.436,0.005 l -2.951,2.95 c -1.025,1.025 -2.367,1.538 -3.71,1.541 -0.808,0.001 -1.462,0.655 -1.462,1.463 0,0.336 0.113,0.646 0.304,0.893 1.191,1.558 2.5,3.056 3.924,4.479 1.425,1.425 2.922,2.731 4.48,3.924 0.246,0.192 0.555,0.304 0.892,0.304 z"
         fill="var(--local-primary)"
         clip-path="url(#SVGID_2_)"
         style="stroke:none;stroke-opacity:1" /></g></g><g
     id="g20"
     style="stroke:var(--local-primary);stroke-opacity:1"><g
       id="g18"
       style="stroke:var(--local-primary);stroke-opacity:1"><path
         style="fill:none;stroke-width:2;stroke:var(--local-primary);stroke-opacity:1"
         inkscape:connector-curvature="0"
         id="path16"
         d="M 18,35 C 27.373,35 35,27.374 35,18 35,8.626 27.373,1 18,1 8.626,1 1,8.626 1,18 1,27.374 8.626,35 18,35 Z"
         stroke="var(--local-primary)" /></g></g></svg>