<?xml version="1.0" encoding="UTF-8" standalone="no"?>
<svg 
	xmlns:dc="http://purl.org/dc/elements/1.1/" 
	xmlns:cc="http://creativecommons.org/ns#" 
	xmlns:rdf="http://www.w3.org/1999/02/22-rdf-syntax-ns#" 
	xmlns:svg="http://www.w3.org/2000/svg" 
	xmlns="http://www.w3.org/2000/svg" id="detail_ttl" viewBox="0 0 36 36" version="1.1" height="36px" width="36px">
	<metadata id="metadata2">
		<rdf:RDF>
			<cc:Work rdf:about="">
				<dc:format>image/svg+xml</dc:format>
				<dc:type rdf:resource="http://purl.org/dc/dcmitype/StillImage" />
				<dc:title></dc:title>
			</cc:Work>
		</rdf:RDF>
	</metadata>
	<path id="path8" d="m 22.996094,6.9296875 c -2.478343,0 -4.496094,2.0197962 -4.496094,4.4960935 0,0.297448 0.07304,0.573984 0.128906,0.855469 l -5.601562,2.800781 c -0.82136,-0.903595 -1.949363,-1.535156 -3.2656252,-1.535156 -2.4771911,0 -4.4960938,2.019584 -4.4960938,4.496094 0,2.475933 2.018797,4.496093 4.4960938,4.496093 1.3170262,0 2.4459082,-0.632163 3.2675782,-1.537109 l 5.599609,2.802735 C 18.573064,24.086093 18.5,24.362707 18.5,24.660156 c 0,2.475722 2.017645,4.496094 4.496094,4.496094 2.476145,0 4.496094,-2.019949 4.496094,-4.496094 0,-2.058196 -1.416201,-3.743291 -3.310547,-4.271484 v -4.691406 c 1.894155,-0.528662 3.310547,-2.213288 3.310547,-4.271485 0,-2.4767203 -2.020055,-4.4960935 -4.496094,-4.4960935 z m -3.285156,7.4648435 c 0.55925,0.618226 1.271606,1.062977 2.097656,1.294922 v 4.708985 c -0.825344,0.231989 -1.536985,0.676594 -2.095703,1.292968 l -5.582032,-2.792968 c 0.05521,-0.281442 0.126953,-0.558787 0.126953,-0.855469 0,-0.298054 -0.07296,-0.575285 -0.128906,-0.857422 z" style="fill:var(--local-primary);fill-opacity:1;stroke:none;" />
</svg>