<?xml version="1.0" encoding="UTF-8" standalone="no"?>
<!-- Generator: Adobe Illustrator 15.0.0, SVG Export Plug-In . SVG Version: 6.00 Build 0)  -->

<svg
   xmlns:dc="http://purl.org/dc/elements/1.1/"
   xmlns:cc="http://creativecommons.org/ns#"
   xmlns:rdf="http://www.w3.org/1999/02/22-rdf-syntax-ns#"
   xmlns:svg="http://www.w3.org/2000/svg"
   xmlns="http://www.w3.org/2000/svg"
   xmlns:sodipodi="http://sodipodi.sourceforge.net/DTD/sodipodi-0.dtd"
   xmlns:inkscape="http://www.inkscape.org/namespaces/inkscape"
   version="1.1"
   id="Layer_1"
   x="0px"
   y="0px"
   width="36px"
   height="36px"
   viewBox="0 0 36 36"
   enable-background="new 0 0 36 36"
   xml:space="preserve"
   inkscape:version="0.91 r13725"
   sodipodi:docname="ico36_outgoing_hi.svg"><metadata
     id="metadata3347"><rdf:RDF><cc:Work
         rdf:about=""><dc:format>image/svg+xml</dc:format><dc:type
           rdf:resource="http://purl.org/dc/dcmitype/StillImage" /><dc:title></dc:title></cc:Work></rdf:RDF></metadata><defs
     id="defs3345" /><sodipodi:namedview
     pagecolor="#ffffff"
     bordercolor="#666666"
     borderopacity="1"
     objecttolerance="10"
     gridtolerance="10"
     guidetolerance="10"
     inkscape:pageopacity="0"
     inkscape:pageshadow="2"
     inkscape:window-width="2560"
     inkscape:window-height="1378"
     id="namedview3343"
     showgrid="false"
     inkscape:zoom="33.583333"
     inkscape:cx="18"
     inkscape:cy="18"
     inkscape:window-x="-8"
     inkscape:window-y="-8"
     inkscape:window-maximized="1"
     inkscape:current-layer="Layer_1" /><g
     id="g3337"><path
       d="M 18,0 C 27.941,0 36,8.059 36,18 36,27.941 27.941,36 18,36 8.06,36 0,27.941 0,18 0,8.059 8.059,0 18,0 l 0,0 z"
       id="path3339"
       inkscape:connector-curvature="0" /><path
       style="fill:#ffffff"
       d="m 23.657,12.117 c -0.392,0.391 -1.023,0.391 -1.414,0 L 19,8.874 l 0,12.978 -2,0 0,-12.978 -3.243,3.243 c -0.391,0.391 -1.023,0.391 -1.414,0 -0.391,-0.391 -0.391,-1.023 0,-1.414 l 4.95,-4.952 C 17.481,5.563 17.735,5.458 18,5.458 c 0.266,0 0.52,0.105 0.707,0.293 l 4.949,4.952 c 0.391,0.391 0.391,1.024 0.001,1.414 l 0,0 z"
       id="path3366"
       inkscape:connector-curvature="0" /><path
       style="fill:#ffffff"
       d="m 15,26.797 c 0,1.656 1.344,3 3,3 1.657,0 3.001,-1.344 3.001,-3 0,-1.656 -1.344,-3 -3.001,-3 -1.657,0 -3,1.344 -3,3 l 0,0 z"
       id="path3341" /></g></svg>