<?xml version="1.0" encoding="UTF-8" standalone="no"?>
<svg 
	xmlns:dc="http://purl.org/dc/elements/1.1/" 
	xmlns:cc="http://creativecommons.org/ns#" 
	xmlns:rdf="http://www.w3.org/1999/02/22-rdf-syntax-ns#" 
	xmlns:svg="http://www.w3.org/2000/svg" 
	xmlns="http://www.w3.org/2000/svg" width="36px" height="36px" viewBox="0 0 36 36" id="detail_person" version="1.1">
	<metadata id="metadata4367">
		<rdf:RDF>
			<cc:Work rdf:about="">
				<dc:format>image/svg+xml</dc:format>
				<dc:type rdf:resource="http://purl.org/dc/dcmitype/StillImage" />
				<dc:title></dc:title>
			</cc:Work>
		</rdf:RDF>
	</metadata>
	<path style="fill:var(--local-primary);fill-opacity:1;stroke:none" id="path206" d="M 18.715079,6.3500489e-4 C 20.804684,-0.10132366 23.059452,0.75396198 24.087352,1.8242264 c 2.810373,2.9261971 3.082433,9.0439926 2.473162,13.0553166 -0.307005,2.021269 0.215422,3.105511 2.24954,3.822885 -1.041327,0.651313 -2.946831,0.642641 -4.006575,0.484517 -0.04856,0.463156 0.196406,0.933341 0.708138,1.333751 -1.555635,0.182003 -2.557061,-0.136893 -3.684452,-0.75872 l 0.170378,1.831578 c 0.326531,3.498888 9.314705,4.825468 10.102962,9.442741 -3.751868,3.096672 -8.559202,4.959635 -13.792739,4.959635 -5.29172,0 -10.142748,-1.910014 -13.9125374,-5.068784 1.1461361,-4.680351 9.9726454,-5.301389 10.1349064,-9.333592 l 0.08253,-2.063188 c -0.947418,0.500552 -2.275029,0.89971 -3.892104,0.953059 0.309358,-0.373879 0.385759,-0.925886 0.343421,-1.269858 C 10.004241,19.371691 8.9053762,19.353741 7.8640492,18.702428 9.8981729,17.985054 10.945604,16.851615 10.406428,14.879543 9.46312,11.429333 9.7412804,0.99640263 15.43262,1.3769806 16.267641,0.4671426 17.46132,0.06181063 18.715082,6.3500489e-4 Z" />
</svg>