<?xml version="1.0" encoding="UTF-8" standalone="no"?>
<svg 
	xmlns:dc="http://purl.org/dc/elements/1.1/" 
	xmlns:cc="http://creativecommons.org/ns#" 
	xmlns:rdf="http://www.w3.org/1999/02/22-rdf-syntax-ns#" 
	xmlns:svg="http://www.w3.org/2000/svg" 
	xmlns="http://www.w3.org/2000/svg" version="1.1" id="detail_time" width="36px" height="36px" viewBox="0 0 36 36">
	<metadata id="metadata29">
		<rdf:RDF>
			<cc:Work rdf:about="">
				<dc:format>image/svg+xml</dc:format>
				<dc:type rdf:resource="http://purl.org/dc/dcmitype/StillImage" />
				<dc:title></dc:title>
			</cc:Work>
		</rdf:RDF>
	</metadata>
	<path style="fill:var(--local-primary);fill-opacity:1;stroke:none" id="path10" d="m 5.9966815,4.5537768 c -3.9996907,3.573081 -5.99953608,8.0533832 -5.99953608,13.4391042 0,4.536103 1.51923438,8.533994 4.55950348,12.000872 3.573081,3.999691 8.0533831,5.999536 13.4409051,5.999536 4.532503,0 8.533994,-1.519234 12.000872,-4.559503 3.999691,-3.573081 5.999537,-8.053383 5.999537,-13.440905 0,-4.532502 -1.519235,-8.5321929 -4.559504,-12.0008716 -3.576681,-3.9996908 -8.053383,-5.9995361 -13.440905,-5.9995361 -4.534302,0 -8.5339938,1.5210345 -12.0008725,4.5613035 z M 9.1179523,28.95333 C 5.6492736,26.129066 3.9176344,22.473183 3.9176344,17.992881 c 0,-3.304874 1.0404236,-6.265941 3.1194707,-8.8796008 2.8260641,-3.4668787 6.4801479,-5.200318 10.9604489,-5.200318 3.304875,0 6.264142,1.0404236 8.881402,3.1194708 3.466878,2.8278641 5.202118,6.480147 5.202118,10.960448 0,3.308475 -1.040424,6.267742 -3.121271,8.881401 C 26.135539,30.344761 22.477856,32.0764 18.001154,32.0764 14.690879,32.0728 11.729812,31.032377 9.1179523,28.95333 Z M 16.638524,7.8334511 V 18.554494 l 6.64035,6.63855 1.918844,-1.918843 -5.841133,-5.841132 V 7.8334511 Z" />
</svg>