<?xml version="1.0" encoding="UTF-8" standalone="no"?>
<svg
   xmlns:dc="http://purl.org/dc/elements/1.1/"
   xmlns:cc="http://creativecommons.org/ns#"
   xmlns:rdf="http://www.w3.org/1999/02/22-rdf-syntax-ns#"
   xmlns:svg="http://www.w3.org/2000/svg"
   xmlns="http://www.w3.org/2000/svg"
   version="1.1"
   id="svg4362"
   viewBox="0 0 36.040812 35.999999"
   height="36"
   width="36.040813">
  <defs
     id="defs4364">
    <clipPath
       id="clipPath708"
       clipPathUnits="userSpaceOnUse">
      <path
         id="path710"
         d="m 0,0 1440,0 0,900 L 0,900 0,0 Z" />
    </clipPath>
    <clipPath
       id="clipPath720"
       clipPathUnits="userSpaceOnUse">
      <path
         id="path722"
         d="m 944.383,652.172 c 0,-34.969 28.357,-63.328 63.335,-63.328 l 0,0 c 34.979,0 63.335,28.359 63.335,63.328 l 0,0 c 0,34.984 -28.356,63.343 -63.335,63.343 l 0,0 c -34.978,0 -63.335,-28.359 -63.335,-63.343" />
    </clipPath>
    <clipPath
       id="clipPath732"
       clipPathUnits="userSpaceOnUse">
      <path
         id="path734"
         d="m 0,0 1440,0 0,900 L 0,900 0,0 Z" />
    </clipPath>
    <clipPath
       id="clipPath212"
       clipPathUnits="userSpaceOnUse">
      <path
         id="path214"
         d="m 606.85,488 c 0,-9.942 8.059,-18 18,-18 l 0,0 c 9.942,0 18,8.058 18,18 l 0,0 c 0,9.941 -8.058,18 -18,18 l 0,0 c -9.941,0 -18,-8.059 -18,-18" />
    </clipPath>
    <clipPath
       id="clipPath708-2"
       clipPathUnits="userSpaceOnUse">
      <path
         id="path710-7"
         d="m 0,0 1440,0 0,900 L 0,900 0,0 Z" />
    </clipPath>
    <clipPath
       id="clipPath720-7"
       clipPathUnits="userSpaceOnUse">
      <path
         id="path722-4"
         d="m 944.383,652.172 c 0,-34.969 28.357,-63.328 63.335,-63.328 l 0,0 c 34.979,0 63.335,28.359 63.335,63.328 l 0,0 c 0,34.984 -28.356,63.343 -63.335,63.343 l 0,0 c -34.978,0 -63.335,-28.359 -63.335,-63.343" />
    </clipPath>
    <clipPath
       id="clipPath732-4"
       clipPathUnits="userSpaceOnUse">
      <path
         id="path734-6"
         d="m 0,0 1440,0 0,900 L 0,900 0,0 Z" />
    </clipPath>
    <clipPath
       id="clipPath212-8"
       clipPathUnits="userSpaceOnUse">
      <path
         id="path214-5"
         d="m 606.85,488 c 0,-9.942 8.059,-18 18,-18 l 0,0 c 9.942,0 18,8.058 18,18 l 0,0 c 0,9.941 -8.058,18 -18,18 l 0,0 c -9.941,0 -18,-8.059 -18,-18" />
    </clipPath>
    <clipPath
       id="clipPath212-8-8"
       clipPathUnits="userSpaceOnUse">
      <path
         id="path214-5-1"
         d="m 606.85,488 c 0,-9.942 8.059,-18 18,-18 l 0,0 c 9.942,0 18,8.058 18,18 l 0,0 c 0,9.941 -8.058,18 -18,18 l 0,0 c -9.941,0 -18,-8.059 -18,-18" />
    </clipPath>
    <clipPath
       id="clipPath212-8-8-5"
       clipPathUnits="userSpaceOnUse">
      <path
         id="path214-5-1-7"
         d="m 606.85,488 c 0,-9.942 8.059,-18 18,-18 l 0,0 c 9.942,0 18,8.058 18,18 l 0,0 c 0,9.941 -8.058,18 -18,18 l 0,0 c -9.941,0 -18,-8.059 -18,-18" />
    </clipPath>
  </defs>
  <metadata
     id="metadata4367">
    <rdf:RDF>
      <cc:Work
         rdf:about="">
        <dc:format>image/svg+xml</dc:format>
        <dc:type
           rdf:resource="http://purl.org/dc/dcmitype/StillImage" />
        <dc:title></dc:title>
      </cc:Work>
    </rdf:RDF>
  </metadata>
  <g
     transform="matrix(0.79661017,0,0,0.79661017,-52.060333,-100.10714)"
     id="layer1">
    <g
       transform="translate(-28.880817,10.938836)"
       id="g4467">
      <g
         id="g204"
         transform="matrix(1.25,0,0,-1.25,116.67858,159.02076)">
        <path
           d="M 0,0 C 9.65,0 17.5,7.851 17.5,17.5 17.5,27.149 9.65,35 0,35 -9.65,35 -17.5,27.149 -17.5,17.5 -17.5,7.851 -9.65,0 0,0"
           style="fill:#f04646;fill-opacity:1;fill-rule:nonzero;stroke:none"
           id="path206" />
      </g>
      <g
         id="g208"
         transform="matrix(1.25,0,0,-1.25,-664.32948,747.41465)">
        <g
           id="g210"
           clip-path="url(#clipPath212-8-8-5)">
          <g
             id="g216"
             transform="translate(630.7144,480.5523)">
            <path
               d="m 0,0 -2.882,1.352 0,2.348 c 0.562,0.521 0.96,1.518 1.195,2.989 0.093,0 0.211,0.023 0.351,0.071 0.516,0.236 0.82,0.687 0.914,1.352 l 0,0.498 c -0.047,0.996 -0.305,1.446 -0.773,1.352 0.141,1.042 0.211,1.921 0.211,2.632 -0.047,0.474 -0.188,0.972 -0.422,1.495 -0.938,1.659 -2.437,2.49 -4.498,2.49 -0.844,0 -1.664,-0.19 -2.46,-0.569 -1.594,-0.807 -2.437,-1.946 -2.531,-3.416 -0.047,-0.332 0.023,-1.209 0.211,-2.632 -0.094,0 -0.188,-0.025 -0.281,-0.072 -0.469,-0.19 -0.633,-0.782 -0.492,-1.778 0,-0.096 0.023,-0.214 0.07,-0.356 0.328,-0.807 0.726,-1.163 1.195,-1.067 0.094,-0.76 0.281,-1.448 0.563,-2.064 l 0.632,-0.925 0,-2.348 -3.022,-1.423 c -0.235,-0.096 -0.563,-0.238 -0.984,-0.427 -2.766,-1.044 -4.335,-1.898 -4.71,-2.562 -0.187,-0.284 -0.328,-0.949 -0.421,-1.992 l 0,-14.369 24.46,0 c 0.187,4.316 0.046,15.65 -0.422,16.361 -0.14,0.189 -0.375,0.427 -0.703,0.712 -0.469,0.331 -2.156,1.091 -5.06,2.277 C 0.093,-0.071 0.046,-0.048 0,0"
               style="fill:#ffffff;fill-opacity:1;fill-rule:nonzero;stroke:none"
               id="path218" />
          </g>
        </g>
      </g>
      <g
         id="g228"
         transform="matrix(1.25,0,0,-1.25,116.73315,159.28965)">
        <path
           d="M 0,0 C 9.65,0 17.5,7.851 17.5,17.5 17.5,27.149 9.65,35 0,35 -9.65,35 -17.5,27.149 -17.5,17.5 -17.5,7.851 -9.65,0 0,0 Z"
           style="fill:none;stroke:#f04646;stroke-width:1;stroke-linecap:butt;stroke-linejoin:miter;stroke-miterlimit:4;stroke-dasharray:none;stroke-opacity:1"
           id="path230" />
      </g>
    </g>
  </g>
  <g
     id="g19"
     transform="translate(0.04081422,0)">
    <g
       id="g21">
      <path
         style="fill:none;stroke:#f04646;stroke-width:2"
         id="path23"
         d="M 18,35 C 27.373,35 35,27.374 35,18 35,8.626 27.373,1 18,1 8.626,1 1,8.626 1,18 1,27.374 8.626,35 18,35 l 0,0 z" />
    </g>
  </g>
</svg>
