<?xml version="1.0" encoding="UTF-8" standalone="no"?>
<svg
   xmlns:dc="http://purl.org/dc/elements/1.1/"
   xmlns:cc="http://creativecommons.org/ns#"
   xmlns:rdf="http://www.w3.org/1999/02/22-rdf-syntax-ns#"
   xmlns:svg="http://www.w3.org/2000/svg"
   xmlns="http://www.w3.org/2000/svg"
   xmlns:sodipodi="http://sodipodi.sourceforge.net/DTD/sodipodi-0.dtd"
   xmlns:inkscape="http://www.inkscape.org/namespaces/inkscape"
   version="1.1"
   id="svg4362"
   viewBox="0 0 35.999999 35.999999"
   height="36"
   width="36"
   sodipodi:docname="ico36_uc_wtf_interest.svg"
   inkscape:version="0.92.2 (5c3e80d, 2017-08-06)">
  <defs
     id="defs12" />
  <sodipodi:namedview
     pagecolor="#ffffff"
     bordercolor="#666666"
     borderopacity="1"
     objecttolerance="10"
     gridtolerance="10"
     guidetolerance="10"
     inkscape:pageopacity="0"
     inkscape:pageshadow="2"
     inkscape:window-width="2560"
     inkscape:window-height="1377"
     id="namedview38"
     showgrid="false"
     inkscape:object-nodes="true"
     inkscape:snap-others="true"
     inkscape:snap-global="false"
     inkscape:zoom="16"
     inkscape:cx="1.0880232"
     inkscape:cy="29.780637"
     inkscape:window-x="-8"
     inkscape:window-y="-8"
     inkscape:window-maximized="1"
     inkscape:current-layer="svg4362"
     inkscape:snap-bbox="true"
     inkscape:snap-bbox-midpoints="true"
     inkscape:snap-bbox-edge-midpoints="true"
     inkscape:bbox-nodes="true"
     inkscape:snap-nodes="true"
     inkscape:snap-midpoints="true"
     inkscape:snap-smooth-nodes="true"
     inkscape:snap-intersection-paths="true"
     inkscape:object-paths="true"
     inkscape:snap-object-midpoints="true"
     inkscape:snap-center="true" />
  <metadata
     id="metadata4367">
    <rdf:RDF>
      <cc:Work
         rdf:about="">
        <dc:format>image/svg+xml</dc:format>
        <dc:type
           rdf:resource="http://purl.org/dc/dcmitype/StillImage" />
        <dc:title></dc:title>
      </cc:Work>
    </rdf:RDF>
  </metadata>
  <path
     style="font-style:normal;font-variant:normal;font-weight:normal;font-stretch:normal;font-size:medium;line-height:normal;font-family:sans-serif;font-variant-ligatures:normal;font-variant-position:normal;font-variant-caps:normal;font-variant-numeric:normal;font-variant-alternates:normal;font-feature-settings:normal;text-indent:0;text-align:start;text-decoration:none;text-decoration-line:none;text-decoration-style:solid;letter-spacing:normal;word-spacing:normal;text-transform:none;writing-mode:lr-tb;direction:ltr;text-orientation:mixed;dominant-baseline:auto;baseline-shift:baseline;text-anchor:start;white-space:normal;shape-padding:0;clip-rule:nonzero;display:inline;overflow:visible;visibility:visible;opacity:1;isolation:auto;mix-blend-mode:normal;color-interpolation:sRGB;color-interpolation-filters:linearRGB;solid-opacity:1;vector-effect:none;fill-opacity:1;fill-rule:nonzero;stroke:none;stroke-width:0.99912089;stroke-linecap:square;stroke-linejoin:round;stroke-miterlimit:4;stroke-dasharray:none;stroke-dashoffset:0;stroke-opacity:1;paint-order:fill markers stroke;color-rendering:auto;image-rendering:auto;shape-rendering:auto;text-rendering:auto;enable-background:accumulate;fill:var(--local-primary)"
     d="m 25.565199,0.98150197 c -5.248855,-6e-8 -9.515282,4.26534373 -9.515282,9.51419903 0,5.248854 4.266427,9.514198 9.515282,9.514197 0.656106,0 1.297161,-0.06619 1.916716,-0.192972 0.619555,-0.12678 1.217282,-0.313171 1.786623,-0.553984 -0.125772,0.0532 0.01739,0.0017 0.185383,0.0076 0.16799,0.0058 0.402585,0.02675 0.672153,0.05854 0.539132,0.06358 1.223674,0.17122 1.891781,0.286206 1.336214,0.22997 2.608381,0.488936 2.608381,0.488936 0.524294,0.105493 0.825397,-0.5753 0.394619,-0.892227 0,0 -0.788633,-0.577544 -1.517761,-1.196864 -0.364565,-0.309659 -0.714816,-0.633089 -0.924751,-0.872713 -0.05879,-0.06711 -0.07086,-0.09364 -0.102991,-0.139851 0.35162,-0.373375 0.690807,-0.760587 0.978957,-1.187106 0.341934,-0.506127 0.636238,-1.047074 0.87705,-1.616417 0.240811,-0.569341 0.428288,-1.167067 0.555067,-1.786621 0.126781,-0.619556 0.192973,-1.26061 0.192973,-1.916716 0,-5.2488553 -4.265345,-9.51419884 -9.514199,-9.51419922 z M 28.19418,5.1976275 31.109366,5.699573 29.94611,12.135967 27.244493,11.670882 Z m -5.220018,0.2081502 c 0.804867,-0.00839 1.517167,0.2361946 2.136792,0.7339462 0.712709,0.5633163 1.11418,1.308898 1.204452,2.2386988 0.111369,1.1470919 -0.275339,1.9979193 -1.160003,2.5530923 -0.288477,0.181035 -0.460056,0.330191 -0.514955,0.44774 -0.05489,0.11755 -0.0646,0.35927 -0.02927,0.723105 l -2.812197,0.273197 -0.04553,-0.478095 c -0.06132,-0.631657 -0.03666,-1.103974 0.07589,-1.415855 0.112056,-0.316934 0.348008,-0.5764165 0.705758,-0.7794795 L 23.027284,9.4245939 C 23.399705,9.2150061 23.57049,8.9540813 23.540071,8.6407786 23.522408,8.4588609 23.445584,8.3103576 23.306987,8.1962913 23.16839,8.082225 23.007558,8.034442 22.825639,8.0521038 c -0.49522,0.04808 -0.709604,0.4163853 -0.642881,1.1036295 l -2.614886,0.2536834 c -0.08929,-0.9196936 0.05042,-1.6911659 0.418469,-2.3135028 0.271599,-0.4599452 0.645233,-0.8403398 1.120975,-1.1415738 0.475743,-0.3012339 0.981032,-0.4781272 1.516677,-0.5301325 0.118753,-0.011531 0.235189,-0.017231 0.350169,-0.01843 z m 5.100764,6.9903773 c 0.118962,-0.0025 0.239971,0.0067 0.364264,0.02819 0.497169,0.08558 0.891821,0.339724 1.184938,0.761048 0.298191,0.422199 0.405396,0.881827 0.319813,1.378995 -0.08558,0.49717 -0.335914,0.8906 -0.751292,1.179517 -0.414504,0.283847 -0.873499,0.382419 -1.375742,0.295965 -0.522535,-0.08995 -0.92544,-0.331934 -1.207705,-0.725272 -0.276318,-0.397538 -0.36965,-0.857545 -0.279701,-1.38008 0.08733,-0.507316 0.33665,-0.905987 0.746956,-1.195779 0.308383,-0.221148 0.641591,-0.335291 0.998469,-0.34258 z m -4.419939,0.238505 c 0.351361,0.0339 0.672358,0.171888 0.963779,0.415216 0.393615,0.323949 0.615399,0.734168 0.663478,1.229388 0.04809,0.495219 -0.08776,0.933098 -0.407627,1.316116 -0.320367,0.377966 -0.731282,0.592142 -1.231555,0.640712 -0.520486,0.05054 -0.965766,-0.07554 -1.336715,-0.376188 -0.366387,-0.306188 -0.575001,-0.718658 -0.625534,-1.239143 -0.04907,-0.505328 0.08305,-0.949851 0.39787,-1.332379 0.314333,-0.387581 0.720074,-0.604557 1.215294,-0.652637 0.123806,-0.01202 0.243891,-0.01239 0.36101,-0.0011 z"
     id="path828-5"
     inkscape:connector-curvature="0" />
  <path
     style="font-style:normal;font-variant:normal;font-weight:normal;font-stretch:normal;font-size:medium;line-height:normal;font-family:sans-serif;font-variant-ligatures:normal;font-variant-position:normal;font-variant-caps:normal;font-variant-numeric:normal;font-variant-alternates:normal;font-feature-settings:normal;text-indent:0;text-align:start;text-decoration:none;text-decoration-line:none;text-decoration-style:solid;letter-spacing:normal;word-spacing:normal;text-transform:none;writing-mode:lr-tb;direction:ltr;text-orientation:mixed;dominant-baseline:auto;baseline-shift:baseline;text-anchor:start;white-space:normal;shape-padding:0;clip-rule:nonzero;display:inline;overflow:visible;visibility:visible;opacity:1;isolation:auto;mix-blend-mode:normal;color-interpolation:sRGB;color-interpolation-filters:linearRGB;solid-opacity:1;vector-effect:none;fill-opacity:1;fill-rule:nonzero;stroke:none;stroke-width:1.03554904;stroke-linecap:square;stroke-linejoin:round;stroke-miterlimit:4;stroke-dasharray:none;stroke-dashoffset:0;stroke-opacity:1;paint-order:fill markers stroke;color-rendering:auto;image-rendering:auto;shape-rendering:auto;text-rendering:auto;enable-background:accumulate;fill:var(--local-primary)"
     d="M 10.919922 15.494141 C 5.4796925 15.494142 1.0585938 19.915241 1.0585938 25.355469 C 1.0585937 26.035498 1.1283636 26.699653 1.2597656 27.341797 C 1.3911676 27.983942 1.5843924 28.60326 1.8339844 29.193359 C 2.0835754 29.783459 2.3897406 30.34456 2.7441406 30.869141 C 3.0429106 31.311378 3.3932125 31.712497 3.7578125 32.099609 C 3.7245025 32.147549 3.7115606 32.174321 3.6503906 32.244141 C 3.4328006 32.492501 3.0692622 32.827486 2.6914062 33.148438 C 1.9356934 33.790339 1.1191406 34.388672 1.1191406 34.388672 C 0.67265666 34.717154 0.98393461 35.423786 1.5273438 35.314453 C 1.5273437 35.314453 2.8474899 35.044997 4.2324219 34.806641 C 4.9248879 34.687463 5.6326162 34.575656 6.1914062 34.509766 C 6.4708013 34.476826 6.7145569 34.457172 6.8886719 34.451172 C 7.0627849 34.445172 7.2123884 34.496546 7.0820312 34.441406 C 7.6721303 34.690998 8.2914493 34.884223 8.9335938 35.015625 C 9.5757386 35.147027 10.239893 35.216797 10.919922 35.216797 C 16.360151 35.216797 20.78125 30.795697 20.78125 25.355469 C 20.78125 19.915241 16.360151 15.494141 10.919922 15.494141 z M 6.78125 27.75 A 1.6875 1.6875 0 0 1 8.46875 29.4375 A 1.6875 1.6875 0 0 1 6.78125 31.125 A 1.6875 1.6875 0 0 1 5.09375 29.4375 A 1.6875 1.6875 0 0 1 6.78125 27.75 z M 10.84375 27.75 A 1.6875 1.6875 0 0 1 12.53125 29.4375 A 1.6875 1.6875 0 0 1 10.84375 31.125 A 1.6875 1.6875 0 0 1 9.15625 29.4375 A 1.6875 1.6875 0 0 1 10.84375 27.75 z M 14.90625 27.75 A 1.6875 1.6875 0 0 1 16.59375 29.4375 A 1.6875 1.6875 0 0 1 14.90625 31.125 A 1.6875 1.6875 0 0 1 13.21875 29.4375 A 1.6875 1.6875 0 0 1 14.90625 27.75 z "
     id="path828" />
</svg>
