<?xml version="1.0" encoding="UTF-8" standalone="no"?>
<svg
   xmlns:dc="http://purl.org/dc/elements/1.1/"
   xmlns:cc="http://creativecommons.org/ns#"
   xmlns:rdf="http://www.w3.org/1999/02/22-rdf-syntax-ns#"
   xmlns:svg="http://www.w3.org/2000/svg"
   xmlns="http://www.w3.org/2000/svg"
   version="1.1"
   id="Layer_1"
   x="0px"
   y="0px"
   width="36px"
   height="36px"
   viewBox="0 0 36 36"
   enable-background="new 0 0 36 36"
   xml:space="preserve"><metadata
     id="metadata13"><rdf:RDF><cc:Work
         rdf:about=""><dc:format>image/svg+xml</dc:format><dc:type
           rdf:resource="http://purl.org/dc/dcmitype/StillImage" /><dc:title></dc:title></cc:Work></rdf:RDF></metadata><defs
     id="defs11"><clipPath
       id="clipPath6471"
       clipPathUnits="userSpaceOnUse"><path
         id="path6473"
         d="m 0,0 1440,0 0,900 L 0,900 0,0 Z" /></clipPath><clipPath
       id="clipPath6507"
       clipPathUnits="userSpaceOnUse"><path
         id="path6509"
         d="m 0,0 1440,0 0,900 L 0,900 0,0 Z" /></clipPath><clipPath
       id="clipPath6507-9"
       clipPathUnits="userSpaceOnUse"><path
         id="path6509-2"
         d="m 0,0 1440,0 0,900 L 0,900 0,0 Z" /></clipPath></defs><g
     id="g5624"><g
       style="stroke:#ffffff;stroke-opacity:1"
       transform="matrix(1.1584034,0,0,-1.1926229,18.1677,34.734862)"
       id="g6511"><path
         id="path6513"
         style="fill:none;stroke:#ffffff;stroke-width:2;stroke-linecap:butt;stroke-linejoin:miter;stroke-miterlimit:10;stroke-dasharray:none;stroke-opacity:1"
         d="M 0,0 C 7.732,0 14,6.268 14,14 14,21.732 7.732,28 0,28 -7.732,28 -14,21.732 -14,14 -14,6.268 -7.732,0 0,0 Z" /></g><g
       style="stroke:#ffffff;stroke-opacity:1;fill:#ffffff;fill-opacity:1"
       transform="matrix(1.1584034,0,0,-1.1926229,12.954885,15.056585)"
       id="g6515"><path
         id="path6517"
         style="fill:#ffffff;fill-opacity:1;fill-rule:nonzero;stroke:#ffffff;stroke-opacity:1"
         d="M 0,0 C 0.552,0 1,0.448 1,1 1,1.552 0.552,2 0,2 -0.552,2 -1,1.552 -1,1 -1,0.448 -0.552,0 0,0" /></g><g
       style="stroke:#ffffff;stroke-opacity:1;fill:#ffffff;fill-opacity:1"
       transform="matrix(1.1584034,0,0,-1.1926229,12.954885,15.056585)"
       id="g6519"><path
         id="path6521"
         style="fill:#ffffff;stroke:#ffffff;stroke-width:3;stroke-linecap:butt;stroke-linejoin:miter;stroke-miterlimit:10;stroke-dasharray:none;stroke-opacity:1;fill-opacity:1"
         d="M 0,0 C 0.552,0 1,0.448 1,1 1,1.552 0.552,2 0,2 -0.552,2 -1,1.552 -1,1 -1,0.448 -0.552,0 0,0 Z" /></g><g
       style="stroke:#ffffff;stroke-opacity:1;fill:#ffffff;fill-opacity:1"
       transform="matrix(1.1584034,0,0,-1.1926229,23.380515,15.056585)"
       id="g6523"><path
         id="path6525"
         style="fill:#ffffff;fill-opacity:1;fill-rule:nonzero;stroke:#ffffff;stroke-opacity:1"
         d="M 0,0 C 0.552,0 1,0.448 1,1 1,1.552 0.552,2 0,2 -0.552,2 -1,1.552 -1,1 -1,0.448 -0.552,0 0,0" /></g><g
       style="stroke:#ffffff;stroke-opacity:1;fill:#ffffff;fill-opacity:1"
       transform="matrix(1.1584034,0,0,-1.1926229,23.380515,15.056585)"
       id="g6527"><path
         id="path6529"
         style="fill:#ffffff;stroke:#ffffff;stroke-width:3;stroke-linecap:butt;stroke-linejoin:miter;stroke-miterlimit:10;stroke-dasharray:none;stroke-opacity:1;fill-opacity:1"
         d="M 0,0 C 0.552,0 1,0.448 1,1 1,1.552 0.552,2 0,2 -0.552,2 -1,1.552 -1,1 -1,0.448 -0.552,0 0,0 Z" /></g><g
       style="stroke:#ffffff;stroke-opacity:1"
       transform="matrix(1.1584034,0,0,-1.1926229,12.954884,25.790185)"
       id="g6531"><path
         id="path6533"
         style="fill:none;stroke:#ffffff;stroke-width:2;stroke-linecap:butt;stroke-linejoin:miter;stroke-miterlimit:10;stroke-dasharray:none;stroke-opacity:1"
         d="M 0,0 9,0" /></g></g></svg>