<?xml version="1.0" encoding="UTF-8" standalone="no"?>
<svg 
	xmlns:dc="http://purl.org/dc/elements/1.1/" 
	xmlns:cc="http://creativecommons.org/ns#" 
	xmlns:rdf="http://www.w3.org/1999/02/22-rdf-syntax-ns#" 
	xmlns:svg="http://www.w3.org/2000/svg" 
	xmlns="http://www.w3.org/2000/svg" version="1.1" id="detail_floorsize" width="36px" height="36px" viewBox="0 0 36 36">
	<metadata id="metadata29">
		<rdf:RDF>
			<cc:Work rdf:about="">
				<dc:format>image/svg+xml</dc:format>
				<dc:type rdf:resource="http://purl.org/dc/dcmitype/StillImage" />
				<dc:title></dc:title>
			</cc:Work>
		</rdf:RDF>
	</metadata>
	<path id="rect850" d="m 7.8624747,6.1236202 v 5.3906248 0.04492 12.595703 H 29.827318 V 11.514245 h -9.90039 V 6.1236202 Z" style="fill:none;fill-opacity:1;stroke:var(--local-primary);stroke-width:1.2;stroke-opacity:1" />
	<path id="path855" d="M 22.626953 11.648438 L 22.626953 20.251953 L 22.626953 11.648438 z M 22.626953 22.867188 L 22.626953 24.111328 L 22.626953 22.867188 z " style="fill:none;stroke:var(--local-primary);stroke-width:0.9;stroke-opacity:1" />
	<path id="path857" d="M 7.8671875 14.875 L 12.5 14.875 L 7.8671875 14.875 z M 15.492188 14.875 L 22.671875 14.875 L 15.492188 14.875 z " style="fill:none;stroke:var(--local-primary);stroke-width:0.9;stroke-opacity:1" />
	<path id="path893" d="M 30.3125,28.0625 H 7.0625" style="fill:none;stroke:var(--local-primary);stroke-width:0.9;stroke-opacity:1" />
	<path id="path895" d="M 3.75,24.5625 V 6.0000001" style="fill:none;stroke:var(--local-primary);stroke-width:0.9;stroke-opacity:1" />
	<path id="path897" d="m 3.6271059,6.3199248 -1.78125,1.78125" style="fill:none;stroke:var(--local-primary);stroke-width:0.89999998;stroke-opacity:1" />
	<path id="path897-4" d="m 5.6523438,8.1015625 -1.78125,-1.78125" style="display:inline;fill:none;stroke:var(--local-primary);stroke-width:0.9;stroke-opacity:1" />
	<path id="path897-5" d="m 29.992223,27.941685 -1.78125,-1.78125" style="display:inline;fill:none;stroke:var(--local-primary);stroke-width:0.9;stroke-opacity:1" />
	<path id="path897-3" d="m 9.1646702,29.966955 -1.78125,-1.78125" style="display:inline;fill:none;stroke:var(--local-primary);stroke-width:0.9;stroke-opacity:1" />
	<path id="path897-1" d="m 3.6210937,24.246094 -1.78125,-1.78125" style="display:inline;fill:none;stroke:var(--local-primary);stroke-width:0.9;stroke-opacity:1" />
	<path id="path897-41" d="m 29.996094,28.183594 -1.78125,1.78125" style="display:inline;fill:none;stroke:var(--local-primary);stroke-width:0.9;stroke-opacity:1" />
	<path id="path897-8" d="m 9.1621404,26.159744 -1.78125,1.78125" style="display:inline;fill:none;stroke:var(--local-primary);stroke-width:0.9;stroke-opacity:1" />
	<path id="path897-53" d="m 5.6679688,22.464843 -1.78125,1.78125" style="display:inline;fill:none;stroke:var(--local-primary);stroke-width:0.9;stroke-opacity:1" />
</svg>