<?xml version="1.0" encoding="UTF-8" standalone="no"?>
<!-- Created with Inkscape (http://www.inkscape.org/) -->

<svg
   xmlns:dc="http://purl.org/dc/elements/1.1/"
   xmlns:cc="http://creativecommons.org/ns#"
   xmlns:rdf="http://www.w3.org/1999/02/22-rdf-syntax-ns#"
   xmlns:svg="http://www.w3.org/2000/svg"
   xmlns="http://www.w3.org/2000/svg"
   xmlns:sodipodi="http://sodipodi.sourceforge.net/DTD/sodipodi-0.dtd"
   xmlns:inkscape="http://www.inkscape.org/namespaces/inkscape"
   width="6.28194mm"
   height="7.7471209mm"
   viewBox="0 0 6.28194 7.7471209"
   version="1.1"
   id="svg335"
   inkscape:version="0.92.2 (5c3e80d, 2017-08-06)">
  <defs
     id="defs329" />
  <sodipodi:namedview
     id="base"
     pagecolor="#ffffff"
     bordercolor="#666666"
     borderopacity="1.0"
     inkscape:pageopacity="0.0"
     inkscape:pageshadow="2"
     inkscape:zoom="5.6"
     inkscape:cx="29.093693"
     inkscape:cy="-17.087355"
     inkscape:document-units="mm"
     inkscape:current-layer="layer1"
     showgrid="false"
     fit-margin-top="0"
     fit-margin-left="0"
     fit-margin-right="0"
     fit-margin-bottom="0"
     inkscape:window-width="1920"
     inkscape:window-height="1137"
     inkscape:window-x="1912"
     inkscape:window-y="-8"
     inkscape:window-maximized="1" />
  <metadata
     id="metadata332">
    <rdf:RDF>
      <cc:Work
         rdf:about="">
        <dc:format>image/svg+xml</dc:format>
        <dc:type
           rdf:resource="http://purl.org/dc/dcmitype/StillImage" />
        <dc:title></dc:title>
      </cc:Work>
    </rdf:RDF>
  </metadata>
  <g
     inkscape:label="Layer 1"
     inkscape:groupmode="layer"
     id="layer1"
     transform="translate(-108.39346,-199.38496)">
    <path
       style="stroke-width:0.02362351;fill:var(--local-primary)"
       d="m 109.15435,207.0586 c -3e-5,-0.0368 -0.0169,-0.19623 -0.0379,-0.35435 -0.0251,-0.19105 -0.0345,-0.3945 -0.0279,-0.60642 0.009,-0.28556 0.0169,-0.33408 0.0753,-0.4639 0.036,-0.0797 0.099,-0.17725 0.1401,-0.2167 0.0411,-0.0394 0.21825,-0.14848 0.39367,-0.24231 0.58283,-0.31176 0.86691,-0.53085 0.98169,-0.75711 0.0521,-0.10264 0.10498,-0.44054 0.10498,-0.67048 v -0.0776 l -0.18309,0.0921 c -0.18568,0.0934 -0.37851,0.15018 -0.57483,0.16913 l -0.10827,0.0104 0.0304,-0.0852 c 0.0655,-0.18316 0.0633,-0.18507 -0.2214,-0.19666 -0.16888,-0.007 -0.28723,-0.0243 -0.35327,-0.052 l -0.0993,-0.0417 0.16108,-0.0806 c 0.22196,-0.11105 0.36579,-0.26797 0.40463,-0.44148 0.0265,-0.11849 0.0238,-0.15975 -0.027,-0.3994 -0.0508,-0.2399 -0.0566,-0.32532 -0.0562,-0.83423 0,-0.61124 0.0222,-0.78727 0.14545,-1.1782 0.17785,-0.56396 0.48709,-0.8876 0.88672,-0.92804 0.1106,-0.0112 0.16976,-0.0315 0.2313,-0.0793 0.3411,-0.26502 0.85288,-0.30653 1.3707,-0.11119 0.33766,0.12738 0.56057,0.32723 0.72864,0.6532 0.31779,0.61643 0.41637,1.43631 0.29794,2.4779 -0.0474,0.41667 -0.01,0.57888 0.16902,0.73617 0.0485,0.0426 0.1402,0.10156 0.2037,0.13098 l 0.11544,0.0535 -0.1257,0.0432 c -0.0966,0.0332 -0.19815,0.0434 -0.43866,0.0438 l -0.31292,5.2e-4 -1.1e-4,0.075 c -2e-5,0.0463 0.0233,0.10278 0.0611,0.14765 l 0.0611,0.0727 -0.13793,-1.4e-4 c -0.16314,-1.7e-4 -0.27003,-0.0269 -0.48852,-0.12205 -0.0889,-0.0387 -0.16502,-0.0669 -0.16923,-0.0627 -0.0138,0.014 0.0351,0.43121 0.0618,0.52729 0.0674,0.24168 0.27715,0.41886 0.96589,0.81578 0.77764,0.44815 1.0355,0.6566 1.18314,0.9565 0.0812,0.16493 0.0819,0.17042 0.10049,0.78256 l 0.009,0.28686 -2.76045,-0.003 -2.76043,-0.003 -2e-5,-0.0668 z"
       id="path144-9"
       inkscape:connector-curvature="0" />
    <path
       style="stroke-width:0.02362351;fill:var(--local-primary)"
       d="m 113.91451,207.05198 c 3e-5,-0.0368 0.0169,-0.19623 0.0379,-0.35435 0.0251,-0.19105 0.0345,-0.3945 0.0279,-0.60642 -0.009,-0.28556 -0.0169,-0.33408 -0.0753,-0.4639 -0.036,-0.0797 -0.099,-0.17725 -0.1401,-0.2167 -0.0411,-0.0394 -0.21825,-0.14848 -0.39367,-0.24231 -0.58283,-0.31176 -0.86691,-0.53085 -0.98169,-0.75711 -0.0521,-0.10264 -0.10498,-0.44054 -0.10498,-0.67048 v -0.0776 l 0.18309,0.0921 c 0.18568,0.0934 0.37851,0.15018 0.57483,0.16913 l 0.10827,0.0104 -0.0304,-0.0852 c -0.0655,-0.18316 -0.0633,-0.18507 0.2214,-0.19666 0.16888,-0.007 0.28723,-0.0243 0.35327,-0.052 l 0.0993,-0.0417 -0.16108,-0.0806 c -0.22196,-0.11105 -0.36579,-0.26797 -0.40463,-0.44148 -0.0265,-0.11849 -0.0238,-0.15975 0.027,-0.3994 0.0508,-0.2399 0.0566,-0.32532 0.0562,-0.83423 0,-0.61124 -0.0222,-0.78727 -0.14545,-1.1782 -0.17785,-0.56396 -0.48709,-0.8876 -0.88672,-0.92804 -0.1106,-0.0112 -0.16976,-0.0315 -0.2313,-0.0793 -0.3411,-0.26502 -0.85288,-0.30653 -1.3707,-0.11119 -0.33766,0.12738 -0.56057,0.32723 -0.72864,0.6532 -0.31779,0.61643 -0.41637,1.43631 -0.29794,2.4779 0.0474,0.41667 0.01,0.57888 -0.16902,0.73617 -0.0485,0.0426 -0.1402,0.10156 -0.2037,0.13098 l -0.11544,0.0535 0.1257,0.0432 c 0.0966,0.0332 0.19815,0.0434 0.43866,0.0438 l 0.31292,5.2e-4 1.1e-4,0.075 c 2e-5,0.0463 -0.0233,0.10278 -0.0611,0.14765 l -0.0611,0.0727 0.13793,-1.4e-4 c 0.16314,-1.7e-4 0.27003,-0.0269 0.48852,-0.12205 0.0889,-0.0387 0.16502,-0.0669 0.16923,-0.0627 0.0138,0.014 -0.0351,0.43121 -0.0618,0.52729 -0.0674,0.24168 -0.27715,0.41886 -0.96589,0.81578 -0.77764,0.44815 -1.0355,0.6566 -1.18314,0.9565 -0.0812,0.16493 -0.0819,0.17042 -0.10049,0.78256 l -0.009,0.28686 2.76045,-0.003 2.76043,-0.003 2e-5,-0.0668 z"
       id="path144-9-3"
       inkscape:connector-curvature="0" />
  </g>
</svg>
