<?xml version="1.0" encoding="UTF-8" standalone="no"?>
<svg
   xmlns:dc="http://purl.org/dc/elements/1.1/"
   xmlns:cc="http://creativecommons.org/ns#"
   xmlns:rdf="http://www.w3.org/1999/02/22-rdf-syntax-ns#"
   xmlns:svg="http://www.w3.org/2000/svg"
   xmlns="http://www.w3.org/2000/svg"
   xmlns:sodipodi="http://sodipodi.sourceforge.net/DTD/sodipodi-0.dtd"
   xmlns:inkscape="http://www.inkscape.org/namespaces/inkscape"
   version="1.1"
   id="detail_time"
   width="36px"
   height="36px"
   viewBox="0 0 36 36"
   sodipodi:docname="ico36_pokeball.svg"
   inkscape:version="0.92.3 (2405546, 2018-03-11)">
  <defs
     id="defs1012" />
  <sodipodi:namedview
     borderopacity="1"
     objecttolerance="10"
     gridtolerance="10"
     guidetolerance="10"
     inkscape:pageopacity="0"
     inkscape:pageshadow="2"
     inkscape:window-width="2560"
     inkscape:window-height="1377"
     id="namedview1010"
     showgrid="false"
     inkscape:zoom="16.777778"
     inkscape:cx="2.3424958"
     inkscape:cy="13.235796"
     inkscape:window-x="-8"
     inkscape:window-y="-8"
     inkscape:window-maximized="1"
     inkscape:current-layer="detail_time" />
  <metadata
     id="metadata29">
    <rdf:RDF>
      <cc:Work
         rdf:about="">
        <dc:format>image/svg+xml</dc:format>
        <dc:type
           rdf:resource="http://purl.org/dc/dcmitype/StillImage" />
        <dc:title />
      </cc:Work>
    </rdf:RDF>
  </metadata>
  <g
     inkscape:groupmode="layer"
     id="layer1"
     inkscape:label="Layer 1" />
  <circle
     style="fill:none"
     id="path1016"
     cx="17.940397"
     cy="17.821192"
     r="8.7913904" />
  <path
     style="fill:var(--local-primary)"
     d="M 18 3.4277344 A 14.572847 14.572847 0 0 0 3.4277344 18 A 14.572847 14.572847 0 0 0 18 32.572266 A 14.572847 14.572847 0 0 0 32.572266 18 A 14.572847 14.572847 0 0 0 18 3.4277344 z M 18 5.5722656 A 12.15894 12.427153 0 0 1 30.158203 18 A 12.15894 12.427153 0 0 1 18 30.427734 A 12.15894 12.427153 0 0 1 5.8417969 18 A 12.15894 12.427153 0 0 1 18 5.5722656 z "
     id="path850" />
  <path
     style="fill:var(--local-primary);stroke-width:1.43788481"
     d="M 18.833984 4.4707031 L 10.429688 6.9140625 L 6.1992188 12.277344 L 4.6484375 17.820312 L 11.121094 17.849609 A 6.8841057 6.9139071 0 0 1 18 11.085938 A 6.8841057 6.9139071 0 0 1 24.880859 17.910156 L 31.470703 17.939453 L 28.548828 8.9394531 L 18.833984 4.4707031 z M 24.880859 17.910156 L 22.794922 17.900391 A 4.7980132 4.7980132 0 0 1 22.798828 18 A 4.7980132 4.7980132 0 0 1 18 22.798828 A 4.7980132 4.7980132 0 0 1 13.201172 18 A 4.7980132 4.7980132 0 0 1 13.208984 17.857422 L 11.121094 17.849609 A 6.8841057 6.9139071 0 0 0 11.115234 18 A 6.8841057 6.9139071 0 0 0 18 24.914062 A 6.8841057 6.9139071 0 0 0 24.884766 18 A 6.8841057 6.9139071 0 0 0 24.880859 17.910156 z M 13.208984 17.857422 L 22.794922 17.900391 A 4.7980132 4.7980132 0 0 0 18 13.201172 A 4.7980132 4.7980132 0 0 0 13.208984 17.857422 z "
     id="path856-1" />
</svg>
