<?xml version="1.0" encoding="UTF-8" standalone="no"?>
<svg
   xmlns:dc="http://purl.org/dc/elements/1.1/"
   xmlns:cc="http://creativecommons.org/ns#"
   xmlns:rdf="http://www.w3.org/1999/02/22-rdf-syntax-ns#"
   xmlns:svg="http://www.w3.org/2000/svg"
   xmlns="http://www.w3.org/2000/svg"
   xmlns:sodipodi="http://sodipodi.sourceforge.net/DTD/sodipodi-0.dtd"
   xmlns:inkscape="http://www.inkscape.org/namespaces/inkscape"
   version="1.1"
   id="svg4362"
   viewBox="0 0 36.040812 35.999999"
   height="36"
   width="36.040813"
   sodipodi:docname="ico36_person_all.svg"
   inkscape:version="0.92.2 (5c3e80d, 2017-08-06)">
  <sodipodi:namedview
     pagecolor="#ffffff"
     bordercolor="#666666"
     borderopacity="1"
     objecttolerance="10"
     gridtolerance="10"
     guidetolerance="10"
     inkscape:pageopacity="0"
     inkscape:pageshadow="2"
     inkscape:window-width="2136"
     inkscape:window-height="1141"
     id="namedview38"
     showgrid="false"
     inkscape:snap-nodes="false"
     inkscape:snap-global="false"
     inkscape:zoom="2"
     inkscape:cx="4.9110392"
     inkscape:cy="23.112923"
     inkscape:window-x="187"
     inkscape:window-y="51"
     inkscape:window-maximized="0"
     inkscape:current-layer="svg4362" />
  <defs
     id="defs4364">
    <clipPath
       id="clipPath708"
       clipPathUnits="userSpaceOnUse">
      <path
         id="path710"
         d="m 0,0 1440,0 0,900 L 0,900 0,0 Z" />
    </clipPath>
    <clipPath
       id="clipPath720"
       clipPathUnits="userSpaceOnUse">
      <path
         id="path722"
         d="m 944.383,652.172 c 0,-34.969 28.357,-63.328 63.335,-63.328 l 0,0 c 34.979,0 63.335,28.359 63.335,63.328 l 0,0 c 0,34.984 -28.356,63.343 -63.335,63.343 l 0,0 c -34.978,0 -63.335,-28.359 -63.335,-63.343" />
    </clipPath>
    <clipPath
       id="clipPath732"
       clipPathUnits="userSpaceOnUse">
      <path
         id="path734"
         d="m 0,0 1440,0 0,900 L 0,900 0,0 Z" />
    </clipPath>
    <clipPath
       id="clipPath212"
       clipPathUnits="userSpaceOnUse">
      <path
         id="path214"
         d="m 606.85,488 c 0,-9.942 8.059,-18 18,-18 l 0,0 c 9.942,0 18,8.058 18,18 l 0,0 c 0,9.941 -8.058,18 -18,18 l 0,0 c -9.941,0 -18,-8.059 -18,-18" />
    </clipPath>
    <clipPath
       id="clipPath708-2"
       clipPathUnits="userSpaceOnUse">
      <path
         id="path710-7"
         d="m 0,0 1440,0 0,900 L 0,900 0,0 Z" />
    </clipPath>
    <clipPath
       id="clipPath720-7"
       clipPathUnits="userSpaceOnUse">
      <path
         id="path722-4"
         d="m 944.383,652.172 c 0,-34.969 28.357,-63.328 63.335,-63.328 l 0,0 c 34.979,0 63.335,28.359 63.335,63.328 l 0,0 c 0,34.984 -28.356,63.343 -63.335,63.343 l 0,0 c -34.978,0 -63.335,-28.359 -63.335,-63.343" />
    </clipPath>
    <clipPath
       id="clipPath732-4"
       clipPathUnits="userSpaceOnUse">
      <path
         id="path734-6"
         d="m 0,0 1440,0 0,900 L 0,900 0,0 Z" />
    </clipPath>
    <clipPath
       id="clipPath212-8"
       clipPathUnits="userSpaceOnUse">
      <path
         id="path214-5"
         d="m 606.85,488 c 0,-9.942 8.059,-18 18,-18 l 0,0 c 9.942,0 18,8.058 18,18 l 0,0 c 0,9.941 -8.058,18 -18,18 l 0,0 c -9.941,0 -18,-8.059 -18,-18" />
    </clipPath>
    <clipPath
       id="clipPath212-8-8"
       clipPathUnits="userSpaceOnUse">
      <path
         id="path214-5-1"
         d="m 606.85,488 c 0,-9.942 8.059,-18 18,-18 l 0,0 c 9.942,0 18,8.058 18,18 l 0,0 c 0,9.941 -8.058,18 -18,18 l 0,0 c -9.941,0 -18,-8.059 -18,-18" />
    </clipPath>
    <clipPath
       id="clipPath212-8-8-5"
       clipPathUnits="userSpaceOnUse">
      <path
         id="path214-5-1-7"
         d="m 606.85,488 c 0,-9.942 8.059,-18 18,-18 l 0,0 c 9.942,0 18,8.058 18,18 l 0,0 c 0,9.941 -8.058,18 -18,18 l 0,0 c -9.941,0 -18,-8.059 -18,-18" />
    </clipPath>
  </defs>
  <metadata
     id="metadata4367">
    <rdf:RDF>
      <cc:Work
         rdf:about="">
        <dc:format>image/svg+xml</dc:format>
        <dc:type
           rdf:resource="http://purl.org/dc/dcmitype/StillImage" />
        <dc:title></dc:title>
      </cc:Work>
    </rdf:RDF>
  </metadata>
  <path
     style="fill:var(--local-primary);fill-opacity:1;fill-rule:nonzero;stroke:none;stroke-width:1.02349913"
     d="M 18.046875 -45.105469 C 8.1701087 -45.105469 0.13476562 -37.069102 0.13476562 -27.193359 C 0.13476562 -17.317617 8.1701087 -9.2832031 18.046875 -9.2832031 C 27.923641 -9.2832031 35.957031 -17.317617 35.957031 -27.193359 C 35.957031 -37.069102 27.923641 -45.105469 18.046875 -45.105469 z M 12.519531 -37.236328 C 14.052583 -37.311132 15.706812 -36.683644 16.460938 -35.898438 C 18.522787 -33.751612 18.722387 -29.263248 18.275391 -26.320312 C 18.050154 -24.837396 18.433436 -24.041932 19.925781 -23.515625 C 19.161804 -23.037785 17.763817 -23.044147 16.986328 -23.160156 C 16.950698 -22.820358 17.130424 -22.475405 17.505859 -22.181641 C 16.364556 -22.048114 15.610322 -22.441096 14.783203 -22.816406 L 14.927734 -21.394531 C 15.198627 -18.728232 22.314038 -17.787491 22.398438 -14.060547 C 22.415517 -13.306952 22.408772 -12.630456 22.419922 -11.900391 C 21.028326 -11.501755 19.564849 -11.273437 18.046875 -11.273438 C 12.800323 -11.273438 8.1538122 -13.837007 5.2519531 -17.763672 C 7.2049354 -18.836037 9.297363 -19.71775 9.4492188 -21.394531 L 9.6054688 -23.119141 C 8.7485925 -22.535618 7.8406749 -22.248124 6.6542969 -22.208984 C 6.88126 -22.483283 6.93731 -22.888268 6.90625 -23.140625 C 6.128761 -23.024616 5.3225706 -23.037785 4.5585938 -23.515625 C 6.0509426 -24.041932 6.8193981 -24.873487 6.4238281 -26.320312 C 5.7317631 -28.851584 5.9358364 -36.505775 10.111328 -36.226562 C 10.723948 -36.894073 11.599699 -37.191448 12.519531 -37.236328 z M 25.099609 -36.787109 C 27.151876 -36.787109 28.644099 -35.958611 29.578125 -34.306641 C 29.811133 -33.785857 29.951247 -33.29035 29.998047 -32.818359 C 29.998047 -32.110371 29.927511 -31.234851 29.787109 -30.197266 C 30.253126 -30.290868 30.509841 -29.843342 30.556641 -28.851562 L 30.556641 -28.355469 C 30.463039 -27.693287 30.160298 -27.244766 29.646484 -27.009766 C 29.507077 -26.961966 29.389485 -26.939453 29.296875 -26.939453 C 29.062871 -25.474686 28.667041 -24.481683 28.107422 -23.962891 L 28.107422 -21.625 C 28.107422 -21.625 30.014886 -20.712227 30.978516 -20.277344 C 31.357515 -20.106303 31.668341 -19.965759 32.123047 -19.78125 C 30.284442 -16.30351 27.19958 -13.582938 23.464844 -12.224609 C 23.453274 -12.97369 23.436655 -13.988736 23.421875 -14.640625 C 23.36516 -17.145061 20.147113 -18.39472 17.951172 -19.751953 C 17.980072 -19.762923 18.000127 -19.772193 18.029297 -19.783203 C 18.448514 -19.971402 18.775762 -20.111441 19.009766 -20.207031 L 22.019531 -21.625 L 22.019531 -23.962891 L 21.388672 -24.882812 C 21.107867 -25.496202 20.921725 -26.182673 20.828125 -26.939453 C 20.361113 -26.84386 19.965282 -27.198372 19.638672 -28.001953 C 19.591872 -28.143351 19.568359 -28.259879 19.568359 -28.355469 C 19.427956 -29.347249 19.591581 -29.937758 20.058594 -30.126953 C 20.1512 -30.173763 20.246244 -30.197266 20.339844 -30.197266 C 20.152636 -31.614236 20.082106 -32.487765 20.128906 -32.818359 C 20.222508 -34.28213 21.06119 -35.417122 22.648438 -36.220703 C 23.441063 -36.598097 24.259185 -36.787109 25.099609 -36.787109 z "
     id="path206-3" />
  <path
     style="fill:var(--local-primary);fill-opacity:1;fill-rule:nonzero;stroke:none;stroke-width:1.02349913"
     d="M 18.041016 0.09375 C 8.1642493 0.09375 0.12890625 8.1301163 0.12890625 18.005859 C 0.12890625 27.881602 8.1642493 35.916016 18.041016 35.916016 C 27.917782 35.916016 35.951172 27.881602 35.951172 18.005859 C 35.951172 8.1301163 27.917782 0.09375 18.041016 0.09375 z M 18.339844 7.5175781 C 19.872898 7.4427746 21.527124 8.0702618 22.28125 8.8554688 C 24.3431 11.002294 24.542699 15.490658 24.095703 18.433594 C 23.870466 19.916512 24.253749 20.711974 25.746094 21.238281 C 24.982117 21.716121 23.58413 21.709759 22.806641 21.59375 C 22.771011 21.933548 22.950737 22.278502 23.326172 22.572266 C 22.184869 22.705793 21.450166 22.471833 20.623047 22.015625 L 20.748047 23.359375 C 20.987609 25.926359 27.581846 26.899614 28.160156 30.287109 C 25.407572 32.559005 21.880637 33.925781 18.041016 33.925781 C 14.158708 33.925781 10.599717 32.524485 7.8339844 30.207031 C 8.6748553 26.773259 15.150487 26.31763 15.269531 23.359375 L 15.330078 21.845703 C 14.634998 22.212937 13.660987 22.505782 12.474609 22.544922 C 12.701572 22.270623 12.757623 21.865638 12.726562 21.613281 C 11.949073 21.72929 11.142883 21.716121 10.378906 21.238281 C 11.871255 20.711974 12.639711 19.880419 12.244141 18.433594 C 11.552076 15.902323 11.75615 8.2481301 15.931641 8.5273438 C 16.544261 7.8598347 17.420012 7.5624601 18.339844 7.5175781 z "
     id="path206" />
  <path
     style="fill:var(--local-primary);fill-opacity:1;fill-rule:nonzero;stroke:none;stroke-width:1.02349913"
     d="M -38.089844 -45.105469 C -47.96661 -45.105469 -56 -37.069102 -56 -27.193359 C -56 -17.317617 -47.96661 -9.2832031 -38.089844 -9.2832031 C -28.213078 -9.2832031 -20.177734 -17.317617 -20.177734 -27.193359 C -20.177734 -37.069102 -28.213078 -45.105469 -38.089844 -45.105469 z M -38.089844 -43.275391 C -29.222472 -43.275391 -22.007813 -36.059812 -22.007812 -27.193359 C -22.007812 -18.326906 -29.222472 -11.113281 -38.089844 -11.113281 C -46.957216 -11.113281 -54.169922 -18.326906 -54.169922 -27.193359 C -54.169922 -36.059812 -46.957216 -43.275391 -38.089844 -43.275391 z M -43.615234 -37.236328 C -44.535066 -37.191448 -45.410818 -36.894073 -46.023438 -36.226562 C -50.198929 -36.505775 -50.403003 -28.851584 -49.710938 -26.320312 C -49.315368 -24.873487 -50.083824 -24.041932 -51.576172 -23.515625 C -50.812196 -23.037785 -50.006005 -23.024616 -49.228516 -23.140625 C -49.197456 -22.888268 -49.253506 -22.483283 -49.480469 -22.208984 C -48.294091 -22.248124 -47.386174 -22.535618 -46.529297 -23.119141 L -46.685547 -21.394531 C -46.816485 -19.948718 -48.397014 -19.090803 -50.080078 -18.195312 C -47.338104 -14.550964 -42.991865 -12.177734 -38.089844 -12.177734 C -36.571863 -12.177734 -35.106851 -12.409288 -33.724609 -12.830078 C -33.726587 -13.233458 -33.726599 -13.631286 -33.736328 -14.060547 C -33.820728 -17.787491 -40.936138 -18.728232 -41.207031 -21.394531 L -41.351562 -22.816406 C -40.524443 -22.441096 -39.770209 -22.048114 -38.628906 -22.181641 C -39.004341 -22.475405 -39.184067 -22.820358 -39.148438 -23.160156 C -38.370947 -23.044147 -36.972961 -23.037785 -36.208984 -23.515625 C -37.701329 -24.041932 -38.084612 -24.837397 -37.859375 -26.320312 C -37.412379 -29.263248 -37.611979 -33.751612 -39.673828 -35.898438 C -40.427954 -36.683644 -42.082182 -37.311132 -43.615234 -37.236328 z M -31.035156 -36.787109 C -31.87558 -36.787109 -32.693702 -36.598097 -33.486328 -36.220703 C -35.073575 -35.417122 -35.912257 -34.28213 -36.005859 -32.818359 C -36.052659 -32.487765 -35.98213 -31.614236 -35.794922 -30.197266 C -35.888522 -30.197266 -35.983566 -30.173763 -36.076172 -30.126953 C -36.543185 -29.937758 -36.706809 -29.347249 -36.566406 -28.355469 C -36.566406 -28.259879 -36.542894 -28.143351 -36.496094 -28.001953 C -36.169484 -27.198372 -35.773653 -26.84386 -35.306641 -26.939453 C -35.213041 -26.182673 -35.026899 -25.496202 -34.746094 -24.882812 L -34.115234 -23.962891 L -34.115234 -21.625 L -37.125 -20.207031 C -37.359004 -20.111441 -37.686252 -19.971402 -38.105469 -19.783203 C -38.134639 -19.772193 -38.154694 -19.762923 -38.183594 -19.751953 C -35.987653 -18.39472 -32.769606 -17.145061 -32.712891 -14.640625 C -32.704085 -14.252233 -32.696155 -13.714332 -32.6875 -13.201172 C -29.319886 -14.505725 -26.534833 -16.979294 -24.845703 -20.134766 C -24.907476 -20.160586 -24.945205 -20.177474 -25.017578 -20.207031 C -25.065378 -20.207031 -25.110448 -20.229544 -25.15625 -20.277344 L -28.027344 -21.625 L -28.027344 -23.962891 C -27.467725 -24.481683 -27.071895 -25.474686 -26.837891 -26.939453 C -26.745281 -26.939453 -26.627688 -26.961966 -26.488281 -27.009766 C -25.974467 -27.244766 -25.671727 -27.693287 -25.578125 -28.355469 L -25.578125 -28.851562 C -25.624925 -29.843342 -25.881639 -30.290868 -26.347656 -30.197266 C -26.207254 -31.234851 -26.136719 -32.110371 -26.136719 -32.818359 C -26.183519 -33.29035 -26.323633 -33.785857 -26.556641 -34.306641 C -27.490667 -35.958611 -28.982889 -36.787109 -31.035156 -36.787109 z "
     id="path1119" />
  <path
     style="fill:var(--local-primary);fill-opacity:1;fill-rule:nonzero;stroke:none;stroke-width:0.99576271"
     d="m -90.60547,0.40820312 c -9.87677,0 -17.91015,8.03636658 -17.91015,17.91210888 0,9.875742 8.03338,17.910157 17.91015,17.910157 9.87677,0 17.91211,-8.034414 17.91211,-17.910157 0,-9.8757423 -8.03534,-17.91210888 -17.91211,-17.91210888 z m 0,1.83007808 c 8.86737,0 16.08203,7.2155785 16.08203,16.0820308 0,5.037924 -2.33248,9.537694 -5.9707,12.488282 -0.64044,-3.34548 -7.24611,-4.521107 -7.48438,-7.074219 l -0.125,-1.34375 c 0.82712,0.456208 1.56183,0.690168 2.70313,0.556641 -0.37544,-0.293764 -0.55516,-0.638718 -0.51953,-0.978516 0.77749,0.116009 2.17547,0.122371 2.93945,-0.355469 -1.49234,-0.526307 -1.87563,-1.321769 -1.65039,-2.804687 0.447,-2.942936 0.2474,-7.4313 -1.81445,-9.5781252 -0.75413,-0.785207 -2.40835,-1.4126942 -3.94141,-1.3378907 -0.91983,0.044882 -1.79558,0.3422566 -2.4082,1.0097657 -4.17549,-0.2792137 -4.37957,7.3749792 -3.6875,9.9062502 0.39557,1.446825 -0.37289,2.27838 -1.86524,2.804687 0.76398,0.47784 1.57017,0.491009 2.34766,0.375 0.0311,0.252357 -0.025,0.657342 -0.25195,0.931641 1.18638,-0.03914 2.16039,-0.331985 2.85547,-0.699219 l -0.0606,1.513672 c -0.11871,2.949995 -6.55597,3.533088 -7.42578,6.941406 -3.54263,-2.952024 -5.80274,-7.394394 -5.80274,-12.355469 0,-8.8664523 7.21271,-16.0820308 16.08008,-16.0820308 z"
     id="path1138"
     inkscape:connector-curvature="0" />
  <path
     style="fill:var(--local-primary);fill-opacity:1;fill-rule:nonzero;stroke:none;stroke-width:1.02349913"
     d="m -90.412109,-45.105469 c -9.876761,0 -17.910161,8.036367 -17.910161,17.91211 0,9.875742 8.0334,17.9101559 17.910161,17.9101559 9.876766,0 17.912109,-8.0344139 17.912109,-17.9101559 0,-9.875743 -8.035343,-17.91211 -17.912109,-17.91211 z m 0,1.830078 c 8.867372,0 16.082031,7.215579 16.082031,16.082032 0,2.71675 -0.682248,5.275057 -1.876953,7.521484 -0.437209,-0.203834 -0.885608,-0.418127 -1.271485,-0.605469 L -80.349609,-21.625 v -2.337891 c 0.559619,-0.518792 0.955449,-1.511795 1.189453,-2.976562 0.09261,0 0.210202,-0.02251 0.349609,-0.07031 0.513814,-0.235 0.816554,-0.683521 0.910156,-1.345703 v -0.496093 c -0.0468,-0.99178 -0.303514,-1.439306 -0.769531,-1.345704 0.140402,-1.037585 0.210938,-1.913105 0.210938,-2.621093 -0.0468,-0.471991 -0.186914,-0.967498 -0.419922,-1.488282 -0.934026,-1.65197 -2.426249,-2.480468 -4.478516,-2.480468 -0.840424,0 -1.658546,0.189012 -2.451172,0.566406 -1.587247,0.803581 -2.425929,1.938573 -2.519531,3.402344 -0.0468,0.330594 0.02373,1.204123 0.210937,2.621093 -0.0936,0 -0.188644,0.0235 -0.28125,0.07031 -0.467012,0.189195 -0.630637,0.779704 -0.490234,1.771484 0,0.09559 0.02351,0.212118 0.07031,0.353516 0.32661,0.803581 0.722441,1.158093 1.189453,1.0625 0.0936,0.75678 0.279742,1.443251 0.560547,2.056641 l 0.630859,0.919921 V -21.625 l -3.009766,1.417969 c -0.234004,0.09559 -0.561251,0.235629 -0.980468,0.423828 -0.02917,0.01101 -0.04922,0.02028 -0.07813,0.03125 2.195941,1.357233 5.288988,2.575642 5.345703,5.080078 -0.01731,1.067938 -0.07276,2.076741 -0.136719,2.761719 -0.352028,0.127207 -0.379312,0.07298 -0.742187,0.175781 -0.0074,-0.716071 -0.004,-1.642599 -0.01953,-2.326172 -0.0844,-3.726944 -7.19981,-4.667685 -7.470703,-7.333984 l -0.144531,-1.421875 c 0.827119,0.37531 1.581353,0.768292 2.722656,0.634765 -0.375435,-0.293764 -0.555161,-0.638717 -0.519531,-0.978515 0.777489,0.116009 2.175476,0.122371 2.939453,-0.355469 -1.492345,-0.526307 -1.875628,-1.321771 -1.650391,-2.804687 0.446996,-2.942936 0.247396,-7.4313 -1.814453,-9.578126 -0.754126,-0.785206 -2.408354,-1.412694 -3.941406,-1.33789 -0.919832,0.04488 -1.795583,0.342255 -2.408203,1.009766 -4.175491,-0.279213 -4.379561,7.374978 -3.687501,9.90625 0.39557,1.446825 -0.37289,2.27838 -1.86524,2.804687 0.76397,0.47784 1.57017,0.491009 2.34766,0.375 0.0311,0.252357 -0.025,0.657342 -0.25195,0.931641 1.18638,-0.03914 2.094294,-0.326634 2.951172,-0.910157 l -0.15625,1.72461 c -0.147406,1.627644 -2.449792,2.633514 -4.371102,3.671875 -1.94826,-2.660145 -3.11328,-5.92821 -3.11328,-9.470703 0,-8.866453 7.212713,-16.082032 16.080085,-16.082032 z"
     id="path1142"
     inkscape:connector-curvature="0"
     sodipodi:nodetypes="ssssssscccccccccccsccccccccccccccccccccccsscccccccccsss" />
  <path
     style="fill:var(--local-primary);fill-opacity:1;fill-rule:nonzero;stroke:none;stroke-width:0.99576271"
     d="m -34.425781,0.03320312 c -9.876767,0 -17.910159,8.03636708 -17.910159,17.91210888 0,9.875742 8.033392,17.910157 17.910159,17.910157 9.876766,0 17.912109,-8.034414 17.912109,-17.910157 0,-9.8757418 -8.035343,-17.91210888 -17.912109,-17.91210888 z m 0,1.83007808 c 0.0013,0 0.0026,-3e-7 0.0039,0 a 16.078125,16.072658 0 0 1 1.382813,0.070313 c 0.274593,0.023605 0.543933,0.062318 0.814453,0.099609 a 16.078125,16.072658 0 0 1 0.777343,0.1191407 c 0.273705,0.051544 0.541884,0.1163705 0.810547,0.1816406 a 16.078125,16.072658 0 0 1 0.746094,0.1914062 c 0.257745,0.075958 0.509494,0.1635787 0.761719,0.2519532 a 16.078125,16.072658 0 0 1 0.761718,0.2792968 c 0.221438,0.090458 0.435939,0.1930395 0.652344,0.2929688 a 16.078125,16.072658 0 0 1 0.804688,0.3867187 c 0.179109,0.095129 0.350363,0.2011124 0.52539,0.3027344 a 16.078125,16.072658 0 0 1 0.865235,0.5273437 c 0.109637,0.073241 0.214543,0.1526771 0.322265,0.2285157 a 16.078125,16.072658 0 0 1 0.966797,0.7246093 c 0.05173,0.042518 0.0992,0.089665 0.150391,0.1328126 a 16.078125,16.072658 0 0 1 1.021484,0.9277343 16.078125,16.072658 0 0 1 0.0039,0.00586 16.078125,16.072658 0 0 1 3.445313,5.1054685 c 0.203732,0.480827 0.384143,0.973329 0.541016,1.476563 a 16.078125,16.072658 0 0 1 0.002,0.0059 16.078125,16.072658 0 0 1 0.261718,1.017578 c 0.04172,0.173486 0.09678,0.341974 0.132813,0.517578 a 16.078125,16.072658 0 0 1 0.002,0.0059 16.078125,16.072658 0 0 1 0.203125,1.33789 c 0.0099,0.08434 0.03043,0.165272 0.03906,0.25 a 16.078125,16.072658 0 0 1 0,0.0059 16.078125,16.072658 0 0 1 0.08398,1.626953 c 2e-6,0.0033 0,0.0065 0,0.0098 0,0.36054 -0.01554,0.7176 -0.03906,1.072266 a 16.078125,16.072658 0 0 1 -0.01172,0.136719 c -0.07868,1.050027 -0.257487,2.072147 -0.529297,3.056641 a 16.078125,16.072658 0 0 1 -0.0059,0.02539 c -0.0015,0.0053 -0.0044,0.01031 -0.0059,0.01563 -0.124104,0.444862 -0.272957,0.878127 -0.433594,1.306641 a 16.078125,16.072658 0 0 1 -0.36914,0.875 c -0.09857,0.221791 -0.188688,0.447661 -0.296875,0.664062 a 16.078125,16.072658 0 0 1 -0.5625,1.00586 c -0.08839,0.149012 -0.164794,0.30529 -0.257813,0.451172 a 16.078125,16.072658 0 0 1 -2.128906,2.667968 c -0.06509,0.06598 -0.136918,0.124598 -0.203125,0.189453 a 16.078125,16.072658 0 0 1 -1.017578,0.923829 c -0.03449,0.0285 -0.06488,0.06162 -0.09961,0.08984 -9.16e-4,-0.004 -0.003,-0.0077 -0.0039,-0.01172 a 16.078125,16.072658 0 0 1 -10.113281,3.59375 16.078125,16.072658 0 0 1 -10.287105,-3.738281 c -0.0021,0.0067 -0.0057,0.01277 -0.0078,0.01953 -0.19441,-0.162335 -0.37014,-0.344471 -0.55664,-0.515624 a 16.078125,16.072658 0 0 1 -0.47265,-0.441407 c -0.228,-0.226617 -0.44402,-0.463312 -0.65821,-0.703125 a 16.078125,16.072658 0 0 1 -0.46484,-0.535156 c -0.2013,-0.246244 -0.38948,-0.501739 -0.57617,-0.759766 a 16.078125,16.072658 0 0 1 -0.39844,-0.570312 c -0.18414,-0.279073 -0.35658,-0.564671 -0.52344,-0.855469 a 16.078125,16.072658 0 0 1 -0.29101,-0.53125 c -0.16699,-0.318258 -0.32489,-0.640399 -0.47071,-0.970703 a 16.078125,16.072658 0 0 1 -0.21679,-0.525391 c -0.13529,-0.338551 -0.26256,-0.679923 -0.375,-1.029297 A 16.078125,16.072658 0 0 1 -49.87695,22.3125 c -0.39448,-1.391921 -0.62891,-2.850377 -0.62891,-4.367188 0,-0.123233 0.01676,-0.242654 0.01953,-0.365234 a 16.078125,16.072658 0 0 1 0.04688,-0.949219 c 0.02894,-0.355355 0.07713,-0.704215 0.1289,-1.052734 a 16.078125,16.072658 0 0 1 0.08203,-0.541016 c 0.06407,-0.348805 0.14617,-0.690635 0.23243,-1.03125 a 16.078125,16.072658 0 0 1 0.13671,-0.533203 c 0.09397,-0.323759 0.20294,-0.640025 0.31641,-0.955078 a 16.078125,16.072658 0 0 1 0.21094,-0.578125 c 0.11718,-0.289845 0.24949,-0.57034 0.38281,-0.851562 a 16.078125,16.072658 0 0 1 0.29297,-0.607422 c 0.12568,-0.238647 0.2652,-0.467811 0.40234,-0.699219 a 16.078125,16.072658 0 0 1 0.42383,-0.6992188 c 0.12122,-0.182754 0.25443,-0.35577 0.38281,-0.5332031 a 16.078125,16.072658 0 0 1 0.56055,-0.75 c 0.11358,-0.1392452 0.23739,-0.2689713 0.35547,-0.4042969 a 16.078125,16.072658 0 0 1 0.70898,-0.7792968 c 0.0861,-0.086619 0.17955,-0.1653444 0.26758,-0.25 a 16.078125,16.072658 0 0 1 0.89258,-0.8125 c 0.06474,-0.053583 0.135588,-0.09976 0.201172,-0.1523438 a 16.078125,16.072658 0 0 1 1.039063,-0.7792968 c 0.09947,-0.067396 0.207563,-0.122289 0.308594,-0.1875 a 16.078125,16.072658 0 0 1 1.023437,-0.6230469 c 0.0021,-0.00112 0.0038,-0.00278 0.0059,-0.00391 1.378663,-0.7500526 2.879242,-1.3003719 4.46289,-1.6210937 a 16.078125,16.072658 0 0 1 0.339844,-0.052734 c 0.408767,-0.073698 0.817551,-0.1454432 1.236328,-0.1875 a 16.078125,16.072658 0 0 1 1.462891,-0.074219 c 0.0526,-5.089e-4 0.103534,-0.00781 0.15625,-0.00781 z m 0.216797,5.6542969 c -0.919832,0.044882 -1.795583,0.3422565 -2.408204,1.0097657 -4.175489,-0.2792138 -4.379564,7.3749792 -3.6875,9.9062502 0.395572,1.446825 -0.372885,2.27838 -1.865234,2.804687 0.763977,0.47784 1.570167,0.491009 2.347656,0.375 0.03106,0.252357 -0.02499,0.657342 -0.251953,0.931641 1.186378,-0.03914 2.160389,-0.331985 2.855469,-0.699219 l -0.06055,1.513672 c -0.103666,2.576108 -5.058778,3.45248 -6.894531,5.902344 a 14.956395,14.95131 0 0 0 9.751953,3.625 14.956395,14.95131 0 0 0 9.632813,-3.533203 c -1.704584,-2.515938 -6.803305,-3.760911 -7.011719,-5.994141 l -0.125,-1.34375 c 0.827119,0.456208 1.561822,0.690168 2.703125,0.556641 -0.375435,-0.293764 -0.555161,-0.638718 -0.519532,-0.978516 0.777491,0.116009 2.175477,0.122371 2.939454,-0.355469 -1.492345,-0.526307 -1.875628,-1.321769 -1.650391,-2.804687 0.446996,-2.942936 0.247397,-7.4313 -1.814453,-9.5781252 -0.754126,-0.785207 -2.408352,-1.4126942 -3.941406,-1.3378907 z"
     id="path1148"
     inkscape:connector-curvature="0" />
</svg>
