<?xml version="1.0" encoding="UTF-8"?>
<svg width="36.041" height="36" version="1.1" viewBox="0 0 36.041 36" 
  xmlns="http://www.w3.org/2000/svg" 
  xmlns:cc="http://creativecommons.org/ns#" 
  xmlns:dc="http://purl.org/dc/elements/1.1/" 
  xmlns:rdf="http://www.w3.org/1999/02/22-rdf-syntax-ns#">
  <metadata>
    <rdf:RDF>
      <cc:Work rdf:about="">
        <dc:format>image/svg+xml</dc:format>
        <dc:type rdf:resource="http://purl.org/dc/dcmitype/StillImage"/>
        <dc:title/>
      </cc:Work>
    </rdf:RDF>
  </metadata>
  <path d="m18.024 0.098844c-9.8768 0-17.91 8.0364-17.91 17.912 0 9.8757 8.0334 17.91 17.91 17.91s17.912-8.0344 17.912-17.91c0-9.8757-8.0353-17.912-17.912-17.912zm0 1.8301c8.8674 0 16.082 7.2156 16.082 16.082 0 5.0379-2.3325 9.5377-5.9707 12.488-0.64044-3.3455-7.2461-4.5211-7.4844-7.0742l-0.125-1.3438c0.82712 0.45621 1.5618 0.69017 2.7031 0.55664-0.37544-0.29376-0.55516-0.63872-0.51953-0.97852 0.77749 0.11601 2.1755 0.12237 2.9394-0.35547-1.4923-0.52631-1.8756-1.3218-1.6504-2.8047 0.447-2.9429 0.2474-7.4313-1.8144-9.5781-0.75413-0.78521-2.4084-1.4127-3.9414-1.3379-0.91983 0.044882-1.7956 0.34226-2.4082 1.0098-4.1755-0.27921-4.3796 7.375-3.6875 9.9062 0.39557 1.4468-0.37289 2.2784-1.8652 2.8047 0.76398 0.47784 1.5702 0.49101 2.3477 0.375 0.0311 0.25236-0.025 0.65734-0.25195 0.93164 1.1864-0.03914 2.1604-0.33198 2.8555-0.69922l-0.0606 1.5137c-0.11871 2.95-6.556 3.5331-7.4258 6.9414-3.5426-2.952-5.8027-7.3944-5.8027-12.355 0-8.8665 7.2127-16.082 16.08-16.082z" fill="var(--local-primary)"/>
</svg>
