<?xml version="1.0" encoding="UTF-8" standalone="no"?>
<svg
   xmlns:dc="http://purl.org/dc/elements/1.1/"
   xmlns:cc="http://creativecommons.org/ns#"
   xmlns:rdf="http://www.w3.org/1999/02/22-rdf-syntax-ns#"
   xmlns:svg="http://www.w3.org/2000/svg"
   xmlns="http://www.w3.org/2000/svg"
   xmlns:sodipodi="http://sodipodi.sourceforge.net/DTD/sodipodi-0.dtd"
   xmlns:inkscape="http://www.inkscape.org/namespaces/inkscape"
   version="1.1"
   id="svg4362"
   viewBox="0 0 35.999999 35.999999"
   height="36"
   width="36"
   sodipodi:docname="ico36_uc_meal-half.svg"
   inkscape:version="0.92.2 (5c3e80d, 2017-08-06)">
  <sodipodi:namedview
     pagecolor="#ffffff"
     bordercolor="#666666"
     borderopacity="1"
     objecttolerance="10"
     gridtolerance="10"
     guidetolerance="10"
     inkscape:pageopacity="0"
     inkscape:pageshadow="2"
     inkscape:window-width="2560"
     inkscape:window-height="1377"
     id="namedview38"
     showgrid="false"
     inkscape:object-nodes="false"
     inkscape:snap-others="true"
     inkscape:snap-global="true"
     inkscape:zoom="16.000001"
     inkscape:cx="19.383659"
     inkscape:cy="28.613479"
     inkscape:window-x="2552"
     inkscape:window-y="-8"
     inkscape:window-maximized="1"
     inkscape:current-layer="svg4362"
     inkscape:snap-bbox="true"
     inkscape:snap-center="true"
     inkscape:snap-object-midpoints="true"
     inkscape:snap-bbox-midpoints="true" />
  <defs
     id="defs4364">
    <clipPath
       id="clipPath708"
       clipPathUnits="userSpaceOnUse">
      <path
         id="path710"
         d="M 0,0 H 1440 V 900 H 0 Z"
         inkscape:connector-curvature="0" />
    </clipPath>
    <clipPath
       id="clipPath720"
       clipPathUnits="userSpaceOnUse">
      <path
         id="path722"
         d="m 944.383,652.172 c 0,-34.969 28.357,-63.328 63.335,-63.328 v 0 c 34.979,0 63.335,28.359 63.335,63.328 v 0 c 0,34.984 -28.356,63.343 -63.335,63.343 v 0 c -34.978,0 -63.335,-28.359 -63.335,-63.343"
         inkscape:connector-curvature="0" />
    </clipPath>
    <clipPath
       id="clipPath732"
       clipPathUnits="userSpaceOnUse">
      <path
         id="path734"
         d="M 0,0 H 1440 V 900 H 0 Z"
         inkscape:connector-curvature="0" />
    </clipPath>
    <clipPath
       id="clipPath212"
       clipPathUnits="userSpaceOnUse">
      <path
         id="path214"
         d="m 606.85,488 c 0,-9.942 8.059,-18 18,-18 v 0 c 9.942,0 18,8.058 18,18 v 0 c 0,9.941 -8.058,18 -18,18 v 0 c -9.941,0 -18,-8.059 -18,-18"
         inkscape:connector-curvature="0" />
    </clipPath>
    <clipPath
       id="clipPath708-2"
       clipPathUnits="userSpaceOnUse">
      <path
         id="path710-7"
         d="M 0,0 H 1440 V 900 H 0 Z"
         inkscape:connector-curvature="0" />
    </clipPath>
    <clipPath
       id="clipPath720-7"
       clipPathUnits="userSpaceOnUse">
      <path
         id="path722-4"
         d="m 944.383,652.172 c 0,-34.969 28.357,-63.328 63.335,-63.328 v 0 c 34.979,0 63.335,28.359 63.335,63.328 v 0 c 0,34.984 -28.356,63.343 -63.335,63.343 v 0 c -34.978,0 -63.335,-28.359 -63.335,-63.343"
         inkscape:connector-curvature="0" />
    </clipPath>
    <clipPath
       id="clipPath732-4"
       clipPathUnits="userSpaceOnUse">
      <path
         id="path734-6"
         d="M 0,0 H 1440 V 900 H 0 Z"
         inkscape:connector-curvature="0" />
    </clipPath>
    <clipPath
       id="clipPath212-8"
       clipPathUnits="userSpaceOnUse">
      <path
         id="path214-5"
         d="m 606.85,488 c 0,-9.942 8.059,-18 18,-18 v 0 c 9.942,0 18,8.058 18,18 v 0 c 0,9.941 -8.058,18 -18,18 v 0 c -9.941,0 -18,-8.059 -18,-18"
         inkscape:connector-curvature="0" />
    </clipPath>
    <clipPath
       id="clipPath212-8-8"
       clipPathUnits="userSpaceOnUse">
      <path
         id="path214-5-1"
         d="m 606.85,488 c 0,-9.942 8.059,-18 18,-18 v 0 c 9.942,0 18,8.058 18,18 v 0 c 0,9.941 -8.058,18 -18,18 v 0 c -9.941,0 -18,-8.059 -18,-18"
         inkscape:connector-curvature="0" />
    </clipPath>
    <clipPath
       id="clipPath212-8-8-5"
       clipPathUnits="userSpaceOnUse">
      <path
         id="path214-5-1-7"
         d="m 606.85,488 c 0,-9.942 8.059,-18 18,-18 v 0 c 9.942,0 18,8.058 18,18 v 0 c 0,9.941 -8.058,18 -18,18 v 0 c -9.941,0 -18,-8.059 -18,-18"
         inkscape:connector-curvature="0" />
    </clipPath>
  </defs>
  <metadata
     id="metadata4367">
    <rdf:RDF>
      <cc:Work
         rdf:about="">
        <dc:format>image/svg+xml</dc:format>
        <dc:type
           rdf:resource="http://purl.org/dc/dcmitype/StillImage" />
        <dc:title></dc:title>
      </cc:Work>
    </rdf:RDF>
  </metadata>
  <g
     id="g5170"
     transform="matrix(1.3232104,0,0,1.3232104,-15.327781,-5.7001985)">
    <path
       sodipodi:nodetypes="czsccsscc"
       inkscape:connector-curvature="0"
       id="rect1000"
       d="m 33.190888,5.6497659 c 1.403476,1.096e-4 2.376919,1.0317993 2.862002,2.5613242 0.485083,1.5295247 0.351205,4.4687519 -0.194814,6.2236819 -0.555784,1.786427 -0.897109,3.662354 -0.897109,3.662354 v 5.945279 c 0,0 0.03758,4.02081 0,5.89096 -0.009,0.445957 -1.34229,0.446028 -1.338137,0 0.01778,-1.908784 0,-11.836239 0,-11.836239 0,0 -0.373462,-9.6355816 -0.431942,-12.4473601 z"
       style="fill:#000000;fill-opacity:1;stroke:none;stroke-width:0.24071579;stroke-linejoin:round;stroke-miterlimit:4;stroke-dasharray:none;stroke-dashoffset:0;stroke-opacity:1" />
    <path
       sodipodi:nodetypes="ssssssssscsscszs"
       inkscape:connector-curvature="0"
       id="rect1002"
       d="m 28.744453,5.8205289 c 0.529452,0 0.118277,5.1554491 0.563868,5.1554491 0.479531,0 -0.0084,-5.1554491 0.493384,-5.1554491 0.5993,0 0.118322,5.1554491 0.563869,5.1554491 0.525543,0 -0.04362,-5.1554491 0.493384,-5.1554491 0.528301,0 0.03925,5.1553721 0.563869,5.1554491 0.454735,6.6e-5 0.0386,-5.1554491 0.493384,-5.1554491 0.291486,0 0.343784,3.6728466 0.293682,5.1654231 -0.04726,1.407747 -1.170965,2.280658 -1.174725,3.054033 -0.01338,2.742988 0,8.219455 0,8.219455 0,0 -0.01052,5.673224 0,7.749075 0.0018,0.3458 -1.217698,0.345786 -1.221715,0 -0.02449,-2.108613 0,-7.749075 0,-7.749075 0,0 -0.0417,-5.566402 0,-8.219455 0.01248,-0.79763 -1.310336,-1.601073 -1.362681,-3.054033 -0.05234,-1.4529593 -0.08912,-5.1654231 0.293681,-5.1654231 z"
       style="fill:#000000;fill-opacity:1;stroke:none;stroke-width:6.37373304;stroke-linejoin:round;stroke-miterlimit:4;stroke-dasharray:none;stroke-dashoffset:0;stroke-opacity:1" />
    <rect
       y="5.0625"
       x="29"
       height="25.75"
       width="2.5"
       id="rect992"
       style="fill:none;fill-opacity:1;stroke:none;stroke-width:0.2;stroke-linejoin:round;stroke-miterlimit:4;stroke-dasharray:none;stroke-dashoffset:0;stroke-opacity:1" />
    <path
       sodipodi:nodetypes="ccccc"
       inkscape:connector-curvature="0"
       id="path1049"
       d="m 14.054688,30.425781 c 0.07288,0.0045 0.145801,0.0084 0.21875,0.01172 6.917375,-5e-4 12.524891,-5.608016 12.52539,-12.525391 5.79e-4,-6.918138 -5.607252,-12.5268436 -12.52539,-12.5273434 -0.07294,0.00197 -0.145857,0.00457 -0.21875,0.00781"
       style="fill:none;fill-opacity:1;stroke:#000000;stroke-width:1.05255377;stroke-linejoin:round;stroke-miterlimit:4;stroke-dasharray:none;stroke-dashoffset:0;stroke-opacity:1" />
    <path
       sodipodi:nodetypes="ccccc"
       inkscape:connector-curvature="0"
       id="path1049-9"
       d="m 14.054688,27.587891 c 0.07287,0.0047 0.145792,0.0086 0.21875,0.01172 5.350055,-4.91e-4 9.687009,-4.337445 9.6875,-9.6875 5.87e-4,-5.350818 -4.336682,-9.6889614 -9.6875,-9.6894528 -0.07294,0.00178 -0.145865,0.00438 -0.21875,0.00781"
       style="fill:none;fill-opacity:1;stroke:#000000;stroke-width:0.51274401;stroke-linejoin:round;stroke-miterlimit:4;stroke-dasharray:none;stroke-dashoffset:0;stroke-opacity:1" />
  </g>
</svg>
