<?xml version="1.0" encoding="UTF-8" standalone="no"?>
<svg
   xmlns:dc="http://purl.org/dc/elements/1.1/"
   xmlns:cc="http://creativecommons.org/ns#"
   xmlns:rdf="http://www.w3.org/1999/02/22-rdf-syntax-ns#"
   xmlns:svg="http://www.w3.org/2000/svg"
   xmlns="http://www.w3.org/2000/svg"
   xmlns:sodipodi="http://sodipodi.sourceforge.net/DTD/sodipodi-0.dtd"
   xmlns:inkscape="http://www.inkscape.org/namespaces/inkscape"
   version="1.1"
   id="svg4362"
   viewBox="0 0 36.040812 35.999999"
   height="36"
   width="36.040813"
   sodipodi:docname="ico_36_anonymous.svg"
   inkscape:version="0.92.2 (5c3e80d, 2017-08-06)">
  <sodipodi:namedview
     pagecolor="#ffffff"
     bordercolor="#666666"
     borderopacity="1"
     objecttolerance="10"
     gridtolerance="10"
     guidetolerance="10"
     inkscape:pageopacity="0"
     inkscape:pageshadow="2"
     inkscape:window-width="2173"
     inkscape:window-height="1368"
     id="namedview38"
     showgrid="false"
     inkscape:object-nodes="false"
     inkscape:snap-others="false"
     inkscape:snap-global="false"
     inkscape:zoom="13.111111"
     inkscape:cx="0.074556481"
     inkscape:cy="37.902751"
     inkscape:window-x="2729"
     inkscape:window-y="0"
     inkscape:window-maximized="0"
     inkscape:current-layer="svg4362" />
  <defs
     id="defs4364">
    <clipPath
       id="clipPath708"
       clipPathUnits="userSpaceOnUse">
      <path
         id="path710"
         d="m 0,0 1440,0 0,900 L 0,900 0,0 Z" />
    </clipPath>
    <clipPath
       id="clipPath720"
       clipPathUnits="userSpaceOnUse">
      <path
         id="path722"
         d="m 944.383,652.172 c 0,-34.969 28.357,-63.328 63.335,-63.328 l 0,0 c 34.979,0 63.335,28.359 63.335,63.328 l 0,0 c 0,34.984 -28.356,63.343 -63.335,63.343 l 0,0 c -34.978,0 -63.335,-28.359 -63.335,-63.343" />
    </clipPath>
    <clipPath
       id="clipPath732"
       clipPathUnits="userSpaceOnUse">
      <path
         id="path734"
         d="m 0,0 1440,0 0,900 L 0,900 0,0 Z" />
    </clipPath>
    <clipPath
       id="clipPath212"
       clipPathUnits="userSpaceOnUse">
      <path
         id="path214"
         d="m 606.85,488 c 0,-9.942 8.059,-18 18,-18 l 0,0 c 9.942,0 18,8.058 18,18 l 0,0 c 0,9.941 -8.058,18 -18,18 l 0,0 c -9.941,0 -18,-8.059 -18,-18" />
    </clipPath>
    <clipPath
       id="clipPath708-2"
       clipPathUnits="userSpaceOnUse">
      <path
         id="path710-7"
         d="m 0,0 1440,0 0,900 L 0,900 0,0 Z" />
    </clipPath>
    <clipPath
       id="clipPath720-7"
       clipPathUnits="userSpaceOnUse">
      <path
         id="path722-4"
         d="m 944.383,652.172 c 0,-34.969 28.357,-63.328 63.335,-63.328 l 0,0 c 34.979,0 63.335,28.359 63.335,63.328 l 0,0 c 0,34.984 -28.356,63.343 -63.335,63.343 l 0,0 c -34.978,0 -63.335,-28.359 -63.335,-63.343" />
    </clipPath>
    <clipPath
       id="clipPath732-4"
       clipPathUnits="userSpaceOnUse">
      <path
         id="path734-6"
         d="m 0,0 1440,0 0,900 L 0,900 0,0 Z" />
    </clipPath>
    <clipPath
       id="clipPath212-8"
       clipPathUnits="userSpaceOnUse">
      <path
         id="path214-5"
         d="m 606.85,488 c 0,-9.942 8.059,-18 18,-18 l 0,0 c 9.942,0 18,8.058 18,18 l 0,0 c 0,9.941 -8.058,18 -18,18 l 0,0 c -9.941,0 -18,-8.059 -18,-18" />
    </clipPath>
    <clipPath
       id="clipPath212-8-8"
       clipPathUnits="userSpaceOnUse">
      <path
         id="path214-5-1"
         d="m 606.85,488 c 0,-9.942 8.059,-18 18,-18 l 0,0 c 9.942,0 18,8.058 18,18 l 0,0 c 0,9.941 -8.058,18 -18,18 l 0,0 c -9.941,0 -18,-8.059 -18,-18" />
    </clipPath>
    <clipPath
       id="clipPath212-8-8-5"
       clipPathUnits="userSpaceOnUse">
      <path
         id="path214-5-1-7"
         d="m 606.85,488 c 0,-9.942 8.059,-18 18,-18 l 0,0 c 9.942,0 18,8.058 18,18 l 0,0 c 0,9.941 -8.058,18 -18,18 l 0,0 c -9.941,0 -18,-8.059 -18,-18" />
    </clipPath>
  </defs>
  <metadata
     id="metadata4367">
    <rdf:RDF>
      <cc:Work
         rdf:about="">
        <dc:format>image/svg+xml</dc:format>
        <dc:type
           rdf:resource="http://purl.org/dc/dcmitype/StillImage" />
        <dc:title></dc:title>
      </cc:Work>
    </rdf:RDF>
  </metadata>
  <g
     transform="matrix(0.79661017,0,0,0.79661017,-51.94192,-100.10714)"
     id="layer1">
    <g
       transform="translate(-28.880817,10.938836)"
       id="g4467">
      <g
         id="g204"
         transform="matrix(1.25,0,0,-1.25,116.67858,159.02076)">
        <path
           d="M 0,0 C 9.65,0 17.5,7.851 17.5,17.5 17.5,27.149 9.65,35 0,35 -9.65,35 -17.5,27.149 -17.5,17.5 -17.5,7.851 -9.65,0 0,0"
           style="fill-opacity:1;fill-rule:nonzero;stroke:none"
           id="path206"
           inkscape:connector-curvature="0" />
      </g>
      <g
         id="g208"
         transform="matrix(1.25,0,0,-1.25,-664.32948,747.41465)">
        <g
           id="g210"
           clip-path="url(#clipPath212-8-8-5)">
          <g
             id="g216"
             transform="translate(630.7144,480.5523)">
            <path
               d="M 0,0 -2.882,1.352 V 3.7 c 0.562,0.521 0.96,1.518 1.195,2.989 0.093,0 0.211,0.023 0.351,0.071 0.516,0.236 0.82,0.687 0.914,1.352 V 8.61 c -0.047,0.996 -0.305,1.446 -0.773,1.352 0.141,1.042 0.211,0.648208 0.211,1.359208 -6.1311232,0.112084 -8.4098989,0.06346 -9.911,0 -0.047,-0.332 0.023,0.06379 0.211,-1.359208 -0.094,0 -0.188,-0.025 -0.281,-0.072 -0.469,-0.19 -0.633,-0.782 -0.492,-1.778 0,-0.096 0.023,-0.214 0.07,-0.356 0.328,-0.807 0.726,-1.163 1.195,-1.067 0.094,-0.76 0.281,-1.448 0.563,-2.064 L -8.997,3.7 V 1.352 l -3.022,-1.423 c -0.235,-0.096 -0.563,-0.238 -0.984,-0.427 -2.766,-1.044 -4.335,-1.898 -4.71,-2.562 -0.187,-0.284 -0.328,-0.949 -0.421,-1.992 v -14.369 h 24.46 c 0.187,4.316 0.046,15.65 -0.422,16.361 -0.14,0.189 -0.375,0.427 -0.703,0.712 -0.469,0.331 -2.156,1.091 -5.06,2.277 C 0.093,-0.071 0.046,-0.048 0,0"
               style="fill:#ffffff;fill-opacity:1;fill-rule:nonzero;stroke:none"
               id="path218"
               inkscape:connector-curvature="0"
               sodipodi:nodetypes="cccccccccccccccccccccccccccc" />
          </g>
        </g>
      </g>
      <g
         id="g228"
         transform="matrix(1.25,0,0,-1.25,116.73315,159.28965)">
        <path
           d="M 0,0 C 9.65,0 17.5,7.851 17.5,17.5 17.5,27.149 9.65,35 0,35 -9.65,35 -17.5,27.149 -17.5,17.5 -17.5,7.851 -9.65,0 0,0 Z"
           style="fill:none;stroke-width:1;stroke-linecap:butt;stroke-linejoin:miter;stroke-miterlimit:4;stroke-dasharray:none;stroke-opacity:1"
           id="path230"
           inkscape:connector-curvature="0" />
      </g>
    </g>
  </g>
  <g
     id="g19"
     transform="translate(0.02040672)">
    <g
       id="g21">
      <path
         style="fill:none;stroke-width:2"
         id="path23"
         d="M 18,35 C 27.373,35 35,27.374 35,18 35,8.626 27.373,1 18,1 8.626,1 1,8.626 1,18 1,27.374 8.626,35 18,35 Z"
         inkscape:connector-curvature="0" />
    </g>
  </g>
  <g
     id="sun-glasses"
     transform="matrix(0.23449694,0,0,0.30771224,13.095971,14.638098)"
     style="fill:#000000;fill-opacity:1;fill-rule:nonzero;stroke:none;stroke-width:1">
    <path
       d="M 0.66033453,0 H 18.71319 c 0.103326,0.07990371 0.201468,0.16508104 0.293825,0.2553044 0.314179,0.30653341 0.529347,0.65812401 0.667733,1.026726 0.874862,-0.1544818 1.775892,-0.1544818 2.650671,0 0.138305,-0.36860199 0.353472,-0.72012691 0.667734,-1.026726 C 23.085499,0.16508104 23.183632,0.07990371 23.286949,0 H 41.339582 L 41.55302,0.73385645 C 41.957105,1.3339841 42.100167,2.0271161 41.928886,2.7098048 L 40.848208,7.0382511 C 40.274811,9.3339347 37.735866,11 34.812359,11 H 29.34515 c -2.923589,0 -5.462452,-0.502332 -6.035849,-2.7979501 l -0.918585,-2.515456 c -0.896108,-0.2933316 -1.885403,-0.2933316 -2.781429,0 l -0.918584,2.515456 C 18.117305,10.497734 15.578361,11 12.654854,11 H 7.1876443 C 4.2640555,11 1.7251927,9.3338691 1.1517952,7.0382511 L 0.07111735,2.7098048 C -0.10016361,2.0272475 0.04289865,1.3342468 0.44681984,0.73411917 Z"
       id="path14"
       inkscape:connector-curvature="0"
       sodipodi:nodetypes="cccccccccccssccccsscccc"
       style="fill:#000000;fill-opacity:1" />
  </g>
  <g
     id="Group-5"
     transform="matrix(0.17152276,0,0,0.10993695,8.7581777,9.9697632)"
     style="fill:#ffffff;fill-rule:evenodd;stroke:none;stroke-width:1">
    <path
       d="m 20.569098,28 c 9.388822,5.910276 21.306075,9.445458 34.274652,9.445458 12.755833,0 24.494553,-3.420147 33.810559,-9.156514 C 100.47994,31.16581 108,35.486349 108,40.316994 108,48.978479 83.823376,56 54,56 24.176624,56 0,48.978479 0,40.316994 0,35.32179 8.0411349,30.872038 20.569098,28 Z"
       id="path18"
       inkscape:connector-curvature="0" />
    <path
       d="m 67.522289,-16.959715 c 0.892825,-0.418808 1.896293,-0.713911 2.969255,-0.85396 0.102451,-0.03051 0.205269,-0.06123 0.308456,-0.09216 v 0.05639 c 0.366394,-0.03719 0.740254,-0.05639 1.12,-0.05639 4.639192,0 8.4,2.865377 8.4,6.4 0,0.438356 -0.05784,0.866419 -0.16803,1.28 H 80.32 L 82,24.746667 c -5.01382,2.66995 -8.747153,4.376617 -11.2,5.12 C 64.279258,31.842904 57.97779,32 54,32 50.142163,32 44.009734,31.725512 37.76,29.866667 35.206449,29.107169 31.286449,27.400503 26,24.746667 l 1.68,-35.399173 h 0.07402 C 27.7052,-10.931663 27.68,-11.216509 27.68,-11.505839 c 0,-3.534623 3.760808,-6.4 8.4,-6.4 0.575343,0 1.137175,0.04407 1.68,0.128023 v -0.128023 c 7.217778,2.275555 12.631111,3.413333 16.24,3.413333 3.068224,0 7.575654,-0.822403 13.522289,-2.467209 z"
       id="path20"
       inkscape:connector-curvature="0"
       sodipodi:nodetypes="ccccsscccssscccssccsc" />
  </g>
</svg>
