<?xml version="1.0" encoding="UTF-8" standalone="no"?>
<svg 
	xmlns:dc="http://purl.org/dc/elements/1.1/" 
	xmlns:cc="http://creativecommons.org/ns#" 
	xmlns:rdf="http://www.w3.org/1999/02/22-rdf-syntax-ns#" 
	xmlns:svg="http://www.w3.org/2000/svg" 
	xmlns="http://www.w3.org/2000/svg" version="1.1" id="detail_title" viewBox="0 0 36 36" height="36px" width="36px">
	<metadata id="metadata4367">
		<rdf:RDF>
			<cc:Work rdf:about="">
				<dc:format>image/svg+xml</dc:format>
				<dc:type rdf:resource="http://purl.org/dc/dcmitype/StillImage" />
				<dc:title></dc:title>
			</cc:Work>
		</rdf:RDF>
	</metadata>
	<rect style="fill:var(--local-primary);fill-opacity:1;stroke:none" id="rect1998" width="35.257198" height="11.496912" x="0.49313515" y="3.6816106" />
	<path style="fill:var(--local-primary);fill-opacity:1;stroke:none" d="m 0,19.640505 0.70910483,1.428894 C 12.244156,19.194317 27.173898,23.211137 36,21.052563 L 35.597183,19.6802 C 27.047433,21.710286 12.697207,17.736435 0,19.640512 Z" id="rect2000" />
	<path style="fill:var(--local-primary);fill-opacity:1;stroke:none" d="m 0.01805125,24.363537 0.70910483,1.428894 C 12.262207,23.917349 27.19195,27.934169 36.018052,25.775583 L 35.615236,24.40322 C 27.065484,26.433306 12.715259,22.459455 0.01805125,24.363532 Z" id="rect2000-2" />
	<path style="fill:var(--local-primary);fill-opacity:1;stroke:none" d="m 0.1512953,29.04983 0.70910482,1.428894 C 12.39545,28.603642 27.325192,32.620463 36.151295,30.461877 L 35.748478,29.089513 C 27.198727,31.119599 12.848502,27.145749 0.1512953,29.049825 Z" id="rect2000-8" />
</svg>