<?xml version="1.0" encoding="UTF-8" standalone="no"?>
<svg
   xmlns:dc="http://purl.org/dc/elements/1.1/"
   xmlns:cc="http://creativecommons.org/ns#"
   xmlns:rdf="http://www.w3.org/1999/02/22-rdf-syntax-ns#"
   xmlns:svg="http://www.w3.org/2000/svg"
   xmlns="http://www.w3.org/2000/svg"
   xmlns:sodipodi="http://sodipodi.sourceforge.net/DTD/sodipodi-0.dtd"
   xmlns:inkscape="http://www.inkscape.org/namespaces/inkscape"
   version="1.1"
   id="svg4362"
   viewBox="0 0 35.999999 35.999999"
   height="36"
   width="36"
   sodipodi:docname="ico36_uc_transport-offer.svg"
   inkscape:version="0.92.2 (5c3e80d, 2017-08-06)">
  <sodipodi:namedview
     pagecolor="#ffffff"
     bordercolor="#666666"
     borderopacity="1"
     objecttolerance="10"
     gridtolerance="10"
     guidetolerance="10"
     inkscape:pageopacity="0"
     inkscape:pageshadow="2"
     inkscape:window-width="1600"
     inkscape:window-height="837"
     id="namedview38"
     showgrid="false"
     inkscape:object-nodes="false"
     inkscape:snap-others="true"
     inkscape:snap-global="true"
     inkscape:zoom="10.24"
     inkscape:cx="17.557974"
     inkscape:cy="10.02456"
     inkscape:window-x="-8"
     inkscape:window-y="-8"
     inkscape:window-maximized="1"
     inkscape:current-layer="svg4362"
     inkscape:snap-bbox="true"
     inkscape:snap-center="true"
     inkscape:snap-object-midpoints="true"
     inkscape:snap-bbox-midpoints="true" />
  <defs
     id="defs4364">
    <inkscape:perspective
       sodipodi:type="inkscape:persp3d"
       inkscape:vp_x="-305.80626 : 231.76156 : 0"
       inkscape:vp_y="0 : 1463.6666 : 0"
       inkscape:vp_z="954.3105 : 205.27923 : 0"
       inkscape:persp3d-origin="17.19295 : 8.4622747 : 1"
       id="perspective871" />
    <clipPath
       id="clipPath708"
       clipPathUnits="userSpaceOnUse">
      <path
         id="path710"
         d="M 0,0 H 1440 V 900 H 0 Z"
         inkscape:connector-curvature="0" />
    </clipPath>
    <clipPath
       id="clipPath720"
       clipPathUnits="userSpaceOnUse">
      <path
         id="path722"
         d="m 944.383,652.172 c 0,-34.969 28.357,-63.328 63.335,-63.328 v 0 c 34.979,0 63.335,28.359 63.335,63.328 v 0 c 0,34.984 -28.356,63.343 -63.335,63.343 v 0 c -34.978,0 -63.335,-28.359 -63.335,-63.343"
         inkscape:connector-curvature="0" />
    </clipPath>
    <clipPath
       id="clipPath732"
       clipPathUnits="userSpaceOnUse">
      <path
         id="path734"
         d="M 0,0 H 1440 V 900 H 0 Z"
         inkscape:connector-curvature="0" />
    </clipPath>
    <clipPath
       id="clipPath212"
       clipPathUnits="userSpaceOnUse">
      <path
         id="path214"
         d="m 606.85,488 c 0,-9.942 8.059,-18 18,-18 v 0 c 9.942,0 18,8.058 18,18 v 0 c 0,9.941 -8.058,18 -18,18 v 0 c -9.941,0 -18,-8.059 -18,-18"
         inkscape:connector-curvature="0" />
    </clipPath>
    <clipPath
       id="clipPath708-2"
       clipPathUnits="userSpaceOnUse">
      <path
         id="path710-7"
         d="M 0,0 H 1440 V 900 H 0 Z"
         inkscape:connector-curvature="0" />
    </clipPath>
    <clipPath
       id="clipPath720-7"
       clipPathUnits="userSpaceOnUse">
      <path
         id="path722-4"
         d="m 944.383,652.172 c 0,-34.969 28.357,-63.328 63.335,-63.328 v 0 c 34.979,0 63.335,28.359 63.335,63.328 v 0 c 0,34.984 -28.356,63.343 -63.335,63.343 v 0 c -34.978,0 -63.335,-28.359 -63.335,-63.343"
         inkscape:connector-curvature="0" />
    </clipPath>
    <clipPath
       id="clipPath732-4"
       clipPathUnits="userSpaceOnUse">
      <path
         id="path734-6"
         d="M 0,0 H 1440 V 900 H 0 Z"
         inkscape:connector-curvature="0" />
    </clipPath>
    <clipPath
       id="clipPath212-8"
       clipPathUnits="userSpaceOnUse">
      <path
         id="path214-5"
         d="m 606.85,488 c 0,-9.942 8.059,-18 18,-18 v 0 c 9.942,0 18,8.058 18,18 v 0 c 0,9.941 -8.058,18 -18,18 v 0 c -9.941,0 -18,-8.059 -18,-18"
         inkscape:connector-curvature="0" />
    </clipPath>
    <clipPath
       id="clipPath212-8-8"
       clipPathUnits="userSpaceOnUse">
      <path
         id="path214-5-1"
         d="m 606.85,488 c 0,-9.942 8.059,-18 18,-18 v 0 c 9.942,0 18,8.058 18,18 v 0 c 0,9.941 -8.058,18 -18,18 v 0 c -9.941,0 -18,-8.059 -18,-18"
         inkscape:connector-curvature="0" />
    </clipPath>
    <clipPath
       id="clipPath212-8-8-5"
       clipPathUnits="userSpaceOnUse">
      <path
         id="path214-5-1-7"
         d="m 606.85,488 c 0,-9.942 8.059,-18 18,-18 v 0 c 9.942,0 18,8.058 18,18 v 0 c 0,9.941 -8.058,18 -18,18 v 0 c -9.941,0 -18,-8.059 -18,-18"
         inkscape:connector-curvature="0" />
    </clipPath>
    <inkscape:perspective
       sodipodi:type="inkscape:persp3d"
       inkscape:vp_x="-302.97862 : 234.1704 : 1"
       inkscape:vp_y="0 : 1463.6666 : 0"
       inkscape:vp_z="957.13814 : 207.68807 : 1"
       inkscape:persp3d-origin="2.8276446 : 2.4088476 : 1"
       id="perspective871-9" />
    <inkscape:perspective
       sodipodi:type="inkscape:persp3d"
       inkscape:vp_x="-280.66612 : 244.1079 : 1"
       inkscape:vp_y="0 : 1463.6666 : 0"
       inkscape:vp_z="944.45064 : 211.62557 : 1"
       inkscape:persp3d-origin="-9.8598544 : 6.3463481 : 1"
       id="perspective871-1" />
    <inkscape:perspective
       sodipodi:type="inkscape:persp3d"
       inkscape:vp_x="-288.61331 : 248.86592 : 1"
       inkscape:vp_y="0 : 1463.6666 : 0"
       inkscape:vp_z="971.50345 : 222.38359 : 1"
       inkscape:persp3d-origin="17.19295 : 17.104363 : 1"
       id="perspective871-0" />
    <inkscape:perspective
       sodipodi:type="inkscape:persp3d"
       inkscape:vp_x="-258.41612 : 247.6079 : 1"
       inkscape:vp_y="0 : 1463.6666 : 0"
       inkscape:vp_z="1001.7006 : 221.12557 : 1"
       inkscape:persp3d-origin="47.390143 : 15.846348 : 1"
       id="perspective871-94" />
    <inkscape:perspective
       sodipodi:type="inkscape:persp3d"
       inkscape:vp_x="-286.5868 : 238.6857 : 1"
       inkscape:vp_y="0 : 1463.6666 : 0"
       inkscape:vp_z="973.52996 : 212.20337 : 1"
       inkscape:persp3d-origin="19.219464 : 6.9241439 : 1"
       id="perspective871-6" />
  </defs>
  <metadata
     id="metadata4367">
    <rdf:RDF>
      <cc:Work
         rdf:about="">
        <dc:format>image/svg+xml</dc:format>
        <dc:type
           rdf:resource="http://purl.org/dc/dcmitype/StillImage" />
        <dc:title></dc:title>
      </cc:Work>
    </rdf:RDF>
  </metadata>
  <g
     id="g932"
     transform="translate(-0.15090723,-0.74052497)">
    <path
       sodipodi:nodetypes="cscccscccccscccccccscc"
       inkscape:connector-curvature="0"
       id="rect855"
       d="m 32.357824,2.7340552 c 0,0 -2.302177,1.1071614 -3.244634,2.0032515 -0.793395,0.7543631 -1.905374,2.6819475 -1.905374,2.6819475 L 14.046425,28.428466 5.7277608,23.217172 c 0,0 -1.0998755,-0.611251 -1.846212,-0.439838 -0.7934231,0.182222 -1.6758566,1.53103 -1.6758566,1.53103 l -1.48358473,2.36821 2.03848283,1.277023 0.9052839,-1.445082 0.4526414,-0.722542 c 0,0 0.2791204,-0.402475 0.4976691,-0.455424 0.2263633,-0.05485 0.6742191,0.183466 0.6742191,0.183466 l 9.7174352,6.087565 1.156602,-1.846256 12.105135,-19.323142 6.253873,3.91779 1.056258,-1.68608 -6.253872,-3.9177893 c 0,0 1.111981,-1.9275825 1.905373,-2.6819479 0.942457,-0.8960901 3.244634,-2.0032515 3.244634,-2.0032515 z"
       style="fill:var(--local-primary);fill-opacity:1;stroke:none;stroke-width:1.01136482;stroke-linecap:square;stroke-linejoin:miter;stroke-miterlimit:4;stroke-dasharray:none;stroke-opacity:1;paint-order:fill markers stroke" />
    <rect
       transform="rotate(32.065418)"
       style="fill:var(--local-primary);fill-opacity:1;stroke:none;stroke-width:1.70408523;stroke-linecap:square;stroke-linejoin:miter;stroke-miterlimit:4;stroke-dasharray:none;stroke-opacity:1;paint-order:fill markers stroke"
       id="rect874"
       width="11.427901"
       height="9.4482651"
       x="14.463733"
       y="6.3880754" />
    <rect
       transform="rotate(32.065418)"
       y="-3.8546028"
       x="14.463733"
       height="9.4482651"
       width="11.427901"
       id="rect872"
       style="fill:var(--local-primary);fill-opacity:1;stroke:none;stroke-width:1.70408523;stroke-linecap:square;stroke-linejoin:miter;stroke-miterlimit:4;stroke-dasharray:none;stroke-opacity:1;paint-order:fill markers stroke" />
    <circle
       transform="rotate(32.065418)"
       r="3.3293889"
       cy="18.89411"
       cx="29.019224"
       id="path876"
       style="fill:var(--local-primary);fill-opacity:1;stroke:none;stroke-width:1.53783298;stroke-linecap:square;stroke-linejoin:miter;stroke-miterlimit:4;stroke-dasharray:none;stroke-opacity:1;paint-order:fill markers stroke" />
  </g>
</svg>
