<?xml version="1.0" encoding="UTF-8" standalone="no"?>
<svg 
	xmlns:dc="http://purl.org/dc/elements/1.1/" 
	xmlns:cc="http://creativecommons.org/ns#" 
	xmlns:rdf="http://www.w3.org/1999/02/22-rdf-syntax-ns#" 
	xmlns:svg="http://www.w3.org/2000/svg" 
	xmlns="http://www.w3.org/2000/svg" width="36" height="36" viewBox="0 0 35.999999 35.999999" id="svg4362" version="1.1">
	<path id="path830" style="fill:var(--local-primary)" d="M 18,0.6875 C 8.4385703,0.6875 0.6875,8.4385703 0.6875,18 0.6875,27.56143 8.4385703,35.3125 18,35.3125 27.56143,35.3125 35.3125,27.56143 35.3125,18 35.3125,8.4385703 27.56143,0.6875 18,0.6875 Z M 18,4.75 c 7.317773,0 13.25,5.932228 13.25,13.25 0,7.317773 -5.932227,13.25 -13.25,13.25 C 10.682228,31.25 4.75,25.317773 4.75,18 4.75,10.682228 10.682228,4.75 18,4.75 Z" />
	<path id="rect22233" style="fill:var(--local-primary)" d="m 13.364258,13.048828 c -3.5795835,0.721673 -8.0024258,2.9391 -8.2695315,1.779297 -0.4346532,-1.887313 -1.1384449,8.771492 -0.125,7.0625 1.6443648,-2.772925 3.6761712,-0.86348 6.5195315,2.253906 3.176338,3.482453 2.457333,6.130789 0.867188,6.4375 1.947981,3.581807 12.558228,0.424693 11.287109,-0.002 -1.590145,-0.306711 -2.309149,-2.955047 0.867188,-6.4375 2.84336,-3.117386 4.875167,-5.026831 6.519531,-2.253906 1.013445,1.708992 0.278403,-8.949812 -0.15625,-7.0625 -0.267105,1.159803 -4.658697,-1.057624 -8.238281,-1.779297 -3.160404,-0.614709 -6.262447,-0.596307 -9.271485,0.002 z" />
</svg>