<?xml version="1.0" encoding="UTF-8" standalone="no"?>
<svg
   xmlns:dc="http://purl.org/dc/elements/1.1/"
   xmlns:cc="http://creativecommons.org/ns#"
   xmlns:rdf="http://www.w3.org/1999/02/22-rdf-syntax-ns#"
   xmlns:svg="http://www.w3.org/2000/svg"
   xmlns="http://www.w3.org/2000/svg"
   xmlns:sodipodi="http://sodipodi.sourceforge.net/DTD/sodipodi-0.dtd"
   xmlns:inkscape="http://www.inkscape.org/namespaces/inkscape"
   version="1.1"
   id="svg4362"
   viewBox="0 0 35.999999 35.999999"
   height="36"
   width="36"
   sodipodi:docname="ico36_uc_meal-half.svg"
   inkscape:version="0.92.2 (5c3e80d, 2017-08-06)">
  <sodipodi:namedview
     pagecolor="#ffffff"
     bordercolor="#666666"
     borderopacity="1"
     objecttolerance="10"
     gridtolerance="10"
     guidetolerance="10"
     inkscape:pageopacity="0"
     inkscape:pageshadow="2"
     inkscape:window-width="2560"
     inkscape:window-height="1377"
     id="namedview38"
     showgrid="false"
     inkscape:object-nodes="false"
     inkscape:snap-others="true"
     inkscape:snap-global="true"
     inkscape:zoom="16.000001"
     inkscape:cx="5.7048745"
     inkscape:cy="24.987952"
     inkscape:window-x="2552"
     inkscape:window-y="-8"
     inkscape:window-maximized="1"
     inkscape:current-layer="svg4362"
     inkscape:snap-bbox="true"
     inkscape:snap-center="true"
     inkscape:snap-object-midpoints="true"
     inkscape:snap-bbox-midpoints="true" />
  <defs
     id="defs4364">
    <clipPath
       id="clipPath708"
       clipPathUnits="userSpaceOnUse">
      <path
         id="path710"
         d="M 0,0 H 1440 V 900 H 0 Z"
         inkscape:connector-curvature="0" />
    </clipPath>
    <clipPath
       id="clipPath720"
       clipPathUnits="userSpaceOnUse">
      <path
         id="path722"
         d="m 944.383,652.172 c 0,-34.969 28.357,-63.328 63.335,-63.328 v 0 c 34.979,0 63.335,28.359 63.335,63.328 v 0 c 0,34.984 -28.356,63.343 -63.335,63.343 v 0 c -34.978,0 -63.335,-28.359 -63.335,-63.343"
         inkscape:connector-curvature="0" />
    </clipPath>
    <clipPath
       id="clipPath732"
       clipPathUnits="userSpaceOnUse">
      <path
         id="path734"
         d="M 0,0 H 1440 V 900 H 0 Z"
         inkscape:connector-curvature="0" />
    </clipPath>
    <clipPath
       id="clipPath212"
       clipPathUnits="userSpaceOnUse">
      <path
         id="path214"
         d="m 606.85,488 c 0,-9.942 8.059,-18 18,-18 v 0 c 9.942,0 18,8.058 18,18 v 0 c 0,9.941 -8.058,18 -18,18 v 0 c -9.941,0 -18,-8.059 -18,-18"
         inkscape:connector-curvature="0" />
    </clipPath>
    <clipPath
       id="clipPath708-2"
       clipPathUnits="userSpaceOnUse">
      <path
         id="path710-7"
         d="M 0,0 H 1440 V 900 H 0 Z"
         inkscape:connector-curvature="0" />
    </clipPath>
    <clipPath
       id="clipPath720-7"
       clipPathUnits="userSpaceOnUse">
      <path
         id="path722-4"
         d="m 944.383,652.172 c 0,-34.969 28.357,-63.328 63.335,-63.328 v 0 c 34.979,0 63.335,28.359 63.335,63.328 v 0 c 0,34.984 -28.356,63.343 -63.335,63.343 v 0 c -34.978,0 -63.335,-28.359 -63.335,-63.343"
         inkscape:connector-curvature="0" />
    </clipPath>
    <clipPath
       id="clipPath732-4"
       clipPathUnits="userSpaceOnUse">
      <path
         id="path734-6"
         d="M 0,0 H 1440 V 900 H 0 Z"
         inkscape:connector-curvature="0" />
    </clipPath>
    <clipPath
       id="clipPath212-8"
       clipPathUnits="userSpaceOnUse">
      <path
         id="path214-5"
         d="m 606.85,488 c 0,-9.942 8.059,-18 18,-18 v 0 c 9.942,0 18,8.058 18,18 v 0 c 0,9.941 -8.058,18 -18,18 v 0 c -9.941,0 -18,-8.059 -18,-18"
         inkscape:connector-curvature="0" />
    </clipPath>
    <clipPath
       id="clipPath212-8-8"
       clipPathUnits="userSpaceOnUse">
      <path
         id="path214-5-1"
         d="m 606.85,488 c 0,-9.942 8.059,-18 18,-18 v 0 c 9.942,0 18,8.058 18,18 v 0 c 0,9.941 -8.058,18 -18,18 v 0 c -9.941,0 -18,-8.059 -18,-18"
         inkscape:connector-curvature="0" />
    </clipPath>
    <clipPath
       id="clipPath212-8-8-5"
       clipPathUnits="userSpaceOnUse">
      <path
         id="path214-5-1-7"
         d="m 606.85,488 c 0,-9.942 8.059,-18 18,-18 v 0 c 9.942,0 18,8.058 18,18 v 0 c 0,9.941 -8.058,18 -18,18 v 0 c -9.941,0 -18,-8.059 -18,-18"
         inkscape:connector-curvature="0" />
    </clipPath>
  </defs>
  <metadata
     id="metadata4367">
    <rdf:RDF>
      <cc:Work
         rdf:about="">
        <dc:format>image/svg+xml</dc:format>
        <dc:type
           rdf:resource="http://purl.org/dc/dcmitype/StillImage" />
        <dc:title />
      </cc:Work>
    </rdf:RDF>
  </metadata>
  <path
     style="fill:var(--local-primary);fill-opacity:1;stroke:none;stroke-width:0.4586499;stroke-linejoin:round;stroke-miterlimit:4;stroke-dasharray:none;stroke-dashoffset:0;stroke-opacity:1"
     d="m 26.749656,1.7753906 c 0.111423,5.3574466 0.824034,23.7170124 0.824034,23.7170124 0,0 -0.0045,5.918746 0,10.130283 h 2.550852 V 25.492403 c 0,0 0.648162,-3.573792 1.70713,-6.977577 C 32.872034,15.171055 33.127166,9.5692066 32.202909,6.6549134 31.278652,3.74062 29.423781,1.7755994 26.749656,1.7753906 Z"
     id="rect1000"
     inkscape:connector-curvature="0"
     sodipodi:nodetypes="ccccccsc" />
  <path
     style="fill:var(--local-primary);fill-opacity:1;stroke:none;stroke-width:12.14424801;stroke-linejoin:round;stroke-miterlimit:4;stroke-dasharray:none;stroke-dashoffset:0;stroke-opacity:1"
     d="m 18.764827,2.1016296 c -0.806629,0 -0.841595,2.8382674 -0.911941,4.4158684 -0.08009,1.7959791 -0.183729,4.032095 -0.133858,5.4163 0.09973,2.768408 2.619624,4.307531 2.595851,5.827303 -0.07946,5.055017 0,15.662284 0,15.662284 0,0 7.1e-4,1.978555 0,2.154302 h 2.328671 c 3.05e-4,-0.176698 0,-2.154302 0,-2.154302 0,0 -0.02549,-10.435908 0,-15.662284 0.0072,-1.473557 2.145913,-3.064225 2.238675,-5.827303 0.04638,-1.381539 -0.05606,-3.3047063 -0.14839,-5.4241125 -0.09102,-2.0892197 -0.04478,-4.4080559 -0.85322,-4.4080559 -0.76681,0 -0.448659,1.9434616 -0.594843,4.4080559 -0.146184,2.4645944 -0.06578,5.2297135 -0.791279,5.4241125 -0.590618,0.158255 -0.483117,-2.9692129 -0.547411,-5.4241125 -0.06429,-2.4548994 0.208966,-4.4080559 -0.624358,-4.4080559 -0.880241,0 -0.640018,1.9389654 -0.71433,4.4080559 -0.07432,2.4690906 0.11583,5.4683065 -0.501634,5.4683065 -0.750032,0 -0.710219,-2.9992159 -0.837054,-5.4683065 C 19.142875,4.040595 19.423909,2.1016296 18.764833,2.1016296 Z"
     id="rect1002"
     inkscape:connector-curvature="0"
     sodipodi:nodetypes="sssccccccsssssssssss" />
  <path
     style="fill:none;fill-opacity:0.68341711;stroke:var(--local-primary);stroke-width:2.07517099;stroke-linecap:butt;stroke-linejoin:round;stroke-miterlimit:4;stroke-dasharray:none;stroke-dashoffset:0;stroke-opacity:1;paint-order:fill markers stroke"
     d="m 0.0429557,4.1922036 c 8.6288202,0 15.6238623,6.7416064 15.6238623,15.0577984 0,8.316192 -6.9950421,15.057798 -15.6238623,15.057798"
     id="path898"
     inkscape:connector-curvature="0"
     sodipodi:nodetypes="csc" />
  <path
     style="fill:none;fill-opacity:0.68341711;stroke:var(--local-primary);stroke-width:1.42128742;stroke-linecap:butt;stroke-linejoin:round;stroke-miterlimit:4;stroke-dasharray:none;stroke-dashoffset:0;stroke-opacity:1;paint-order:fill markers stroke"
     d="m 0.0429557,8.9368958 c 5.9098904,0 10.7008053,4.6173352 10.7008053,10.3131062 0,5.695771 -4.7909149,10.313106 -10.7008053,10.313106"
     id="path898-3"
     inkscape:connector-curvature="0"
     sodipodi:nodetypes="csc" />
</svg>
