<?xml version="1.0" encoding="UTF-8" standalone="no"?>
<svg
   xmlns:dc="http://purl.org/dc/elements/1.1/"
   xmlns:cc="http://creativecommons.org/ns#"
   xmlns:rdf="http://www.w3.org/1999/02/22-rdf-syntax-ns#"
   xmlns:svg="http://www.w3.org/2000/svg"
   xmlns="http://www.w3.org/2000/svg"
   xmlns:xlink="http://www.w3.org/1999/xlink"
   xml:space="preserve"
   enable-background="new 0 0 36 36"
   viewBox="0 0 36 36"
   height="36px"
   width="36px"
   y="0px"
   x="0px"
   id="Layer_1"
   version="1.1"><metadata
     id="metadata29"><rdf:RDF><cc:Work
         rdf:about=""><dc:format>image/svg+xml</dc:format><dc:type
           rdf:resource="http://purl.org/dc/dcmitype/StillImage" /><dc:title></dc:title></cc:Work></rdf:RDF></metadata><defs
     id="defs27" /><g
     id="g3"><path
       fill="#FFFFFF"
       id="path5"
       d="M18,35c9.373,0,17-7.626,17-17S27.373,1,18,1C8.626,1,1,8.626,1,18S8.626,35,18,35L18,35z" /><g
       id="g7"><g
         id="g9"><defs
           id="defs11"><path
             d="M18,36c9.941,0,18-8.059,18-18c0-9.941-8.059-18-18-18C8.059,0,0,8.059,0,18C0,27.941,8.059,36,18,36      L18,36z"
             id="SVGID_1_" /></defs><clipPath
           id="SVGID_2_"><use
             id="use15"
             overflow="visible"
             xlink:href="#SVGID_1_" /></clipPath><path
           id="path17"
           d="M18,7.299c-4.142,0-7.5,3.358-7.5,7.5c0,6.145,7.5,13.903,7.5,13.903s7.5-7.759,7.5-13.903     C25.5,10.657,22.143,7.299,18,7.299L18,7.299z M18,19.432c-2.071,0-3.75-1.68-3.75-3.75c0-2.071,1.679-3.75,3.75-3.75     c2.07,0,3.75,1.679,3.75,3.75C21.75,17.751,20.07,19.432,18,19.432L18,19.432z"
           clip-path="url(#SVGID_2_)" /></g></g><g
       id="g19"><g
         id="g21"><path
           fill="none"
           stroke="#000000"
           stroke-width="2"
           id="path23"
           d="M18,35c9.373,0,17-7.626,17-17S27.373,1,18,1C8.626,1,1,8.626,1,18     S8.626,35,18,35L18,35z" /></g></g></g></svg>