<?xml version="1.0" encoding="UTF-8" standalone="no"?>
<svg 
	xmlns:dc="http://purl.org/dc/elements/1.1/" 
	xmlns:cc="http://creativecommons.org/ns#" 
	xmlns:rdf="http://www.w3.org/1999/02/22-rdf-syntax-ns#" 
	xmlns:svg="http://www.w3.org/2000/svg" 
	xmlns="http://www.w3.org/2000/svg" version="1.1" id="detail_rent" viewBox="0 0 36 36" height="36px" width="36px">
	<metadata id="metadata4367">
		<rdf:RDF>
			<cc:Work rdf:about="">
				<dc:format>image/svg+xml</dc:format>
				<dc:type rdf:resource="http://purl.org/dc/dcmitype/StillImage" />
				<dc:title></dc:title>
			</cc:Work>
		</rdf:RDF>
	</metadata>
	<ellipse ry="1.7985692" rx="5.3148727" cy="21.399557" cx="8.7816811" id="path818" style="fill:var(--local-primary);fill-opacity:1;stroke:none" />
	<path id="path818-0" d="m 14.076342,23.391976 c 0,0.993322 -0.02174,2.490837 -5.3148721,2.484473 -5.2931074,-0.0064 -5.3148724,-1.491151 -5.3148727,-2.484473 3e-7,-0.993323 -0.00387,1.154715 5.3148727,1.141788 5.3180181,-0.01292 5.3148721,-2.135111 5.3148721,-1.141788 z" style="fill:var(--local-primary);fill-opacity:1;stroke:none" />
	<path id="path818-0-0" d="m 14.076342,26.071061 c 0,0.993323 -0.02174,2.490838 -5.3148721,2.484474 -5.2931077,-0.0064 -5.3148726,-1.491151 -5.3148729,-2.484474 3e-7,-0.993322 -0.00387,1.154716 5.3148729,1.141789 5.3180181,-0.01292 5.3148721,-2.135111 5.3148721,-1.141789 z" style="fill:var(--local-primary);fill-opacity:1;stroke:none" />
	<path id="path818-0-3" d="m 14.076342,28.550147 c 0,0.993323 -0.02174,2.490838 -5.3148721,2.484474 -5.2931069,-0.0064 -5.3148718,-1.491151 -5.3148721,-2.484474 3e-7,-0.993322 -0.00387,1.154716 5.3148721,1.141789 5.3180181,-0.01292 5.3148721,-2.135111 5.3148721,-1.141789 z" style="fill:var(--local-primary);fill-opacity:1;stroke:none" />
	<path id="rect875-4" d="M 11.405983,4.2719878 5.66282,14.219438 25.014766,25.39229 30.757929,15.444839 Z m 1.769172,2.728674 14.313099,8.2636712 a 1.3919204,1.3919204 0 0 0 0.50972,1.902297 l -2.859375,4.952583 A 1.3919204,1.3919204 0 0 0 23.237278,22.62724 L 8.9241791,14.363569 A 1.3919204,1.3919204 0 0 0 8.4134831,12.462963 L 11.272858,7.5103808 a 1.3919204,1.3919204 0 0 0 1.902297,-0.509719 z m 6.422295,5.4309442 a 1.5917217,2.771301 30 0 0 -2.764278,1.604277 1.5917217,2.771301 30 0 0 -0.0072,3.196074 1.5917217,2.771301 30 0 0 2.764279,-1.604277 1.5917217,2.771301 30 0 0 0.0072,-3.196074 z" style="fill:var(--local-primary);fill-opacity:1;stroke:none" />
	<path id="rect937" d="m 15.39428,22.541178 v -1.702464 l 10.225677,5.877532 4.922507,-8.570893 1.306309,0.690738 -5.743163,9.947451 z" style="fill:var(--local-primary);fill-opacity:1;stroke:none" />
	<path id="rect937-4" d="m 15.39428,25.398898 v -1.59606 l 11.021884,6.249946 4.922507,-8.570893 1.306309,0.690738 -5.743163,9.947451 z" style="fill:var(--local-primary);fill-opacity:1;stroke:none" />
	<path id="rect957" d="m 6.420881,15.908665 4.256158,2.376354 -2.4472912,0.319212 -2.6246303,-1.489654 z" style="fill:var(--local-primary);fill-opacity:1;stroke:none" />
</svg>