<?xml version="1.0" encoding="UTF-8" standalone="no"?>
<svg
   xmlns:dc="http://purl.org/dc/elements/1.1/"
   xmlns:cc="http://creativecommons.org/ns#"
   xmlns:rdf="http://www.w3.org/1999/02/22-rdf-syntax-ns#"
   xmlns:svg="http://www.w3.org/2000/svg"
   xmlns="http://www.w3.org/2000/svg"
   xmlns:sodipodi="http://sodipodi.sourceforge.net/DTD/sodipodi-0.dtd"
   xmlns:inkscape="http://www.inkscape.org/namespaces/inkscape"
   version="1.1"
   id="svg4362"
   viewBox="0 0 36.040812 35.999999"
   height="36"
   width="36.040813"
   sodipodi:docname="ico36_person_anon.svg"
   inkscape:version="0.92.2 (5c3e80d, 2017-08-06)">
  <sodipodi:namedview
     pagecolor="#ffffff"
     bordercolor="#666666"
     borderopacity="1"
     objecttolerance="10"
     gridtolerance="10"
     guidetolerance="10"
     inkscape:pageopacity="0"
     inkscape:pageshadow="2"
     inkscape:window-width="2173"
     inkscape:window-height="1368"
     id="namedview38"
     showgrid="false"
     inkscape:object-nodes="false"
     inkscape:snap-others="false"
     inkscape:snap-global="false"
     inkscape:zoom="6.5555555"
     inkscape:cx="-19.661816"
     inkscape:cy="39.280422"
     inkscape:window-x="2729"
     inkscape:window-y="0"
     inkscape:window-maximized="0"
     inkscape:current-layer="svg4362" />
  <defs
     id="defs4364" />
  <metadata
     id="metadata4367">
    <rdf:RDF>
      <cc:Work
         rdf:about="">
        <dc:format>image/svg+xml</dc:format>
        <dc:type
           rdf:resource="http://purl.org/dc/dcmitype/StillImage" />
        <dc:title />
      </cc:Work>
    </rdf:RDF>
  </metadata>
  <path
     style="fill-opacity:1;fill-rule:nonzero;stroke:none;stroke-width:1.02349913;fill:var(--local-primary)"
     d="m 18.021384,0.0888674 c -9.8767663,0 -17.91211028,8.0363668 -17.91211028,17.9121096 0,9.875743 8.03534398,17.910156 17.91211028,17.910156 9.876766,0 17.910156,-8.034413 17.910156,-17.910156 0,-9.8757428 -8.03339,-17.9121096 -17.910156,-17.9121096 z m -3.419922,4.9774304 c 0.113015,0 0.22149,0.00676 0.328125,0.019531 v -0.019531 c 1.417837,0.3434282 2.482487,0.5136719 3.191406,0.5136719 0.602713,0 1.488111,-0.1228602 2.65625,-0.3710938 0.175383,-0.063203 0.373214,-0.1077662 0.583985,-0.1289062 0.02011,-0.00453 0.0403,-0.009 0.06055,-0.013672 v 0.00781 c 0.07197,-0.00564 0.14415,-0.00781 0.21875,-0.00781 0.911307,0 1.650391,0.4313965 1.650391,0.9648437 0,0.066162 -0.01154,0.1309394 -0.0332,0.1933594 h 0.0332 l 0.330078,5.2773442 c -0.984899,0.402951 -1.71739,0.661239 -2.199219,0.773438 -1.280915,0.298257 -2.519397,0.322265 -3.300781,0.322266 -0.757821,-2e-6 -1.963728,-0.04173 -3.191406,-0.322266 -0.501612,-0.114628 -1.272092,-0.372918 -2.310547,-0.773438 l 0.332031,-5.3417973 h 0.01563 c -0.0095,-0.04213 -0.01563,-0.085237 -0.01563,-0.1289063 0,-0.5334471 0.739084,-0.9648437 1.650391,-0.9648437 z m -3.046875,6.9277352 c 1.84431,0.891983 4.184915,1.423828 6.732422,1.423828 2.505715,0 4.812571,-0.515123 6.642578,-1.380859 2.322989,0.434178 3.800781,1.087362 3.800781,1.816406 -1.020838,0.912583 -2.799461,1.466142 -4.482422,1.828125 0.04677,1.193873 -0.0212,1.755143 -0.171875,2.747179 -0.225237,1.482918 0.158046,2.27838 1.650391,2.804687 -0.763977,0.47784 -2.161964,0.471478 -2.939453,0.355469 -0.03563,0.339798 0.144096,0.684751 0.519531,0.978515 -1.141303,0.133527 -1.876006,-0.100432 -2.703125,-0.55664 l 0.125,1.34375 c 0.239562,2.566984 6.833799,3.540239 7.412109,6.927734 -2.752584,2.271896 -6.279519,3.638672 -10.11914,3.638672 -3.882308,0 -7.4413,-1.401296 -10.2070323,-3.71875 0.840871,-3.433772 7.3165033,-3.889401 7.4355473,-6.847656 l 0.06055,-1.513672 c -0.69508,0.367234 -1.669091,0.660079 -2.855468,0.699219 0.226962,-0.274299 0.283014,-0.679284 0.251953,-0.931641 -0.777489,0.116009 -1.58368,0.10284 -2.347657,-0.375 1.492349,-0.526307 2.260805,-1.357863 1.865235,-2.804687 -0.205843,-0.752881 -0.325828,-1.353434 -0.291016,-2.669054 -1.607317,-0.350431 -4.4199223,-1.121275 -4.4199223,-1.90625 0,-0.753879 1.580062,-1.425926 4.0410163,-1.859375 z m 1.898437,3.8125 c -0.171091,0.346319 -0.02344,0.9375 -0.02344,0.9375 0.13446,0.70639 0.731048,1.51707 1.416015,1.488281 0,0 0.749284,0.09163 1.283204,-0.05469 0.53392,-0.146324 1.279602,-0.369762 1.414062,-1.076172 l 0.214844,-0.773438 c 0.210115,-0.09026 0.44221,-0.09026 0.652344,0 l 0.216796,0.773438 c 0.13446,0.70639 0.789345,0.915418 1.414063,1.076172 0.414605,0.106688 1.283203,0.05469 1.283203,0.05469 0.685553,-10e-7 1.279603,-0.781871 1.414063,-1.488281 0,0 0.169892,-0.541585 0.002,-0.884766 -1.219654,0.209621 -2.879202,0.207032 -4.65625,0.207032 -1.777834,0 -3.664275,-0.147664 -4.63086,-0.259766 z"
     id="path206-2"
     inkscape:connector-curvature="0"
     sodipodi:nodetypes="ssssssccsccccsscccccccccsscscccsccccccsccccccccscccccccccccccsc" />
  <g
     id="g228"
     transform="matrix(0.99576271,0,0,-0.99576271,18.042141,35.498603)">
    <path
       d="M 0,0 C 9.65,0 17.5,7.851 17.5,17.5 17.5,27.149 9.65,35 0,35 -9.65,35 -17.5,27.149 -17.5,17.5 -17.5,7.851 -9.65,0 0,0 Z"
       style="fill:none;stroke-width:1;stroke-linecap:butt;stroke-linejoin:miter;stroke-miterlimit:4;stroke-dasharray:none;stroke-opacity:1"
       id="path230"
       inkscape:connector-curvature="0" />
  </g>
  <g
     id="g19"
     transform="translate(0.02040672)">
    <g
       id="g21">
      <path
         style="fill:none;stroke-width:2"
         id="path23"
         d="M 18,35 C 27.373,35 35,27.374 35,18 35,8.626 27.373,1 18,1 8.626,1 1,8.626 1,18 1,27.374 8.626,35 18,35 Z"
         inkscape:connector-curvature="0" />
    </g>
  </g>
</svg>
