<?xml version="1.0" encoding="utf-8"?>
<!-- Generator: Adobe Illustrator 15.0.0, SVG Export Plug-In . SVG Version: 6.00 Build 0)  -->
<!DOCTYPE svg PUBLIC "-//W3C//DTD SVG 1.1//EN" "http://www.w3.org/Graphics/SVG/1.1/DTD/svg11.dtd">
<svg version="1.1" id="Layer_1" xmlns="http://www.w3.org/2000/svg" xmlns:xlink="http://www.w3.org/1999/xlink" x="0px" y="0px"
	 width="36px" height="36px" viewBox="0 0 36 36" enable-background="new 0 0 36 36" xml:space="preserve">
<g>
	<path fill="#FFFFFF" d="M18,35c9.374,0,17-7.626,17-17S27.374,1,18,1S1,8.626,1,18S8.626,35,18,35L18,35z"/>
	<g>
		<g>
			<defs>
				<path id="SVGID_1_" d="M18,36c9.941,0,18-8.059,18-18c0-9.941-8.059-18-18-18C8.059,0,0,8.059,0,18C0,27.941,8.059,36,18,36
					L18,36z"/>
			</defs>
			<clipPath id="SVGID_2_">
				<use xlink:href="#SVGID_1_"  overflow="visible"/>
			</clipPath>
			<path clip-path="url(#SVGID_2_)" d="M16.792,16.521c-1,0.473-1.5,1.265-1.5,2.375c0,0.416,0.097,0.818,0.292,1.207
				c0.5,1,1.305,1.5,2.417,1.5c0.417,0,0.819-0.097,1.209-0.291c1-0.5,1.5-1.306,1.5-2.416c0-0.417-0.099-0.819-0.293-1.209
				c-0.5-0.972-1.306-1.458-2.417-1.458C17.583,16.229,17.18,16.327,16.792,16.521L16.792,16.521L16.792,16.521z M23.042,13.521
				c-0.332-0.027-0.567-0.194-0.707-0.5l-0.584-1.667c-0.11-0.333-0.334-0.514-0.666-0.542h-6.168
				c-0.306,0.028-0.528,0.195-0.667,0.5l-0.583,1.667c-0.139,0.306-0.375,0.473-0.708,0.5h-2.167c-0.223,0-0.444,0.042-0.667,0.125
				C9.375,13.882,9,14.438,9,15.271v8.125c0,0.223,0.042,0.443,0.125,0.666c0.277,0.75,0.833,1.125,1.667,1.125H25.21
				c0.222,0,0.442-0.041,0.666-0.125C26.625,24.785,27,24.229,27,23.396v-8.084c0-0.222-0.041-0.458-0.125-0.708
				c-0.334-0.722-0.889-1.083-1.666-1.083H23.042L23.042,13.521z M15.5,22.646c-1.333-0.89-2-2.14-2-3.75
				c0-0.89,0.25-1.724,0.75-2.5c0.889-1.333,2.139-2,3.75-2c0.889,0,1.723,0.25,2.5,0.75c1.334,0.89,2,2.14,2,3.75
				c0,0.889-0.25,1.723-0.75,2.5c-0.889,1.332-2.139,2-3.75,2C17.111,23.396,16.277,23.146,15.5,22.646L15.5,22.646L15.5,22.646z"/>
		</g>
	</g>
	<g>
		<g>
			<path fill="none" stroke="#000000" stroke-width="2" d="M18,35c9.374,0,17-7.626,17-17S27.374,1,18,1S1,8.626,1,18
				S8.626,35,18,35L18,35z"/>
		</g>
	</g>
</g>
</svg>
