<?xml version="1.0" encoding="UTF-8" standalone="no"?>
<svg 
	xmlns:dc="http://purl.org/dc/elements/1.1/" 
	xmlns:cc="http://creativecommons.org/ns#" 
	xmlns:rdf="http://www.w3.org/1999/02/22-rdf-syntax-ns#" 
	xmlns:svg="http://www.w3.org/2000/svg" 
	xmlns="http://www.w3.org/2000/svg" version="1.1" id="detail_number-of-rooms" width="36px" height="36px" viewBox="0 0 36 36">
	<metadata id="metadata29">
		<rdf:RDF>
			<cc:Work rdf:about="">
				<dc:format>image/svg+xml</dc:format>
				<dc:type rdf:resource="http://purl.org/dc/dcmitype/StillImage" />
				<dc:title></dc:title>
			</cc:Work>
		</rdf:RDF>
	</metadata>
	<path style="fill:var(--local-primary);fill-opacity:1;stroke:none" d="m 33.217031,23.728228 v 8.65658 H 1.8135565 V 14.246289 14.178353 6.9329881 H 13.430362 V 5.1164788 H 0 v 9.0618762 0.06794 19.955028 h 35.030586 l 0.0059,-10.473087" id="path849" />
	<path style="fill:var(--local-primary);fill-opacity:1;stroke:none" d="m 22.554263,30.225644 v 3.000962 h 1.361644 v -3.000962 z" id="path855" />
	<path style="fill:var(--local-primary);fill-opacity:1;stroke:none" d="m 0.91563924,18.57933 v 1.361645 H 7.9217568 V 18.57933 Z" id="path862" />
	<path style="fill:var(--local-primary);fill-opacity:1;stroke:none" d="m 30.704894,11.21944 -1.209265,6.229537 h 5.185175 v 2.36356 H 29.055899 L 27.516836,27.69107 H 25.0067 l 1.539061,-7.878533 h -5.551616 l -1.502419,7.878533 h -2.491815 l 1.465774,-7.878533 h -4.800408 v -2.36356 h 5.258462 L 20.169648,11.21944 H 15.094406 V 8.8925251 h 5.478328 l 1.502419,-7.98846584 h 2.54678 L 23.119516,8.8925251 h 5.588261 L 30.246839,0.90405926 H 32.70201 L 31.162948,8.8925251 H 36 V 11.21944 Z m -9.271017,6.229537 h 5.551616 L 28.194756,11.21944 H 22.64314 Z" id="path825" />
</svg>