<?xml version="1.0" encoding="UTF-8" standalone="no"?>
<svg
   xmlns:dc="http://purl.org/dc/elements/1.1/"
   xmlns:cc="http://creativecommons.org/ns#"
   xmlns:rdf="http://www.w3.org/1999/02/22-rdf-syntax-ns#"
   xmlns:svg="http://www.w3.org/2000/svg"
   xmlns="http://www.w3.org/2000/svg"
   xmlns:xlink="http://www.w3.org/1999/xlink"
   xmlns:sodipodi="http://sodipodi.sourceforge.net/DTD/sodipodi-0.dtd"
   xmlns:inkscape="http://www.inkscape.org/namespaces/inkscape"
   version="1.1"
   id="svg4362"
   viewBox="0 0 36.040812 35.999999"
   height="36"
   width="36.040813"
   sodipodi:docname="ico36_heart.svg"
   inkscape:version="0.92.2 (5c3e80d, 2017-08-06)">
  <sodipodi:namedview
     pagecolor="#ffffff"
     bordercolor="#666666"
     borderopacity="1"
     objecttolerance="10"
     gridtolerance="10"
     guidetolerance="10"
     inkscape:pageopacity="0"
     inkscape:pageshadow="2"
     inkscape:window-width="2560"
     inkscape:window-height="1377"
     id="namedview38"
     showgrid="false"
     inkscape:zoom="16"
     inkscape:cx="32.767848"
     inkscape:cy="29.51103"
     inkscape:window-x="2552"
     inkscape:window-y="-8"
     inkscape:window-maximized="1"
     inkscape:current-layer="svg4362"
     inkscape:snap-center="true"
     inkscape:snap-bbox="true"
     inkscape:snap-bbox-midpoints="true"
     inkscape:snap-object-midpoints="true"
     inkscape:object-paths="true"
     inkscape:snap-smooth-nodes="true"
     inkscape:snap-midpoints="true"
     inkscape:snap-intersection-paths="true"
     inkscape:snap-bbox-edge-midpoints="true"
     inkscape:bbox-nodes="true"
     inkscape:bbox-paths="true" />
  <defs
     id="defs4364">
    <clipPath
       id="clipPath708"
       clipPathUnits="userSpaceOnUse">
      <path
         id="path710"
         d="m 0,0 1440,0 0,900 L 0,900 0,0 Z" />
    </clipPath>
    <clipPath
       id="clipPath720"
       clipPathUnits="userSpaceOnUse">
      <path
         id="path722"
         d="m 944.383,652.172 c 0,-34.969 28.357,-63.328 63.335,-63.328 l 0,0 c 34.979,0 63.335,28.359 63.335,63.328 l 0,0 c 0,34.984 -28.356,63.343 -63.335,63.343 l 0,0 c -34.978,0 -63.335,-28.359 -63.335,-63.343" />
    </clipPath>
    <clipPath
       id="clipPath732"
       clipPathUnits="userSpaceOnUse">
      <path
         id="path734"
         d="m 0,0 1440,0 0,900 L 0,900 0,0 Z" />
    </clipPath>
    <clipPath
       id="clipPath212"
       clipPathUnits="userSpaceOnUse">
      <path
         id="path214"
         d="m 606.85,488 c 0,-9.942 8.059,-18 18,-18 l 0,0 c 9.942,0 18,8.058 18,18 l 0,0 c 0,9.941 -8.058,18 -18,18 l 0,0 c -9.941,0 -18,-8.059 -18,-18" />
    </clipPath>
    <clipPath
       id="clipPath708-2"
       clipPathUnits="userSpaceOnUse">
      <path
         id="path710-7"
         d="m 0,0 1440,0 0,900 L 0,900 0,0 Z" />
    </clipPath>
    <clipPath
       id="clipPath720-7"
       clipPathUnits="userSpaceOnUse">
      <path
         id="path722-4"
         d="m 944.383,652.172 c 0,-34.969 28.357,-63.328 63.335,-63.328 l 0,0 c 34.979,0 63.335,28.359 63.335,63.328 l 0,0 c 0,34.984 -28.356,63.343 -63.335,63.343 l 0,0 c -34.978,0 -63.335,-28.359 -63.335,-63.343" />
    </clipPath>
    <clipPath
       id="clipPath732-4"
       clipPathUnits="userSpaceOnUse">
      <path
         id="path734-6"
         d="m 0,0 1440,0 0,900 L 0,900 0,0 Z" />
    </clipPath>
    <clipPath
       id="clipPath212-8"
       clipPathUnits="userSpaceOnUse">
      <path
         id="path214-5"
         d="m 606.85,488 c 0,-9.942 8.059,-18 18,-18 l 0,0 c 9.942,0 18,8.058 18,18 l 0,0 c 0,9.941 -8.058,18 -18,18 l 0,0 c -9.941,0 -18,-8.059 -18,-18" />
    </clipPath>
    <clipPath
       id="clipPath212-8-8"
       clipPathUnits="userSpaceOnUse">
      <path
         id="path214-5-1"
         d="m 606.85,488 c 0,-9.942 8.059,-18 18,-18 l 0,0 c 9.942,0 18,8.058 18,18 l 0,0 c 0,9.941 -8.058,18 -18,18 l 0,0 c -9.941,0 -18,-8.059 -18,-18" />
    </clipPath>
    <clipPath
       id="clipPath212-8-8-5"
       clipPathUnits="userSpaceOnUse">
      <path
         id="path214-5-1-7"
         d="m 606.85,488 c 0,-9.942 8.059,-18 18,-18 l 0,0 c 9.942,0 18,8.058 18,18 l 0,0 c 0,9.941 -8.058,18 -18,18 l 0,0 c -9.941,0 -18,-8.059 -18,-18" />
    </clipPath>
    <clipPath
       id="SVGID_2_">
      <use
         xlink:href="#SVGID_1_"
         overflow="visible"
         id="use7"
         style="overflow:visible"
         x="0"
         y="0"
         width="100%"
         height="100%" />
    </clipPath>
    <path
       id="SVGID_1_"
       d="M 18,36 C 27.941,36 36,27.941 36,18 36,8.059 27.941,0 18,0 8.059,0 0,8.059 0,18 0,27.941 8.059,36 18,36 Z"
       inkscape:connector-curvature="0" />
    <clipPath
       id="SVGID_2_-0">
      <use
         xlink:href="#SVGID_1_-8"
         overflow="visible"
         id="use7-7"
         style="overflow:visible"
         x="0"
         y="0"
         width="100%"
         height="100%" />
    </clipPath>
    <path
       id="SVGID_1_-8"
       d="M 18,36 C 27.941,36 36,27.941 36,18 36,8.059 27.941,0 18,0 8.059,0 0,8.059 0,18 0,27.941 8.059,36 18,36 Z"
       inkscape:connector-curvature="0" />
  </defs>
  <metadata
     id="metadata4367">
    <rdf:RDF>
      <cc:Work
         rdf:about="">
        <dc:format>image/svg+xml</dc:format>
        <dc:type
           rdf:resource="http://purl.org/dc/dcmitype/StillImage" />
        <dc:title></dc:title>
      </cc:Work>
    </rdf:RDF>
  </metadata>
  <g
     id="g952"
     transform="translate(0.34182074,0.3414134)">
    <path
       id="path834"
       d="m 12.394531,9.3066406 c -2.9591671,0.01026 -7.7072256,2.3683514 -4.222656,9.6679684 2.641225,5.532945 9.505859,9.632813 9.505859,9.632813 0,0 6.864635,-4.099868 9.50586,-9.632813 3.716874,-7.786259 -1.932505,-9.9494031 -4.78711,-9.6386715 -2.854605,0.3107316 -4.149694,2.2479785 -4.71875,3.1660155 -0.569056,-0.918037 -1.864145,-2.8552839 -4.71875,-3.1660155 -0.178412,-0.019421 -0.367175,-0.029981 -0.564453,-0.029297 z"
       style="fill:var(--local-primary);fill-opacity:1;stroke:none;stroke-width:0.16201118;stroke-linecap:round;stroke-linejoin:round;stroke-miterlimit:4;stroke-dasharray:none;stroke-dashoffset:0;stroke-opacity:1;paint-order:fill markers stroke"
       inkscape:connector-curvature="0" />
    <g
       transform="translate(-0.32141402,-0.3414134)"
       id="g20"
       style="fill:none;fill-opacity:1;stroke:var(--local-primary);stroke-opacity:1">
      <g
         id="g18"
         style="fill:none;fill-opacity:1;stroke:var(--local-primary);stroke-opacity:1">
        <path
           d="M 18,35 C 27.374,35 35,27.374 35,18 35,8.626 27.374,1 18,1 8.626,1 1,8.626 1,18 1,27.374 8.626,35 18,35 Z"
           id="path16"
           inkscape:connector-curvature="0"
           style="fill:none;fill-opacity:1;stroke:var(--local-primary);stroke-width:2;stroke-opacity:1" />
      </g>
    </g>
  </g>
</svg>
