<?xml version="1.0" encoding="UTF-8" standalone="no"?>
<svg
   xmlns:dc="http://purl.org/dc/elements/1.1/"
   xmlns:cc="http://creativecommons.org/ns#"
   xmlns:rdf="http://www.w3.org/1999/02/22-rdf-syntax-ns#"
   xmlns:svg="http://www.w3.org/2000/svg"
   xmlns="http://www.w3.org/2000/svg"
   xml:space="preserve"
   enable-background="new 0 0 36 36"
   viewBox="0 0 36 36"
   height="36px"
   width="36px"
   y="0px"
   x="0px"
   id="Layer_1"
   version="1.1"><metadata
     id="metadata13"><rdf:RDF><cc:Work
         rdf:about=""><dc:format>image/svg+xml</dc:format><dc:type
           rdf:resource="http://purl.org/dc/dcmitype/StillImage" /><dc:title></dc:title></cc:Work></rdf:RDF></metadata><defs
     id="defs11"><clipPath
       clipPathUnits="userSpaceOnUse"
       id="clipPath6471"><path
         d="m 0,0 1440,0 0,900 L 0,900 0,0 Z"
         id="path6473" /></clipPath></defs><g
     transform="matrix(1.1947066,0,0,-1.1947066,-878.02037,376.00218)"
     id="g6467"><g
       clip-path="url(#clipPath6471)"
       id="g6469"><g
         transform="translate(750,285.665)"
         id="g6475"><path
           id="path6477"
           style="fill:none;stroke:#f04646;stroke-width:2;stroke-linecap:butt;stroke-linejoin:miter;stroke-miterlimit:10;stroke-dasharray:none;stroke-opacity:1"
           d="M 0,0 C 7.732,0 14,6.268 14,14 14,21.732 7.732,28 0,28 -7.732,28 -14,21.732 -14,14 -14,6.268 -7.732,0 0,0 Z" /></g><g
         transform="translate(743.9897,293.6548)"
         id="g6479"><path
           id="path6481"
           style="fill:none;stroke:#f04646;stroke-width:2;stroke-linecap:butt;stroke-linejoin:miter;stroke-miterlimit:10;stroke-dasharray:none;stroke-opacity:1"
           d="M 0,0 C 3.32,-3.32 8.702,-3.32 12.021,0" /></g><g
         transform="translate(745.5,302.165)"
         id="g6483"><path
           id="path6485"
           style="fill:#f04646;fill-opacity:1;fill-rule:nonzero;stroke:none"
           d="M 0,0 C 0.552,0 1,0.448 1,1 1,1.552 0.552,2 0,2 -0.552,2 -1,1.552 -1,1 -1,0.448 -0.552,0 0,0" /></g><g
         transform="translate(745.5,302.165)"
         id="g6487"><path
           id="path6489"
           style="fill:none;stroke:#f04646;stroke-width:3;stroke-linecap:butt;stroke-linejoin:miter;stroke-miterlimit:10;stroke-dasharray:none;stroke-opacity:1"
           d="M 0,0 C 0.552,0 1,0.448 1,1 1,1.552 0.552,2 0,2 -0.552,2 -1,1.552 -1,1 -1,0.448 -0.552,0 0,0 Z" /></g><g
         transform="translate(754.5,302.165)"
         id="g6491"><path
           id="path6493"
           style="fill:#f04646;fill-opacity:1;fill-rule:nonzero;stroke:none"
           d="M 0,0 C 0.552,0 1,0.448 1,1 1,1.552 0.552,2 0,2 -0.552,2 -1,1.552 -1,1 -1,0.448 -0.552,0 0,0" /></g><g
         transform="translate(754.5,302.165)"
         id="g6495"><path
           id="path6497"
           style="fill:none;stroke:#f04646;stroke-width:3;stroke-linecap:butt;stroke-linejoin:miter;stroke-miterlimit:10;stroke-dasharray:none;stroke-opacity:1"
           d="M 0,0 C 0.552,0 1,0.448 1,1 1,1.552 0.552,2 0,2 -0.552,2 -1,1.552 -1,1 -1,0.448 -0.552,0 0,0 Z" /></g></g></g></svg>