<?xml version="1.0" encoding="UTF-8" standalone="no"?>
<!-- Generator: Adobe Illustrator 15.0.0, SVG Export Plug-In . SVG Version: 6.00 Build 0)  -->

<svg
   xmlns:dc="http://purl.org/dc/elements/1.1/"
   xmlns:cc="http://creativecommons.org/ns#"
   xmlns:rdf="http://www.w3.org/1999/02/22-rdf-syntax-ns#"
   xmlns:svg="http://www.w3.org/2000/svg"
   xmlns="http://www.w3.org/2000/svg"
   xmlns:sodipodi="http://sodipodi.sourceforge.net/DTD/sodipodi-0.dtd"
   xmlns:inkscape="http://www.inkscape.org/namespaces/inkscape"
   version="1.1"
   id="Layer_1"
   x="0px"
   y="0px"
   width="36px"
   height="36px"
   viewBox="0 0 36 36"
   enable-background="new 0 0 36 36"
   xml:space="preserve"
   sodipodi:docname="ico36_uc_cycling_cropped.svg"
   inkscape:version="0.92.3 (2405546, 2018-03-11)"><metadata
   id="metadata1170"><rdf:RDF><cc:Work
       rdf:about=""><dc:format>image/svg+xml</dc:format><dc:type
         rdf:resource="http://purl.org/dc/dcmitype/StillImage" /><dc:title></dc:title></cc:Work></rdf:RDF></metadata><defs
   id="defs1168" /><sodipodi:namedview
   pagecolor="#ffffff"
   bordercolor="#666666"
   borderopacity="1"
   objecttolerance="10"
   gridtolerance="10"
   guidetolerance="10"
   inkscape:pageopacity="0"
   inkscape:pageshadow="2"
   inkscape:window-width="2560"
   inkscape:window-height="1377"
   id="namedview1166"
   showgrid="false"
   inkscape:zoom="11.86368"
   inkscape:cx="46.436475"
   inkscape:cy="-2.3080587"
   inkscape:window-x="-8"
   inkscape:window-y="-8"
   inkscape:window-maximized="1"
   inkscape:current-layer="Layer_1" />

<path
   sodipodi:nodetypes="ssssssscccssssssssssscscssssssscsssssssssssscsccssssscsssscsscsssssccsssssssssscsssssscssssscscsssssssssscsss"
   inkscape:connector-curvature="0"
   id="path2987"
   d="M 2.7106116,32.942562 C 1.426683,32.73656 0.47507134,32.429828 -0.50935125,31.904678 -4.4331804,29.811466 -6.2785083,25.101297 -4.8617604,20.795232 c 0.7332918,-2.228758 2.3990376,-4.183862 4.45137535,-5.22462 0.87521419,-0.44383 1.60891595,-0.692223 2.63532135,-0.892183 0.6919386,-0.134798 0.9624627,-0.151518 1.8278023,-0.112957 1.5782994,0.07034 2.7057648,0.377455 4.0682491,1.108184 L 8.8676093,16.074086 9.7926186,15.04181 10.71763,14.009535 9.7493666,11.095149 C 9.216825,9.4922357 8.756709,8.1306485 8.726883,8.0694013 8.685381,7.9841366 8.3182543,7.9182169 7.1607201,7.7881398 6.1999717,7.6801755 5.5583129,7.5733775 5.400623,7.4951749 4.8998546,7.246842 4.7574913,6.5796889 5.1009632,6.0909056 5.4010331,5.663881 5.4098278,5.6640079 9.6751666,6.1570847 c 2.1347084,0.2467767 3.9868384,0.4828966 4.1158424,0.5247131 0.529914,0.1717611 0.743652,0.9489186 0.39659,1.4419807 -0.275853,0.3918951 -0.515878,0.4217617 -1.981459,0.2465219 -0.702776,-0.084032 -1.313725,-0.1527831 -1.357672,-0.1527831 -0.063,0 1.454602,4.7397517 1.550126,4.8413577 0.02143,0.02285 12.436361,-3.2957853 12.499297,-3.3411954 0.01328,-0.00964 -0.171635,-0.4409504 -0.410796,-0.9586896 L 24.052258,7.8176532 24.354234,7.6429267 c 0.166088,-0.096095 0.791672,-0.4347243 1.390189,-0.7525034 0.598516,-0.3177773 1.144259,-0.6205858 1.212764,-0.6729128 0.08368,-0.063916 0.220092,-0.5128 0.415793,-1.3683499 0.324416,-1.4182435 0.440506,-1.654581 0.877972,-1.7873968 0.569092,-0.1727779 1.117161,0.1756073 1.199711,0.762609 0.02004,0.1424633 -0.123458,0.925211 -0.353877,1.930437 l -0.387577,1.6908177 -1.047107,0.5686222 c -0.57591,0.3127413 -1.072742,0.5777786 -1.104069,0.5889707 -0.05042,0.018019 2.721595,6.0403776 2.841458,6.1732166 0.02626,0.02911 0.226668,0.0045 0.445322,-0.05472 0.998005,-0.270272 1.68421,-0.346053 2.719065,-0.300279 0.567448,0.02509 1.287797,0.106855 1.632319,0.185271 3.539587,0.805576 6.171313,3.487561 6.967544,7.100606 0.193363,0.877413 0.231035,2.53931 0.07748,3.418393 -0.665252,3.808693 -3.548076,6.824012 -7.20364,7.534716 -3.501748,0.680801 -7.023001,-0.694826 -9.122181,-3.563706 -1.142143,-1.56093 -1.746418,-3.456377 -1.746418,-5.478044 0,-3.073806 1.444024,-5.901341 3.864372,-7.566805 0.348462,-0.239779 0.632163,-0.454808 0.630446,-0.477841 -0.0118,-0.156894 -1.290895,-2.755628 -1.344383,-2.731148 -0.05577,0.02553 -8.56946,10.260284 -10.725728,12.893965 2.16e-4,0.0029 -0.470931,-0.03513 -0.990011,-0.07532 l -0.914911,-0.05151 c -0.503203,-0.02832 -0.937705,-0.02483 -0.965568,0.0077 -0.02787,0.0326 -0.11052,0.290848 -0.18368,0.573878 -1.043153,4.035837 -4.7563478,6.850861 -8.9564527,6.790018 -0.3801087,-0.0055 -0.772721,-0.02311 -0.8724735,-0.03911 z m 2.9106817,-2.107855 c 1.9530365,-0.509783 3.6623215,-1.905926 4.5594247,-3.72413 0.276474,-0.560351 0.582657,-1.387152 0.582657,-1.57338 0,-0.129178 -0.0064,-0.129762 -4.8969506,-0.449564 C 3.7117663,24.946731 1.7253456,24.810373 1.4521595,24.784599 L 0.95545864,24.737739 1.8274497,23.847392 C 2.3070461,23.357698 3.7938733,21.734683 5.1315091,20.24069 L 7.5635714,17.52434 7.2953797,17.371488 c -2.0369479,-1.1609 -4.6680481,-1.215951 -6.78327736,-0.141923 -1.89205134,0.960704 -3.18784784,2.599343 -3.76682954,4.763464 -0.234243,0.875544 -0.231145,2.67899 0.00623,3.573751 0.7348423,2.770974 2.79667765,4.755289 5.5838442,5.373898 0.8814803,0.195642 2.3065797,0.149681 3.2860369,-0.105979 z m 27.6779567,0.01902 c 2.446777,-0.344841 4.625197,-2.03585 5.580961,-4.33224 0.432827,-1.039953 0.568024,-1.744306 0.564228,-2.939578 -0.0028,-0.899848 -0.03198,-1.174906 -0.186909,-1.765175 -0.905789,-3.451125 -3.917212,-5.680627 -7.419124,-5.492739 -0.707138,0.03794 -1.38754,0.162733 -1.513445,0.277586 -0.03437,0.03136 0.665709,1.606483 1.555731,3.500289 1.774015,3.774782 1.801378,3.856186 1.459428,4.341984 -0.360253,0.511803 -1.159101,0.4914 -1.495712,-0.03821 -0.09522,-0.149814 -0.885624,-1.799839 -1.756455,-3.666719 l -1.583332,-3.394332 -0.209264,0.122973 c -0.388927,0.228532 -1.166427,0.932641 -1.569653,1.421479 -0.755508,0.915916 -1.279399,1.995288 -1.533295,3.159024 -0.201485,0.92352 -0.16452,2.587318 0.07734,3.481955 0.610628,2.258562 2.260686,4.115095 4.373752,4.921048 1.118711,0.426691 2.447093,0.573005 3.655733,0.402659 z m -19.364062,-7.21933 c -0.01961,-0.05201 -0.581564,-1.730867 -1.248605,-3.730829 -0.667047,-1.999958 -1.233903,-3.67367 -1.259683,-3.719357 -0.02791,-0.04948 -0.258659,0.155785 -0.570663,0.507661 -0.512562,0.578061 -0.521121,0.594157 -0.399012,0.750581 1.544797,1.978954 2.232561,3.591229 2.384091,5.588861 l 0.0468,0.616911 0.334171,0.0271 c 0.716701,0.05812 0.749704,0.05624 0.712905,-0.04092 z m -2.954172,-0.336919 c 0,-0.353066 -0.203764,-1.417448 -0.358388,-1.872134 -0.217466,-0.639438 -0.622562,-1.411584 -1.0794214,-2.057446 -0.223736,-0.316293 -0.4305555,-0.58996 -0.4596055,-0.608154 -0.029036,-0.0182 -0.9365378,0.951836 -2.0166374,2.15562 -1.8398215,2.050502 -1.9511761,2.1903 -1.7635481,2.21403 0.329747,0.04171 4.8852414,0.359677 5.2967294,0.369709 0.373096,0.009 0.380871,0.005 0.380871,-0.201625 z M 20.1861,17.228453 c 2.477828,-2.98899 4.496997,-5.442778 4.487046,-5.452862 -0.0264,-0.02675 -11.573521,3.09225 -11.619106,3.13844 -0.0212,0.02145 0.513143,1.691032 1.18735,3.710188 1.33034,3.984178 1.373958,4.109718 1.413147,4.067335 0.0146,-0.01572 2.053735,-2.474111 4.531563,-5.463101 z"
   style="fill:var(--local-primary);stroke-width:0.07302905" /></svg>