<?xml version="1.0" encoding="UTF-8" standalone="no"?>
<svg
   xmlns:dc="http://purl.org/dc/elements/1.1/"
   xmlns:cc="http://creativecommons.org/ns#"
   xmlns:rdf="http://www.w3.org/1999/02/22-rdf-syntax-ns#"
   xmlns:svg="http://www.w3.org/2000/svg"
   xmlns="http://www.w3.org/2000/svg"
   xmlns:sodipodi="http://sodipodi.sourceforge.net/DTD/sodipodi-0.dtd"
   xmlns:inkscape="http://www.inkscape.org/namespaces/inkscape"
   version="1.1"
   id="svg4362"
   viewBox="0 0 35.999999 35.999999"
   height="36"
   width="36"
   sodipodi:docname="ico36_uc_taxi_offer.svg"
   inkscape:version="0.92.2 (5c3e80d, 2017-08-06)">
  <sodipodi:namedview
     pagecolor="#ffffff"
     bordercolor="#666666"
     borderopacity="1"
     objecttolerance="10"
     gridtolerance="10"
     guidetolerance="10"
     inkscape:pageopacity="0"
     inkscape:pageshadow="2"
     inkscape:window-width="1600"
     inkscape:window-height="837"
     id="namedview38"
     showgrid="false"
     inkscape:object-nodes="false"
     inkscape:snap-others="false"
     inkscape:snap-global="false"
     inkscape:zoom="11.313709"
     inkscape:cx="11.581935"
     inkscape:cy="22.800689"
     inkscape:window-x="-8"
     inkscape:window-y="-8"
     inkscape:window-maximized="1"
     inkscape:current-layer="svg4362" />
  <defs
     id="defs4364">
    <marker
       inkscape:stockid="TriangleOutS"
       orient="auto"
       refY="0.0"
       refX="0.0"
       id="marker4280"
       style="overflow:visible"
       inkscape:isstock="true">
      <path
         id="path4278"
         d="M 5.77,0.0 L -2.88,5.0 L -2.88,-5.0 L 5.77,0.0 z "
         style="fill-rule:evenodd;stroke:#ffffff;stroke-width:1pt;stroke-opacity:1;fill:#ffffff;fill-opacity:1"
         transform="scale(0.2)" />
    </marker>
    <marker
       inkscape:stockid="TriangleOutS"
       orient="auto"
       refY="0.0"
       refX="0.0"
       id="marker4110"
       style="overflow:visible"
       inkscape:isstock="true">
      <path
         id="path4108"
         d="M 5.77,0.0 L -2.88,5.0 L -2.88,-5.0 L 5.77,0.0 z "
         style="fill-rule:evenodd;stroke:#ffffff;stroke-width:1pt;stroke-opacity:1;fill:#ffffff;fill-opacity:1"
         transform="scale(0.2)" />
    </marker>
    <marker
       inkscape:stockid="EmptyTriangleOutS"
       orient="auto"
       refY="0.0"
       refX="0.0"
       id="EmptyTriangleOutS"
       style="overflow:visible"
       inkscape:isstock="true">
      <path
         id="path1000"
         d="M 5.77,0.0 L -2.88,5.0 L -2.88,-5.0 L 5.77,0.0 z "
         style="fill-rule:evenodd;fill:#ffffff;stroke:#ffffff;stroke-width:1pt;stroke-opacity:1"
         transform="scale(0.2) translate(-3.0,0)" />
    </marker>
    <marker
       inkscape:stockid="StopS"
       orient="auto"
       refY="0.0"
       refX="0.0"
       id="StopS"
       style="overflow:visible"
       inkscape:isstock="true">
      <path
         id="path1009"
         d="M 0.0,5.65 L 0.0,-5.65"
         style="fill:none;fill-opacity:0.75;fill-rule:evenodd;stroke:#ffffff;stroke-width:1pt;stroke-opacity:1"
         transform="scale(0.2)" />
    </marker>
    <marker
       inkscape:stockid="TriangleOutS"
       orient="auto"
       refY="0.0"
       refX="0.0"
       id="TriangleOutS"
       style="overflow:visible"
       inkscape:isstock="true">
      <path
         id="path982"
         d="M 5.77,0.0 L -2.88,5.0 L -2.88,-5.0 L 5.77,0.0 z "
         style="fill-rule:evenodd;stroke:#ffffff;stroke-width:1pt;stroke-opacity:1;fill:#ffffff;fill-opacity:1"
         transform="scale(0.2)" />
    </marker>
    <marker
       inkscape:stockid="TriangleOutM"
       orient="auto"
       refY="0.0"
       refX="0.0"
       id="TriangleOutM"
       style="overflow:visible"
       inkscape:isstock="true">
      <path
         id="path979"
         d="M 5.77,0.0 L -2.88,5.0 L -2.88,-5.0 L 5.77,0.0 z "
         style="fill-rule:evenodd;stroke:#ffffff;stroke-width:1pt;stroke-opacity:1;fill:#ffffff;fill-opacity:1"
         transform="scale(0.4)" />
    </marker>
    <marker
       inkscape:stockid="TriangleInL"
       orient="auto"
       refY="0.0"
       refX="0.0"
       id="TriangleInL"
       style="overflow:visible"
       inkscape:isstock="true">
      <path
         id="path967"
         d="M 5.77,0.0 L -2.88,5.0 L -2.88,-5.0 L 5.77,0.0 z "
         style="fill-rule:evenodd;stroke:#ffffff;stroke-width:1pt;stroke-opacity:1;fill:#ffffff;fill-opacity:1"
         transform="scale(-0.8)" />
    </marker>
    <marker
       inkscape:stockid="Arrow2Lstart"
       orient="auto"
       refY="0.0"
       refX="0.0"
       id="Arrow2Lstart"
       style="overflow:visible"
       inkscape:isstock="true">
      <path
         id="path852"
         style="fill-rule:evenodd;stroke-width:0.625;stroke-linejoin:round;stroke:#ffffff;stroke-opacity:1;fill:#ffffff;fill-opacity:1"
         d="M 8.7185878,4.0337352 L -2.2072895,0.016013256 L 8.7185884,-4.0017078 C 6.9730900,-1.6296469 6.9831476,1.6157441 8.7185878,4.0337352 z "
         transform="scale(1.1) translate(1,0)" />
    </marker>
  </defs>
  <metadata
     id="metadata4367">
    <rdf:RDF>
      <cc:Work
         rdf:about="">
        <dc:format>image/svg+xml</dc:format>
        <dc:type
           rdf:resource="http://purl.org/dc/dcmitype/StillImage" />
        <dc:title></dc:title>
      </cc:Work>
    </rdf:RDF>
  </metadata>
  <path
     style="fill:var(--local-primary);fill-opacity:1;stroke:none;stroke-width:1.29999995;stroke-linecap:square;stroke-linejoin:miter;stroke-miterlimit:4;stroke-dasharray:none;stroke-opacity:1;paint-order:fill markers stroke"
     d="M 18,0.6875 C 8.4385703,0.6875 0.6875,8.4385703 0.6875,18 0.6875,27.56143 8.4385703,35.3125 18,35.3125 27.56143,35.3125 35.3125,27.56143 35.3125,18 35.3125,8.4385703 27.56143,0.6875 18,0.6875 Z"
     id="path830"
     inkscape:connector-curvature="0"
     sodipodi:nodetypes="sssss" />
  <path
     sodipodi:nodetypes="sssss"
     inkscape:connector-curvature="0"
     id="use22229"
     d="M 18,4.75 C 10.682228,4.75 4.75,10.682228 4.75,18 4.75,25.317773 10.682228,31.25 18,31.25 25.317773,31.25 31.25,25.317773 31.25,18 31.25,10.682228 25.317773,4.75 18,4.75 Z"
     style="fill:#ffffff;fill-opacity:1;stroke:none;stroke-width:0.99494582;stroke-linecap:square;stroke-linejoin:miter;stroke-miterlimit:4;stroke-dasharray:none;stroke-opacity:1;paint-order:fill markers stroke" />
  <path
     style="fill:#131313;fill-opacity:1;stroke:none;stroke-width:5.15905523;stroke-linecap:square;stroke-linejoin:round;stroke-miterlimit:4;stroke-dasharray:none;stroke-opacity:1;paint-order:stroke fill markers"
     d="m 13.364258,13.048828 c -3.5795835,0.721673 -8.0024258,2.9391 -8.2695315,1.779297 -0.4346532,-1.887313 -1.1384449,8.771492 -0.125,7.0625 1.6443648,-2.772925 3.6761712,-0.86348 6.5195315,2.253906 3.176338,3.482453 2.457333,6.130789 0.867188,6.4375 1.947981,3.581807 12.558228,0.424693 11.287109,-0.002 -1.590145,-0.306711 -2.309149,-2.955047 0.867188,-6.4375 2.84336,-3.117386 4.875167,-5.026831 6.519531,-2.253906 1.013445,1.708992 0.278403,-8.949812 -0.15625,-7.0625 -0.267105,1.159803 -4.658697,-1.057624 -8.238281,-1.779297 -3.160404,-0.614709 -6.262447,-0.596307 -9.271485,0.002 z"
     id="rect22233"
     inkscape:connector-curvature="0"
     sodipodi:nodetypes="csssccssscc" />
  <rect
     style="fill:#131313;fill-opacity:1;stroke:none;stroke-width:5.15905523;stroke-linecap:square;stroke-linejoin:round;stroke-miterlimit:4;stroke-dasharray:none;stroke-opacity:1;paint-order:stroke fill markers"
     id="rect22244-8"
     width="20"
     height="39.8125"
     x="52.0625"
     y="-3.53125" />
</svg>
