<?xml version="1.0" encoding="UTF-8" standalone="no"?>
<svg
   xmlns:dc="http://purl.org/dc/elements/1.1/"
   xmlns:cc="http://creativecommons.org/ns#"
   xmlns:rdf="http://www.w3.org/1999/02/22-rdf-syntax-ns#"
   xmlns:svg="http://www.w3.org/2000/svg"
   xmlns="http://www.w3.org/2000/svg"
   xmlns:sodipodi="http://sodipodi.sourceforge.net/DTD/sodipodi-0.dtd"
   xmlns:inkscape="http://www.inkscape.org/namespaces/inkscape"
   version="1.1"
   id="svg4362"
   viewBox="0 0 36.040812 35.999999"
   height="36"
   width="36.040813"
   sodipodi:docname="ico36_person.svg"
   inkscape:version="0.92.2 (5c3e80d, 2017-08-06)">
  <sodipodi:namedview
     pagecolor="#ffffff"
     bordercolor="#666666"
     borderopacity="1"
     objecttolerance="10"
     gridtolerance="10"
     guidetolerance="10"
     inkscape:pageopacity="0"
     inkscape:pageshadow="2"
     inkscape:window-width="1768"
     inkscape:window-height="939"
     id="namedview38"
     showgrid="false"
     inkscape:zoom="13.111111"
     inkscape:cx="15.486678"
     inkscape:cy="15.634438"
     inkscape:window-x="2948"
     inkscape:window-y="188"
     inkscape:window-maximized="0"
     inkscape:current-layer="svg4362" />
  <defs
     id="defs4364">
    <clipPath
       id="clipPath708"
       clipPathUnits="userSpaceOnUse">
      <path
         id="path710"
         d="m 0,0 1440,0 0,900 L 0,900 0,0 Z" />
    </clipPath>
    <clipPath
       id="clipPath720"
       clipPathUnits="userSpaceOnUse">
      <path
         id="path722"
         d="m 944.383,652.172 c 0,-34.969 28.357,-63.328 63.335,-63.328 l 0,0 c 34.979,0 63.335,28.359 63.335,63.328 l 0,0 c 0,34.984 -28.356,63.343 -63.335,63.343 l 0,0 c -34.978,0 -63.335,-28.359 -63.335,-63.343" />
    </clipPath>
    <clipPath
       id="clipPath732"
       clipPathUnits="userSpaceOnUse">
      <path
         id="path734"
         d="m 0,0 1440,0 0,900 L 0,900 0,0 Z" />
    </clipPath>
    <clipPath
       id="clipPath212"
       clipPathUnits="userSpaceOnUse">
      <path
         id="path214"
         d="m 606.85,488 c 0,-9.942 8.059,-18 18,-18 l 0,0 c 9.942,0 18,8.058 18,18 l 0,0 c 0,9.941 -8.058,18 -18,18 l 0,0 c -9.941,0 -18,-8.059 -18,-18" />
    </clipPath>
    <clipPath
       id="clipPath708-2"
       clipPathUnits="userSpaceOnUse">
      <path
         id="path710-7"
         d="m 0,0 1440,0 0,900 L 0,900 0,0 Z" />
    </clipPath>
    <clipPath
       id="clipPath720-7"
       clipPathUnits="userSpaceOnUse">
      <path
         id="path722-4"
         d="m 944.383,652.172 c 0,-34.969 28.357,-63.328 63.335,-63.328 l 0,0 c 34.979,0 63.335,28.359 63.335,63.328 l 0,0 c 0,34.984 -28.356,63.343 -63.335,63.343 l 0,0 c -34.978,0 -63.335,-28.359 -63.335,-63.343" />
    </clipPath>
    <clipPath
       id="clipPath732-4"
       clipPathUnits="userSpaceOnUse">
      <path
         id="path734-6"
         d="m 0,0 1440,0 0,900 L 0,900 0,0 Z" />
    </clipPath>
    <clipPath
       id="clipPath212-8"
       clipPathUnits="userSpaceOnUse">
      <path
         id="path214-5"
         d="m 606.85,488 c 0,-9.942 8.059,-18 18,-18 l 0,0 c 9.942,0 18,8.058 18,18 l 0,0 c 0,9.941 -8.058,18 -18,18 l 0,0 c -9.941,0 -18,-8.059 -18,-18" />
    </clipPath>
    <clipPath
       id="clipPath212-8-8"
       clipPathUnits="userSpaceOnUse">
      <path
         id="path214-5-1"
         d="m 606.85,488 c 0,-9.942 8.059,-18 18,-18 l 0,0 c 9.942,0 18,8.058 18,18 l 0,0 c 0,9.941 -8.058,18 -18,18 l 0,0 c -9.941,0 -18,-8.059 -18,-18" />
    </clipPath>
    <clipPath
       id="clipPath212-8-8-5"
       clipPathUnits="userSpaceOnUse">
      <path
         id="path214-5-1-7"
         d="m 606.85,488 c 0,-9.942 8.059,-18 18,-18 l 0,0 c 9.942,0 18,8.058 18,18 l 0,0 c 0,9.941 -8.058,18 -18,18 l 0,0 c -9.941,0 -18,-8.059 -18,-18" />
    </clipPath>
  </defs>
  <metadata
     id="metadata4367">
    <rdf:RDF>
      <cc:Work
         rdf:about="">
        <dc:format>image/svg+xml</dc:format>
        <dc:type
           rdf:resource="http://purl.org/dc/dcmitype/StillImage" />
        <dc:title />
      </cc:Work>
    </rdf:RDF>
  </metadata>
  <path
     style="fill:var(--local-primary);fill-opacity:1;fill-rule:nonzero;stroke:none;stroke-width:0.99576271"
     d="M 18.019531 0.43359375 C 8.410421 0.43359375 0.59375 8.2512602 0.59375 17.859375 C 0.59375 22.755176 2.6305242 27.177023 5.8925781 30.345703 C 5.9849353 29.42567 6.1155393 28.798689 6.2890625 28.535156 C 6.6624735 27.873969 8.2242367 27.023951 10.978516 25.984375 C 11.397733 25.796176 11.72498 25.656137 11.958984 25.560547 L 14.96875 24.142578 L 14.96875 21.804688 L 14.339844 20.882812 C 14.059039 20.269424 13.870944 19.584905 13.777344 18.828125 C 13.310332 18.923718 12.914501 18.569206 12.587891 17.765625 C 12.541091 17.624227 12.519531 17.507699 12.519531 17.412109 C 12.379128 16.420329 12.5408 15.82982 13.007812 15.640625 C 13.100419 15.593815 13.195462 15.568359 13.289062 15.568359 C 13.101856 14.151389 13.031325 13.279813 13.078125 12.949219 C 13.171727 11.485448 14.01041 10.350456 15.597656 9.546875 C 16.390283 9.1694809 17.208404 8.9804688 18.048828 8.9804688 C 20.101095 8.9804688 21.593318 9.8070142 22.527344 11.458984 C 22.760352 11.979768 22.900466 12.477228 22.947266 12.949219 C 22.947266 13.657207 22.87673 14.530774 22.736328 15.568359 C 23.202345 15.474757 23.461012 15.924236 23.507812 16.916016 L 23.507812 17.412109 C 23.41421 18.074291 23.11147 18.522813 22.597656 18.757812 C 22.458249 18.805612 22.340657 18.828125 22.248047 18.828125 C 22.014043 20.292892 21.61626 21.285895 21.056641 21.804688 L 21.056641 24.142578 L 23.927734 25.488281 C 23.973537 25.536081 24.020559 25.560547 24.068359 25.560547 C 26.960053 26.741522 28.638456 27.496574 29.105469 27.826172 C 29.432079 28.109964 29.667234 28.346957 29.806641 28.535156 C 30.001077 28.830547 30.110259 29.459507 30.175781 30.320312 C 33.421667 27.153479 35.445312 22.741343 35.445312 17.859375 C 35.445312 8.2512602 27.628641 0.43359375 18.019531 0.43359375 z "
     id="path206" />
  <g
     id="g228"
     transform="matrix(0.99576271,0,0,-0.99576271,17.923728,35.498603)"
     style="stroke:var(--local-primary);stroke-opacity:1;fill:none;fill-opacity:1">
    <path
       d="M 0,0 C 9.65,0 17.5,7.851 17.5,17.5 17.5,27.149 9.65,35 0,35 -9.65,35 -17.5,27.149 -17.5,17.5 -17.5,7.851 -9.65,0 0,0 Z"
       style="fill:none;stroke-width:1;stroke-linecap:butt;stroke-linejoin:miter;stroke-miterlimit:4;stroke-dasharray:none;stroke-opacity:1;stroke:var(--local-primary);fill-opacity:1"
       id="path230"
       inkscape:connector-curvature="0" />
  </g>
  <g
     id="g19"
     transform="translate(0.04081422)">
    <g
       id="g21">
      <path
         style="fill:none;stroke-width:2"
         id="path23"
         d="M 18,35 C 27.373,35 35,27.374 35,18 35,8.626 27.373,1 18,1 8.626,1 1,8.626 1,18 1,27.374 8.626,35 18,35 Z"
         inkscape:connector-curvature="0" />
    </g>
  </g>
</svg>
