<?xml version="1.0" encoding="UTF-8" standalone="no"?>
<!-- Generator: Adobe Illustrator 15.0.0, SVG Export Plug-In . SVG Version: 6.00 Build 0)  -->

<svg
   xmlns:dc="http://purl.org/dc/elements/1.1/"
   xmlns:cc="http://creativecommons.org/ns#"
   xmlns:rdf="http://www.w3.org/1999/02/22-rdf-syntax-ns#"
   xmlns:svg="http://www.w3.org/2000/svg"
   xmlns="http://www.w3.org/2000/svg"
   xmlns:sodipodi="http://sodipodi.sourceforge.net/DTD/sodipodi-0.dtd"
   xmlns:inkscape="http://www.inkscape.org/namespaces/inkscape"
   version="1.1"
   id="Layer_1"
   x="0px"
   y="0px"
   width="36px"
   height="36px"
   viewBox="0 0 36 36"
   enable-background="new 0 0 36 36"
   xml:space="preserve"
   inkscape:version="0.91 r13725"
   sodipodi:docname="ico36_good.svg"><metadata
     id="metadata13"><rdf:RDF><cc:Work
         rdf:about=""><dc:format>image/svg+xml</dc:format><dc:type
           rdf:resource="http://purl.org/dc/dcmitype/StillImage" /><dc:title></dc:title></cc:Work></rdf:RDF></metadata><defs
     id="defs11"><clipPath
       id="clipPath6471"
       clipPathUnits="userSpaceOnUse"><path
         inkscape:connector-curvature="0"
         id="path6473"
         d="m 0,0 1440,0 0,900 L 0,900 0,0 Z" /></clipPath></defs><sodipodi:namedview
     pagecolor="#ffffff"
     bordercolor="#666666"
     borderopacity="1"
     objecttolerance="10"
     gridtolerance="10"
     guidetolerance="10"
     inkscape:pageopacity="0"
     inkscape:pageshadow="2"
     inkscape:window-width="945"
     inkscape:window-height="771"
     id="namedview9"
     showgrid="false"
     inkscape:zoom="13.111111"
     inkscape:cx="17.105333"
     inkscape:cy="18.673041"
     inkscape:window-x="1345"
     inkscape:window-y="507"
     inkscape:window-maximized="0"
     inkscape:current-layer="Layer_1" /><g
     id="g6467"
     transform="matrix(1.1947066,0,0,-1.1947066,-878.02037,376.00218)"><g
       id="g6469"
       clip-path="url(#clipPath6471)"><g
         id="g6475"
         transform="translate(750,285.665)"><path
           d="M 0,0 C 7.732,0 14,6.268 14,14 14,21.732 7.732,28 0,28 -7.732,28 -14,21.732 -14,14 -14,6.268 -7.732,0 0,0 Z"
           style="fill:none;stroke:#f04646;stroke-width:2;stroke-linecap:butt;stroke-linejoin:miter;stroke-miterlimit:10;stroke-dasharray:none;stroke-opacity:1"
           id="path6477"
           inkscape:connector-curvature="0" /></g><g
         id="g6479"
         transform="translate(743.9897,293.6548)"><path
           d="M 0,0 C 3.32,-3.32 8.702,-3.32 12.021,0"
           style="fill:none;stroke:#f04646;stroke-width:2;stroke-linecap:butt;stroke-linejoin:miter;stroke-miterlimit:10;stroke-dasharray:none;stroke-opacity:1"
           id="path6481"
           inkscape:connector-curvature="0" /></g><g
         id="g6483"
         transform="translate(745.5,302.165)"><path
           d="M 0,0 C 0.552,0 1,0.448 1,1 1,1.552 0.552,2 0,2 -0.552,2 -1,1.552 -1,1 -1,0.448 -0.552,0 0,0"
           style="fill:#f04646;fill-opacity:1;fill-rule:nonzero;stroke:none"
           id="path6485"
           inkscape:connector-curvature="0" /></g><g
         id="g6487"
         transform="translate(745.5,302.165)"><path
           d="M 0,0 C 0.552,0 1,0.448 1,1 1,1.552 0.552,2 0,2 -0.552,2 -1,1.552 -1,1 -1,0.448 -0.552,0 0,0 Z"
           style="fill:none;stroke:#f04646;stroke-width:3;stroke-linecap:butt;stroke-linejoin:miter;stroke-miterlimit:10;stroke-dasharray:none;stroke-opacity:1"
           id="path6489"
           inkscape:connector-curvature="0" /></g><g
         id="g6491"
         transform="translate(754.5,302.165)"><path
           d="M 0,0 C 0.552,0 1,0.448 1,1 1,1.552 0.552,2 0,2 -0.552,2 -1,1.552 -1,1 -1,0.448 -0.552,0 0,0"
           style="fill:#f04646;fill-opacity:1;fill-rule:nonzero;stroke:none"
           id="path6493"
           inkscape:connector-curvature="0" /></g><g
         id="g6495"
         transform="translate(754.5,302.165)"><path
           d="M 0,0 C 0.552,0 1,0.448 1,1 1,1.552 0.552,2 0,2 -0.552,2 -1,1.552 -1,1 -1,0.448 -0.552,0 0,0 Z"
           style="fill:none;stroke:#f04646;stroke-width:3;stroke-linecap:butt;stroke-linejoin:miter;stroke-miterlimit:10;stroke-dasharray:none;stroke-opacity:1"
           id="path6497"
           inkscape:connector-curvature="0" /></g></g></g></svg>