<?xml version="1.0" encoding="UTF-8" standalone="no"?>
<svg 
	xmlns:dc="http://purl.org/dc/elements/1.1/" 
	xmlns:cc="http://creativecommons.org/ns#" 
	xmlns:rdf="http://www.w3.org/1999/02/22-rdf-syntax-ns#" 
	xmlns:svg="http://www.w3.org/2000/svg" 
	xmlns="http://www.w3.org/2000/svg" width="36px" height="36px" version="1.1" viewBox="0 0 36 36" id="detail_ttl">
	<metadata id="metadata2">
		<rdf:RDF>
			<cc:Work rdf:about="">
				<dc:format>image/svg+xml</dc:format>
				<dc:type rdf:resource="http://purl.org/dc/dcmitype/StillImage" />
				<dc:title></dc:title>
			</cc:Work>
		</rdf:RDF>
	</metadata>
	<path style="fill:var(--local-primary);fill-opacity:1;stroke:none" d="m 28.719164,0.03761947 c -4.013607,0 -7.281298,3.27100293 -7.281298,7.28129643 0,0.4817087 0.118286,0.9295509 0.20876,1.3854079 L 12.575054,13.24011 c -1.330169,-1.463347 -3.156939,-2.486142 -5.2885897,-2.486142 -4.0117403,0 -7.2812961,3.270659 -7.2812961,7.281296 0,4.009706 3.2693847,7.281297 7.2812961,7.281297 2.1328881,0 3.9610817,-1.02377 5.2917527,-2.489304 l 9.068409,4.538948 c -0.09043,0.455729 -0.20876,0.903696 -0.20876,1.385406 0,4.009365 3.26752,7.281298 7.281298,7.281298 4.010047,0 7.281297,-3.271251 7.281297,-7.281298 0,-3.333188 -2.293498,-6.062151 -5.361337,-6.917545 v -7.597601 c 3.06753,-0.856153 5.361337,-3.584357 5.361337,-6.9175491 0,-4.0109786 -3.271422,-7.28129643 -7.281297,-7.28129643 z M 23.398946,12.126722 c 0.905689,1.001201 2.05933,1.721462 3.397095,2.09709 v 7.626068 c -1.336622,0.375699 -2.489104,1.095726 -3.393932,2.093925 l -9.039944,-4.523133 c 0.08941,-0.455785 0.205598,-0.904938 0.205598,-1.385408 0,-0.48269 -0.118157,-0.931658 -0.20876,-1.388569 z" id="path8" />
</svg>