<?xml version="1.0" encoding="utf-8"?>
<!-- Generator: Adobe Illustrator 15.0.0, SVG Export Plug-In . SVG Version: 6.00 Build 0)  -->
<!DOCTYPE svg PUBLIC "-//W3C//DTD SVG 1.1//EN" "http://www.w3.org/Graphics/SVG/1.1/DTD/svg11.dtd">
<svg version="1.1" id="Layer_1" xmlns="http://www.w3.org/2000/svg" xmlns:xlink="http://www.w3.org/1999/xlink" x="0px" y="0px"
	 width="36px" height="36px" viewBox="0 0 36 36" enable-background="new 0 0 36 36" xml:space="preserve">
<g>
	<path fill="#F09F9F" d="M18,36c9.942,0,18-8.059,18-18S27.942,0,18,0C8.059,0,0,8.059,0,18S8.059,36,18,36L18,36z"/>
	<g>
		<defs>
			<path id="SVGID_1_" d="M18,36c9.942,0,18-8.059,18-18S27.942,0,18,0C8.059,0,0,8.059,0,18S8.059,36,18,36L18,36z"/>
		</defs>
		<clipPath id="SVGID_2_">
			<use xlink:href="#SVGID_1_"  overflow="visible"/>
		</clipPath>
		<path clip-path="url(#SVGID_2_)" fill="#FFFFFF" d="M27.612,18c0-1.657-1.342-3-3-3c-1.213,0-2.252,0.724-2.725,1.76h-7.774
			C13.641,15.724,12.602,15,11.388,15c-1.657,0-3,1.343-3,3c0,1.657,1.343,3,3,3c1.213,0,2.253-0.724,2.725-1.76h7.774
			C22.36,20.276,23.399,21,24.612,21C26.27,21,27.612,19.657,27.612,18L27.612,18z"/>
	</g>
</g>
</svg>
