<?xml version="1.0" encoding="UTF-8" standalone="no"?>
<svg
   xmlns:dc="http://purl.org/dc/elements/1.1/"
   xmlns:cc="http://creativecommons.org/ns#"
   xmlns:rdf="http://www.w3.org/1999/02/22-rdf-syntax-ns#"
   xmlns:svg="http://www.w3.org/2000/svg"
   xmlns="http://www.w3.org/2000/svg"
   xmlns:xlink="http://www.w3.org/1999/xlink"
   xmlns:sodipodi="http://sodipodi.sourceforge.net/DTD/sodipodi-0.dtd"
   xmlns:inkscape="http://www.inkscape.org/namespaces/inkscape"
   version="1.1"
   id="svg4362"
   viewBox="0 0 35.999999 35.999999"
   height="36"
   width="36"
   sodipodi:docname="ico36_uc_breakfast.svg"
   inkscape:version="0.92.2 (5c3e80d, 2017-08-06)">
  <sodipodi:namedview
     pagecolor="#ffffff"
     bordercolor="#666666"
     borderopacity="1"
     objecttolerance="10"
     gridtolerance="10"
     guidetolerance="10"
     inkscape:pageopacity="0"
     inkscape:pageshadow="2"
     inkscape:window-width="2173"
     inkscape:window-height="1368"
     id="namedview38"
     showgrid="false"
     inkscape:object-nodes="false"
     inkscape:snap-others="false"
     inkscape:snap-global="false"
     inkscape:zoom="8"
     inkscape:cx="24.561488"
     inkscape:cy="-2.2601101"
     inkscape:window-x="2587"
     inkscape:window-y="0"
     inkscape:window-maximized="0"
     inkscape:current-layer="svg4362" />
  <defs
     id="defs4364">
    <inkscape:perspective
       sodipodi:type="inkscape:persp3d"
       inkscape:vp_x="0 : 18 : 1"
       inkscape:vp_y="0 : 1000 : 0"
       inkscape:vp_z="35.999999 : 18 : 1"
       inkscape:persp3d-origin="18 : 12 : 1"
       id="perspective824" />
  </defs>
  <metadata
     id="metadata4367">
    <rdf:RDF>
      <cc:Work
         rdf:about="">
        <dc:format>image/svg+xml</dc:format>
        <dc:type
           rdf:resource="http://purl.org/dc/dcmitype/StillImage" />
        <dc:title />
      </cc:Work>
    </rdf:RDF>
  </metadata>
  <path
     sodipodi:type="inkscape:offset"
     inkscape:radius="0"
     inkscape:original="M 15.697266 2.0976562 C 14.413799 2.1261101 13.3446 2.5350969 12.457031 3.1230469 C 12.41668 3.1212799 12.371119 3.1047527 12.210938 3.1875 C 11.902675 3.3467461 11.742849 3.6343112 11.574219 3.90625 A 0.57767255 0.57767255 0 0 0 11.412109 4.0507812 C 11.432613 4.0233142 11.40974 4.0523138 11.314453 4.1210938 C 11.220998 4.1885512 11.051605 4.3141038 10.9375 4.5390625 C 10.686203 5.0213458 10.689047 5.5449192 10.712891 6.1738281 C 10.736818 6.8049496 10.822111 7.5243896 10.923828 8.2519531 A 0.57767255 0.57767255 0 0 0 11.496094 8.75 L 11.748047 8.75 A 0.57767255 0.57767255 0 0 0 12.320312 8.0957031 C 12.133467 6.7069721 12.125572 5.3439959 12.394531 4.6894531 C 12.539632 4.5078997 12.713139 4.3469153 12.914062 4.1992188 C 13.463057 3.9907036 14.70665 3.9773238 16.068359 4.2597656 C 17.458618 4.5481291 18.980232 5.0936719 20.144531 5.765625 A 0.57767255 0.57767255 0 0 0 20.382812 5.8417969 C 21.890946 5.9740691 23.981092 6.5610803 25.787109 7.4375 C 27.586814 8.3108564 29.078583 9.4967242 29.556641 10.609375 C 29.624047 10.793449 29.618999 11.253692 29.466797 11.830078 C 29.313626 12.410133 29.044464 13.0968 28.748047 13.779297 C 28.451629 14.461793 28.130174 15.141248 27.869141 15.736328 C 27.608107 16.331408 27.397857 16.797204 27.351562 17.273438 C 27.18507 18.986133 27.408922 21.625484 27.560547 23.884766 C 27.636359 25.014406 27.694419 26.045746 27.685547 26.769531 C 27.681912 27.06608 27.660125 27.263974 27.636719 27.425781 C 27.56602 27.415059 27.597546 27.421214 27.505859 27.396484 C 27.237894 27.324209 26.877599 27.206585 26.457031 27.056641 C 25.615896 26.756752 24.534726 26.325674 23.410156 25.853516 A 0.57767255 0.57767255 0 0 0 22.609375 26.386719 L 22.609375 26.681641 A 0.57767255 0.57767255 0 0 0 22.953125 27.208984 C 24.188659 27.755348 25.400594 28.259121 26.417969 28.599609 C 26.926656 28.769853 27.386268 28.900499 27.791016 28.974609 C 28.195763 29.04872 28.538668 29.093758 28.912109 28.964844 C 29.460986 28.775369 29.853193 28.816366 30.351562 28.53125 C 30.602892 28.387466 30.680393 28.197142 30.742188 28.035156 C 30.803982 27.873171 30.838217 27.707862 30.867188 27.521484 C 30.925126 27.148729 30.949879 26.694526 30.957031 26.167969 C 30.971335 25.114854 30.910409 23.782536 30.830078 22.449219 C 30.749747 21.115901 30.649276 19.78402 30.582031 18.755859 C 30.548409 18.241779 30.524 17.802202 30.513672 17.484375 C 30.508508 17.325462 30.507436 17.196421 30.509766 17.111328 C 30.512095 17.026235 30.547548 16.943746 30.498047 17.080078 C 30.508821 17.050405 30.709475 16.703001 30.970703 16.292969 C 31.231931 15.882937 31.559924 15.360442 31.871094 14.753906 C 32.493432 13.540835 33.061633 11.975272 32.865234 10.255859 C 32.66736 8.5235258 31.211402 7.1868638 29.392578 6.1777344 C 27.59218 5.1788278 25.367844 4.4856824 23.298828 4.1386719 C 21.159415 2.9262788 18.25671 2.0409151 15.697266 2.0976562 z "
     style="fill-opacity:1;stroke-width:0.5810765;stroke-miterlimit:4;stroke-dasharray:none;stroke-dashoffset:0;stroke-opacity:1;fill:var(--local-primary)"
     id="path963"
     d="M 15.697266,2.0976562 C 14.413799,2.1261101 13.3446,2.5350969 12.457031,3.1230469 12.41668,3.1212799 12.371119,3.1047527 12.210938,3.1875 11.902675,3.3467461 11.742849,3.6343112 11.574219,3.90625 a 0.57767255,0.57767255 0 0 0 -0.16211,0.1445312 c 0.0205,-0.027467 -0.0024,0.00153 -0.09766,0.070313 -0.09346,0.067457 -0.262848,0.19301 -0.376953,0.4179687 -0.251297,0.4822833 -0.248453,1.0058567 -0.224609,1.6347656 0.02393,0.6311215 0.10922,1.3505615 0.210937,2.078125 A 0.57767255,0.57767255 0 0 0 11.496094,8.75 h 0.251953 a 0.57767255,0.57767255 0 0 0 0.572265,-0.6542969 c -0.186845,-1.388731 -0.19474,-2.7517072 0.07422,-3.40625 0.145101,-0.1815534 0.318608,-0.3425378 0.519531,-0.4902343 0.548995,-0.2085152 1.792588,-0.221895 3.154297,0.060547 1.390259,0.2883635 2.911873,0.8339063 4.076172,1.5058594 a 0.57767255,0.57767255 0 0 0 0.238281,0.076172 c 1.508134,0.1322722 3.59828,0.7192834 5.404297,1.5957031 1.799705,0.8733564 3.291474,2.0592242 3.769532,3.171875 0.06741,0.184074 0.06236,0.644317 -0.08984,1.220703 -0.153171,0.580055 -0.422333,1.266722 -0.71875,1.949219 -0.296418,0.682496 -0.617873,1.361951 -0.878906,1.957031 -0.261034,0.59508 -0.471284,1.060876 -0.517579,1.53711 -0.166492,1.712695 0.05736,4.352046 0.208985,6.611328 0.07581,1.12964 0.133872,2.16098 0.125,2.884765 -0.0036,0.296549 -0.02542,0.494443 -0.04883,0.65625 -0.0707,-0.01072 -0.03917,-0.0046 -0.13086,-0.0293 -0.267965,-0.07228 -0.62826,-0.189899 -1.048828,-0.339843 -0.841135,-0.299889 -1.922305,-0.730967 -3.046875,-1.203125 a 0.57767255,0.57767255 0 0 0 -0.800781,0.533203 v 0.294922 a 0.57767255,0.57767255 0 0 0 0.34375,0.527343 c 1.235534,0.546364 2.447469,1.050137 3.464844,1.390625 0.508687,0.170244 0.968299,0.30089 1.373047,0.375 0.404747,0.07411 0.747652,0.119149 1.121093,-0.0098 0.548877,-0.189475 0.941084,-0.148478 1.439453,-0.433594 0.25133,-0.143784 0.328831,-0.334108 0.390626,-0.496094 0.06179,-0.161985 0.09603,-0.327294 0.125,-0.513672 0.05794,-0.372755 0.08269,-0.826958 0.08984,-1.353515 0.0143,-1.053115 -0.04662,-2.385433 -0.126953,-3.71875 -0.08033,-1.333318 -0.180802,-2.665199 -0.248047,-3.69336 -0.03362,-0.51408 -0.05803,-0.953657 -0.06836,-1.271484 -0.0052,-0.158913 -0.0062,-0.287954 -0.0039,-0.373047 0.0023,-0.08509 0.03778,-0.167582 -0.01172,-0.03125 0.01077,-0.02967 0.211428,-0.377077 0.472656,-0.787109 0.261228,-0.410032 0.589221,-0.932527 0.900391,-1.539063 0.622338,-1.213071 1.190539,-2.778634 0.99414,-4.498047 C 32.66736,8.5235258 31.211402,7.1868638 29.392578,6.1777344 27.59218,5.1788278 25.367844,4.4856824 23.298828,4.1386719 21.159415,2.9262788 18.25671,2.0409151 15.697266,2.0976562 Z" />
  <path
     sodipodi:type="inkscape:offset"
     inkscape:radius="0"
     inkscape:original="M 9.4003906 6.9414062 C 8.2094064 6.873075 7.061731 6.9791278 6.0625 7.3535156 C 5.0663389 7.7267532 4.2133676 8.3949661 3.7265625 9.3847656 C 3.4453769 9.9258492 3.4604221 10.517945 3.4960938 11.234375 C 3.5319264 11.954041 3.6395163 12.775955 3.7617188 13.589844 C 3.883921 14.403733 4.0216263 15.209846 4.1210938 15.876953 C 4.2205611 16.54406 4.2684265 17.113633 4.2558594 17.257812 C 4.1925622 17.984035 3.8572211 19.570044 3.5722656 21.140625 C 3.3037157 22.620784 3.0782464 24.026668 3.2070312 25.074219 C 3.2131268 25.1238 3.1991811 25.194375 3.2070312 25.242188 A 0.61383592 0.61383592 0 0 0 3.2070312 25.246094 C 3.2086831 25.256092 3.2053005 25.271331 3.2070312 25.28125 C 3.2020382 25.247933 3.1972599 25.212771 3.1972656 25.212891 C 3.197276 25.213105 3.1966325 25.169969 3.1972656 25.15625 C 3.198532 25.128811 3.1997666 25.115913 3.2011719 25.105469 C 3.2039825 25.084581 3.2061778 25.078516 3.2070312 25.074219 C 3.2056487 25.080332 3.2029062 25.088758 3.1992188 25.107422 C 3.1973749 25.116754 3.1947266 25.128911 3.1914062 25.154297 C 3.1897461 25.16699 3.188623 25.18188 3.1875 25.212891 C 3.1869385 25.228396 3.1874862 25.277141 3.1875 25.277344 C 3.1875138 25.277547 3.2148045 25.417842 3.2148438 25.417969 C 3.2148497 25.417988 3.2228166 25.434088 3.2246094 25.4375 C 3.2270037 25.472229 3.2320176 25.521898 3.2402344 25.628906 C 3.2455989 25.69877 3.2499593 25.776346 3.2734375 25.876953 C 3.2969157 25.97756 3.3239526 26.122911 3.5019531 26.289062 C 3.6242503 26.40322 3.7131356 26.453906 3.8554688 26.542969 C 3.9978018 26.632032 4.1736538 26.73493 4.3847656 26.853516 C 4.8069893 27.090688 5.3630536 27.383899 6.0019531 27.701172 C 7.2797523 28.335717 8.8897358 29.064855 10.421875 29.609375 L 10.363281 29.585938 C 11.804863 30.273931 14.209013 31.454218 16.431641 32.410156 C 17.542954 32.888125 18.608576 33.309626 19.503906 33.589844 C 19.951572 33.729952 20.356244 33.835363 20.71875 33.892578 C 21.081256 33.949793 21.396709 33.981938 21.746094 33.861328 C 22.291416 33.673079 22.682171 33.71516 23.191406 33.423828 C 23.45514 33.272947 23.534422 33.075977 23.597656 32.910156 C 23.660891 32.744335 23.697386 32.576581 23.726562 32.388672 C 23.784916 32.012854 23.809336 31.556769 23.816406 31.029297 C 23.830547 29.974352 23.768098 28.642276 23.6875 27.308594 C 23.606902 25.974911 23.50686 24.643082 23.439453 23.615234 C 23.40575 23.101311 23.379493 22.660755 23.369141 22.34375 C 23.363964 22.185247 23.362951 22.056495 23.365234 21.972656 C 23.367518 21.888818 23.404989 21.80598 23.351562 21.953125 C 23.358778 21.933252 23.558967 21.58386 23.820312 21.173828 C 24.081658 20.763796 24.410611 20.240799 24.722656 19.632812 C 25.346746 18.41684 25.918288 16.845029 25.720703 15.115234 C 25.520698 13.364249 24.056179 12.020192 22.232422 11.007812 C 20.433295 10.009108 18.213268 9.3195495 16.146484 8.9707031 C 14.242645 7.8906938 11.737352 7.0754867 9.4003906 6.9414062 z M 6.7890625 8.921875 C 7.3475061 8.9161564 8.0304521 8.9733582 8.7441406 9.1171875 C 10.171518 9.4048462 11.754797 9.9680398 12.947266 10.65625 A 0.61383592 0.61383592 0 0 0 13.201172 10.736328 C 14.702883 10.868037 16.789791 11.454664 18.591797 12.330078 C 20.386834 13.202107 21.871494 14.388991 22.34375 15.486328 C 22.405946 15.658057 22.403044 16.111582 22.251953 16.683594 C 22.099637 17.260244 21.83125 17.945441 21.535156 18.626953 C 21.239062 19.308465 20.917632 19.988298 20.65625 20.583984 C 20.394868 21.179671 20.182157 21.645297 20.134766 22.132812 C 19.967592 23.852519 20.192151 26.491106 20.34375 28.75 C 20.419549 29.879447 20.479547 30.909389 20.470703 31.630859 C 20.467272 31.910737 20.444976 32.086827 20.423828 32.246094 C 20.39998 32.241155 20.415589 32.244668 20.390625 32.238281 C 20.156474 32.178375 19.836326 32.078244 19.462891 31.949219 C 18.71602 31.691168 17.748828 31.315616 16.720703 30.890625 C 14.664453 30.040642 12.349833 28.989644 10.980469 28.287109 A 0.61383592 0.61383592 0 0 0 10.912109 28.257812 C 9.4684884 27.730983 7.8291977 27.041182 6.5390625 26.394531 C 5.8939949 26.071206 5.3356998 25.757642 4.9433594 25.492188 C 4.5510189 25.226731 4.3576743 24.921296 4.4023438 25.052734 A 0.61383592 0.61383592 0 0 0 4.3945312 25.033203 L 4.40625 25.03125 C 4.4277708 25.115802 4.4026375 24.96981 4.4160156 24.789062 C 4.4293937 24.608316 4.4595601 24.36053 4.5019531 24.070312 C 4.5867391 23.489879 4.7216627 22.738374 4.875 21.9375 C 5.1816745 20.335752 5.5591424 18.538999 5.7617188 17.423828 C 5.8131829 17.14052 5.7877809 16.891386 5.7519531 16.576172 C 5.7161253 16.260957 5.656405 15.898537 5.5878906 15.498047 C 5.4508618 14.697066 5.2740483 13.748067 5.1542969 12.816406 C 5.0345455 11.884746 4.9775328 10.967838 5.0585938 10.28125 C 5.1396547 9.594662 5.3405864 9.2311412 5.5800781 9.1074219 C 5.7958724 8.9959443 6.2306189 8.9275936 6.7890625 8.921875 z "
     xlink:href="#path927"
     style="fill-opacity:1;stroke-width:0.5810765;stroke-miterlimit:4;stroke-dasharray:none;stroke-dashoffset:0;stroke-opacity:1"
     id="path822"
     inkscape:href="#path927"
     d="M 9.4003906,6.9414062 C 8.2094064,6.873075 7.061731,6.9791278 6.0625,7.3535156 5.0663389,7.7267532 4.2133676,8.3949661 3.7265625,9.3847656 3.4453769,9.9258492 3.4604221,10.517945 3.4960938,11.234375 c 0.035833,0.719666 0.1434225,1.54158 0.265625,2.355469 0.1222022,0.813889 0.2599075,1.620002 0.359375,2.287109 0.099467,0.667107 0.1473327,1.23668 0.1347656,1.380859 -0.063297,0.726223 -0.3986383,2.312232 -0.6835938,3.882813 -0.2685499,1.480159 -0.4940192,2.886043 -0.3652344,3.933594 0.0061,0.04958 -0.00785,0.120156 0,0.167969 a 0.61383592,0.61383592 0 0 0 0,0.0039 c 0.00165,0.01 -0.00173,0.02524 0,0.03516 -0.00499,-0.03332 -0.00977,-0.06848 -0.00977,-0.06836 1.04e-5,2.14e-4 -6.331e-4,-0.04292 0,-0.05664 0.00127,-0.02744 0.0025,-0.04034 0.00391,-0.05078 0.00281,-0.02089 0.00501,-0.02695 0.00586,-0.03125 -0.00138,0.0061 -0.00412,0.01454 -0.00781,0.0332 -0.00184,0.0093 -0.00449,0.02149 -0.00781,0.04687 -0.00166,0.01269 -0.00278,0.02758 -0.00391,0.05859 -5.615e-4,0.01551 -1.38e-5,0.06425 0,0.06445 1.38e-5,2.03e-4 0.027305,0.140498 0.027344,0.140625 5.9e-6,1.9e-5 0.00797,0.01612 0.00977,0.01953 0.00239,0.03473 0.00741,0.0844 0.015625,0.191406 0.00536,0.06986 0.00972,0.14744 0.033203,0.248047 0.023478,0.100607 0.050515,0.245958 0.2285156,0.412109 0.1222972,0.114158 0.2111825,0.164844 0.3535157,0.253907 0.142333,0.08906 0.318185,0.191961 0.5292968,0.310547 0.4222237,0.237172 0.978288,0.530383 1.6171875,0.847656 1.2777992,0.634545 2.8877827,1.363683 4.4199219,1.908203 l -0.05859,-0.02344 c 1.441582,0.687993 3.845732,1.86828 6.06836,2.824218 1.111313,0.477969 2.176935,0.89947 3.072265,1.179688 0.447666,0.140108 0.852338,0.245519 1.214844,0.302734 0.362506,0.05721 0.677959,0.08936 1.027344,-0.03125 0.545322,-0.188249 0.936077,-0.146168 1.445312,-0.4375 0.263734,-0.150881 0.343016,-0.347851 0.40625,-0.513672 0.06323,-0.165821 0.09973,-0.333575 0.128906,-0.521484 0.05835,-0.375818 0.08277,-0.831903 0.08984,-1.359375 0.01414,-1.054945 -0.04831,-2.387021 -0.128906,-3.720703 -0.0806,-1.333683 -0.18064,-2.665512 -0.248047,-3.69336 -0.0337,-0.513923 -0.05996,-0.954479 -0.07031,-1.271484 -0.0052,-0.158503 -0.0062,-0.287255 -0.0039,-0.371094 0.0023,-0.08384 0.03975,-0.166676 -0.01367,-0.01953 0.0072,-0.01987 0.207405,-0.369265 0.46875,-0.779297 0.261346,-0.410032 0.590299,-0.933029 0.902344,-1.541016 0.62409,-1.215972 1.195632,-2.787783 0.998047,-4.517578 C 25.520698,13.364249 24.056179,12.020192 22.232422,11.007812 20.433295,10.009108 18.213268,9.3195495 16.146484,8.9707031 14.242645,7.8906938 11.737352,7.0754867 9.4003906,6.9414062 Z M 6.7890625,8.921875 c 0.5584436,-0.00572 1.2413896,0.051483 1.9550781,0.1953125 1.4273774,0.2876587 3.0106564,0.8508523 4.2031254,1.5390625 a 0.61383592,0.61383592 0 0 0 0.253906,0.08008 c 1.501711,0.131709 3.588619,0.718336 5.390625,1.59375 1.795037,0.872029 3.279697,2.058913 3.751953,3.15625 0.0622,0.171729 0.05929,0.625254 -0.0918,1.197266 -0.152316,0.57665 -0.420703,1.261847 -0.716797,1.943359 -0.296094,0.681512 -0.617524,1.361345 -0.878906,1.957031 -0.261382,0.595687 -0.474093,1.061313 -0.521484,1.548828 -0.167174,1.719707 0.05739,4.358294 0.208984,6.617188 0.0758,1.129447 0.135797,2.159389 0.126953,2.880859 -0.0034,0.279878 -0.02573,0.455968 -0.04687,0.615235 -0.02385,-0.0049 -0.0082,-0.0014 -0.0332,-0.0078 -0.234151,-0.05991 -0.554299,-0.160037 -0.927734,-0.289062 -0.746871,-0.258051 -1.714063,-0.633603 -2.742188,-1.058594 -2.05625,-0.849983 -4.37087,-1.900981 -5.740234,-2.603516 a 0.61383592,0.61383592 0 0 0 -0.06836,-0.0293 C 9.4684884,27.730983 7.8291977,27.041182 6.5390625,26.394531 5.8939949,26.071206 5.3356998,25.757642 4.9433594,25.492188 4.5510189,25.226731 4.3576743,24.921296 4.4023438,25.052734 a 0.61383592,0.61383592 0 0 0 -0.00781,-0.01953 l 0.011719,-0.002 c 0.021521,0.08455 -0.00361,-0.06144 0.00977,-0.242188 0.013378,-0.180746 0.043545,-0.428532 0.085937,-0.71875 C 4.5867391,23.489879 4.7216627,22.738374 4.875,21.9375 5.1816745,20.335752 5.5591424,18.538999 5.7617188,17.423828 5.8131829,17.14052 5.7877809,16.891386 5.7519531,16.576172 5.7161253,16.260957 5.656405,15.898537 5.5878906,15.498047 5.4508618,14.697066 5.2740483,13.748067 5.1542969,12.816406 5.0345455,11.884746 4.9775328,10.967838 5.0585938,10.28125 5.1396547,9.594662 5.3405864,9.2311412 5.5800781,9.1074219 5.7958724,8.9959443 6.2306189,8.9275936 6.7890625,8.921875 Z" />
  <path
     sodipodi:type="inkscape:offset"
     inkscape:radius="0.61377454"
     inkscape:original="M 9.3652344 7.5546875 C 7.1038244 7.4249418 5.0936565 7.9791872 4.2714844 9.6621094 C 3.6311939 10.881425 4.9707634 16.122244 4.8671875 17.310547 C 4.7234096 18.960143 3.5200522 23.543461 3.8105469 25.183594 C 3.641353 24.518859 4.7597688 19.507811 5.1582031 17.314453 C 5.3706744 16.144809 3.2655295 9.612884 5.2988281 8.5625 C 6.7391773 7.8184271 10.716695 8.6606977 13.253906 10.125 C 16.467498 10.406851 21.766901 12.541333 22.917969 15.259766 C 23.513892 16.833561 20.861302 21.006266 20.746094 22.191406 C 20.434888 25.39277 21.604337 32.793896 20.792969 32.914062 C 19.970658 33.035854 13.496981 30.268338 10.701172 28.833984 C 7.771548 27.764859 4.0945609 26.056965 3.8203125 25.25 C 3.8598129 25.434429 3.8301945 25.756089 3.9199219 25.839844 C 4.2499891 26.147943 7.6332191 27.967281 10.626953 29.03125 C 13.523618 30.413683 20.21886 33.739015 21.544922 33.28125 C 22.167849 33.066211 22.590078 33.060332 22.886719 32.890625 C 23.743085 32.400703 22.570842 22.307496 22.775391 21.744141 C 23.043995 21.004353 25.466188 18.292234 25.111328 15.185547 C 24.783698 12.317242 20.015228 10.22166 15.960938 9.5546875 C 14.138454 8.4975756 11.626644 7.6844332 9.3652344 7.5546875 z M 3.8203125 25.25 C 3.8158813 25.22931 3.8144099 25.205405 3.8105469 25.183594 C 3.8116833 25.188059 3.7995268 25.232261 3.8007812 25.236328 C 3.8017741 25.239547 3.8192086 25.246752 3.8203125 25.25 z "
     style="fill-opacity:1;stroke-width:0.5810765;stroke-miterlimit:4;stroke-dasharray:none;stroke-dashoffset:0;stroke-opacity:1;fill:var(--local-primary)"
     id="path927"
     d="M 9.4003906,6.9414062 C 8.2094064,6.873075 7.061731,6.9791278 6.0625,7.3535156 5.0663389,7.7267532 4.2133676,8.3949661 3.7265625,9.3847656 3.4453769,9.9258492 3.4604222,10.517945 3.4960938,11.234375 c 0.035833,0.719666 0.1434226,1.54158 0.265625,2.355469 0.1222023,0.813889 0.2599075,1.620002 0.359375,2.287109 0.099467,0.667107 0.1473327,1.23668 0.1347656,1.380859 -0.063297,0.726223 -0.3986383,2.312232 -0.6835938,3.882813 -0.2685499,1.480159 -0.4940192,2.886043 -0.3652344,3.933594 0.0061,0.04958 -0.00785,0.120156 0,0.167969 a 0.61383592,0.61383592 0 0 0 0,0.0039 c 0.00165,0.01 -0.00173,0.02524 0,0.03516 -0.00499,-0.03332 -0.00977,-0.06848 -0.00977,-0.06836 1.04e-5,2.14e-4 -6.331e-4,-0.04292 0,-0.05664 0.00127,-0.02744 0.0025,-0.04034 0.00391,-0.05078 0.00281,-0.02089 0.00501,-0.02695 0.00586,-0.03125 -0.00138,0.0061 -0.00412,0.01454 -0.00781,0.0332 -0.00184,0.0093 -0.00449,0.02149 -0.00781,0.04687 -0.00166,0.01269 -0.00278,0.02758 -0.00391,0.05859 -5.615e-4,0.01551 -1.38e-5,0.06425 0,0.06445 1.38e-5,2.03e-4 0.027305,0.140498 0.027344,0.140625 6e-6,1.9e-5 0.00797,0.01612 0.00977,0.01953 0.00239,0.03473 0.00741,0.0844 0.015625,0.191406 0.00536,0.06986 0.00972,0.14744 0.033203,0.248047 0.023478,0.100607 0.050515,0.245957 0.2285156,0.412109 0.1222972,0.114158 0.2111825,0.164844 0.3535157,0.253907 0.1423331,0.08906 0.318185,0.191961 0.5292968,0.310547 0.4222237,0.237172 0.978288,0.530383 1.6171875,0.847656 1.2777992,0.634545 2.8877827,1.363683 4.4199219,1.908203 l -0.05859,-0.02344 c 1.441582,0.687994 3.845732,1.86828 6.06836,2.824218 1.111313,0.477969 2.176935,0.89947 3.072265,1.179688 0.447666,0.140108 0.852338,0.245519 1.214844,0.302734 0.362506,0.05721 0.677959,0.08936 1.027344,-0.03125 0.545322,-0.188249 0.936077,-0.146168 1.445312,-0.4375 0.263734,-0.150881 0.343016,-0.347851 0.40625,-0.513672 0.06323,-0.165821 0.09973,-0.333575 0.128906,-0.521484 0.05835,-0.375818 0.08277,-0.831903 0.08984,-1.359375 0.01414,-1.054945 -0.04831,-2.387021 -0.128906,-3.720703 -0.0806,-1.333683 -0.18064,-2.665512 -0.248047,-3.69336 -0.0337,-0.513923 -0.05996,-0.954479 -0.07031,-1.271484 -0.0052,-0.158503 -0.0062,-0.287255 -0.0039,-0.371094 0.0023,-0.08384 0.03975,-0.166676 -0.01367,-0.01953 0.0072,-0.01987 0.207405,-0.369265 0.46875,-0.779297 0.261346,-0.410032 0.590299,-0.933029 0.902344,-1.541016 0.62409,-1.215972 1.195632,-2.787783 0.998047,-4.517578 C 25.520698,13.364249 24.056179,12.020191 22.232422,11.007812 20.433295,10.009107 18.213268,9.3195495 16.146484,8.9707031 14.242645,7.8906938 11.737352,7.0754867 9.4003906,6.9414062 Z M 6.7890625,8.921875 c 0.5584436,-0.00572 1.2413896,0.051483 1.9550781,0.1953125 1.4273774,0.2876587 3.0106564,0.8508523 4.2031254,1.5390625 a 0.61383592,0.61383592 0 0 0 0.253906,0.08008 c 1.501711,0.131709 3.588619,0.718336 5.390625,1.59375 1.795037,0.872029 3.279697,2.058913 3.751953,3.15625 0.0622,0.171729 0.05929,0.625254 -0.0918,1.197266 -0.152316,0.57665 -0.420703,1.261847 -0.716797,1.943359 -0.296094,0.681512 -0.617524,1.361345 -0.878906,1.957031 -0.261382,0.595687 -0.474093,1.061313 -0.521484,1.548828 -0.167174,1.719707 0.05739,4.358294 0.208984,6.617188 0.0758,1.129447 0.135797,2.159389 0.126953,2.880859 -0.0034,0.279878 -0.02573,0.455968 -0.04687,0.615235 -0.02385,-0.0049 -0.0082,-0.0014 -0.0332,-0.0078 -0.234151,-0.05991 -0.554299,-0.160037 -0.927734,-0.289062 -0.746871,-0.258051 -1.714063,-0.633603 -2.742188,-1.058594 -2.05625,-0.849983 -4.37087,-1.900981 -5.740234,-2.603516 a 0.61383592,0.61383592 0 0 0 -0.06836,-0.0293 C 9.468488,27.730983 7.8291977,27.041182 6.5390625,26.394531 5.8939949,26.071206 5.3356998,25.757643 4.9433594,25.492188 4.5510189,25.226732 4.3576743,24.921296 4.4023438,25.052734 a 0.61383592,0.61383592 0 0 0 -0.00781,-0.01953 l 0.011719,-0.002 c 0.021521,0.08455 -0.00361,-0.06144 0.00977,-0.242188 0.013378,-0.180746 0.043545,-0.428533 0.085937,-0.71875 C 4.5867391,23.489879 4.7216627,22.738374 4.875,21.9375 5.1816745,20.335752 5.5591425,18.538999 5.7617188,17.423828 5.8131829,17.14052 5.7877809,16.891386 5.7519531,16.576172 5.7161253,16.260957 5.656405,15.898537 5.5878906,15.498047 5.4508618,14.697066 5.2740483,13.748067 5.1542969,12.816406 5.0345455,11.884746 4.9775328,10.967838 5.0585938,10.28125 5.1396547,9.594662 5.3405864,9.2311412 5.5800781,9.1074219 5.7958724,8.9959443 6.2306189,8.9275936 6.7890625,8.921875 Z" />
</svg>
