<?xml version="1.0" encoding="UTF-8" standalone="no"?>
<svg 
	xmlns:dc="http://purl.org/dc/elements/1.1/" 
	xmlns:cc="http://creativecommons.org/ns#" 
	xmlns:rdf="http://www.w3.org/1999/02/22-rdf-syntax-ns#" 
	xmlns:svg="http://www.w3.org/2000/svg" 
	xmlns="http://www.w3.org/2000/svg" version="1.1" id="detail_measurement" width="36px" height="36px" viewBox="0 0 36 36">
	<metadata id="metadata29">
		<rdf:RDF>
			<cc:Work rdf:about="">
				<dc:format>image/svg+xml</dc:format>
				<dc:type rdf:resource="http://purl.org/dc/dcmitype/StillImage" />
				<dc:title></dc:title>
			</cc:Work>
		</rdf:RDF>
	</metadata>
	<path id="rect827" d="m 5.6713233,25.508261 c -0.2629091,0.270787 -0.2575523,0.727229 0.013235,0.990137 l 3.6868276,3.579561 c 0.2707879,0.262909 0.7285893,0.256151 0.9914993,-0.01464 L 30.252505,9.5776774 C 30.515414,9.3068895 30.508656,8.8490878 30.237868,8.5861785 L 26.55104,5.0066182 C 26.280253,4.7437095 25.823853,4.7518281 25.560943,5.0226159 Z m 1.2086956,0.476632 0.7741428,-0.797341 0.6081653,0.590471 c 0.039748,0.03859 0.1022628,0.03767 0.140854,-0.0021 l 0.5278865,-0.543705 c 0.038591,-0.03975 0.037668,-0.102263 -0.00208,-0.140854 l -0.6081652,-0.590471 1.7414815,-1.793668 1.041168,1.010876 c 0.05378,0.05221 0.128846,0.06076 0.167438,0.02101 l 0.526526,-0.542304 c 0.03859,-0.03975 0.02783,-0.114535 -0.02594,-0.166745 l -1.041168,-1.010875 1.741482,-1.793668 0.608165,0.590471 c 0.03975,0.03859 0.102262,0.03767 0.140853,-0.0021 l 0.527887,-0.543705 c 0.03859,-0.03975 0.03767,-0.102263 -0.0021,-0.140855 l -0.608165,-0.59047 1.741481,-1.793668 1.041168,1.010876 c 0.05378,0.05221 0.127486,0.06216 0.166077,0.02241 l 0.527887,-0.543705 c 0.03859,-0.03975 0.02647,-0.113134 -0.0273,-0.165343 l -1.041168,-1.010876 1.741481,-1.793668 0.608165,0.590471 c 0.03975,0.03859 0.102264,0.03767 0.140854,-0.0021 l 0.527887,-0.543706 c 0.03859,-0.03975 0.03903,-0.103665 -7.19e-4,-0.142256 l -0.608165,-0.590471 1.741481,-1.793667 1.041168,1.010875 c 0.05378,0.05221 0.127486,0.06216 0.166077,0.02241 l 0.527886,-0.543705 c 0.03859,-0.03975 0.02647,-0.113134 -0.0273,-0.165344 l -1.041168,-1.010875 1.741481,-1.793668 0.608165,0.590471 c 0.03975,0.03859 0.102263,0.03767 0.140854,-0.0021 l 0.527887,-0.543705 c 0.03859,-0.03975 0.03767,-0.102263 -0.0021,-0.140854 L 22.772396,9.616276 24.513877,7.8226085 25.555045,8.833484 c 0.05378,0.052212 0.127486,0.062158 0.166077,0.022411 L 26.249009,8.312189 c 0.03859,-0.039748 0.02647,-0.1131336 -0.0273,-0.1653432 L 25.180537,7.1359703 26.073046,6.2167157 29.042407,9.0996835 9.8493796,28.867861 Z" style="fill:var(--local-primary);fill-opacity:1;stroke:none" />
</svg>