<?xml version="1.0" encoding="UTF-8" standalone="no"?>
<svg
   xmlns:dc="http://purl.org/dc/elements/1.1/"
   xmlns:cc="http://creativecommons.org/ns#"
   xmlns:rdf="http://www.w3.org/1999/02/22-rdf-syntax-ns#"
   xmlns:svg="http://www.w3.org/2000/svg"
   xmlns="http://www.w3.org/2000/svg"
   xmlns:sodipodi="http://sodipodi.sourceforge.net/DTD/sodipodi-0.dtd"
   xmlns:inkscape="http://www.inkscape.org/namespaces/inkscape"
   inkscape:version="1.0 (4035a4fb49, 2020-05-01)"
   sodipodi:docname="ico36_bin.svg"
   version="1.1"
   id="detail_date"
   width="36px"
   height="36px"
   viewBox="0 0 36 36">
  <defs
     id="defs991" />
  <sodipodi:namedview
     inkscape:current-layer="detail_date"
     inkscape:window-maximized="1"
     inkscape:window-y="-8"
     inkscape:window-x="2552"
     inkscape:cy="60.570996"
     inkscape:cx="121.42979"
     inkscape:zoom="5.8287205"
     showgrid="false"
     id="namedview989"
     inkscape:window-height="1417"
     inkscape:window-width="2560"
     inkscape:pageshadow="2"
     inkscape:pageopacity="0"
     guidetolerance="10"
     gridtolerance="10"
     objecttolerance="10"
     borderopacity="1"
     bordercolor="#666666"
     pagecolor="#ffffff" />
  <metadata
     id="metadata29">
    <rdf:RDF>
      <cc:Work
         rdf:about="">
        <dc:format>image/svg+xml</dc:format>
        <dc:type
           rdf:resource="http://purl.org/dc/dcmitype/StillImage" />
        <dc:title></dc:title>
      </cc:Work>
    </rdf:RDF>
  </metadata>
  <g
     style="fill:#00ff00"
     transform="translate(0.57590885,0.60300753)"
     id="g1007">
    <path
       id="path1019"
       d="m 29.095134,8.2418817 c -0.05914,-0.075405 -0.05746,-0.077087 0.01795,-0.01795 0.07919,0.062108 0.104379,0.1011497 0.06525,0.1011497 -0.0099,0 -0.04731,-0.03744 -0.0832,-0.0832 z m -7.486413,-4.7780311 -0.09057,-0.1069709 0.106971,0.090568 c 0.05883,0.049812 0.10697,0.097949 0.10697,0.1069709 0,0.038046 -0.03826,0.00996 -0.123373,-0.090568 z"
       style="fill:var(--local-primary);fill-opacity:1;stroke-width:0.0475426" />
    <path
       id="path1017"
       d="m 27.021093,20.959527 -0.01177,-9.639262 h -0.855651 -0.855651 l -0.01218,9.556063 -0.01218,9.556063 1.9e-4,-9.567949 1.58e-4,-9.567948 0.868732,-0.01296 c 0.669052,-0.01 0.874018,9.46e-4 0.891731,0.04754 0.01265,0.03328 0.01746,4.382127 0.01069,9.66411 l -0.01231,9.603605 z m -14.821542,-0.451654 2.51e-4,-6.596536 h 0.879538 0.879539 l 2.37e-4,6.58465 2.38e-4,6.584649 -0.01231,-6.572764 -0.01231,-6.572764 H 13.07931 12.223877 l -0.0123,6.584651 -0.0123,6.584651 2.37e-4,-6.596537 z m 4.81394,-6.608188 c 0.241873,-0.0086 0.637665,-0.0086 0.879538,0 0.241873,0.0086 0.04398,0.01569 -0.439769,0.01569 -0.483746,0 -0.681642,-0.0071 -0.439769,-0.01569 z m 4.326377,0 c 0.241873,-0.0086 0.637665,-0.0086 0.879538,0 0.241873,0.0086 0.04398,0.01569 -0.439769,0.01569 -0.483746,0 -0.681642,-0.0071 -0.439769,-0.01569 z M 8.2656517,11.284842 c 0.241873,-0.0086 0.6376652,-0.0086 0.8795382,0 0.241873,0.0086 0.043977,0.01569 -0.4397691,0.01569 -0.483746,0 -0.6816421,-0.0071 -0.4397691,-0.01569 z M 12.196155,6.8274894 c 3.9e-5,-0.549117 0.007,-0.7672443 0.01538,-0.4847277 0.0084,0.2825167 0.0084,0.7317943 -4.8e-5,0.9983946 -0.0085,0.2666004 -0.01535,0.03545 -0.01531,-0.5136669 z m 1.759005,0.023771 c 0,-0.5360428 0.0069,-0.755333 0.01541,-0.4873116 0.0085,0.2680214 0.0085,0.7066019 0,0.9746233 -0.0085,0.2680214 -0.01541,0.048731 -0.01541,-0.4873117 z m 5.58106,-4.2637683 c 0.03432,-0.013734 0.07533,-0.012045 0.09112,0.00375 0.0158,0.015798 -0.01228,0.027035 -0.0624,0.02497 -0.05539,-0.00228 -0.06665,-0.013547 -0.02872,-0.028724 z"
       style="fill:var(--local-primary);fill-opacity:1;stroke-width:0.0475426" />
    <path
       id="path1015"
       d="m 16.781599,27.591719 c -0.05914,-0.0754 -0.05746,-0.07709 0.01795,-0.01795 0.04576,0.03589 0.0832,0.07333 0.0832,0.0832 0,0.03913 -0.03904,0.01394 -0.10115,-0.06525 z m 5.568549,0.06525 c 0,-0.0099 0.03744,-0.04731 0.0832,-0.0832 0.0754,-0.05914 0.07709,-0.05745 0.01795,0.01795 -0.06211,0.07919 -0.10115,0.104379 -0.10115,0.06525 z"
       style="fill:var(--local-primary);fill-opacity:1;stroke-width:0.0475426" />
    <path
       id="path1013"
       d="m 13.400253,32.203355 c 2.203005,-0.0068 5.807923,-0.0068 8.010929,0 2.203005,0.0068 0.400546,0.01243 -4.005465,0.01243 -4.40601,0 -6.208469,-0.0056 -4.005464,-0.01243 z M 9.5845002,20.900099 c 5e-7,-5.281983 0.00555,-7.43574 0.012342,-4.786128 0.00679,2.649613 0.00679,6.971235 -1.4e-6,9.603605 -0.00679,2.63237 -0.012342,0.464505 -0.012341,-4.817477 z m 8.3917288,6.75687 c 0,-0.0099 0.03744,-0.04731 0.0832,-0.0832 0.07541,-0.05914 0.07709,-0.05745 0.01795,0.01795 -0.06211,0.07919 -0.101149,0.104379 -0.101149,0.06525 z m -1.403167,-7.137211 c 2e-6,-3.634632 0.0056,-5.114507 0.01254,-3.288611 0.0069,1.825895 0.0069,4.799685 -2e-6,6.608421 -0.0069,1.808736 -0.01254,0.314822 -0.01254,-3.31981 z m 6.085454,0 c 1e-6,-3.634632 0.0056,-5.114507 0.01254,-3.288611 0.0069,1.825895 0.0069,4.799685 -3e-6,6.608421 -0.0069,1.808736 -0.01254,0.314822 -0.01254,-3.31981 z M 8.1671815,7.8140345 c 0.7368314,-0.00737 1.9562995,-0.00737 2.7099285,-1.24e-5 0.753629,0.00736 0.150767,0.013384 -1.3396936,0.013391 -1.4904607,6.6e-6 -2.1070664,-0.00601 -1.3702349,-0.013379 z m 7.4878355,-1.43e-5 c 0.959025,-0.00719 2.542194,-0.00719 3.518153,-7.6e-6 0.975959,0.00719 0.191303,0.013068 -1.743681,0.013072 -1.934984,4.2e-6 -2.733497,-0.00587 -1.774472,-0.013064 z m 7.001579,-0.025257 c -0.01285,-0.033491 -0.01703,-0.4667228 -0.0093,-0.9627376 l 0.01409,-0.9018455 0.01077,0.9385769 0.01077,0.938577 2.721814,0.012672 2.721814,0.012672 -2.723306,0.011488 c -2.17804,0.00919 -2.727985,-7.036e-4 -2.746673,-0.049403 z M 12.936713,3.7905845 c 0,-0.00987 0.03744,-0.047312 0.0832,-0.0832 0.07541,-0.059137 0.07709,-0.057455 0.01795,0.01795 -0.06211,0.079194 -0.101149,0.1043788 -0.101149,0.06525 z m 3.577581,-1.2062178 c 0.54258,-0.00763 1.430438,-0.00763 1.973018,0 0.54258,0.00763 0.09865,0.013869 -0.986509,0.013869 -1.08516,0 -1.529089,-0.00624 -0.986509,-0.013869 z"
       style="fill:var(--local-primary);fill-opacity:1;stroke-width:0.0475426" />
    <path
       id="path1011"
       d="m 20.394837,4.771272 c -0.05914,-0.075405 -0.05745,-0.077087 0.01795,-0.01795 0.07919,0.062108 0.104379,0.1011495 0.06525,0.1011495 -0.0099,0 -0.04731,-0.03744 -0.0832,-0.0832 z"
       style="fill:var(--local-primary);fill-opacity:1;stroke-width:0.0475426" />
    <path
       id="path1009"
       d="M 8.8757203,32.073824 C 8.370873,31.865775 8.0158196,31.390684 7.8970163,30.764238 7.8665425,30.603551 7.8496539,27.092303 7.8496539,20.917381 v -9.597116 h 0.8557669 0.8557669 v 9.579834 9.579833 h 7.8683013 7.868301 v -9.579833 -9.579834 h 0.856322 0.856322 l -0.01244,9.829432 -0.01244,9.829433 -0.124553,0.265595 c -0.163963,0.349635 -0.414432,0.592646 -0.798315,0.774545 l -0.313239,0.148424 -8.296185,0.01104 -8.2961844,0.01104 z m 3.9421357,-4.266809 c -0.238708,-0.08463 -0.39109,-0.217804 -0.495117,-0.432694 -0.09907,-0.204651 -0.09917,-0.211256 -0.09917,-6.822031 v -6.617182 h 0.855766 0.855767 v 6.617182 c 0,6.516864 -0.0014,6.620156 -0.09495,6.813322 -0.104492,0.215851 -0.271088,0.358478 -0.518313,0.443742 -0.192267,0.06631 -0.311931,0.06575 -0.503989,-0.0023 z m 4.333755,-0.01127 c -0.221408,-0.07894 -0.381125,-0.22229 -0.480125,-0.430919 -0.06586,-0.138797 -0.07399,-0.885066 -0.07399,-6.792821 v -6.636893 h 0.855767 0.855767 l -2.85e-4,6.548993 c -1.9e-4,4.63149 -0.01564,6.60436 -0.05276,6.738091 -0.06728,0.242349 -0.347521,0.522588 -0.589869,0.589869 -0.237175,0.06584 -0.288654,0.06421 -0.514519,-0.01632 z m 4.37392,0.0021 c -0.236578,-0.08713 -0.402405,-0.242509 -0.511803,-0.479542 -0.08398,-0.181958 -0.08781,-0.47505 -0.08881,-6.786706 l -0.001,-6.596534 h 0.855767 0.855767 v 6.64482 c 0,6.378423 -0.0035,6.651461 -0.08812,6.810477 -0.188766,0.354869 -0.657293,0.541722 -1.021755,0.407487 z M 5.2556891,9.3353615 C 5.3440378,8.7054725 5.6315534,8.2973873 6.1758067,8.0293934 l 0.3167445,-0.1559668 2.8609675,-0.013301 2.8609673,-0.013301 0.02197,-1.2703492 c 0.02431,-1.4057444 0.0484,-1.5552201 0.354238,-2.1974303 0.306112,-0.6427929 1.031984,-1.257015 1.800841,-1.523845 0.64373,-0.2234045 0.80248,-0.2352501 3.148036,-0.2348981 2.057869,3.091e-4 2.24851,0.00729 2.617731,0.095798 1.010575,0.2422625 1.775497,0.9078884 2.172321,1.8903273 0.253032,0.6264422 0.274128,0.7728783 0.294093,2.0413809 l 0.01887,1.1990548 2.908394,0.013282 2.908394,0.013281 0.248009,0.1307379 c 0.297816,0.1569923 0.549009,0.3987716 0.678976,0.6535277 0.09955,0.19514 0.237809,0.6709359 0.237809,0.8184002 0,0.081546 -0.509044,0.085096 -12.200076,0.085096 H 5.2240143 Z M 20.923306,6.8393751 C 20.922926,6.1486135 20.902659,5.7539139 20.859243,5.5913819 20.715278,5.0524367 20.429048,4.691757 19.97713,4.4798271 L 19.711534,4.3552743 h -2.234503 -2.234502 l -0.284905,0.1147026 c -0.369252,0.1486607 -0.779952,0.5501073 -0.904061,0.883692 -0.07461,0.2005309 -0.09138,0.4143285 -0.107219,1.3668497 l -0.01878,1.1291367 h 3.498153 3.498152 l -5.66e-4,-1.0102802 z"
       style="fill:var(--local-primary);fill-opacity:1;stroke-width:0.0475426" />
  </g>
</svg>
