<?xml version="1.0" encoding="UTF-8" standalone="no"?>
<svg
   xmlns:dc="http://purl.org/dc/elements/1.1/"
   xmlns:cc="http://creativecommons.org/ns#"
   xmlns:rdf="http://www.w3.org/1999/02/22-rdf-syntax-ns#"
   xmlns:svg="http://www.w3.org/2000/svg"
   xmlns="http://www.w3.org/2000/svg"
   xmlns:sodipodi="http://sodipodi.sourceforge.net/DTD/sodipodi-0.dtd"
   xmlns:inkscape="http://www.inkscape.org/namespaces/inkscape"
   version="1.1"
   id="svg4362"
   viewBox="0 0 36.040812 35.999999"
   height="36"
   width="36.040813"
   sodipodi:docname="ico36_uc_find_people.svg"
   inkscape:version="0.92.2 (5c3e80d, 2017-08-06)">
  <sodipodi:namedview
     pagecolor="#ffffff"
     bordercolor="#666666"
     borderopacity="1"
     objecttolerance="10"
     gridtolerance="10"
     guidetolerance="10"
     inkscape:pageopacity="0"
     inkscape:pageshadow="2"
     inkscape:window-width="1768"
     inkscape:window-height="939"
     id="namedview38"
     showgrid="false"
     inkscape:zoom="13.111111"
     inkscape:cx="15.486678"
     inkscape:cy="15.634438"
     inkscape:window-x="2948"
     inkscape:window-y="188"
     inkscape:window-maximized="0"
     inkscape:current-layer="svg4362" />
  <defs
     id="defs4364">
    <clipPath
       id="clipPath708"
       clipPathUnits="userSpaceOnUse">
      <path
         id="path710"
         d="m 0,0 1440,0 0,900 L 0,900 0,0 Z" />
    </clipPath>
    <clipPath
       id="clipPath720"
       clipPathUnits="userSpaceOnUse">
      <path
         id="path722"
         d="m 944.383,652.172 c 0,-34.969 28.357,-63.328 63.335,-63.328 l 0,0 c 34.979,0 63.335,28.359 63.335,63.328 l 0,0 c 0,34.984 -28.356,63.343 -63.335,63.343 l 0,0 c -34.978,0 -63.335,-28.359 -63.335,-63.343" />
    </clipPath>
    <clipPath
       id="clipPath732"
       clipPathUnits="userSpaceOnUse">
      <path
         id="path734"
         d="m 0,0 1440,0 0,900 L 0,900 0,0 Z" />
    </clipPath>
    <clipPath
       id="clipPath212"
       clipPathUnits="userSpaceOnUse">
      <path
         id="path214"
         d="m 606.85,488 c 0,-9.942 8.059,-18 18,-18 l 0,0 c 9.942,0 18,8.058 18,18 l 0,0 c 0,9.941 -8.058,18 -18,18 l 0,0 c -9.941,0 -18,-8.059 -18,-18" />
    </clipPath>
    <clipPath
       id="clipPath708-2"
       clipPathUnits="userSpaceOnUse">
      <path
         id="path710-7"
         d="m 0,0 1440,0 0,900 L 0,900 0,0 Z" />
    </clipPath>
    <clipPath
       id="clipPath720-7"
       clipPathUnits="userSpaceOnUse">
      <path
         id="path722-4"
         d="m 944.383,652.172 c 0,-34.969 28.357,-63.328 63.335,-63.328 l 0,0 c 34.979,0 63.335,28.359 63.335,63.328 l 0,0 c 0,34.984 -28.356,63.343 -63.335,63.343 l 0,0 c -34.978,0 -63.335,-28.359 -63.335,-63.343" />
    </clipPath>
    <clipPath
       id="clipPath732-4"
       clipPathUnits="userSpaceOnUse">
      <path
         id="path734-6"
         d="m 0,0 1440,0 0,900 L 0,900 0,0 Z" />
    </clipPath>
    <clipPath
       id="clipPath212-8"
       clipPathUnits="userSpaceOnUse">
      <path
         id="path214-5"
         d="m 606.85,488 c 0,-9.942 8.059,-18 18,-18 l 0,0 c 9.942,0 18,8.058 18,18 l 0,0 c 0,9.941 -8.058,18 -18,18 l 0,0 c -9.941,0 -18,-8.059 -18,-18" />
    </clipPath>
    <clipPath
       id="clipPath212-8-8"
       clipPathUnits="userSpaceOnUse">
      <path
         id="path214-5-1"
         d="m 606.85,488 c 0,-9.942 8.059,-18 18,-18 l 0,0 c 9.942,0 18,8.058 18,18 l 0,0 c 0,9.941 -8.058,18 -18,18 l 0,0 c -9.941,0 -18,-8.059 -18,-18" />
    </clipPath>
    <clipPath
       id="clipPath212-8-8-5"
       clipPathUnits="userSpaceOnUse">
      <path
         id="path214-5-1-7"
         d="m 606.85,488 c 0,-9.942 8.059,-18 18,-18 l 0,0 c 9.942,0 18,8.058 18,18 l 0,0 c 0,9.941 -8.058,18 -18,18 l 0,0 c -9.941,0 -18,-8.059 -18,-18" />
    </clipPath>
  </defs>
  <metadata
     id="metadata4367">
    <rdf:RDF>
      <cc:Work
         rdf:about="">
        <dc:format>image/svg+xml</dc:format>
        <dc:type
           rdf:resource="http://purl.org/dc/dcmitype/StillImage" />
        <dc:title />
      </cc:Work>
    </rdf:RDF>
  </metadata>
  <path
     inkscape:connector-curvature="0"
     id="path218"
     style="fill:var(--local-primary);fill-opacity:1;fill-rule:nonzero;stroke:none;stroke-width:1.32407856;stroke-opacity:1"
     d="m 25.874589,22.1529 -3.815995,-1.790154 v -3.108937 c 0.744134,-0.689844 1.271115,-2.009951 1.582274,-3.957671 0.123144,0 0.279381,-0.03045 0.464752,-0.09401 0.683225,-0.312483 1.085744,-0.909642 1.210207,-1.790154 V 10.752582 C 25.253597,9.4337984 24.911984,8.837964 24.292315,8.9624275 24.47901,7.5827373 24.571695,6.4188728 24.571695,5.4774519 24.509464,4.8498394 24.322769,4.190448 24.012935,3.4979547 22.770948,1.3013085 20.786155,0.2009992 18.057228,0.2009992 c -1.117522,0 -2.203265,0.25157494 -3.257232,0.75340071 -2.110581,1.06853209 -3.22678,2.57665669 -3.351244,4.52305199 -0.06223,0.4395951 0.03045,1.6008121 0.27938,3.4849756 -0.12446,0 -0.248926,0.033095 -0.372065,0.095343 -0.620993,0.2515747 -0.838142,1.0354285 -0.651447,2.3542115 0,0.127108 0.03045,0.283353 0.09268,0.471373 0.434298,1.068531 0.961282,1.539903 1.582274,1.412791 0.124461,1.0063 0.372067,1.917266 0.745457,2.732897 l 0.836817,1.224774 v 3.108936 l -4.0013692,1.884163 c -0.311159,0.127108 -0.745456,0.315133 -1.3028945,0.565382 -3.6624007,1.382338 -5.73988,2.513101 -6.2364095,3.392291 -0.2476026,0.376038 -0.4342978,1.25655 -0.5574371,2.637563 L 1.7623244,35.799001 H 34.149288 c 0.247603,-5.714723 0.162332,-8.652995 -0.457343,-9.594415 -0.185372,-0.25025 -0.496529,-0.565382 -0.930827,-0.942744 -0.620994,-0.438271 -2.854715,-1.44457 -6.699838,-3.014928 -0.06357,0 -0.12579,-0.03045 -0.186695,-0.09401"
     sodipodi:nodetypes="ccccccccccscccccccccccccccccccc" />
</svg>
