<?xml version="1.0" encoding="UTF-8" standalone="no"?>
<svg xmlns:dc="http://purl.org/dc/elements/1.1/" 
	xmlns:cc="http://creativecommons.org/ns#" 
	xmlns:rdf="http://www.w3.org/1999/02/22-rdf-syntax-ns#" 
	xmlns:svg="http://www.w3.org/2000/svg" 
	xmlns="http://www.w3.org/2000/svg" width="36px" height="36px" viewBox="0 0 36 36" id="detail_rent" version="1.1">
	<metadata id="metadata4367">
		<rdf:RDF>
			<cc:Work rdf:about="">
				<dc:format>image/svg+xml</dc:format>
				<dc:type rdf:resource="http://purl.org/dc/dcmitype/StillImage" />
				<dc:title></dc:title>
			</cc:Work>
		</rdf:RDF>
	</metadata>
	<ellipse style="fill:var(--local-primary);fill-opacity:1;stroke:none;stroke-width:1.2324363" id="path818" cx="6.5900059" cy="21.947241" rx="6.5502419" ry="2.2166221" />
	<path style="fill:var(--local-primary);fill-opacity:1;stroke:none" d="m 13.115337,24.402774 c 0,1.224207 -0.02679,3.069798 -6.5502408,3.061955 -6.52341756,-0.0079 -6.55024153,-1.837748 -6.5502419,-3.061955 3.7e-7,-1.224208 -0.0047692,1.423113 6.5502419,1.407181 6.5541188,-0.01592 6.5502408,-2.631389 6.5502408,-1.407181 z" id="path818-0" />
	<path style="fill:var(--local-primary);fill-opacity:1;stroke:none" d="m 13.115337,27.704575 c 0,1.224208 -0.02679,3.0698 -6.5502408,3.061956 -6.52341793,-0.0079 -6.55024178,-1.837748 -6.55024214,-3.061956 3.6e-7,-1.224206 -0.0047692,1.423114 6.55024214,1.407183 6.5541188,-0.01592 6.5502408,-2.631389 6.5502408,-1.407183 z" id="path818-0-0" />
	<path style="fill:var(--local-primary);fill-opacity:1;stroke:none" d="m 13.115337,30.759891 c 0,1.224208 -0.02679,3.069799 -6.5502408,3.061956 -6.52341693,-0.0079 -6.55024078,-1.837748 -6.55024116,-3.061956 3.8e-7,-1.224206 -0.0047692,1.423114 6.55024116,1.407182 6.5541188,-0.01592 6.5502408,-2.631388 6.5502408,-1.407182 z" id="path818-0-3" />
	<path style="fill:var(--local-primary);fill-opacity:1;stroke:none" d="M 9.8242899,0.8386073 2.7462076,13.098206 26.596248,26.868034 33.67433,14.608434 Z M 12.004681,4.2015244 29.644664,14.385972 a 1.7154532,1.7154532 0 0 0 0.628198,2.34446 l -3.523998,6.103743 a 1.7154532,1.7154532 0 0 0 -2.343257,0.626111 L 6.7656248,13.275838 A 1.7154532,1.7154532 0 0 0 6.1362245,10.933462 L 9.6602218,4.8297205 A 1.7154532,1.7154532 0 0 0 12.004681,4.2015244 Z m 7.91507,6.6932916 a 1.9616955,3.4154519 30 0 0 -3.406796,1.97717 1.9616955,3.4154519 30 0 0 -0.0088,3.938958 1.9616955,3.4154519 30 0 0 3.406797,-1.97717 1.9616955,3.4154519 30 0 0 0.0088,-3.938958 z" id="rect875-4" />
	<path style="fill:var(--local-primary);fill-opacity:1;stroke:none" d="m 14.739612,23.354219 v -2.098178 l 12.602494,7.243684 6.066677,-10.56308 1.609943,0.851291 -7.078083,12.259599 z" id="rect937" />
	<path style="fill:var(--local-primary);fill-opacity:1;stroke:none" d="m 14.739612,26.876178 v -1.967043 l 13.58377,7.702661 6.066675,-10.56308 L 36,22.900007 28.921917,35.159606 Z" id="rect937-4" />
	<path style="fill:var(--local-primary);fill-opacity:1;stroke:none" d="M 3.6804695,15.18007 8.9259129,18.108775 5.9097828,18.502183 2.675093,16.66628 Z" id="rect957" />
</svg>