<?xml version="1.0" encoding="UTF-8" standalone="no"?>
<svg 
	xmlns:dc="http://purl.org/dc/elements/1.1/" 
	xmlns:cc="http://creativecommons.org/ns#" 
	xmlns:rdf="http://www.w3.org/1999/02/22-rdf-syntax-ns#" 
	xmlns:svg="http://www.w3.org/2000/svg" 
	xmlns="http://www.w3.org/2000/svg" version="1.1" id="detail_weight" width="36px" height="36px" viewBox="0 0 36 36">
	<metadata id="metadata29">
		<rdf:RDF>
			<cc:Work rdf:about="">
				<dc:format>image/svg+xml</dc:format>
				<dc:type rdf:resource="http://purl.org/dc/dcmitype/StillImage" />
				<dc:title></dc:title>
			</cc:Work>
		</rdf:RDF>
	</metadata>
	<path style="fill:var(--local-primary);fill-opacity:1;stroke:none" id="rect835" d="m 10.155802,7.9070483 h 15.65651 c 0.891735,0 1.392449,0.6409431 1.60963,1.3656937 l 7.597835,25.354533 c 0.21718,0.724749 -0.717897,1.365693 -1.60963,1.365693 H 2.5579694 c -0.8917376,0 -1.82681527,-0.640942 -1.60963358,-1.365693 L 8.5461699,9.272742 C 8.7633503,8.5479933 9.2640659,7.9070483 10.155802,7.9070483 Z" />
	<path style="fill:var(--local-primary);fill-opacity:1;stroke:none" id="path833" d="M 17.598186,10.703604 C 20.517923,10.918841 23.074779,8.6797839 23.286383,5.7529303 23.497987,2.8260768 21.290279,0.23578665 18.370542,0.02055004 15.450804,-0.19468665 12.892,2.0442268 12.680396,4.9710803 c -0.211604,2.9268535 1.998051,5.5172877 4.91779,5.7325237 z M 17.795782,7.9705034 C 16.367126,7.8651861 15.307369,6.6365878 15.413216,5.1725377 c 0.105847,-1.46405 1.331075,-2.5242041 2.75973,-2.4188869 1.428654,0.1053173 2.486465,1.3337721 2.380618,2.7978221 -0.105847,1.4640501 -1.329128,2.5243478 -2.757782,2.4190305 z" />
</svg>