<?xml version="1.0" encoding="UTF-8" standalone="no"?>
<svg 
	xmlns:dc="http://purl.org/dc/elements/1.1/" 
	xmlns:cc="http://creativecommons.org/ns#" 
	xmlns:rdf="http://www.w3.org/1999/02/22-rdf-syntax-ns#" 
	xmlns:svg="http://www.w3.org/2000/svg" 
	xmlns="http://www.w3.org/2000/svg" viewBox="0 0 36 36" height="36px" width="36px" id="Layerdetail_travelaction" version="1.1">
	<metadata id="metadata29">
		<rdf:RDF>
			<cc:Work rdf:about="">
				<dc:format>image/svg+xml</dc:format>
				<dc:type rdf:resource="http://purl.org/dc/dcmitype/StillImage" />
				<dc:title></dc:title>
			</cc:Work>
		</rdf:RDF>
	</metadata>
	<path style="fill:var(--local-primary);fill-opacity:1;stroke:none;" d="m 9.3981695,6.6072481 c -1.950621,-0.03717 -3.788627,1.45186 -4.196617,3.390339 -0.381593,1.7054029 0.317964,3.4145229 1.111796,4.8856279 0.85159,1.529904 1.909933,2.936416 3.084821,4.223429 1.5425145,-1.71276 2.9468595,-3.609136 3.8125175,-5.773647 0.53733,-1.336143 0.731748,-2.913987 0.07052,-4.2447899 -0.692811,-1.494365 -2.256135,-2.499318 -3.8830375,-2.480959 z m -0.0165,2.697624 c 0.150097,-0.0011 0.30032,0.01578 0.45012,0.05188 1.2114255,0.216179 2.0237075,1.6133799 1.6234325,2.7968009 -0.263347,0.898017 -1.134472,1.551721 -2.0570485,1.538012 -1.23215,0.03815 -2.305654,-1.171118 -2.14257,-2.413824 0.07807,-1.092594 1.07539,-1.9652109 2.126066,-1.9728649 z" id="path5" />
	<path style="fill:var(--local-primary);fill-opacity:1;stroke:none;" d="m 28.600806,16.485291 c -1.950621,-0.03717 -3.788627,1.45186 -4.196617,3.390339 -0.381593,1.705403 0.317964,3.414523 1.111796,4.885628 0.85159,1.529903 1.909933,2.936415 3.084821,4.223428 1.542514,-1.71276 2.946859,-3.609135 3.812517,-5.773646 0.53733,-1.336143 0.731748,-2.913987 0.07052,-4.24479 -0.692811,-1.494365 -2.256135,-2.499318 -3.883037,-2.480959 z m -0.0165,2.697624 c 0.150097,-0.0011 0.30032,0.01578 0.45012,0.05188 1.211425,0.216179 2.023707,1.61338 1.623432,2.796801 -0.263347,0.898017 -1.134472,1.551721 -2.057048,1.538012 -1.23215,0.03815 -2.305654,-1.171118 -2.14257,-2.413824 0.07807,-1.092594 1.07539,-1.965211 2.126066,-1.972865 z" id="path5-7" />
	<path id="path848" d="m 9.2633398,19.699895 c 4.4838822,0.05622 15.2076332,2.186869 6.7146112,4.741328 -21.0193249,4.868324 1.239376,5.557958 12.676787,5.16368" style="fill:none;stroke:var(--local-primary);stroke-width:1px;stroke-linecap:butt;stroke-linejoin:miter;stroke-opacity:1" />
</svg>