<?xml version="1.0" encoding="UTF-8" standalone="no"?>
<svg
   xmlns:dc="http://purl.org/dc/elements/1.1/"
   xmlns:cc="http://creativecommons.org/ns#"
   xmlns:rdf="http://www.w3.org/1999/02/22-rdf-syntax-ns#"
   xmlns:svg="http://www.w3.org/2000/svg"
   xmlns="http://www.w3.org/2000/svg"
   xmlns:sodipodi="http://sodipodi.sourceforge.net/DTD/sodipodi-0.dtd"
   xmlns:inkscape="http://www.inkscape.org/namespaces/inkscape"
   version="1.1"
   id="svg4362"
   viewBox="0 0 36.040812 35.999999"
   height="36"
   width="36.040813"
   sodipodi:docname="ico36_person_anon.svg"
   inkscape:version="0.92.2 (5c3e80d, 2017-08-06)">
  <sodipodi:namedview
     pagecolor="#ffffff"
     bordercolor="#666666"
     borderopacity="1"
     objecttolerance="10"
     gridtolerance="10"
     guidetolerance="10"
     inkscape:pageopacity="0"
     inkscape:pageshadow="2"
     inkscape:window-width="2173"
     inkscape:window-height="1368"
     id="namedview38"
     showgrid="false"
     inkscape:object-nodes="false"
     inkscape:snap-others="false"
     inkscape:snap-global="false"
     inkscape:zoom="26.222222"
     inkscape:cx="25.547909"
     inkscape:cy="18.748189"
     inkscape:window-x="2729"
     inkscape:window-y="0"
     inkscape:window-maximized="0"
     inkscape:current-layer="svg4362" />
  <defs
     id="defs4364" />
  <metadata
     id="metadata4367">
    <rdf:RDF>
      <cc:Work
         rdf:about="">
        <dc:format>image/svg+xml</dc:format>
        <dc:type
           rdf:resource="http://purl.org/dc/dcmitype/StillImage" />
        <dc:title />
      </cc:Work>
    </rdf:RDF>
  </metadata>
  <path
     style="fill-opacity:1;fill-rule:nonzero;stroke:none;stroke-width:0.99576271;fill:var(--local-primary)"
     d="M 17.998047 0.43359375 C 8.3889364 0.43359375 0.57226562 8.2512602 0.57226562 17.859375 C 0.57226562 22.745234 2.5991789 27.160767 5.8496094 30.328125 C 5.9418912 29.419682 6.0718989 28.796743 6.2441406 28.535156 C 6.6175516 27.873969 8.1793137 27.023951 10.933594 25.984375 C 11.352811 25.796176 11.680059 25.656137 11.914062 25.560547 L 14.921875 24.142578 L 14.921875 21.804688 L 14.292969 20.882812 C 14.012164 20.269424 13.826022 19.584905 13.732422 18.828125 C 13.26541 18.923718 12.869579 18.569206 12.542969 17.765625 C 12.496169 17.624227 12.472656 17.507699 12.472656 17.412109 C 12.360356 16.618843 12.452142 16.094275 12.728516 15.814453 C 10.333109 15.502787 8.7578125 14.987643 8.7578125 14.402344 C 8.7578125 13.853186 10.138278 13.364571 12.287109 13.048828 C 13.897506 13.698586 15.94161 14.085938 18.166016 14.085938 C 20.353932 14.085938 22.366937 13.710717 23.964844 13.080078 C 25.993209 13.396352 27.283203 13.871277 27.283203 14.402344 C 27.283203 14.996626 25.6668 15.520067 23.208984 15.830078 C 23.347655 16.050513 23.436598 16.40022 23.460938 16.916016 L 23.460938 17.412109 C 23.367335 18.074291 23.064595 18.522813 22.550781 18.757812 C 22.411374 18.805612 22.293782 18.828125 22.201172 18.828125 C 21.967168 20.292892 21.571338 21.285895 21.011719 21.804688 L 21.011719 24.142578 L 23.880859 25.488281 C 23.926662 25.536081 23.973684 25.560547 24.021484 25.560547 C 26.913178 26.741522 28.593534 27.496574 29.060547 27.826172 C 29.387157 28.109964 29.620359 28.346957 29.759766 28.535156 C 29.863399 28.692597 29.948115 29.430937 30.019531 30.441406 C 33.341518 27.266369 35.423828 22.806255 35.423828 17.859375 C 35.423828 8.2512602 27.607157 0.43359375 17.998047 0.43359375 z M 14.947266 8.0019531 C 15.045946 8.0019531 15.141268 8.006391 15.234375 8.015625 L 15.234375 8.0019531 C 16.472388 8.2521206 17.400524 8.3769531 18.019531 8.3769531 C 18.545801 8.3769531 19.319861 8.2862939 20.339844 8.1054688 C 20.492984 8.0594256 20.665571 8.0271158 20.849609 8.0117188 C 20.867179 8.0083686 20.884644 8.0053551 20.902344 8.0019531 L 20.902344 8.0078125 C 20.965184 8.0037225 21.028615 8.0019531 21.09375 8.0019531 C 21.889477 8.0019531 22.535156 8.3164924 22.535156 8.7050781 C 22.535156 8.7532691 22.524779 8.8002348 22.505859 8.8457031 L 22.535156 8.8457031 L 22.822266 12.689453 C 21.962282 12.982979 21.323063 13.172181 20.902344 13.253906 C 19.783888 13.471168 18.701812 13.488281 18.019531 13.488281 C 17.357824 13.488281 16.306347 13.458259 15.234375 13.253906 C 14.796383 13.170406 14.123544 12.981208 13.216797 12.689453 L 13.505859 8.7988281 L 13.519531 8.7988281 C 13.511131 8.7681381 13.505859 8.7368861 13.505859 8.7050781 C 13.505859 8.3164924 14.151539 8.0019531 14.947266 8.0019531 z M 13.1875 15.867188 L 13.365234 16.804688 C 13.499694 17.511078 14.095677 18.023438 14.78125 18.023438 L 16.064453 18.023438 C 16.750006 18.023437 17.344056 17.868519 17.478516 17.162109 L 17.693359 16.388672 C 17.903474 16.298412 18.135569 16.298412 18.345703 16.388672 L 18.5625 17.162109 C 18.69696 17.868499 19.290989 18.023438 19.976562 18.023438 L 21.259766 18.023438 C 21.945319 18.023437 22.539368 17.511098 22.673828 16.804688 L 22.851562 15.867188 C 21.441532 16.028698 19.79658 16.126953 18.019531 16.126953 C 16.241697 16.126953 14.597932 16.02883 13.1875 15.867188 z "
     id="path206" />
  <g
     id="g228"
     transform="matrix(0.99576271,0,0,-0.99576271,18.042141,35.498603)">
    <path
       d="M 0,0 C 9.65,0 17.5,7.851 17.5,17.5 17.5,27.149 9.65,35 0,35 -9.65,35 -17.5,27.149 -17.5,17.5 -17.5,7.851 -9.65,0 0,0 Z"
       style="fill:none;stroke-width:1;stroke-linecap:butt;stroke-linejoin:miter;stroke-miterlimit:4;stroke-dasharray:none;stroke-opacity:1"
       id="path230"
       inkscape:connector-curvature="0" />
  </g>
  <g
     id="g19"
     transform="translate(0.02040672)">
    <g
       id="g21">
      <path
         style="fill:none;stroke-width:2"
         id="path23"
         d="M 18,35 C 27.373,35 35,27.374 35,18 35,8.626 27.373,1 18,1 8.626,1 1,8.626 1,18 1,27.374 8.626,35 18,35 Z"
         inkscape:connector-curvature="0" />
    </g>
  </g>
</svg>
