<?xml version="1.0" encoding="utf-8"?>
<!-- Generator: Adobe Illustrator 15.0.0, SVG Export Plug-In . SVG Version: 6.00 Build 0)  -->
<!DOCTYPE svg PUBLIC "-//W3C//DTD SVG 1.1//EN" "http://www.w3.org/Graphics/SVG/1.1/DTD/svg11.dtd">
<svg version="1.1" id="Layer_1" xmlns="http://www.w3.org/2000/svg" xmlns:xlink="http://www.w3.org/1999/xlink" x="0px" y="0px"
	 width="36px" height="36px" viewBox="0 0 36 36" enable-background="new 0 0 36 36" xml:space="preserve">
<g>
	<path fill="#FFFFFF" d="M18,35c9.373,0,17-7.626,17-17S27.373,1,18,1C8.626,1,1,8.626,1,18S8.626,35,18,35L18,35z"/>
	<g>
		<g>
			<defs>
				<path id="SVGID_1_" d="M18,36c9.941,0,18-8.059,18-18c0-9.941-8.059-18-18-18C8.059,0,0,8.059,0,18C0,27.941,8.059,36,18,36
					L18,36z"/>
			</defs>
			<clipPath id="SVGID_2_">
				<use xlink:href="#SVGID_1_"  overflow="visible"/>
			</clipPath>
			<path clip-path="url(#SVGID_2_)" fill="var(--local-primary)" d="M12.681,23.318c-0.775-0.774-1.521-1.582-2.24-2.412
				c-0.93,1.305-0.813,3.125,0.357,4.296c1.17,1.17,2.991,1.286,4.296,0.356C14.265,24.841,13.456,24.094,12.681,23.318
				L12.681,23.318z M25.008,10.985c0.002,0.001,0.002,0.003,0.004,0.004c0,0.001,0.002,0.002,0.002,0.003L25.008,10.985
				L25.008,10.985z M19.053,26.548c0.807,0,1.461-0.653,1.463-1.462c0.002-1.344,0.517-2.686,1.541-3.711l2.949-2.95
				c2.055-2.054,2.057-5.382,0.006-7.436c-2.055-2.05-5.383-2.049-7.436,0.005l-2.951,2.95c-1.025,1.025-2.367,1.538-3.71,1.541
				c-0.808,0.001-1.462,0.655-1.462,1.463c0,0.336,0.113,0.646,0.304,0.893c1.191,1.558,2.5,3.056,3.924,4.479
				c1.425,1.425,2.922,2.731,4.48,3.924C18.407,26.436,18.716,26.548,19.053,26.548L19.053,26.548z"/>
		</g>
	</g>
	<g>
		<g>
			<path fill="none" stroke="var(--local-primary)" stroke-width="2" d="M18,35c9.373,0,17-7.626,17-17S27.373,1,18,1C8.626,1,1,8.626,1,18
				S8.626,35,18,35L18,35z"/>
		</g>
	</g>
</g>
</svg>
