<?xml version="1.0" encoding="utf-8"?>
<!-- Generator: Adobe Illustrator 15.0.0, SVG Export Plug-In . SVG Version: 6.00 Build 0)  -->
<!DOCTYPE svg PUBLIC "-//W3C//DTD SVG 1.1//EN" "http://www.w3.org/Graphics/SVG/1.1/DTD/svg11.dtd">
<svg version="1.1" id="Layer_1" xmlns="http://www.w3.org/2000/svg" xmlns:xlink="http://www.w3.org/1999/xlink" x="0px" y="0px"
	 width="36px" height="36px" viewBox="0 0 36 36" enable-background="new 0 0 36 36" xml:space="preserve">
<g>
	<path d="M18,36c9.941,0,18-8.059,18-18c0-9.941-8.059-18-18-18C8.059,0,0,8.059,0,18C0,27.941,8.059,36,18,36L18,36z"/>
	<polyline fill="none" stroke="#FFFFFF" stroke-width="1.5" stroke-linejoin="round" stroke-miterlimit="10" points="26.381,12.566 
		21.928,23.436 18.083,12.609 14.237,23.436 9.785,12.566 	"/>
	<path fill="#FFFFFF" d="M11.564,13.15c0,0.846-0.687,1.532-1.532,1.532c-0.845,0-1.532-0.686-1.532-1.532
		c0-0.846,0.687-1.532,1.532-1.532C10.877,11.618,11.564,12.304,11.564,13.15L11.564,13.15z"/>
	<path fill="none" stroke="#FFFFFF" stroke-miterlimit="10" d="M11.564,13.15c0,0.846-0.687,1.532-1.532,1.532
		c-0.845,0-1.532-0.686-1.532-1.532c0-0.846,0.687-1.532,1.532-1.532C10.877,11.618,11.564,12.304,11.564,13.15L11.564,13.15z"/>
	<path fill="#FFFFFF" d="M15.583,22.852c0,0.846-0.687,1.531-1.532,1.531c-0.845,0-1.531-0.688-1.531-1.531
		c0-0.848,0.686-1.533,1.531-1.533C14.896,21.318,15.583,22.004,15.583,22.852L15.583,22.852z"/>
	<path fill="none" stroke="#FFFFFF" stroke-miterlimit="10" d="M15.583,22.852c0,0.846-0.687,1.531-1.532,1.531
		c-0.845,0-1.531-0.688-1.531-1.531c0-0.848,0.686-1.533,1.531-1.533C14.896,21.318,15.583,22.004,15.583,22.852L15.583,22.852z"/>
	<path fill="#FFFFFF" d="M19.615,13.194c0,0.846-0.688,1.532-1.532,1.532c-0.845,0-1.532-0.686-1.532-1.532
		c0-0.846,0.687-1.532,1.532-1.532C18.928,11.662,19.615,12.348,19.615,13.194L19.615,13.194z"/>
	<path fill="none" stroke="#FFFFFF" stroke-miterlimit="10" d="M19.615,13.194c0,0.846-0.688,1.532-1.532,1.532
		c-0.845,0-1.532-0.686-1.532-1.532c0-0.846,0.687-1.532,1.532-1.532C18.928,11.662,19.615,12.348,19.615,13.194L19.615,13.194z"/>
	<path fill="#FFFFFF" d="M23.645,22.852c0,0.846-0.686,1.531-1.531,1.531c-0.844,0-1.53-0.688-1.53-1.531
		c0-0.848,0.687-1.533,1.53-1.533C22.959,21.318,23.645,22.004,23.645,22.852L23.645,22.852z"/>
	<path fill="none" stroke="#FFFFFF" stroke-miterlimit="10" d="M23.645,22.852c0,0.846-0.686,1.531-1.531,1.531
		c-0.844,0-1.53-0.688-1.53-1.531c0-0.848,0.687-1.533,1.53-1.533C22.959,21.318,23.645,22.004,23.645,22.852L23.645,22.852z"/>
	<path fill="#FFFFFF" d="M27.5,13.15c0,0.846-0.686,1.532-1.531,1.532c-0.845,0-1.533-0.686-1.533-1.532
		c0-0.846,0.688-1.532,1.533-1.532C26.814,11.618,27.5,12.304,27.5,13.15L27.5,13.15z"/>
	<path fill="none" stroke="#FFFFFF" stroke-miterlimit="10" d="M27.5,13.15c0,0.846-0.686,1.532-1.531,1.532
		c-0.845,0-1.533-0.686-1.533-1.532c0-0.846,0.688-1.532,1.533-1.532C26.814,11.618,27.5,12.304,27.5,13.15L27.5,13.15z"/>
</g>
</svg>
